<svg width="120" height="160" viewBox="0 0 120 160" fill="none" xmlns="http://www.w3.org/2000/svg">
<path d="M47.1453 152.362L21 150.94L27.7666 33.3001L28.9931 11.9757L29.2793 7H60H90.7207L92.0279 11.9757L93.0978 33.3001L99 150.94L73.2905 152.362C69.6592 115.281 61.9609 41.048 60.2179 40.7637C58.4749 40.4794 50.7765 115.044 47.1453 152.362Z" fill="#D4B888"/>
<path d="M60.2179 40.7637C58.4749 40.4794 50.7765 115.044 47.1453 152.362L21 150.94L27.7666 33.3001M60.2179 40.7637C61.9609 41.048 69.6592 115.281 73.2905 152.362L99 150.94L93.0978 33.3001M60.2179 40.7637L60 7M92.0279 11.9757L90.7207 7H60M92.0279 11.9757H87.6704M92.0279 11.9757L93.0978 33.3001M28.9931 11.9757L29.2793 7H60M28.9931 11.9757H33.2011M28.9931 11.9757L27.7666 33.3001M33.2011 11.9757C32.1926 19.4392 29.6938 34.1531 27.7666 33.3001M33.2011 11.9757H65.0112M87.6704 11.9757C88.5289 19.0838 90.8163 33.3001 93.0978 33.3001M87.6704 11.9757H65.0112M65.0112 11.9757V13.3973M65.0112 14.4635V15.8852M65.0112 16.596V18.0176M65.0112 18.7284V20.5055M65.0112 21.2163V23.3487M65.0112 24.4149V25.8366M65.0112 26.5474V27.969M65.0112 29.0352V30.4569M65.0112 31.5231C65.0112 31.8785 64.8369 32.6604 64.1397 32.9447M62.3966 8.77704C61.9609 8.65857 61.0894 8.70595 61.0894 9.84326C61.0894 10.9806 61.9609 11.0279 62.3966 10.9095C62.6871 11.0279 63.4425 11.0516 64.1397 10.1987C65.0112 9.13244 62.3966 8.42163 62.3966 8.77704Z" stroke="black"/>
<path d="M63.2676 33.3002L61.9603 34.011M61.0888 34.011H60.2173" stroke="black"/>
</svg>
