<svg width="120" height="160" viewBox="0 0 120 160" fill="none" xmlns="http://www.w3.org/2000/svg">
<path d="M56.2197 113L8 103.663C9.25483 82.4678 13.0302 66.8808 16.3774 57.337C17.599 53.8541 18.7635 51.176 19.7277 49.3239C19.9892 48.8217 20.2359 48.3803 20.465 48H99.1911C99.558 48.1607 99.9393 48.616 100.331 49.3239C101.202 50.899 102.124 53.7246 103.053 57.337C106.184 69.5158 109.394 90.6387 111 102.945L65.4045 113L60.4841 104.381L56.2197 113Z" fill="#212121"/>
<path d="M20.465 48C57.2038 60.3536 88.2569 53.1473 99.1911 48M20.465 48C44.8103 48 94.639 48 99.1911 48M20.465 48C20.2359 48.3803 19.9892 48.8217 19.7277 49.3239C18.7635 51.176 17.599 53.8541 16.3774 57.337M60.4841 104.381L56.2197 113L8 103.663C9.25483 82.4678 13.0302 66.8808 16.3774 57.337M60.4841 104.381L65.4045 113L111 102.945C109.394 90.6387 106.184 69.5158 103.053 57.337M60.4841 104.381V64.1602M99.1911 48C99.558 48.1607 99.9393 48.616 100.331 49.3239C101.202 50.899 102.124 53.7246 103.053 57.337M16.3774 57.337C23.6444 60.0902 42.6395 65.3094 60.4841 64.1602M60.4841 64.1602C69.8376 64.0405 91.4463 62.5083 103.053 57.337M57.8599 59.1326C56.0011 60.4494 52.6115 64.5193 53.9236 70.2652C53.5955 74.3352 52.2178 82.6188 49.3312 83.1934M64.4204 59.1326C66.1699 59.9705 69.472 63.3702 68.6847 70.2652C68.7941 73.7366 69.8 81.1823 72.949 83.1934" stroke="black" stroke-width="1.5"/>
<path d="M9 103L8.00345 102.917L7.92893 103.811L8.80998 103.982L9 103ZM55.5 112L55.31 112.982L56.055 113.126L56.3944 112.447L55.5 112ZM60.5 102L61.3762 101.518L60.4578 99.8483L59.6056 101.553L60.5 102ZM66 112L65.1238 112.482L65.4822 113.134L66.2094 112.978L66 112ZM110 102L110.191 102.982L111.121 102.801L110.99 101.862L110 102ZM99.9138 48.5939C99.6895 48.0892 99.0985 47.8619 98.5939 48.0862C98.0892 48.3105 97.8619 48.9015 98.0862 49.4061L99.9138 48.5939ZM20.0769 48.1154C12.5246 66.241 10.009 78.8508 8.00345 102.917L9.99655 103.083C11.991 79.1492 14.4754 66.759 21.9231 48.8846L20.0769 48.1154ZM8.80998 103.982L55.31 112.982L55.69 111.018L9.19002 102.018L8.80998 103.982ZM56.3944 112.447L61.3944 102.447L59.6056 101.553L54.6056 111.553L56.3944 112.447ZM59.6238 102.482L65.1238 112.482L66.8762 111.518L61.3762 101.518L59.6238 102.482ZM66.2094 112.978C75.1495 111.064 81.6646 109.435 88.1789 107.851C94.6913 106.268 101.213 104.727 110.191 102.982L109.809 101.018C100.787 102.773 94.2323 104.321 87.7065 105.908C81.1826 107.494 74.6978 109.115 65.7906 111.022L66.2094 112.978ZM110.99 101.862C109.489 91.1013 107.736 80.0808 105.856 70.6176C103.982 61.184 101.964 53.2077 99.9138 48.5939L98.0862 49.4061C100.036 53.7923 102.018 61.566 103.894 71.0074C105.764 80.4192 107.511 91.3987 109.01 102.138L110.99 101.862Z" fill="white"/>
</svg>
