<svg width="120" height="160" viewBox="0 0 120 160" fill="none" xmlns="http://www.w3.org/2000/svg">
<path d="M33.9206 41.079L34.7016 37C54.2916 38.9424 94.9164 43.1379 100.696 44.381L101.282 50.0138C105.434 54.1449 108.171 61.3163 109.904 69.826C113.208 86.0504 113.547 100.536 112.411 114.695C112.26 116.574 112.583 117.749 112.411 119.356C99.9148 126.349 74.8469 121.752 64.6288 118.191C64.8957 116.996 64.7805 115.715 64.6288 113.529C64.2477 108.038 63.3114 106.339 62.427 102.263L61.2555 113.529L61.2291 118.191C33.2694 120.056 13.5496 108.155 6 102.263C6.54928 100.675 6.63917 100.287 7.17149 98.7672C15.0805 76.1903 18.8464 66.9679 23.3406 57.2006C29.6404 43.5092 32.886 40.1968 33.9206 41.079Z" fill="#D4B888"/>
<path d="M34.7016 37L33.9206 41.079M34.7016 37C54.2916 38.9424 94.9164 43.1379 100.696 44.381M34.7016 37C34.8972 37.0621 35.0924 37.1238 35.2874 37.1851C35.4829 37.2466 35.6782 37.3076 35.8731 37.3683C36.1046 37.4404 36.3356 37.5118 36.5662 37.5827C36.7457 37.6379 36.9248 37.6927 37.1038 37.7472M33.9206 41.079C32.886 40.1968 29.6404 43.5092 23.3406 57.2006M33.9206 41.079C34.0912 41.1643 34.2664 41.2507 34.4462 41.338C34.6069 41.4161 34.7713 41.4949 34.9393 41.5744C35.0948 41.648 35.2534 41.7222 35.4151 41.7969M62.427 102.263C63.4835 101.541 64.298 95.1326 64.9061 86.7246M62.427 102.263L61.2555 113.529M62.427 102.263C63.3114 106.339 64.2477 108.038 64.6288 113.529M101.282 50.0138L100.696 44.381M101.282 50.0138C105.434 54.1449 108.171 61.3163 109.904 69.826M101.282 50.0138C101.086 50.0508 100.891 50.0871 100.696 50.1227C100.464 50.1649 100.233 50.2062 100.002 50.2465M100.696 44.381C100.476 44.4334 100.245 44.4852 100.002 44.5364C99.8016 44.5785 99.5933 44.6202 99.377 44.6612M66.332 50.4794C66.1817 60.0326 65.7364 75.243 64.9061 86.7246M66.332 50.4794C62.2631 49.8972 58.3991 49.1387 54.8123 48.2821M66.332 50.4794C67.639 50.6664 68.9671 50.8352 70.314 50.9832M76.6802 51.511C75.9899 65.6445 72.6688 92.474 64.9061 86.7246M76.6802 51.511C76.0917 51.4784 75.5059 51.4413 74.9229 51.4M76.6802 51.511C77.3278 51.547 77.9788 51.5777 78.6327 51.6028M7.17149 98.7672C6.63917 100.287 6.54928 100.675 6 102.263C13.5496 108.155 33.2694 120.056 61.2291 118.191L61.2555 113.529M7.17149 98.7672C16.4424 104.594 38.4314 115.705 61.2555 113.529M7.17149 98.7672C15.0805 76.1903 18.8464 66.9679 23.3406 57.2006M64.6288 113.529C64.7805 115.715 64.8957 116.996 64.6288 118.191C74.8469 121.752 99.9148 126.349 112.411 119.356C112.583 117.749 112.26 116.574 112.411 114.695M64.6288 113.529C75.7813 116.961 101.867 121.376 112.411 114.695M112.411 114.695C113.547 100.536 113.208 86.0504 109.904 69.826M23.3406 57.2006C30.577 59.9269 45.1279 61.4344 45.4403 45.654M45.4403 45.654C45.4189 45.647 45.3976 45.6401 45.3762 45.6332C44.8668 45.4676 44.3674 45.3013 43.8783 45.1347C43.3664 44.9603 42.8659 44.7856 42.3771 44.6109C42.041 44.4909 41.7106 44.3709 41.3858 44.251M45.4403 45.654C45.6981 45.7376 45.9585 45.8211 46.2213 45.9043M90.7381 51.511C90.889 58.393 94.9335 71.6906 109.904 69.826M35.4826 41.6617L35.4151 41.7969M35.4151 41.7969C35.7006 41.9289 35.9955 42.0626 36.2998 42.1978C36.4597 42.2688 36.6221 42.3402 36.787 42.412C36.9183 42.4691 37.0511 42.5265 37.1856 42.584C37.3024 42.6341 37.4204 42.6843 37.5397 42.7346M35.8731 42.0501L37.1038 37.7472M37.1038 37.7472C37.4418 37.8501 37.7789 37.9518 38.1151 38.0523C38.2791 38.1013 38.443 38.1501 38.6066 38.1986C38.789 38.2526 38.9712 38.3063 39.153 38.3597C39.4925 38.4592 39.8311 38.5576 40.1686 38.6547C40.3313 38.7015 40.4939 38.748 40.6562 38.7943C40.7959 38.8341 40.9354 38.8737 41.0747 38.9131M37.6303 42.6329L37.5397 42.7346M37.5397 42.7346C37.7285 42.8144 37.9203 42.8945 38.1151 42.975M39.5828 38.5539L38.1151 42.8271V42.975M38.1151 42.975C38.2614 43.0354 38.4094 43.0961 38.559 43.1569C38.7035 43.2157 38.8496 43.2745 38.9971 43.3336C39.5962 43.5733 40.2204 43.8154 40.8684 44.0585C41.0392 44.1226 41.2117 44.1868 41.3858 44.251M41.0747 38.9131L39.3876 43.4098M41.0747 38.9131C41.2477 38.962 41.4204 39.0106 41.5928 39.0589M41.5928 39.0589L39.7781 43.604M41.5928 39.0589C41.9654 39.1632 42.3367 39.266 42.7068 39.3673C42.8371 39.403 42.9673 39.4385 43.0973 39.4738M43.0973 39.4738L41.3858 44.251M43.0973 39.4738C43.3117 39.532 43.5257 39.5898 43.7393 39.647C43.9351 39.6995 44.1306 39.7516 44.3257 39.8033C44.5454 39.8614 44.7646 39.9191 44.9833 39.9762M44.9833 39.9762L42.9021 44.7695M44.9833 39.9762C45.3704 40.0773 45.756 40.1768 46.1402 40.2747C46.3382 40.3252 46.5359 40.3752 46.7332 40.4248C46.9277 40.4738 47.1219 40.5223 47.3156 40.5704C47.6985 40.6655 48.0799 40.7589 48.4598 40.8508M45.6356 40.1078L43.4878 44.9637M48.4598 40.8508L45.8308 45.654M48.4598 40.8508C48.651 40.8971 48.8418 40.9429 49.0322 40.9884C49.2229 41.0339 49.4133 41.079 49.6033 41.1238M46.4166 45.7406L46.2213 45.9043M46.2213 45.9043C46.3909 45.958 46.5615 46.0116 46.7332 46.0651M49.6033 41.1238L46.7332 46.0651M49.6033 41.1238C50.2049 41.2655 50.8027 41.4032 51.3966 41.5371C51.69 41.6033 51.9825 41.6685 52.274 41.7328M46.7332 46.0651C46.9514 46.1331 47.1713 46.2009 47.3928 46.2685C47.6115 46.3352 47.8317 46.4018 48.0536 46.4681M50.712 41.4674L48.0536 46.4681M48.0536 46.4681C48.2872 46.5379 48.5225 46.6075 48.7595 46.6768C49.0222 46.7536 49.2869 46.83 49.5537 46.9061M52.274 41.7328L49.5537 46.9061M52.274 41.7328C52.4913 41.7807 52.7079 41.828 52.9241 41.8749C53.3417 41.9654 53.7572 42.0541 54.1708 42.1408M49.5537 46.9061C49.7818 46.9711 50.0115 47.0359 50.2427 47.1003C51.7081 47.5088 53.2333 47.905 54.8123 48.2821M53.6408 42.0501L51.1025 47.2945M54.1708 42.1408L51.6883 47.4888M54.1708 42.1408C54.4506 42.1995 54.7295 42.2573 55.0075 42.3143C55.2235 42.3586 55.4389 42.4023 55.6537 42.4456M55.6537 42.4456L52.9241 47.683M55.6537 42.4456C55.8568 42.4864 56.0594 42.5269 56.2614 42.5668C56.4639 42.6069 56.6659 42.6465 56.8674 42.6856M56.8674 42.6856L54.8123 48.2821M56.8674 42.6856C62.3569 43.7522 67.4611 44.4835 72.1257 44.9571M57.741 42.8532L55.497 48.4436M59.3956 43.2691L56.6421 48.7049M60.0418 43.4004L57.3505 48.861M61.2555 43.6405L59.2004 49.2369M63.1459 43.8726L60.6495 49.4311M63.9826 44.0461L61.2291 49.4818M65.3557 44.1868L62.9191 49.8033M65.8698 44.2986L63.7874 50.0138M67.6907 44.5411L65.1605 50.2081M68.4551 44.7014L65.7739 50.3107M69.7823 44.7014L67.4398 50.6328M72.1257 44.9571C71.45 45.2661 70.1263 46.2439 70.2369 47.683C70.2505 47.8592 70.277 48.0227 70.314 48.174M72.1257 44.9571C72.8072 45.0263 73.4793 45.09 74.1419 45.1485M71.7989 49.8196C71.3825 49.7208 70.5793 49.2583 70.314 48.174M71.7989 49.8196L71.4084 50.9832M71.7989 49.8196C72.0716 49.8971 72.4398 49.9595 72.8388 49.9632M74.1419 45.1485C74.7928 45.5401 75.9382 46.7507 75.3134 48.46C74.8756 49.6577 73.773 49.9717 72.8388 49.9632M74.1419 45.1485C76.3519 45.3434 78.4555 45.4799 80.4466 45.5669C80.7223 45.5789 80.9958 45.59 81.2672 45.6002M70.314 48.174L69.4559 50.7908M70.8227 49.2369L70.314 50.9832M70.314 50.9832C71.8278 51.1496 73.3652 51.2898 74.9229 51.4M72.8388 49.9632L72.3847 51.1928M73.7514 50.0138L73.5562 51.1793M75.8992 45.3522L74.9229 51.4M76.8754 45.3642L75.8992 51.36M78.8279 45.5946L77.8517 51.36M79.6089 45.5464L78.6327 51.6028M78.6327 51.6028C79.884 51.6508 81.1463 51.6785 82.4179 51.684C82.7669 51.6855 83.1166 51.6853 83.4669 51.6835M81.2672 45.6002L80.5851 51.5677M81.2672 45.6002C81.6552 45.6147 82.0388 45.6274 82.4179 45.6382M82.4179 45.6382L81.3661 51.5677M82.4179 45.6382C83.092 45.6574 83.7519 45.6709 84.3972 45.6791M84.3972 45.6791L83.4669 51.6835M84.3972 45.6791C85.1648 45.6888 85.9118 45.6908 86.6379 45.686C87.8229 45.6781 88.9521 45.6517 90.0235 45.6098C90.3117 45.5985 90.5957 45.5861 90.8754 45.5726M83.4669 51.6835C83.9788 51.6807 84.4922 51.6744 85.0069 51.6642M85.6616 45.7406L85.0069 51.6642M85.0069 51.6642C88.0712 51.6039 91.182 51.4102 94.3167 51.0587C96.2047 50.847 98.1014 50.5781 100.002 50.2465M87.6141 45.7406L87.0284 51.5677M89.1761 45.686L88.5904 51.3735M90.8754 45.5726L90.3476 51.3735M90.8754 45.5726C91.1766 45.5581 91.4729 45.5423 91.7642 45.5254M91.7642 45.5254L91.3238 51.1793M91.7642 45.5254C92.0788 45.5071 92.3876 45.4875 92.6906 45.4665C92.9841 45.4463 93.2722 45.4248 93.5548 45.4022M93.5548 45.4022L93.2763 50.985M93.5548 45.4022C94.1771 45.3524 94.7725 45.2972 95.3406 45.2375M94.5542 45.4022L95.3406 45.2375M95.3406 45.2375C95.3685 45.2345 95.3963 45.2316 95.4241 45.2286M95.2288 50.985L95.4241 45.2286M95.4241 45.2286C95.8697 45.1812 96.2983 45.1309 96.7095 45.0782M96.7095 45.0782L96.4003 50.5966M96.7095 45.0782C97.332 44.9984 97.9149 44.9132 98.457 44.8238M97.7671 50.5966L97.5718 45.0782L98.457 44.8238M98.457 44.8238C98.778 44.7709 99.0848 44.7166 99.377 44.6612M100.002 50.2465C99.9322 50.2158 99.5563 46.5101 99.377 44.6612" stroke="black"/>
</svg>
