<svg width="120" height="160" viewBox="0 0 120 160" fill="none" xmlns="http://www.w3.org/2000/svg">
<path d="M28.4325 5.74339C48.2455 5.18241 88.0426 4.39704 88.7268 5.74339C89.168 5.47329 89.4798 7.30571 89.6844 10.7922C90.9075 31.6359 90.4363 111.598 88.7268 154.851H77.8633H66.9999C65.8596 120.407 64.6897 49.4295 59.2162 41.3514C58.9243 40.9206 58.5078 40.6255 58.2296 40.6782C56.5 50 48.9583 151.5 48.9583 154.851C46.5756 154.903 42.4796 154.907 38.5 154.896C33.9092 154.884 29.473 154.851 28 154.851C28 154.851 27.8724 82.5456 28.2124 30.4961C28.2582 23.4852 28.3125 16.8419 28.3767 10.7922C28.3951 9.05907 28.4137 7.37437 28.4325 5.74339Z" fill="#212121"/>
<path d="M28.4325 5.74339C48.2455 5.18241 88.0426 4.39704 88.7268 5.74339M28.4325 5.74339C28.4137 7.37437 28.3951 9.05907 28.3767 10.7922M28.4325 5.74339C28.4325 6.57498 43.3632 6.99565 58.3659 7.00541M88.7268 5.74339C89.168 5.47329 89.4798 7.30571 89.6844 10.7922M88.7268 5.74339C89.1594 6.59473 73.7249 7.0154 58.3659 7.00541M28.3767 10.7922C27.8358 61.7551 28 154.851 28 154.851C29.473 154.851 33.9092 154.884 38.5 154.896M28.3767 10.7922C35.5756 11.442 51.6246 12.6742 58.2296 12.4049M89.6844 10.7922C90.9075 31.6359 90.4363 111.598 88.7268 154.851H77.8633M89.6844 10.7922C84.9808 11.9254 66.7547 12.3395 58.2296 12.4049M58.3659 7.00541L58.2296 12.4049M58.2296 40.6782C56.5 50 48.9583 151.5 48.9583 154.851C46.5756 154.903 42.4796 154.907 38.5 154.896M58.2296 40.6782C58.5078 40.6255 58.9243 40.9206 59.2162 41.3514C64.6897 49.4295 65.8595 120.407 66.9999 154.851H77.8633M58.2296 40.6782V12.4049M41.5 11.8132C38.6196 21.3885 35.4432 28.6691 28.1971 30.5M76.5 11.952C77.7741 20.6768 81.0934 28.0844 89.9911 31M77.8633 154.851V122M38.5 154.896L40 114.5M61.3593 8.77267C60.7891 8.88487 59.6488 9.31121 59.6488 10.119C59.6488 11.1288 60.504 11.4654 61.3593 11.4654C62.2145 11.4654 64.3526 10.119 63.4974 10.119C62.6421 10.119 63.925 9.10926 61.3593 8.77267Z" stroke="black"/>
</svg>
