<svg width="120" height="160" viewBox="0 0 120 160" fill="none" xmlns="http://www.w3.org/2000/svg">
<path d="M8.21833 113.745C5.86155 111.545 23.1664 67.5218 32.1134 45.785L33.6846 36.357L34.0774 34C34.0774 36.8284 68.1198 35.1785 85.1409 34L85.4682 36.357L86.7776 45.785C90.9674 48.2991 104.672 92.1393 111 113.745L94.9608 121.602C90.2473 118.459 88.196 122.126 87.7596 124.352C82.7841 126.551 69.7564 126.054 63.8645 125.53C61.5077 120.502 56.7723 123.435 54.6992 125.53C51.0331 128.673 38.1145 126.054 32.1134 124.352C30.5422 118.381 26.0033 120.03 23.9302 121.602C19.6749 119.899 10.5751 115.945 8.21833 113.745Z" fill="#F7C6C2"/>
<path d="M32.1134 45.785C23.1664 67.5218 5.86155 111.545 8.21833 113.745C10.5751 115.945 19.6749 119.9 23.9302 121.602M32.1134 45.785C35.0784 46.2333 38.7977 46.7199 42.9153 47.1588M32.1134 45.785L33.6846 36.357M23.9302 121.602C26.0033 120.03 30.5422 118.381 32.1134 124.352M23.9302 121.602L42.9153 47.1588M32.1134 124.352C38.1145 126.054 51.0331 128.673 54.6992 125.53M32.1134 124.352L44.2246 47.2953M54.6992 125.53C56.7723 123.435 61.5077 120.502 63.8645 125.53M54.6992 125.53L60.2638 48.4402M63.8645 125.53C69.7564 126.054 82.7841 126.551 87.7596 124.352M63.8645 125.53L60.2638 48.4402M87.7596 124.352C88.196 122.126 90.2473 118.459 94.9608 121.602M87.7596 124.352L75.6483 48.2112M94.9608 121.602L111 113.745C104.672 92.1393 90.9674 48.2991 86.7776 45.785M94.9608 121.602L77.285 48.0506M86.7776 45.785C84.4566 46.8992 81.1607 47.6224 77.285 48.0506M86.7776 45.785L85.4682 36.357M42.9153 47.1588C43.3475 47.2048 43.7841 47.2504 44.2246 47.2953M44.2246 47.2953C49.2566 47.8082 54.8074 48.2393 60.2638 48.4402M60.2638 48.4402C65.6858 48.6398 71.0145 48.6121 75.6483 48.2112M75.6483 48.2112C76.2042 48.1631 76.7501 48.1096 77.285 48.0506M33.6846 36.357L34.0774 34C34.0774 36.8284 68.1197 35.1785 85.1409 34L85.4682 36.357M33.6846 36.357C42.3787 37.6732 62.8985 39.4705 80.5583 37.133M85.4682 36.357C83.8653 36.655 82.2245 36.9124 80.5583 37.133M80.5583 37.133C78.9216 38.4992 76.8267 41.7495 81.5403 43.8208C83.0678 42.4255 85.01 39.1344 80.5583 37.133Z" stroke="black"/>
</svg>
