<svg width="120" height="160" viewBox="0 0 120 160" fill="none" xmlns="http://www.w3.org/2000/svg">
<path d="M18.6403 23.9865C45.0482 23.2421 98.0921 22.1998 99.0041 23.9865C99.5921 23.6281 100.008 26.0599 100.28 30.6868C101.911 58.3482 102.5 135.803 102.5 135.803H85H67.5C62.527 105.5 62.527 92 59.6706 71.2416C59.5763 70.5565 58.7265 70.2783 58.3556 70.3482C54.0001 116.5 53.1924 127.362 52.5001 135.803C49.5328 135.867 42.7671 135.876 36.0574 135.865C27.3012 135.85 18.6402 135.803 18.6402 135.803C18.6402 135.803 18.0484 107.911 18.3486 56.8352C18.3964 48.7008 18.4669 39.9783 18.5659 30.6868C18.5904 28.3868 18.6153 26.151 18.6403 23.9865Z" fill="#212121"/>
<path d="M18.6403 23.9865C45.0482 23.2421 98.0921 22.1998 99.0041 23.9865M18.6403 23.9865C18.6153 26.151 18.5904 28.3868 18.5659 30.6868M18.6403 23.9865C18.6403 25.0901 38.5408 25.6484 58.5373 25.6614M99.0041 23.9865C99.5921 23.6281 100.008 26.0599 100.28 30.6868M99.0041 23.9865C99.5807 25.1163 79.0087 25.6746 58.5373 25.6614M18.5659 30.6868C17.8449 98.3192 18.6402 135.803 18.6402 135.803C18.6402 135.803 45.6605 135.952 52.5001 135.803C53.1924 127.362 54.0001 116.5 58.3556 70.3482M18.5659 30.6868C28.161 31.5491 49.5521 33.1843 58.3556 32.827M100.28 30.6868C101.911 58.3482 102.5 135.803 102.5 135.803H85M100.28 30.6868C94.0112 32.1907 69.7184 32.7402 58.3556 32.827M58.5373 25.6614L58.3556 32.827M58.3556 70.3482C58.7265 70.2783 59.5763 70.5565 59.6706 71.2416C62.527 92 62.527 105.5 67.5 135.803H85M58.3556 70.3482V32.827M36.0574 32.0418C32.2183 44.749 27.9846 54.4111 18.3266 56.8408M82.7074 32.226C84.4056 43.8046 88.8298 53.6351 100.689 57.5044M36.0574 136.5V108.5M85 135.803L84 108.5M62.527 28.0067C61.7671 28.1556 60.2472 28.7214 60.2472 29.7934C60.2472 31.1334 61.3871 31.5801 62.527 31.5801C63.6669 31.5801 66.5167 29.7934 65.3768 29.7934C64.2369 29.7934 65.9468 28.4534 62.527 28.0067Z" stroke="black"/>
</svg>
