<svg width="120" height="160" viewBox="0 0 120 160" fill="none" xmlns="http://www.w3.org/2000/svg">
<path d="M30.5004 34.7704C41.9524 38.4684 69.5401 43.4914 88.2742 34L91.8177 41.8581C102.171 56.0336 109.586 98.3032 112 117.666C95.926 121.724 65.935 127.808 65.935 126.911C65.935 125.062 65.2603 112.992 63.9251 109.654C62.8466 104.107 60.8438 101.693 61.7682 92.3968C59.4264 92.3968 56.229 97.0192 55.4587 101.333C57.4307 111.441 53.3018 123.264 51.2989 126.911C37.0224 123.675 8.37684 115.91 8.00709 110.732C7.63734 105.555 21.8215 63.2754 28.9597 42.7826L30.5004 34.7704Z" fill="#212121"/>
<path d="M91.8177 41.8581L88.2742 34C69.5401 43.4914 41.9524 38.4684 30.5004 34.7704L28.9597 42.7826M91.8177 41.8581C102.171 56.0336 109.586 98.3032 112 117.666C95.926 121.724 65.935 127.808 65.935 126.911C65.935 125.062 65.2603 112.992 63.9251 109.654C62.8466 104.107 60.8438 101.693 61.7682 92.3968C59.4264 92.3968 56.229 97.0192 55.4587 101.333C57.4307 111.441 53.3018 123.264 51.2989 126.911M91.8177 41.8581C87.0166 44.0769 72.7482 46.2751 66.2141 47.0969M28.9597 42.7826C21.8215 63.2754 7.63734 105.555 8.00709 110.732M28.9597 42.7826C33.4075 44.3157 45.2994 47.4352 57.4322 47.7093M8.00709 110.732C8.37684 115.91 37.0224 123.675 51.2989 126.911M8.00709 110.732C32.1643 115.91 46.9338 123.675 51.2989 126.911M56.5371 43.8612C57.0247 44.2513 57.5076 45.4307 57.4322 47.7093M54.3802 78.3754C52.6342 76.6291 50.1897 70.4556 54.3802 59.7316C56.5815 54.0982 57.3487 50.2308 57.4322 47.7093M54.3802 78.3754V82.8437H54.8424V78.3754M54.3802 78.3754H54.8424M54.8424 78.3754C53.5072 75.5506 51.7611 67.9595 55.4587 60.1938C57.8476 55.1764 58.6314 50.8176 58.6821 47.7132M57.6156 42.7826C58.1366 43.0059 58.7295 44.8116 58.6821 47.7132M65.935 42.7826C64.8771 43.3312 63.5502 44.8903 64.6226 47.4051M70.5569 76.0642C70.711 69.0791 70.0947 54.0922 66.3972 50.0244C65.5206 49.0601 64.9558 48.1865 64.6226 47.4051M70.5569 76.0642V79.9162H71.3272V76.0642M70.5569 76.0642H71.3272M71.3272 76.0642C71.584 69.5928 71.2656 55.2632 67.9378 49.7163C67.3601 49.0743 66.6541 48.1061 66.2141 47.0969M67.0134 43.399C65.5035 44.19 65.598 45.6837 66.2141 47.0969M55.9138 44.4775L58.2247 42.1663M65.6198 42.1663L67.4685 43.8612M57.4322 47.7093C57.4933 47.7107 57.5544 47.712 57.6156 47.7132L57.4322 47.7093ZM58.6821 47.7132C59.3541 47.7646 61.483 47.7749 64.6226 47.4051" stroke="black"/>
</svg>
