<svg width="120" height="160" viewBox="0 0 120 160" fill="none" xmlns="http://www.w3.org/2000/svg">
<path d="M24.1429 47.4828V39H59.5H94.8571V47.4828L100.918 76.3241L109 114.779L68.2686 121L59.7829 91.5931L50.7314 121L10 114.779L18.557 74.0621L24.1429 47.4828Z" fill="#D4B888"/>
<path d="M24.1429 47.4828V39H59.5M24.1429 47.4828H28.1029M24.1429 47.4828L18.557 74.0621M59.7829 91.5931L50.7314 121L10 114.779L18.557 74.0621M59.7829 91.5931L68.2686 121L109 114.779L100.918 76.3241M59.7829 91.5931L59.5 39M94.8571 47.4828V39H59.5M94.8571 47.4828H89.7657M94.8571 47.4828L100.918 76.3241M28.1029 47.4828L18.557 74.0621M28.1029 47.4828H65.44M89.7657 47.4828L100.918 76.3241M89.7657 47.4828H65.44M65.44 47.4828V49.1793M65.44 50.3103V52.5724M65.44 54.269V57.0966M65.44 58.7931V62.7517M65.44 65.0138V67.2759M65.44 69.5379V71.8M65.44 74.0621V76.3241M65.44 78.0207L64.3086 80.2828M63.1771 81.9793L62.0457 83.6759M60.9143 84.8069H59.5M63.1771 41.2621L62.0457 41.8276L60.9143 42.3931V43.5241L61.48 44.6552L63.1771 45.7862L64.3086 44.6552L65.44 43.5241L64.3086 42.3931L63.1771 41.2621Z" stroke="black"/>
</svg>
