<svg width="120" height="160" viewBox="0 0 120 160" fill="none" xmlns="http://www.w3.org/2000/svg">
<path d="M34.6729 7C49.8155 7.53872 80.8309 8.29293 83.7513 7C83.7979 7.40057 83.8448 7.80464 83.892 8.21212C84.0588 9.65234 84.1721 10.6346 84.3454 12.156C89.8105 60.1345 98.4701 121.777 92.6175 146.999L92.6746 152.454C88.4833 153.262 78.9651 154.636 74.4223 153.666L73.0273 149.222C68.5657 129.828 59.2367 84.01 57.6143 55.8888C57.1751 88.2879 48.139 153.02 45.2187 150.434V153.666L26.5608 152.454V149.222C26.3103 113.537 23.527 38 33.1916 12.6566C33.5412 11.0046 33.908 9.51716 34.2927 8.21212C34.4176 7.78867 34.5443 7.38442 34.6729 7Z" fill="#29282E"/>
<path d="M92.6175 146.999L92.6746 152.454C88.4833 153.262 78.9651 154.636 74.4223 153.666L73.0273 149.222M92.6175 146.999C98.4701 121.777 89.8105 60.1345 84.3454 12.156M92.6175 146.999C91.9448 147.969 78.8311 149.222 73.0273 149.222M73.0273 149.222C68.5657 129.828 59.2367 84.01 57.6143 55.8888M57.6143 55.8888C57.1751 88.2879 48.139 153.02 45.2187 150.434M57.6143 55.8888L58.5701 13.4283M45.2187 150.434V153.666L26.5608 152.454V149.222M45.2187 150.434C43.9476 150.434 32.2505 149.626 26.5608 149.222M26.5608 149.222C26.3103 113.537 23.527 38 33.1916 12.6566M33.1916 12.6566C33.5412 11.0046 33.908 9.51716 34.2927 8.21212M33.1916 12.6566C39.9251 12.934 49.5075 13.2573 58.5701 13.4283M84.3454 12.156C84.1721 10.6346 84.0588 9.65234 83.892 8.21212M84.3454 12.156C83.3162 13.1062 71.5008 13.6724 58.5701 13.4283M34.2927 8.21212C34.4175 7.78867 34.5443 7.38442 34.6729 7C49.8155 7.53872 80.8309 8.29293 83.7513 7C83.7979 7.40057 83.8448 7.80464 83.892 8.21212M34.2927 8.21212C39.7357 8.39807 47.112 8.6097 54.514 8.75395M83.892 8.21212C82.8652 8.9358 72.3891 9.01814 60.5981 8.85589M54.514 8.75395C53.2972 11.671 51.1881 18.3131 52.486 21.5454C53.5676 24.9124 55.4875 31.808 54.514 32.4545L53.2972 36.4949C53.162 37.0336 53.135 37.8686 54.1084 36.899L55.7309 32.4545C56.0013 32.1852 55.9742 29.5454 53.7028 21.1414C53.162 20.3009 52.7294 16.6497 55.3252 8.76948M54.514 8.75395C54.7844 8.75922 55.0549 8.7644 55.3252 8.76948M55.3252 8.76948C56.6827 8.79501 58.0386 8.81816 59.3813 8.83835M59.3813 8.83835C61.0037 11.5926 63.843 17.7475 62.2206 20.3333C61.0037 23.431 58.8946 30.1919 60.1925 32.4545C60.4629 33.532 61.166 35.9293 61.8149 36.899C62.4639 37.8686 62.6262 37.0336 62.6262 36.4949C62.0853 35.0134 61.0849 32.0505 61.4093 32.0505C61.8149 32.0505 59.3813 32.0505 63.4374 21.1414C64.1134 19.6851 64.4919 15.1891 60.5981 8.85589M59.3813 8.83835C59.7882 8.84447 60.194 8.85032 60.5981 8.85589" stroke="black"/>
</svg>
