<svg width="120" height="160" viewBox="0 0 120 160" fill="none" xmlns="http://www.w3.org/2000/svg">
<path d="M34.3067 14.8937V9H83.1867V14.8937C87.5316 16.9565 91.403 33.68 92.7956 41.7839L107 146.766C102.321 147.945 84.7185 150.204 76.5022 151.186C74.8311 152.66 53.803 151.8 43.4978 151.186C27.7893 151.776 16.6207 148.485 13 146.766L24.6978 41.7839C24.3635 30.2911 30.9644 19.0685 34.3067 14.8937Z" fill="#1D1A17"/>
<path d="M34.3067 14.8937V9H83.1867V14.8937M34.3067 14.8937C30.9644 19.0685 24.3635 30.2911 24.6978 41.7839L13 146.766C16.6207 148.485 27.7893 151.776 43.4978 151.186M34.3067 14.8937H50.6M43.4978 151.186C53.803 151.8 74.8311 152.66 76.5022 151.186M43.4978 151.186L45.5867 41.7839C45.5867 27.0496 48.3719 20.5419 50.6 14.8937M76.5022 151.186C84.7185 150.204 102.321 147.945 107 146.766L92.7956 41.7839C91.403 33.68 87.5316 16.9565 83.1867 14.8937M76.5022 151.186L72.3244 41.7839C71.656 30.2911 68.4252 19.0685 66.8933 14.8937M83.1867 14.8937H66.8933M50.6 14.8937H66.8933" stroke="black"/>
</svg>
