<svg width="120" height="160" viewBox="0 0 120 160" fill="none" xmlns="http://www.w3.org/2000/svg">
<path d="M14.1919 89.5264C15.2368 86.1711 21.9205 26.9719 25.7446 29.2674C25.7446 29.2674 36.7185 25.2149 43.4857 22.6182C46.7082 19.5346 48.1024 17.8058 51.3249 14.7222C55.8686 13.6525 66.7013 13.8723 67.8283 14.7222C71.6147 17.8058 76.2865 22.6182 76.2865 22.6182L94.2339 29.2674C99.4766 26.3438 104.529 87.6965 105.374 89.5264C106.219 91.3564 106.612 98.6692 106.612 98.6692C106.612 98.6692 107.486 143.17 106.612 144.383C105.411 146.048 94.6465 146.599 91.3458 145.214C91.111 145.115 90.7585 142.22 90.3194 137.734C83.6537 141.943 78.3839 142.825 68.241 143.136C67.183 142.758 66.3945 142.151 65.7369 141.298H60.6589C60.0382 142.332 59.3158 142.911 58.3389 143.136C45.9409 144.91 39.9943 142.077 29.2024 137.734C29.2024 137.734 29.2024 144.798 28.6325 145.214C27.4927 146.045 16.2548 146.045 13.3666 144.798C12.5418 144.442 13.3665 100.747 13.3667 99.0847C13.3668 97.4224 13.1471 92.8817 14.1919 89.5264Z" fill="#1F1F21"/>
<path d="M25.7446 29.2674C21.9205 26.9719 15.2368 86.1711 14.1919 89.5264C13.1471 92.8817 13.3668 97.4224 13.3667 99.0847C13.3665 100.747 12.5418 144.442 13.3666 144.798C16.2548 146.045 27.4927 146.045 28.6325 145.214C29.2024 144.798 29.2024 137.734 29.2024 137.734M25.7446 29.2674L35.6465 76.6435L33.63 95.7601M25.7446 29.2674C25.7446 29.2674 36.7185 25.2149 43.4857 22.6182M43.4857 22.6182C46.7082 19.5346 48.1024 17.8058 51.3249 14.7222M43.4857 22.6182C41.2299 25.7018 37.9484 30.9298 37.9484 30.9298L43.4857 34.4622M51.3249 14.7222C55.8686 13.6525 66.7013 13.8723 67.8283 14.7222M51.3249 14.7222C50.5711 19.3847 50.5029 27.9918 51.3249 28.8519M67.8283 14.7222C71.6147 17.8058 76.2865 22.6182 76.2865 22.6182M67.8283 14.7222C69.1132 19.3722 68.7768 28.1285 68.241 28.8519M76.2865 22.6182L94.2339 29.2674M76.2865 22.6182L82.6816 30.5142L76.2865 34.4622M94.2339 29.2674C99.4766 26.3438 104.529 87.6965 105.374 89.5264C106.219 91.3564 106.612 98.6692 106.612 98.6692C106.612 98.6692 107.486 143.17 106.612 144.383C105.411 146.048 94.6465 146.599 91.3458 145.214C90.2465 144.753 86.5653 82.9612 83.5066 83.7083M94.2339 29.2674L85.5696 55.0334L83.5066 83.7083M83.5066 83.7083L86.1394 95.7601M29.2024 137.734C39.9943 142.077 45.9409 144.91 58.3389 143.136C59.3158 142.911 60.0382 142.332 60.6589 141.298M29.2024 137.734L32.2272 109.059M62.8773 134.825V82.8771M62.8773 134.825C62.0887 137.881 61.458 139.966 60.6589 141.298M62.8773 134.825C63.8988 137.738 64.6337 139.866 65.7369 141.298M62.8773 82.8771L35.6465 40.0725L43.4857 34.4622M62.8773 82.8771L62.0522 74.5656M51.3249 28.8519L43.4857 34.4622M51.3249 28.8519C51.3249 28.8519 56.6056 53.1673 59.9892 68.7475M62.0522 74.5656L83.5066 39.2414L76.2865 34.4622M62.0522 74.5656C62.0522 74.5656 60.4494 71.585 59.9892 68.7475M68.241 28.8519L76.2865 34.4622M68.241 28.8519C68.241 28.8519 63.2117 53.1673 59.9892 68.7475M33.63 95.7601C37.6637 96.8062 43.0731 96.5913 43.0731 97.0068C43.0731 97.4224 42.6073 99.9159 42.6073 99.9159M33.63 95.7601L33.2793 99.0847M32.2272 109.059C32.2236 109.671 40.5942 110.879 41.0102 109.89C41.4261 108.901 42.6073 99.9159 42.6073 99.9159M32.2272 109.059L33.2793 99.0847M86.1394 95.7601C83.051 96.3883 78.2895 96.8123 77.7305 97.0068C77.1715 97.2014 78.1431 100.747 78.1431 100.747M86.1394 95.7601L86.4538 99.0847M87.5659 108.643L90.3194 137.734C83.6537 141.943 78.3839 142.825 68.241 143.136C67.183 142.758 66.3945 142.151 65.7369 141.298M87.5659 108.643C87.5659 108.643 81.0312 109.89 80.6186 109.89C80.206 109.89 78.8916 104.642 78.1431 100.747M87.5659 108.643L86.4538 99.0847M78.1431 100.747C83.3603 100.747 86.4538 99.0847 86.4538 99.0847M42.6073 99.9159C39.8663 100.481 34.9722 99.6514 33.2793 99.0847M40.5975 40.9037L44.7233 41.3193M75.6675 41.3193L79.3807 40.9037M60.6589 141.298H65.7369M17.5385 92.1289C20.3196 90.5433 22.1373 90.2386 25.7446 90.4666M17.5385 93.7912C20.9183 93.4819 22.7247 93.7009 25.7446 95.0379C21.9746 95.2468 20.2113 95.6268 17.5385 96.7002M92.6295 90.4666C96.1081 90.3106 98.028 90.4814 101.294 92.1289M101.294 93.7912C96.6998 92.8885 95.2705 93.6979 92.6295 95.0379C96.3562 95.1049 98.2969 95.4489 101.294 97.0068M59.9892 82.4616C58.8499 82.4616 57.9263 83.3919 57.9263 84.5395C57.9263 85.6871 58.8499 86.6174 59.9892 86.6174C61.1285 86.6174 62.0522 85.6871 62.0522 84.5395C62.0522 83.3919 61.1285 82.4616 59.9892 82.4616ZM59.9892 101.994C58.8499 101.994 57.9263 102.924 57.9263 104.072C57.9263 105.219 58.8499 106.15 59.9892 106.15C61.1285 106.15 62.0522 105.219 62.0522 104.072C62.0522 102.924 61.1285 101.994 59.9892 101.994Z" stroke="black" stroke-linejoin="round"/>
</svg>
