<svg width="120" height="160" viewBox="0 0 120 160" fill="none" xmlns="http://www.w3.org/2000/svg">
<path d="M13.4697 131.923C9.74391 129.869 21.3348 44.1838 24.0025 39.1538C27.6618 27.5257 31.6065 21.9973 43.3535 18.1C44.5014 17.7191 45.7239 17.3539 47.0278 17C57.3517 21.6055 63.2157 22.431 73.9722 17C75.2388 17.386 76.4488 17.7444 77.6054 18.1C86.9895 20.9847 92.8617 23.6818 96.9975 39.4308C100.273 48.6754 112.198 127.404 107.775 131.646L109 140.508L98.2222 143L96.2626 134.415C93.4908 131.023 91.8399 131.286 89.8939 109.492C89.0317 113.086 88.4562 114.431 87.1995 115.031V124.723C79.6638 126.205 71.1493 127.045 62.4596 127.15C61.2376 127.165 60.0121 127.165 58.7854 127.151C50.4431 127.052 42.0438 126.27 34.2904 124.723V115.031C32.9618 114.961 32.2906 114.222 31.351 110.6C28.5881 127.642 27.1419 132.773 24.7374 134.415L22.7778 143L12 140.508L13.4697 131.923Z" fill="#B7A694"/>
<path d="M47.0278 17C57.3518 21.6055 63.2157 22.431 73.9722 17M47.0278 17C45.7239 17.3539 44.5014 17.7191 43.3535 18.1M47.0278 17C47.4628 18.6456 47.8838 20.2108 48.2946 21.7077M24.0025 39.1538C21.3348 44.1838 9.74391 129.869 13.4697 131.923M24.0025 39.1538C29.0521 43.8396 30.6148 48.0316 31.8409 57.4308M24.0025 39.1538C27.6618 27.5257 31.6065 21.9973 43.3535 18.1M13.4697 131.923L12 140.508L22.7778 143L24.7374 134.415M13.4697 131.923L24.7374 134.415M24.7374 134.415C27.1419 132.773 28.5881 127.642 31.351 110.6M31.351 110.6L31.8409 57.4308M31.351 110.6C32.2906 114.222 32.9618 114.961 34.2904 115.031M31.8409 57.4308C31.4721 50.379 32.0159 47.8765 29.6364 36.9385M34.2904 115.031V124.723C42.0438 126.27 50.4431 127.052 58.7854 127.151M34.2904 115.031C40.6591 116.415 53.8864 117.246 58.7854 117.246M87.1995 115.031V124.723C79.6638 126.205 71.1493 127.045 62.4596 127.15M87.1995 115.031C88.4562 114.431 89.0317 113.086 89.8939 109.492M87.1995 115.031C81.8106 116.692 63.5794 117.398 62.4596 117.246M89.8939 109.492L89.1591 56.3231M89.8939 109.492C91.8399 131.286 93.4908 131.023 96.2626 134.415M89.1591 56.3231C90.0368 48.8299 91.4676 45.0135 96.9975 39.4308M89.1591 56.3231C89.6197 49.9746 89.2694 47.786 92.0985 36.1077M96.9975 39.4308C100.273 48.6754 112.198 127.404 107.775 131.646M96.9975 39.4308C92.8617 23.6818 86.9895 20.9847 77.6054 18.1M73.9722 17C75.2388 17.386 76.4488 17.7444 77.6054 18.1M73.9722 17C73.5594 18.6525 73.1597 20.2183 72.7706 21.7077M60.5 56.3231L62.4596 61.8615M60.5 56.3231C55.1754 43.9686 52.1925 35.9095 48.2946 21.7077M60.5 56.3231C65.5498 45.0901 68.5308 37.9375 72.7706 21.7077M107.775 131.646L109 140.508L98.2222 143L96.2626 134.415M107.775 131.646L96.2626 134.415M58.7854 127.151C60.0121 127.165 61.2376 127.165 62.4596 127.15M58.7854 127.151V117.246M43.3535 18.1C48.7532 38.3051 52.2687 47.4625 58.7854 62.6923V117.246M77.6054 18.1C72.0248 40.298 68.5381 47.2761 62.4596 61.8615M62.4596 61.8615V117.246M62.4596 127.15V117.246M48.2946 21.7077C53.8864 25.8615 68.3384 25.3077 72.7706 21.7077M60.0101 61.8615C59.0303 62.9692 60.255 64.9077 61.2348 63.8C62.2146 62.6923 60.9899 60.7538 60.0101 61.8615ZM60.0101 77.0923C59.0303 78.2 60.255 80.1385 61.2348 79.0308C62.2146 77.9231 60.9899 75.9846 60.0101 77.0923ZM60.0101 107.831C59.0303 108.938 60.255 110.877 61.2348 109.769C62.2146 108.662 60.9899 106.723 60.0101 107.831ZM60.0101 92.6C59.0303 93.7077 60.255 95.6462 61.2348 94.5385C62.2146 93.4308 60.9899 91.4923 60.0101 92.6ZM60.0101 122.785C59.0303 123.892 60.255 125.831 61.2348 124.723C62.2146 123.615 60.9899 121.677 60.0101 122.785Z" stroke="black" stroke-linejoin="round"/>
</svg>
