<svg width="120" height="160" viewBox="0 0 120 160" fill="none" xmlns="http://www.w3.org/2000/svg">
<path d="M43.7163 29.5406L48.1265 24H70.5172L75.606 29.9364L75.2944 31.1237C83.6243 34.7016 93.2832 46.9002 100.711 60.8057C111.555 81.1087 114.62 117.004 112.245 120.565L112.304 122.148L112.363 123.731L112.393 124.523L112.452 126.106L112.525 128.085C108.521 129.95 106.163 130.386 102.008 130.064L101.795 128.564L101.581 127.065L101.445 126.106L101.219 124.523L101.05 123.336C99.1526 122.474 97.6951 119.259 95.5055 104.339C95.9168 113.713 95.8425 124.123 95.6218 136H57.9649H24.0395C23.9692 122.757 24.0776 111.274 24.635 101.173C21.9317 115.549 20.4368 123.092 18.2723 123.336L18.2131 124.919L18.1215 126.502L18.0728 127.526L18.0029 128.993L17.9331 130.459C13.4305 131.19 10.9037 130.788 6.39848 129.668V127.2V125.725V124.732V123.336V120.565C4.36287 115.025 10.4696 82.1767 16.9153 65.159C23.361 48.1413 30.8066 39.6846 43.9517 30.3322L43.7163 29.5406Z" fill="#405073"/>
<path d="M48.1265 24L43.7163 29.5406L43.9517 30.3322M48.1265 24H70.5172M48.1265 24L51.5486 30.3322M70.5172 24L75.606 29.9364L75.2944 31.1237M70.5172 24L67.3312 30.3322M61.3574 42.2049L70.5172 49.3286L72.9058 40.2261M61.3574 42.2049H57.9649M61.3574 42.2049L67.3312 30.3322M57.9649 42.2049L49.4836 48.9329L46.7176 39.6325M57.9649 42.2049V136M57.9649 42.2049L51.5486 30.3322M75.2944 31.1237C83.6243 34.7016 93.2832 46.9002 100.711 60.8057C111.555 81.1087 114.62 117.004 112.245 120.565M75.2944 31.1237L72.9058 40.2261M112.245 120.565L101.05 123.336M112.245 120.565L112.304 122.148L112.363 123.731L112.393 124.523M101.05 123.336C99.1526 122.474 97.6951 119.259 95.5055 104.339M101.05 123.336L101.219 124.523L101.445 126.106L101.581 127.065M43.9517 30.3322C30.8066 39.6846 23.361 48.1413 16.9153 65.159C10.4696 82.1767 4.36287 115.025 6.39848 120.565M43.9517 30.3322L46.7176 39.6325M6.39848 120.565L18.2723 123.336M6.39848 120.565V123.336V124.732V127.2M18.2723 123.336C20.4368 123.092 21.9317 115.549 24.635 101.173M18.2723 123.336L18.2131 124.919L18.1215 126.502L18.0728 127.526M72.9058 40.2261L90.8723 67.5336C92.5035 68.9204 93.6517 86.7423 95.5055 104.339M46.7176 39.6325C32.5149 61.2811 30.4853 62.7844 28.7891 67.5336C27.0928 72.2827 26.3571 86.0809 24.635 101.173M24.635 101.173C24.0776 111.274 23.9692 122.757 24.0395 136H57.9649M95.5055 104.339C95.9168 113.713 95.8425 124.123 95.6218 136H57.9649M51.5486 30.3322H67.3312M6.33925 125.71C10.8856 126.807 13.4529 127.224 18.0728 127.526M18.0728 127.526L18.0029 128.993M6.39848 127.2V129.668C10.9037 130.788 13.4305 131.19 17.9331 130.459L18.0029 128.993M6.39848 127.2C10.9454 128.121 13.492 128.51 18.0029 128.993M101.581 127.065C105.861 126.73 108.234 126.196 112.393 124.523M101.581 127.065L101.795 128.564M112.393 124.523L112.452 126.106M112.452 126.106L112.525 128.085C108.521 129.95 106.163 130.386 102.008 130.064L101.795 128.564M112.452 126.106C108.359 127.731 106.028 128.282 101.795 128.564M59.661 43.788C57.9648 43.788 57.9648 46.9541 59.661 46.9541C61.3573 46.9541 61.3573 43.788 59.661 43.788ZM59.661 60.8057C57.9648 60.8057 57.9648 63.9717 59.661 63.9717C61.3573 63.9717 61.3573 60.8057 59.661 60.8057ZM59.661 77.8233C57.9648 77.8233 57.9648 80.9894 59.661 80.9894C61.3573 80.9894 61.3573 77.8233 59.661 77.8233ZM59.661 94.0495C57.9648 94.0495 57.9648 97.2156 59.661 97.2156C61.3573 97.2156 61.3573 94.0495 59.661 94.0495ZM59.661 109.88C57.9648 109.88 57.9648 113.046 59.661 113.046C61.3573 113.046 61.3573 109.88 59.661 109.88ZM59.661 126.898C57.9648 126.898 57.9648 130.064 59.661 130.064C61.3573 130.064 61.3573 126.898 59.661 126.898ZM37.2704 93.2579L39.6451 94.0495L33.5386 115.42L31.5031 114.629L37.2704 93.2579ZM79.3377 94.4452L81.3732 93.2579L87.4797 114.629L85.4442 115.816L79.3377 94.4452Z" stroke="black" stroke-linejoin="round"/>
</svg>
