<svg width="120" height="160" viewBox="0 0 120 160" fill="none" xmlns="http://www.w3.org/2000/svg">
<path d="M16.1716 141.735V134.235C16.1716 134.235 12.5 130.5 12.9999 110.5C13.4998 90.5 23.5782 30.5 23.5782 30.5C23.823 30.2634 24.0708 30.143 24.3194 30.1256L36 24.225C35.6547 20.5867 36.5143 18.8617 40 16C56.4557 14.3336 65.3632 14.2435 80.5 16C84.0856 19.5781 84.8075 21.4217 84.431 24.5L95.4999 30.5C95.4999 30.5 107.5 94 107.5 109.5C107.5 125 104.672 134.235 104.672 134.235V142.235H98.3517H96.4999H94.4999H92.6716H90.9216H89.1716V134.235L88.1522 129.992C87.2579 132.582 86.4999 134.235 86.4999 134.235V142.235L84.8225 142.219L81.5 142.187L79.5 142.168L61 141.992L33.9999 141.735V134.235C33.9999 134.235 33.9248 133.442 32.9999 129.992L31.1716 134.235V141.735H16.1716Z" fill="#C5C8CC"/>
<path d="M23.5782 30.5C23.5782 30.5 13.4998 90.5 12.9999 110.5C12.5 130.5 16.1716 134.235 16.1716 134.235M23.5782 30.5C27.2053 26.9945 31.5 49 28.9775 53.5C28.9775 53.5 28.9775 116.225 30.9999 123C33.0223 129.775 32.5567 128.34 32.9999 129.992M23.5782 30.5L36 24.225M16.1716 134.235V141.735H31.1716V134.235M16.1716 134.235H17.9999H21.4999H25.4999H28.3357H31.1716M31.1716 134.235L32.9999 129.992M95.4999 30.5C95.4999 30.5 107.5 94 107.5 109.5C107.5 125 104.672 134.235 104.672 134.235M95.4999 30.5C93.0146 29.2821 87.926 44.9083 91 53.5C91 60 91.3282 117.5 89.9999 123.5C89.4563 125.955 88.7715 128.199 88.1522 129.992M95.4999 30.5L84.431 24.5M89.1716 134.235V142.235H90.9216H92.6716H94.4999H96.4999H98.3517H104.672V134.235M89.1716 134.235L88.1522 129.992M89.1716 134.235H90.9216H92.6716H94.4999H95.4999H95.9999H96.4999H98.3517H100.086H102.379H104.672M33.9999 134.235V141.735L61 141.992M33.9999 134.235C33.9999 134.235 33.9248 133.442 32.9999 129.992M33.9999 134.235H79.5H81.5H83H84.8225H86.4999M86.4999 134.235V142.235L84.8225 142.219L81.5 142.187L79.5 142.168L61 141.992M86.4999 134.235C86.4999 134.235 87.2579 132.582 88.1522 129.992M40 16C44.6308 19.4198 58.2906 30.3624 61 30.5M40 16C36.5143 18.8617 35.6547 20.5867 36 24.225M40 16C56.4557 14.3336 65.3632 14.2435 80.5 16M61 30.5C63.7094 30.6376 75.8373 19.909 80.5 16M61 30.5L56 29.245M61 30.5L67.5 28.8355M61 30.5V141.992M80.5 16C84.0856 19.5781 84.8075 21.4217 84.431 24.5M84.431 24.5L67.5 28.8355M36 24.225L56 29.245M56 29.245V51M67.5 28.8355V44.6678V60.5M44 95.5H77.5C78.6319 105.772 77.0785 106.048 81.5 116.5V125H39V116.5C43.9781 106.61 43.0149 106.206 44 95.5Z" stroke="black"/>
</svg>
