<svg width="120" height="160" viewBox="0 0 120 160" fill="none" xmlns="http://www.w3.org/2000/svg">
<path d="M32.1176 135L30.7059 122.429V87.073L20.1176 124.786L17.2941 133.821L6 131.072L6.70588 121.643C8.44113 105.517 9.5414 96.4809 12.3529 80.3946C18.8838 64.5555 22.8059 55.9397 30.7059 41.503C36.4291 38.6729 39.6743 37.5185 45.5294 36.396V30.5033C48.0651 26.6341 52.1711 24.9111 60 25.0035C67.6088 25.0764 70.8545 26.2786 74.4706 30.8962V36.396C80.2738 38.0774 83.5223 39.0912 89.2941 41.503C97.818 56.1193 101.857 64.6581 108 80.3946L114 120.858V130.679L103.059 133.429L99.8824 124.786L89.2941 86.2873V122.429L87.8823 135H61.4118H58.5882H32.1176Z" fill="#2E86D8"/>
<path d="M30.7059 41.503C36.4291 38.6729 39.6743 37.5185 45.5294 36.396M30.7059 41.503C22.8059 55.9397 18.8838 64.5555 12.3529 80.3946C9.5414 96.4809 8.44113 105.517 6.70588 121.643M30.7059 41.503C30.468 42.8565 30.5236 43.378 30.3529 44.6457C30.1522 46.1372 30.1197 47.1811 30 48.5742C28.863 61.8062 30.7059 72.2768 30.7059 87.073M30.7059 122.429L32.1176 135H58.5882M30.7059 122.429V87.073M30.7059 122.429L58.5882 123.607M89.2941 122.429L87.8823 135H61.4118M89.2941 122.429L61.4118 123.607M89.2941 122.429V86.2873M89.2941 41.503C83.5223 39.0912 80.2738 38.0774 74.4706 36.396M89.2941 41.503C97.818 56.1193 101.857 64.6581 108 80.3946L114 120.858M89.2941 41.503C89.3829 42.0344 89.4669 42.558 89.5461 43.0744M74.4706 36.396V30.8962C70.8545 26.2786 67.6088 25.0764 60 25.0035C52.1711 24.9111 48.0651 26.6341 45.5294 30.5033V36.396M74.4706 36.396C74.3703 36.8037 74.2674 37.1963 74.1616 37.5745M61.4118 48.5742V37.5746M61.4118 48.5742V123.607M61.4118 48.5742C68.2586 47.0584 71.5575 45.3608 73.677 39.1459M61.4118 37.5746C66.9963 37.609 70.4585 36.4153 72.0327 34.8021M61.4118 37.5746L58.5882 37.5745M58.5882 37.5745V48.5742M58.5882 37.5745C53.6813 37.453 50.4141 36.3095 48.7059 34.8021M58.5882 48.5742V123.607M58.5882 48.5742C53.0464 47.4921 49.7772 45.3472 47.2941 40.6341C46.9255 39.9344 46.5741 39.1781 46.2353 38.3602C45.889 37.5245 45.8674 37.3965 45.5294 36.396M6.70588 121.643L6 131.072L17.2941 133.821L20.1176 124.786M6.70588 121.643L8.11765 121.974L9.08824 122.202L10.0588 122.429L20.1176 124.786M20.1176 124.786L30.7059 87.073M58.5882 135H61.4118M58.5882 135V123.607M61.4118 135V123.607M114 120.858V130.679L103.059 133.429L99.8824 124.786M114 120.858L112.588 121.25M99.8824 124.786L89.2941 86.2873M99.8824 124.786L111.176 121.643M89.2941 86.2873C89.9433 68.9457 91.7865 59.9105 89.8823 45.4314M48.7059 34.8021C45.0234 31.5526 48.5866 26.6122 58.5882 26.5749L61.4118 26.5749C70.9845 26.9062 75.1054 31.6533 72.0327 34.8021M48.7059 34.8021C54 29.3248 67.4118 29.3248 72.0327 34.8021M37.4118 113.394L34.9412 113.001L39.1765 90.2157L41.4706 90.6086M37.4118 113.394L39.8824 113.786L43.7647 91.0014L41.4706 90.6086M37.4118 113.394L41.4706 90.6086M78.3529 90.6086L75.8823 91.0014L79.4118 113.786L82.2353 113.197M78.3529 90.6086L80.8235 90.2157L85.0588 112.608L82.2353 113.197M78.3529 90.6086L82.2353 113.197M74.1616 37.5745C80.136 39.474 83.511 40.6867 89.5461 43.0744M74.1616 37.5745C74.0067 38.1284 73.8456 38.6515 73.677 39.1459M89.5461 43.0744C96.8213 57.2274 100.51 65.5207 106.588 80.7874L112.588 121.25M89.5461 43.0744C89.6692 43.8768 89.781 44.6618 89.8823 45.4314M112.588 121.25L111.176 121.643M111.176 121.643L105.176 81.1803C99.3736 66.9435 96.0267 59.1135 89.8823 45.4314M89.8823 45.4314C83.5839 42.3248 80.0417 40.9203 73.677 39.1459M45.9268 37.5745C39.9525 39.474 36.5287 40.8519 30.4936 43.2396C23.2184 57.3926 19.7405 65.5207 13.6619 80.7874L7.55097 121.841M8.60294 122.088L15.0737 81.1803C20.8765 66.9435 24.2235 59.1135 30.3679 45.4314C36.6662 42.3248 40.2084 40.9203 46.5732 39.1459" stroke="black" stroke-linejoin="round"/>
</svg>
