<svg width="120" height="160" viewBox="0 0 120 160" fill="none" xmlns="http://www.w3.org/2000/svg">
<path d="M22.6717 30.2346C22.6717 30.2346 44.6717 19.7346 45.1717 19.7346L44.1717 19.2346L49.1717 12.7346C57.7884 10.4082 62.5658 10.4354 71.1717 12.7346C73.5776 15.513 76.2557 18.3465 76.1717 18.7346C76.0877 19.1227 75.4495 19.7346 75.4495 19.7346L97.6717 30.2346C97.6717 30.2346 109.764 83.8279 106.672 118.235C106.108 124.506 104.672 134.235 104.672 134.235V142.235H89.1717V134.235L86.6717 128.735C77.7551 132.351 72.7242 134.289 63.1717 136.107C63.1717 136.107 63.1717 136.735 61.1717 136.735C59.1717 136.735 57.1717 136.107 57.1717 136.107C57.047 136.827 43.6409 133.969 34.1717 129.235L31.1717 134.235V141.735H16.1717V134.235C16.1717 134.235 13.4847 124.276 13.1717 117.735C11.5735 84.3395 21.6326 30.0869 22.6717 30.2346Z" fill="white"/>
<path d="M45.1717 19.7346C44.6717 19.7346 22.6717 30.2346 22.6717 30.2346M45.1717 19.7346L44.1717 19.2346L49.1717 12.7346M45.1717 19.7346C50.6645 24.0731 51.4109 25.1724 54.6717 28.2346L56.6717 25.2346M22.6717 30.2346C21.6326 30.0869 11.5735 84.3395 13.1717 117.735C13.4847 124.276 16.1717 134.235 16.1717 134.235M22.6717 30.2346C25.9305 45.8232 27.4995 54.5028 29.1717 69.7346C30.5814 92.4853 31.2638 105.176 29.1717 125.735L34.1717 129.235M16.1717 134.235V141.735H31.1717V134.235M16.1717 134.235H31.1717M31.1717 134.235L34.1717 129.235M34.1717 129.235C43.6409 133.969 57.047 136.827 57.1717 136.107M58.6717 20.2346L49.1717 12.7346M58.6717 20.2346C61.3845 22.008 62.4413 23.4725 63.1717 27.2346M58.6717 20.2346L56.6717 25.2346M49.1717 12.7346C57.7884 10.4082 62.5658 10.4354 71.1717 12.7346M71.1717 12.7346L61.6717 20.2346M71.1717 12.7346C73.5776 15.513 76.2557 18.3465 76.1717 18.7346C76.0877 19.1227 75.4495 19.7346 75.4495 19.7346M61.6717 20.2346L65.6717 27.7346C69.5923 24.0488 71.7708 22.0826 75.4495 19.7346M61.6717 20.2346L60.1717 21.2346M75.4495 19.7346L97.6717 30.2346M97.6717 30.2346C94.484 45.9855 93.2211 54.6783 92.6717 69.7346C91.9266 93.2949 91.4861 106.739 91.1717 125.735C89.3876 127.112 88.394 127.848 86.6717 128.735M97.6717 30.2346C97.6717 30.2346 109.764 83.8279 106.672 118.235C106.108 124.506 104.672 134.235 104.672 134.235M86.6717 128.735L89.1717 134.235M86.6717 128.735C77.7551 132.351 72.7242 134.289 63.1717 136.107M89.1717 134.235V142.235H104.672V134.235M89.1717 134.235H104.672M63.1717 27.2346L64.1717 25.7346M63.1717 27.2346V136.107M63.1717 27.2346C61.2568 26.1156 59.8661 26.6958 57.6495 25.7346M63.1717 136.107C63.1717 136.107 63.1717 136.735 61.1717 136.735C59.1717 136.735 57.1717 136.107 57.1717 136.107M56.6717 25.2346C57.0161 25.437 57.3408 25.6008 57.6495 25.7346M57.6495 25.7346L57.1717 136.107M70.1717 55.7346V50.2346H87.6717V55.7346M70.1717 55.7346C70.1717 61.202 70.1717 69.7346 70.1717 69.7346C70.1717 69.7346 71.2671 71.3539 72.1717 71.2346H85.6717C86.84 70.9886 87.2952 70.6754 87.6717 69.7346V55.7346M70.1717 55.7346H87.6717M60.1717 22.7346C59.6194 22.7346 59.1717 23.1824 59.1717 23.7346C59.1717 24.2869 59.6194 24.7346 60.1717 24.7346C60.724 24.7346 61.1717 24.2869 61.1717 23.7346C61.1717 23.1824 60.724 22.7346 60.1717 22.7346ZM60.1717 35.7346C59.6194 35.7346 59.1717 36.1823 59.1717 36.7346C59.1717 37.2869 59.6194 37.7346 60.1717 37.7346C60.724 37.7346 61.1717 37.2869 61.1717 36.7346C61.1717 36.1823 60.724 35.7346 60.1717 35.7346ZM60.1717 49.2346C59.6194 49.2346 59.1717 49.6824 59.1717 50.2346C59.1717 50.7869 59.6194 51.2346 60.1717 51.2346C60.724 51.2346 61.1717 50.7869 61.1717 50.2346C61.1717 49.6824 60.724 49.2346 60.1717 49.2346ZM60.1717 62.2346C59.6194 62.2346 59.1717 62.6824 59.1717 63.2346C59.1717 63.7869 59.6194 64.2346 60.1717 64.2346C60.724 64.2346 61.1717 63.7869 61.1717 63.2346C61.1717 62.6824 60.724 62.2346 60.1717 62.2346ZM60.1717 75.7346C59.6194 75.7346 59.1717 76.1823 59.1717 76.7346C59.1717 77.2869 59.6194 77.7346 60.1717 77.7346C60.724 77.7346 61.1717 77.2869 61.1717 76.7346C61.1717 76.1823 60.724 75.7346 60.1717 75.7346ZM60.1717 89.2346C59.6194 89.2346 59.1717 89.6823 59.1717 90.2346C59.1717 90.7869 59.6194 91.2346 60.1717 91.2346C60.724 91.2346 61.1717 90.7869 61.1717 90.2346C61.1717 89.6823 60.724 89.2346 60.1717 89.2346ZM60.1717 102.735C59.6194 102.735 59.1717 103.182 59.1717 103.735C59.1717 104.287 59.6194 104.735 60.1717 104.735C60.724 104.735 61.1717 104.287 61.1717 103.735C61.1717 103.182 60.724 102.735 60.1717 102.735ZM60.1717 116.235C59.6194 116.235 59.1717 116.682 59.1717 117.235C59.1717 117.787 59.6194 118.235 60.1717 118.235C60.724 118.235 61.1717 117.787 61.1717 117.235C61.1717 116.682 60.724 116.235 60.1717 116.235Z" stroke="black"/>
</svg>
