<svg width="120" height="160" viewBox="0 0 120 160" fill="none" xmlns="http://www.w3.org/2000/svg">
<path d="M22.3534 20.4607L27.0597 18.6215L38.1532 14.0144L43.1958 12C43.9206 12.2409 44.627 12.4678 45.3173 12.6809C45.6217 12.7749 45.923 12.8662 46.2213 12.9548C46.5612 13.0557 46.8973 13.1531 47.2298 13.2471C47.6385 13.3625 48.0417 13.4727 48.44 13.5776C48.7866 13.6688 49.1294 13.756 49.4689 13.8393C49.7737 13.914 50.0757 13.9855 50.3752 14.0538C50.7207 14.1325 51.0628 14.207 51.4019 14.2772C51.7509 14.3494 52.0968 14.417 52.4399 14.4801C52.7739 14.5415 53.1053 14.5987 53.4345 14.6515C53.7598 14.7037 54.0829 14.7517 54.4042 14.7955C54.7036 14.8363 55.0014 14.8734 55.2979 14.9069C55.6356 14.9451 55.9716 14.9785 56.3064 15.0072C56.6437 15.0361 56.9797 15.0602 57.3149 15.0795C57.5936 15.0955 57.8717 15.1082 58.1495 15.1176C58.5441 15.131 58.938 15.1376 59.3319 15.1375C59.7258 15.1376 60.1197 15.131 60.5143 15.1177C60.7921 15.1083 61.0702 15.0956 61.3489 15.0796C61.6841 15.0603 62.0201 15.0362 62.3574 15.0073C62.6922 14.9786 63.0282 14.9452 63.3659 14.907C63.6624 14.8735 63.9602 14.8363 64.2596 14.7955C64.5809 14.7517 64.904 14.7038 65.2293 14.6515C65.5585 14.5987 65.8899 14.5416 66.2239 14.4802C66.567 14.4171 66.9129 14.3494 67.2619 14.2772L68.0723 14.0523L69.0808 13.7725L70.0893 13.4926L70.9897 13.2427L72.1064 12.9329L73.0596 12.6683L74.0523 12.3929L75.4681 12L80.5106 14.0144L91.9404 18.5804L96.6468 20.4605C96.4873 21.0124 96.333 21.5598 96.1839 22.1028C95.9613 22.9139 95.7503 23.7151 95.5509 24.507C95.3636 25.2508 95.1865 25.9863 95.0195 26.7141C94.8489 27.4578 94.6888 28.1933 94.5392 28.9212C94.3605 29.7902 94.1968 30.6482 94.0478 31.4961C93.9171 32.2395 93.7978 32.975 93.6898 33.7032C93.5795 34.4463 93.4809 35.1818 93.3939 35.9103C93.2903 36.7783 93.203 37.6363 93.1321 38.4852C93.0596 39.3527 93.0041 40.2107 92.9653 41.0601C92.9315 41.8021 92.9104 42.5376 92.9021 43.2672C92.8936 44.0087 92.8981 44.7442 92.9157 45.4743C92.9349 46.2749 92.9697 47.069 93.0199 47.8575C93.0711 48.6626 93.1384 49.4618 93.2215 50.2563C93.2859 50.8721 93.3598 51.485 93.4432 52.0955C93.5441 52.8345 93.6588 53.57 93.7871 54.3026C93.9067 54.9849 94.0381 55.6648 94.1812 56.3429C94.3226 57.0131 94.4754 57.6816 94.6396 58.3489C94.8208 59.0857 95.0159 59.8211 95.2245 60.556C95.4335 61.2919 95.6561 62.0273 95.8921 62.7631C96.0887 63.3758 96.2947 63.9887 96.5099 64.6023C96.7246 65.2145 96.9485 65.8274 97.1815 66.4415C97.4136 67.0533 97.6548 67.6662 97.9049 68.2808C98.1041 68.7701 98.3089 69.2605 98.5194 69.7522C98.6765 70.1191 98.8367 70.4869 99 70.8554L98.7215 75.6374C97.5194 101.419 96.6273 125.662 95.733 137.804C95.3724 142.699 95.0115 145.627 94.6298 145.896C93.8354 145.938 93.0513 145.979 92.2766 146.018C91.5134 146.057 90.7595 146.095 90.0143 146.132C89.2701 146.169 88.5346 146.204 87.8072 146.239C87.124 146.271 86.4479 146.302 85.7785 146.333C85.1003 146.363 84.429 146.393 83.764 146.421C83.0077 146.454 82.2597 146.485 81.5192 146.515C80.8852 146.541 80.2567 146.565 79.6332 146.589C78.9106 146.616 78.1948 146.642 77.4852 146.667C76.8075 146.69 76.1353 146.712 75.4681 146.733C74.7909 146.755 74.1188 146.775 73.4511 146.794C72.6608 146.816 71.8768 146.837 71.0979 146.855C70.4219 146.871 69.7498 146.886 69.0809 146.9C68.4055 146.913 67.7334 146.926 67.0639 146.937C66.3892 146.948 65.7171 146.957 65.0469 146.965C64.2883 146.974 63.5322 146.982 62.7774 146.987C61.964 146.993 61.1521 146.997 60.3405 146.999C59.6429 147 58.9454 147 58.2473 146.999C57.5193 146.997 56.7906 146.993 56.0602 146.988C55.3597 146.983 54.6577 146.977 53.9533 146.969C53.2423 146.96 52.5289 146.95 51.8122 146.939C51.1157 146.928 50.416 146.915 49.7125 146.901C49.1121 146.889 48.5088 146.875 47.9022 146.861C47.1237 146.842 46.3397 146.822 45.5491 146.8C44.8816 146.781 44.2095 146.761 43.532 146.739C42.865 146.718 42.1929 146.696 41.515 146.672C40.8484 146.648 40.1763 146.624 39.498 146.598C38.8317 146.572 38.1596 146.546 37.481 146.518C36.815 146.491 36.1429 146.462 35.464 146.432C34.7982 146.403 34.1261 146.373 33.4469 146.341C32.7294 146.308 32.0041 146.274 31.2705 146.238C30.5998 146.205 29.9222 146.171 29.2372 146.136C28.5196 146.1 27.794 146.062 27.0597 146.023C26.2851 145.982 25.5008 145.94 24.7064 145.896C24.5604 145.726 24.3047 142.806 23.9604 137.804C23.1404 125.89 21.818 102.169 20.2785 75.6785L20.0001 70.8965C20.0008 70.895 20.0015 70.8934 20.0022 70.8918C20.1648 70.5249 20.3243 70.1587 20.4807 69.7933C20.6911 69.3016 20.896 68.8113 21.0951 68.3219C21.3452 67.7073 21.5864 67.0944 21.8185 66.4827C22.0516 65.8686 22.2755 65.2557 22.4902 64.6435C22.7054 64.0298 22.9113 63.4169 23.1079 62.8042C23.344 62.0685 23.5666 61.3331 23.7755 60.5971C23.9842 59.8622 24.1792 59.1268 24.3604 58.3901C24.5246 57.7227 24.6775 57.0542 24.8189 56.384C24.962 55.7059 25.0934 55.0261 25.2129 54.3438C25.3413 53.6111 25.456 52.8757 25.5569 52.1367C25.6402 51.5262 25.7142 50.9133 25.7786 50.2974C25.8617 49.503 25.9289 48.7037 25.9802 47.8987C26.0304 47.1101 26.0651 46.316 26.0844 45.5154C26.1019 44.7853 26.1065 44.0499 26.098 43.3084C26.0896 42.5787 26.0686 41.8433 26.0347 41.1013C25.996 40.2518 25.9405 39.3939 25.868 38.5264C25.797 37.6775 25.7098 36.8195 25.6061 35.9514C25.5191 35.223 25.4205 34.4875 25.3103 33.7444C25.2022 33.0161 25.0829 32.2806 24.9523 31.5373C24.8033 30.6894 24.6395 29.8313 24.4609 28.9623C24.3112 28.2345 24.1511 27.4989 23.9805 26.7553C23.8135 26.0275 23.6364 25.2919 23.4491 24.5482C23.2497 23.7562 23.0387 22.955 22.8161 22.144C22.6671 21.601 22.5129 21.0127 22.3534 20.4607Z" fill="#B7A694"/>
<path d="M20.0001 70.8554L20.2785 75.6785M43.1958 12L38.1532 14.0144M43.1958 12C43.2899 12.247 43.3834 12.4922 43.4763 12.7357M43.1958 12C43.9206 12.2409 44.627 12.4678 45.3173 12.6809M75.4681 12L80.5106 14.0144M75.4681 12C75.374 12.247 75.2804 12.4922 75.1875 12.7357M75.4681 12L74.0523 12.3929M27.0597 18.6215L22.3534 20.4607C22.5129 21.0127 22.6671 21.601 22.8161 22.144M27.0597 18.6215L38.1532 14.0144M27.0597 18.6215C27.4615 20.005 27.8326 21.3676 28.1743 22.709M20.2785 75.6785L20.0001 70.8965C20.1634 70.528 20.3236 70.1603 20.4807 69.7933M20.2785 75.6785C20.6366 75.5288 20.9924 75.3505 21.3447 75.1439M20.2785 75.6785C21.818 102.169 23.1404 125.89 23.9604 137.804M98.7215 75.6374L99 70.8554C98.8367 70.4869 98.6764 70.1191 98.5194 69.7522M98.7215 75.6374C98.3634 75.4877 98.0077 75.3093 97.6553 75.1028M98.7215 75.6374C97.5194 101.419 96.6273 125.662 95.733 137.804M91.9404 18.5804L96.6468 20.4605C96.4873 21.0124 96.333 21.5598 96.1839 22.1028M91.9404 18.5804L80.5106 14.0144M91.9404 18.5804C91.5386 19.9638 91.1675 21.3265 90.8258 22.6678M38.1532 14.0144C38.2173 14.1992 38.2829 14.386 38.3499 14.5749M59.3319 52.8309C59.108 52.5763 58.8838 52.3159 58.6596 52.05M59.3319 52.8309V44.3705M59.3319 52.8309C59.5558 52.5763 59.78 52.3159 60.0042 52.05C60.1982 51.8199 60.3923 51.5857 60.5864 51.3475M80.5106 14.0144C80.4465 14.1992 80.3809 14.386 80.3139 14.5749M59.3319 44.3705C59.1046 44.117 58.8806 43.8604 58.6596 43.6004M59.3319 44.3705C59.5592 44.117 59.7832 43.8604 60.0042 43.6004M45.6042 18.2534C45.5092 18.0101 45.4135 17.7649 45.3173 17.5177M45.6042 18.2534C45.7009 18.5006 45.7969 18.7459 45.8924 18.9891M45.6042 18.2534L49.4689 13.8393M45.6042 18.2534C45.9916 18.4548 46.4233 18.6441 46.8936 18.8212M38.3499 14.5749L43.4763 12.7357M38.3499 14.5749C38.5194 15.0529 38.6981 15.5438 38.8855 16.0463M43.4763 12.7357C43.6411 13.1673 43.8041 13.5935 43.9653 14.0144M38.8855 16.0463L43.9653 14.0144M38.8855 16.0463C39.0646 16.5265 39.2516 17.0173 39.4462 17.5177M43.9653 14.0144L45.3173 12.6809M43.9653 14.0144C44.0729 14.2952 44.1798 14.5736 44.2859 14.8497M39.4462 17.5177L44.5404 15.5111M39.4462 17.5177C39.6336 17.9996 39.8281 18.4904 40.0293 18.9891M44.5404 15.5111C44.4561 15.2921 44.3712 15.0716 44.2859 14.8497M44.5404 15.5111C44.5951 15.6529 44.6495 15.7941 44.7038 15.9347M40.0293 18.9891L44.8891 16.4142M40.0293 18.9891C40.2242 19.4724 40.4255 19.9631 40.6328 20.4605M44.8891 16.4142C44.8276 16.2551 44.7658 16.0953 44.7038 15.9347M44.8891 16.4142C44.9848 16.6613 45.0798 16.9066 45.1743 17.1499M40.6328 20.4605L45.3173 17.5177M40.6328 20.4605C40.8347 20.945 41.0424 21.4357 41.2555 21.9319M45.3173 17.5177C45.2698 17.3956 45.2221 17.273 45.1743 17.1499M41.2555 21.9319L45.8924 18.9891M41.2555 21.9319C41.4496 22.3838 41.6482 22.8403 41.8511 23.3006M45.8924 18.9891C46.0387 19.3616 46.1837 19.7294 46.3275 20.0926M41.8511 23.3006L46.3275 20.0926M41.8511 23.3006C42.0271 23.6999 42.2063 24.1021 42.3886 24.5068M46.3275 20.0926C46.475 20.4653 46.6212 20.8331 46.7663 21.1962M42.3886 24.5068L46.7663 21.1962M42.3886 24.5068C42.6514 25.09 42.9206 25.6785 43.1958 26.2709M46.7663 21.1962C46.9658 21.6955 47.163 22.1859 47.3582 22.6675M43.1958 26.2709L47.3582 22.6675M43.1958 26.2709C43.6296 27.2049 44.0783 28.1488 44.5404 29.0979M47.3582 22.6675C47.5413 23.1192 47.7225 23.5631 47.9021 23.9996M43.9653 27.4496L47.9021 23.9996M47.9021 23.9996C48.0754 24.4207 48.2473 24.835 48.4178 25.2425M48.4178 25.2425L44.5404 29.0979M48.4178 25.2425C48.5632 25.5901 48.7077 25.9329 48.8514 26.2709M44.5404 29.0979C44.7616 29.5521 44.9857 30.0074 45.2128 30.4635M45.2128 30.4635L48.8514 26.2709M45.2128 30.4635C45.4831 31.0065 45.7576 31.5505 46.0358 32.0946M48.8514 26.2709C49.0501 26.7386 49.2471 27.1971 49.4428 27.6468M46.0358 32.0946L49.4428 27.6468M46.0358 32.0946C46.2765 32.5653 46.5201 33.0361 46.7663 33.5064M49.4428 27.6468C49.6292 28.0752 49.8144 28.4957 49.9985 28.9085M46.7663 33.5064L49.9985 28.9085M46.7663 33.5064C46.9934 33.9403 47.2228 34.3738 47.4543 34.8065M49.9985 28.9085C50.1973 29.3539 50.3948 29.7904 50.5915 30.2184M47.4543 34.8065L50.5915 30.2184M47.4543 34.8065C47.7175 35.2983 47.9834 35.789 48.2517 36.2779M50.5915 30.2184C50.7587 30.5823 50.9253 30.9399 51.0914 31.2916M48.2517 36.2779L51.0914 31.2916M48.2517 36.2779C48.522 36.7703 48.7949 37.261 49.07 37.7492M51.0914 31.2916C51.3018 31.7369 51.5114 32.1727 51.7207 32.5994M49.07 37.7492L51.7207 32.5994M49.07 37.7492C49.3768 38.2935 49.6864 38.8348 49.9985 39.372M51.7207 32.5994C51.9674 33.1022 52.2135 33.5924 52.4599 34.0708M49.9985 39.372L52.4599 34.0708M49.9985 39.372C50.2901 39.8737 50.5838 40.372 50.8795 40.866M52.4599 34.0708C52.653 34.4458 52.8462 34.8135 53.0397 35.1743M50.8795 40.866L53.0397 35.1743M50.8795 40.866C51.1404 41.302 51.4029 41.7346 51.6667 42.1634M53.0397 35.1743C53.2778 35.618 53.5163 36.0511 53.7561 36.4745M51.6667 42.1634L53.7561 36.4745M51.6667 42.1634C51.9717 42.6592 52.2786 43.15 52.5869 43.6348M53.7561 36.4745C53.9331 36.7872 54.1108 37.0946 54.2894 37.397M52.5869 43.6348L54.2894 37.397M52.5869 43.6348C52.8601 44.0642 53.1344 44.489 53.4097 44.9086M54.2894 37.397C54.512 37.774 54.736 38.1433 54.9617 38.5051M53.4097 44.9086L54.9617 38.5051M53.4097 44.9086C53.7019 45.3537 53.9952 45.7931 54.2894 46.226M54.9617 38.5051C55.1916 38.8737 55.4233 39.2346 55.6572 39.5885M54.2894 46.226C54.2894 45.9187 55.2012 41.6729 55.6572 39.5885M54.2894 46.226C54.6244 46.719 54.9607 47.2036 55.2979 47.6788M55.6572 39.5885C55.8716 39.9128 56.0879 40.2312 56.3064 40.5441M55.2979 47.6788L56.3064 40.5441M55.2979 47.6788C55.5637 48.0534 55.83 48.4222 56.0967 48.7846M56.3064 40.5441C56.5155 40.8435 56.7267 41.138 56.9403 41.4277M56.0967 48.7846L56.9403 41.4277M56.0967 48.7846C56.3775 49.1663 56.6588 49.541 56.9403 49.9081M56.9403 41.4277C57.1235 41.6763 57.3084 41.9214 57.4953 42.1634M56.9403 49.9081L57.4953 42.1634M56.9403 49.9081C57.2233 50.2771 57.5065 50.6385 57.7897 50.9917M57.4953 42.1634C57.6872 42.4119 57.8812 42.6571 58.0774 42.8991M57.7897 50.9917L58.0774 42.8991M57.7897 50.9917C58.0797 51.3533 58.3697 51.7062 58.6596 52.05M58.0774 42.8991C58.2692 43.1358 58.4632 43.3694 58.6596 43.6004M58.6596 52.05V43.6004M80.3139 14.5749L75.1875 12.7357M80.3139 14.5749C80.1444 15.0529 79.9657 15.5438 79.7783 16.0463M75.1875 12.7357C75.1082 12.9435 75.0292 13.1501 74.9507 13.3554M79.7783 16.0463L74.6985 14.0144M79.7783 16.0463C79.5992 16.5265 79.4122 17.0173 79.2176 17.5177M74.6985 14.0144C74.6387 14.1704 74.5792 14.3256 74.5198 14.4802M74.6985 14.0144C74.7821 13.7962 74.8662 13.5765 74.9507 13.3554M79.2176 17.5177L74.1234 15.5111M79.2176 17.5177C79.0302 17.9996 78.8357 18.4904 78.6346 18.9891M74.1234 15.5111C74.0063 15.815 73.89 16.116 73.7747 16.4142M74.1234 15.5111L72.1064 12.9329M74.1234 15.5111C74.2544 15.1711 74.3865 14.8274 74.5198 14.4802M78.6346 18.9891L73.7747 16.4142M78.6346 18.9891C78.4396 19.4724 78.2383 19.9632 78.031 20.4605M73.7747 16.4142C73.745 16.4908 73.7154 16.5673 73.6858 16.6436M78.031 20.4605L73.3465 17.5177M78.031 20.4605C77.8291 20.945 77.6214 21.4357 77.4083 21.9319M73.3465 17.5177C73.2985 17.6409 73.2507 17.7636 73.2031 17.8858M73.3465 17.5177C73.4588 17.2291 73.5719 16.9378 73.6858 16.6436M77.4083 21.9319L72.7714 18.9891M77.4083 21.9319C77.2142 22.3838 77.0156 22.8403 76.8127 23.3006M72.7714 18.9891C72.6251 19.3616 72.4801 19.7294 72.3363 20.0926M72.7714 18.9891C72.8193 18.8671 72.8674 18.7445 72.9156 18.6215M76.8127 23.3006L72.3363 20.0926M76.8127 23.3006C76.6367 23.6999 76.4575 24.1021 76.2752 24.5068M72.3363 20.0926C72.1888 20.4653 72.0426 20.8331 71.8975 21.1962M76.2752 24.5068L71.8975 21.1962M76.2752 24.5068C76.0124 25.09 75.7432 25.6785 75.4681 26.2709M71.8975 21.1962C71.698 21.6955 71.5008 22.1859 71.3056 22.6675M75.4681 26.2709L71.3056 22.6675M75.4681 26.2709C75.0342 27.2049 74.5855 28.1488 74.1234 29.0979M71.3056 22.6675C71.1225 23.1192 70.9413 23.5631 70.7617 23.9996M74.6985 27.4496L70.7617 23.9996M70.7617 23.9996C70.5884 24.4207 70.4165 24.835 70.246 25.2425M70.246 25.2425L74.1234 29.0979M70.246 25.2425C70.1006 25.5901 69.9561 25.9329 69.8125 26.2709M74.1234 29.0979C73.9023 29.5521 73.6781 30.0074 73.451 30.4635M73.451 30.4635L69.8125 26.2709M73.451 30.4635C73.1807 31.0065 72.9062 31.5505 72.628 32.0946M69.8125 26.2709C69.6137 26.7386 69.4167 27.1971 69.221 27.6468M72.628 32.0946L69.221 27.6468M72.628 32.0946C72.3873 32.5653 72.1437 33.0361 71.8975 33.5064M69.221 27.6468C69.0346 28.0752 68.8494 28.4957 68.6653 28.9085M71.8975 33.5064L68.6653 28.9085M71.8975 33.5064C71.6704 33.9403 71.441 34.3738 71.2095 34.8065M68.6653 28.9085C68.4666 29.3539 68.269 29.7904 68.0723 30.2184M71.2095 34.8065L68.0723 30.2184M71.2095 34.8065C70.9463 35.2983 70.6804 35.789 70.4121 36.2779M68.0723 30.2184C67.9051 30.5822 67.7385 30.9399 67.5724 31.2916M70.4121 36.2779L67.5724 31.2916M70.4121 36.2779C70.1418 36.7703 69.8689 37.261 69.5938 37.7492M67.5724 31.2916C67.362 31.7369 67.1524 32.1727 66.9431 32.5994M69.5938 37.7492L66.9431 32.5994M69.5938 37.7492C69.287 38.2935 68.9774 38.8348 68.6653 39.372M66.9431 32.5994C66.6964 33.1022 66.4503 33.5924 66.2039 34.0708M68.6653 39.372L66.2039 34.0708M68.6653 39.372C68.3738 39.8737 68.08 40.372 67.7843 40.866M66.2039 34.0708C66.0108 34.4458 65.8176 34.8135 65.6241 35.1743M67.7843 40.866L65.6241 35.1743M67.7843 40.866C67.5234 41.302 67.2609 41.7346 66.9971 42.1634M65.6241 35.1743C65.386 35.618 65.1474 36.0511 64.9077 36.4745M66.9971 42.1634L64.9077 36.4745M66.9971 42.1634C66.6921 42.6592 66.3852 43.15 66.0769 43.6348M64.9077 36.4745C64.7307 36.7872 64.553 37.0946 64.3744 37.397M66.0769 43.6348L64.3744 37.397M66.0769 43.6348C65.8037 44.0642 65.5294 44.489 65.2541 44.9086M64.3744 37.397C64.1518 37.7741 63.9278 38.1433 63.7021 38.5051M65.2541 44.9086L63.7021 38.5051M65.2541 44.9086C64.9619 45.3537 64.6686 45.7931 64.3744 46.226M63.7021 38.5051C63.4722 38.8737 63.2405 39.2346 63.0066 39.5885M64.3744 46.226C64.3744 45.9187 63.4626 41.6729 63.0066 39.5885M64.3744 46.226C64.0394 46.719 63.7031 47.2036 63.3659 47.6788M63.0066 39.5885C62.7922 39.9128 62.5759 40.2312 62.3574 40.5441M63.3659 47.6788L62.3574 40.5441M63.3659 47.6788C63.1001 48.0534 62.8338 48.4222 62.5671 48.7846M62.3574 40.5441C62.1483 40.8435 61.9371 41.138 61.7235 41.4277M62.5671 48.7846L61.7235 41.4277M62.5671 48.7846C62.2863 49.1663 62.005 49.541 61.7235 49.9081M61.7235 41.4277C61.5403 41.6763 61.3554 41.9214 61.1685 42.1634C61.0709 42.2898 60.9728 42.4153 60.8741 42.54M61.7235 49.9081C61.4405 50.2771 61.1573 50.6385 60.8741 50.9917C60.7782 51.1112 60.6823 51.2299 60.5864 51.3475M61.7235 49.9081L60.8741 42.54M60.0042 43.6004C60.2006 43.3694 60.3946 43.1358 60.5864 42.8991C60.6828 42.7801 60.7787 42.6604 60.8741 42.54M60.0042 43.6004L60.5864 51.3475M45.3173 12.6809C45.6217 12.7749 45.923 12.8662 46.2213 12.9548M44.2859 14.8497L46.2213 12.9548M46.2213 12.9548C46.5612 13.0557 46.8973 13.1531 47.2298 13.2471M44.7038 15.9347L47.2298 13.2471M47.2298 13.2471C47.6385 13.3625 48.0417 13.4727 48.44 13.5776M45.1743 17.1499L48.44 13.5776M48.44 13.5776C48.7866 13.6688 49.1294 13.756 49.4689 13.8393M49.4689 13.8393C49.7737 13.914 50.0757 13.9855 50.3752 14.0538M46.8936 18.8212C46.8936 18.6613 49.2147 15.5763 50.3752 14.0538M46.8936 18.8212C47.3712 19.0009 47.8887 19.168 48.44 19.3221M50.3752 14.0538C50.7207 14.1325 51.0628 14.207 51.4019 14.2772M48.44 19.3221L51.4019 14.2772M48.44 19.3221C48.9864 19.4749 49.5661 19.6149 50.1732 19.7419M51.4019 14.2772C51.7509 14.3494 52.0968 14.417 52.4399 14.4801M50.1732 19.7419L52.4399 14.4801M50.1732 19.7419C50.6961 19.8513 51.2394 19.9511 51.7993 20.0411M52.4399 14.4801C52.7739 14.5415 53.1053 14.5987 53.4345 14.6515M51.7993 20.0411L53.4345 14.6515M51.7993 20.0411C52.2457 20.1128 52.7026 20.1784 53.1683 20.2376M53.4345 14.6515C53.7598 14.7037 54.0829 14.7517 54.4042 14.7955M53.1683 20.2376L54.4042 14.7955M53.1683 20.2376C53.5741 20.2892 53.9865 20.336 54.4042 20.378M54.4042 14.7955C54.7036 14.8363 55.0014 14.8734 55.2979 14.9069M54.4042 20.378L55.2979 14.9069M54.4042 20.378C54.8516 20.423 55.3051 20.4624 55.7633 20.4962M55.2979 14.9069C55.6356 14.9451 55.9716 14.9785 56.3064 15.0072M55.7633 20.4962L56.3064 15.0072M55.7633 20.4962C56.1652 20.5258 56.5707 20.5511 56.9787 20.5721M56.3064 15.0072C56.6437 15.0361 56.9797 15.0602 57.3149 15.0795M56.9787 20.5721L57.3149 15.0795M56.9787 20.5721C57.367 20.592 57.7575 20.608 58.1495 20.62M57.3149 15.0795C57.5936 15.0955 57.8717 15.1082 58.1495 15.1176M58.1495 20.62V15.1176M58.1495 20.62C58.5425 20.632 58.9369 20.64 59.3319 20.644M58.1495 15.1176C58.5441 15.131 58.938 15.1376 59.3319 15.1375M59.3319 20.644C59.3319 20.5257 59.3319 16.9237 59.3319 15.1375M59.3319 20.644C59.7269 20.64 60.1213 20.6321 60.5143 20.6201M59.3319 15.1375C59.7258 15.1376 60.1197 15.131 60.5143 15.1177M70.2238 19.3222L67.2619 14.2772M70.2238 19.3222C69.6774 19.4749 69.0977 19.6149 68.4906 19.742M70.2238 19.3222L71.434 19.0072M67.2619 14.2772C66.9129 14.3494 66.567 14.4171 66.2239 14.4802M67.2619 14.2772L68.0723 14.0523M68.4906 19.742L66.2239 14.4802M68.4906 19.742C67.9677 19.8514 67.4244 19.9512 66.8645 20.0411M66.2239 14.4802C65.8899 14.5416 65.5585 14.5987 65.2293 14.6515M66.8645 20.0411L65.2293 14.6515M66.8645 20.0411C66.4181 20.1129 65.9612 20.1784 65.4955 20.2376M65.2293 14.6515C64.904 14.7038 64.5809 14.7517 64.2596 14.7955M65.4955 20.2376L64.2596 14.7955M65.4955 20.2376C65.0897 20.2892 64.6773 20.3361 64.2596 20.378M64.2596 14.7955C63.9602 14.8363 63.6624 14.8735 63.3659 14.907M64.2596 20.378L63.3659 14.907M64.2596 20.378C63.8122 20.423 63.3587 20.4624 62.9005 20.4962M63.3659 14.907C63.0282 14.9452 62.6922 14.9786 62.3574 15.0073M62.9005 20.4962L62.3574 15.0073M62.9005 20.4962C62.4986 20.5259 62.0931 20.5512 61.6851 20.5721M62.3574 15.0073C62.0201 15.0362 61.6841 15.0603 61.3489 15.0796M61.6851 20.5721L61.3489 15.0796M61.6851 20.5721C61.2968 20.5921 60.9063 20.6081 60.5143 20.6201M61.3489 15.0796C61.0702 15.0956 60.7921 15.1083 60.5143 15.1177M60.5143 20.6201V15.1177M72.9156 18.6215C72.9634 18.4993 73.0114 18.3766 73.0596 18.2534C73.1073 18.1314 73.1551 18.0088 73.2031 17.8858M72.9156 18.6215L72.4425 18.7446M68.0723 14.0523L71.434 19.0072M68.0723 14.0523L69.0808 13.7725M71.434 19.0072L72.4425 18.7446M69.0808 13.7725L72.4425 18.7446M69.0808 13.7725L70.0893 13.4926M70.0893 13.4926L73.2031 17.8858M70.0893 13.4926L70.9897 13.2427M70.9897 13.2427L73.6858 16.6436M70.9897 13.2427L72.1064 12.9329M72.1064 12.9329L73.0596 12.6683M73.0596 12.6683L74.5198 14.4802M73.0596 12.6683L74.0523 12.3929M74.0523 12.3929L74.9507 13.3554M91.2681 20.0929L96.1839 22.1028M96.1839 22.1028C95.9613 22.9139 95.7503 23.7151 95.5509 24.507M90.8258 22.6678L95.5509 24.507M90.8258 22.6678C90.379 24.4212 89.9826 26.1381 89.6338 27.8177M95.5509 24.507C95.3636 25.2508 95.1865 25.9863 95.0195 26.7141M90.2596 24.8749L95.0195 26.7141M95.0195 26.7141C94.8489 27.4578 94.6888 28.1933 94.5392 28.9212M89.6338 27.8177L94.5392 28.9212M89.6338 27.8177C89.4535 28.686 89.2858 29.5444 89.1306 30.3926M94.5392 28.9212C94.3605 29.7902 94.1968 30.6482 94.0478 31.4961M89.1306 30.3926L94.0478 31.4961M89.1306 30.3926C88.9715 31.2616 88.8254 32.12 88.6918 32.9675M94.0478 31.4961C93.9171 32.2395 93.7978 32.975 93.6898 33.7032M88.6918 32.9675L93.6898 33.7032M88.6918 32.9675C88.5349 33.9634 88.3954 34.9444 88.2726 35.9103M93.6898 33.7032C93.5795 34.4463 93.4809 35.1818 93.3939 35.9103M88.2726 35.9103H93.3939M88.2726 35.9103C88.1618 36.781 88.0647 37.6393 87.9806 38.4852M93.3939 35.9103C93.2903 36.7783 93.2031 37.6363 93.1321 38.4852M87.9806 38.4852H93.1321M87.9806 38.4852C87.894 39.3569 87.8214 40.2152 87.7621 41.0601M93.1321 38.4852C93.0596 39.3527 93.004 40.2107 92.9653 41.0601M87.7621 41.0601H92.9653M87.7621 41.0601C87.7009 41.9329 87.6539 42.7913 87.6207 43.6351M92.9653 41.0601C92.9315 41.8021 92.9104 42.5376 92.9021 43.2672M87.6207 43.6351L92.9021 43.2672M87.6207 43.6351C87.5863 44.5091 87.5667 45.3675 87.5611 46.21M92.9021 43.2672C92.8936 44.0087 92.8981 44.7442 92.9157 45.4743M87.5611 46.21L92.9157 45.4743M87.5611 46.21C87.5553 47.0855 87.5648 47.9439 87.5887 48.7849M92.9157 45.4743C92.9349 46.2749 92.9697 47.069 93.0199 47.8575M87.5887 48.7849L93.0199 47.8575M87.5887 48.7849C87.6137 49.6623 87.6545 50.5207 87.7103 51.3598M93.0199 47.8575C93.0711 48.6626 93.1384 49.4618 93.2215 50.2563M87.7103 51.3598L93.2215 50.2563M87.7103 51.3598C87.8304 53.1668 88.02 54.8845 88.2711 56.5097M93.2215 50.2563C93.2859 50.8721 93.3598 51.485 93.4432 52.0955M87.9806 53.9348L93.4432 52.0955M93.4432 52.0955C93.5441 52.8345 93.6588 53.57 93.7871 54.3026M88.2711 56.5097L93.7871 54.3026M88.2711 56.5097C88.6214 58.7768 89.0912 60.864 89.6587 62.7631M93.7871 54.3026C93.9067 54.9849 94.0381 55.6648 94.1812 56.3429M88.9149 59.4525L94.1812 56.3429M94.1812 56.3429C94.3226 57.0131 94.4754 57.6816 94.6396 58.3489M89.6587 62.7631L94.6396 58.3489M89.6587 62.7631C89.9688 63.8006 90.308 64.782 90.6728 65.7058M94.6396 58.3489C94.8208 59.0857 95.0159 59.8211 95.2245 60.556M90.6728 65.7058L95.2245 60.556M90.6728 65.7058C91.0669 66.7041 91.491 67.6352 91.9404 68.4975M95.2245 60.556C95.4335 61.2919 95.6561 62.0273 95.8921 62.7631M91.9404 68.4975L95.8921 62.7631M91.9404 68.4975C92.3856 69.3516 92.8557 70.1381 93.3463 70.8554M95.8921 62.7631C96.0887 63.3758 96.2947 63.9887 96.5099 64.6023M93.3463 70.8554L96.5099 64.6023M93.3463 70.8554C93.9134 71.6845 94.5079 72.4212 95.123 73.0628M96.5099 64.6023C96.7246 65.2145 96.9485 65.8274 97.1815 66.4415M95.123 73.0628L97.1815 66.4415M95.123 73.0628C95.575 73.5342 96.0382 73.9543 96.5099 74.322M97.1815 66.4415C97.4136 67.0533 97.6548 67.6662 97.9049 68.2808M96.5099 74.322L97.9049 68.2808M96.5099 74.322C96.8867 74.6159 97.269 74.8763 97.6553 75.1028M97.9049 68.2808C98.1041 68.7701 98.3089 69.2605 98.5194 69.7522M97.6553 75.1028L98.5194 69.7522M27.5018 20.1799L22.8161 22.144M22.8161 22.144C23.0387 22.955 23.2497 23.7562 23.4491 24.5482M28.1743 22.709L23.4491 24.5482M28.1743 22.709C28.621 24.4623 29.0174 26.1793 29.3662 27.8588M23.4491 24.5482C23.6364 25.2919 23.8135 26.0275 23.9805 26.7553M28.7405 24.916L23.9805 26.7553M23.9805 26.7553C24.1511 27.4989 24.3112 28.2345 24.4609 28.9623M29.3662 27.8588L24.4609 28.9623M29.3662 27.8588C29.5466 28.7272 29.7142 29.5855 29.8695 30.4337M24.4609 28.9623C24.6395 29.8313 24.8033 30.6894 24.9523 31.5373M29.8695 30.4337L24.9523 31.5373M29.8695 30.4337C30.0285 31.3027 30.1746 32.1611 30.3082 33.0087M24.9523 31.5373C25.0829 32.2806 25.2022 33.0161 25.3103 33.7444M30.3082 33.0087L25.3103 33.7444M30.3082 33.0087C30.4651 34.0046 30.6046 34.9856 30.7274 35.9514M25.3103 33.7444C25.4205 34.4875 25.5191 35.223 25.6061 35.9514M30.7274 35.9514H25.6061M30.7274 35.9514C30.8382 36.8221 30.9353 37.6805 31.0194 38.5264M25.6061 35.9514C25.7098 36.8195 25.797 37.6775 25.868 38.5264M31.0194 38.5264H25.868M31.0194 38.5264C31.106 39.398 31.1786 40.2564 31.2379 41.1013M25.868 38.5264C25.9405 39.3939 25.996 40.2518 26.0347 41.1013M31.2379 41.1013H26.0347M31.2379 41.1013C31.2992 41.974 31.3461 42.8324 31.3793 43.6762M26.0347 41.1013C26.0686 41.8433 26.0896 42.5787 26.098 43.3084M31.3793 43.6762L26.098 43.3084M31.3793 43.6762C31.4137 44.5502 31.4333 45.4086 31.4389 46.2511M26.098 43.3084C26.1065 44.0499 26.1019 44.7853 26.0844 45.5154M31.4389 46.2511L26.0844 45.5154M31.4389 46.2511C31.4447 47.1267 31.4352 47.9851 31.4113 48.8261M26.0844 45.5154C26.0651 46.316 26.0304 47.1101 25.9802 47.8987M31.4113 48.8261L25.9802 47.8987M31.4113 48.8261C31.3863 49.7034 31.3455 50.5618 31.2897 51.401M25.9802 47.8987C25.9289 48.7037 25.8617 49.503 25.7786 50.2974M31.2897 51.401L25.7786 50.2974M31.2897 51.401C31.1696 53.208 30.98 54.9256 30.7289 56.5508M25.7786 50.2974C25.7142 50.9133 25.6402 51.5262 25.5569 52.1367M31.0194 53.9759L25.5569 52.1367M25.5569 52.1367C25.456 52.8757 25.3413 53.6111 25.2129 54.3438M30.7289 56.5508L25.2129 54.3438M30.7289 56.5508C30.3786 58.8179 29.9088 60.9052 29.3413 62.8042M25.2129 54.3438C25.0934 55.026 24.962 55.7059 24.8189 56.384M30.0851 59.4936L24.8189 56.384M24.8189 56.384C24.6775 57.0542 24.5246 57.7227 24.3604 58.3901M29.3413 62.8042L24.3604 58.3901M29.3413 62.8042C29.0313 63.8418 28.6921 64.8231 28.3273 65.747M24.3604 58.3901C24.1792 59.1268 23.9842 59.8622 23.7755 60.5971M28.3273 65.747L23.7755 60.5971M28.3273 65.747C27.9331 66.7453 27.509 67.6764 27.0596 68.5386M23.7755 60.5971C23.5666 61.3331 23.344 62.0685 23.1079 62.8042M27.0596 68.5386L23.1079 62.8042M27.0596 68.5386C26.6144 69.3927 26.1444 70.1792 25.6538 70.8965M23.1079 62.8042C22.9113 63.4169 22.7054 64.0298 22.4902 64.6435M25.6538 70.8965L22.4902 64.6435M25.6538 70.8965C25.0867 71.7257 24.4922 72.4623 23.877 73.1039M22.4902 64.6435C22.2755 65.2557 22.0516 65.8686 21.8185 66.4827M23.877 73.1039L21.8185 66.4827M23.877 73.1039C23.425 73.5753 22.9618 73.9954 22.4902 74.3632M21.8185 66.4827C21.5864 67.0944 21.3452 67.7073 21.0951 68.3219M22.4902 74.3632L21.0951 68.3219M22.4902 74.3632C22.1133 74.657 21.731 74.9174 21.3447 75.1439M21.0951 68.3219C20.896 68.8113 20.6911 69.3016 20.4807 69.7933M21.3447 75.1439L20.4807 69.7933M23.9604 137.804C24.3047 142.806 24.5604 145.726 24.7064 145.896C25.5008 145.94 26.2851 145.982 27.0597 146.023M23.9604 137.804C24.7797 137.836 25.5885 137.867 26.3874 137.897M95.733 137.804C95.3724 142.699 95.0115 145.627 94.6298 145.896C93.8355 145.938 93.0513 145.979 92.2766 146.018M95.733 137.804C94.73 137.844 93.7429 137.884 92.7703 137.921M26.3874 137.897L27.0597 146.023M26.3874 137.897C27.0668 137.923 27.739 137.948 28.4044 137.972M27.0597 146.023C27.794 146.062 28.5196 146.1 29.2372 146.136M28.4044 137.972L29.2372 146.136M28.4044 137.972C29.1982 138.001 29.9824 138.029 30.7576 138.056M29.2372 146.136C29.9222 146.171 30.5998 146.205 31.2705 146.238M30.7576 138.056L31.2705 146.238M30.7576 138.056C31.4367 138.08 32.1089 138.103 32.7746 138.126M31.2705 146.238C32.0041 146.274 32.7294 146.308 33.4469 146.341M32.7746 138.126L33.4469 146.341M32.7746 138.126C33.568 138.152 34.3521 138.178 35.1278 138.203M33.4469 146.341C34.1261 146.373 34.7982 146.403 35.464 146.432M35.1278 138.203L35.464 146.432M35.1278 138.203C35.8065 138.224 36.4786 138.245 37.1448 138.265M35.464 146.432C36.1429 146.462 36.815 146.491 37.481 146.518M37.1448 138.265L37.481 146.518M37.1448 138.265C37.8232 138.285 38.4954 138.305 39.1618 138.324M37.481 146.518C38.1596 146.546 38.8317 146.572 39.498 146.598M39.1618 138.324L39.498 146.598M39.1618 138.324C39.8399 138.343 40.5121 138.361 41.1788 138.378M39.498 146.598C40.1763 146.624 40.8484 146.648 41.515 146.672M41.1788 138.378L41.515 146.672M41.1788 138.378C41.9705 138.399 42.7546 138.418 43.532 138.437M41.515 146.672C42.1929 146.696 42.865 146.718 43.532 146.739M43.532 138.437V146.739M43.532 138.437C44.2092 138.452 44.8814 138.467 45.5491 138.481M43.532 146.739C44.2095 146.761 44.8816 146.781 45.5491 146.8M45.5491 138.481V146.8M45.5491 138.481C46.2257 138.496 46.8979 138.509 47.5661 138.521M45.5491 146.8C46.3397 146.822 47.1237 146.842 47.9022 146.861M47.9022 146.861L47.5661 138.521M47.9022 146.861C48.5088 146.875 49.1121 146.889 49.7125 146.901M47.5661 138.521C48.2858 138.535 49.0011 138.547 49.7125 138.558M49.7125 138.558V146.901M49.7125 138.558C50.4158 138.569 51.1155 138.579 51.8122 138.587M49.7125 146.901C50.416 146.915 51.1157 146.928 51.8122 146.939M51.8122 146.939V138.587M51.8122 146.939C52.5289 146.95 53.2423 146.96 53.9533 146.969M51.8122 138.587C52.5287 138.597 53.2422 138.604 53.9533 138.611M53.9533 138.611V146.969M53.9533 138.611C54.6576 138.618 55.3596 138.623 56.0602 138.628M53.9533 146.969C54.6577 146.977 55.3597 146.983 56.0602 146.988M56.0602 138.628V146.988M56.0602 138.628C56.7905 138.633 57.5192 138.636 58.2473 138.638M56.0602 146.988C56.7906 146.993 57.5193 146.997 58.2473 146.999M58.2473 138.638V146.999M58.2473 138.638C58.9454 138.64 59.6429 138.641 60.3405 138.641M58.2473 146.999C58.9454 147 59.6429 147 60.3405 146.999M60.3405 138.641V146.999M60.3405 138.641C61.1521 138.641 61.964 138.639 62.7774 138.636M60.3405 146.999C61.1521 146.997 61.964 146.993 62.7774 146.987M62.7774 138.636V146.987M62.7774 138.636C64.1993 138.63 65.6259 138.62 67.0639 138.604M62.7774 146.987C63.5322 146.982 64.2883 146.974 65.0469 146.965M65.0469 138.641V146.965M65.0469 146.965C65.7171 146.957 66.3892 146.948 67.0639 146.937M67.0639 138.604V146.937M67.0639 138.604C67.7336 138.597 68.4057 138.589 69.0809 138.58M67.0639 146.937C67.7334 146.926 68.4055 146.913 69.0809 146.9M69.0809 138.58V146.9M69.0809 138.58C69.8052 138.57 70.5331 138.559 71.2654 138.547M69.0809 146.9C69.7498 146.886 70.4219 146.871 71.0979 146.855M71.2654 138.547L71.0979 146.855M71.2654 138.547C71.9894 138.535 72.7177 138.522 73.4511 138.507M71.0979 146.855C71.8768 146.837 72.6608 146.816 73.4511 146.794M73.4511 138.507V146.794M73.4511 138.507C74.1752 138.493 74.9044 138.477 75.6393 138.461M73.4511 146.794C74.1188 146.775 74.7909 146.755 75.4681 146.733M75.6393 138.461L75.4681 146.733M75.6393 138.461C76.3228 138.446 77.0113 138.429 77.7054 138.412M75.4681 146.733C76.1353 146.712 76.8075 146.69 77.4852 146.667M77.7054 138.412L77.4852 146.667M77.7054 138.412C78.4453 138.393 79.1915 138.374 79.945 138.353M77.4852 146.667C78.1948 146.642 78.9106 146.616 79.6332 146.589M79.945 138.353L79.6332 146.589M79.945 138.353C80.6271 138.334 81.3152 138.314 82.0096 138.294M79.6332 146.589C80.2567 146.565 80.8852 146.541 81.5192 146.515M82.0096 138.294L81.5192 146.515M82.0096 138.294C82.7353 138.272 83.4681 138.25 84.2086 138.226M81.5192 146.515C82.2597 146.485 83.0077 146.454 83.764 146.422M84.2086 138.226L83.764 146.422M84.2086 138.226C84.9037 138.204 85.6055 138.181 86.3147 138.157M83.764 146.422C84.429 146.393 85.1003 146.363 85.7785 146.333M86.3147 138.157L85.7785 146.333M86.3147 138.157C86.9845 138.134 87.6608 138.11 88.344 138.086M85.7785 146.333C86.4479 146.302 87.124 146.271 87.8072 146.239M88.344 138.086L87.8072 146.239M88.344 138.086C89.0862 138.06 89.8366 138.032 90.5958 138.004M87.8072 146.239C88.5346 146.204 89.2701 146.169 90.0143 146.132M90.5958 138.004L90.0143 146.132M90.5958 138.004C91.3126 137.977 92.0373 137.95 92.7703 137.921M90.0143 146.132C90.7595 146.095 91.5134 146.057 92.2766 146.018M92.7703 137.921L92.2766 146.018" stroke="black" stroke-linejoin="round"/>
</svg>
