<svg width="120" height="160" viewBox="0 0 120 160" fill="none" xmlns="http://www.w3.org/2000/svg">
<g clip-path="url(#clip0_618_7623)">
<path d="M43.8993 24.5064L45.5591 12.608C45.6493 11.6196 49.9802 11.4845 58.5061 11.3217H61.4939C70.0197 11.4845 74.3507 11.6196 74.4408 12.608L76.1007 24.5064L95.0234 33.235L97.0149 34.1538C94.1064 58.0428 93.4129 68.3941 99.3388 75.6377C99.2482 76.3954 99.1616 77.1453 99.0783 77.8882C96.7001 99.102 97.2469 114.419 98.3431 141.239L94.8337 141.331C68.9893 148.656 54.3806 150.018 27.9645 141.403L21.6571 141.239C22.7532 114.419 23.2997 99.102 20.9218 77.8882C20.8385 77.1453 20.7517 76.3954 20.6611 75.6377C26.5868 68.3941 25.8935 58.0428 22.9849 34.1538L24.9768 33.235L43.8993 24.5064Z" fill="#212121"/>
<path d="M43.8993 24.5064L45.5591 12.608M43.8993 24.5064L24.9768 33.235M43.8993 24.5064C44.2949 25.7823 44.8453 26.8806 45.5591 27.8311C45.7842 28.1307 46.0256 28.4157 46.2834 28.6869M43.8993 24.5064L46.2834 28.6869M45.5591 12.608C49.4706 20.5886 52.5655 22.0385 58.5061 23.2201M45.5591 12.608L58.5061 23.2201M45.5591 12.608C45.6493 11.6196 49.9802 11.4845 58.5061 11.3217H61.4939C70.0197 11.4845 74.3507 11.6196 74.4408 12.608M45.5591 12.608H74.4408M24.9768 33.235L22.9849 34.1538C25.8935 58.0428 26.5868 68.3941 20.6611 75.6377C20.7517 76.3954 20.8385 77.1453 20.9218 77.8882M24.9768 33.235C25.3058 35.9317 25.6125 38.4858 25.886 40.9069C25.9226 41.2308 25.9586 41.5524 25.9939 41.8716M24.9768 33.235L25.9939 41.8716M46.2834 28.6869C48.7609 31.2923 52.7639 32.626 58.5348 33.5106M46.2834 28.6869L58.5348 33.5106M46.2834 28.6869L25.9939 41.8716M58.5061 23.2201L58.5348 33.5106M58.5061 23.2201H59.0082M74.4408 12.608L76.1007 24.5064M74.4408 12.608C70.5294 20.5886 67.4345 22.0385 61.4939 23.2201M74.4408 12.608L61.4939 23.2201M58.5348 33.5106L58.8381 142.204M59.0082 23.2201H61.4939M59.0082 23.2201L59.3388 26.7583M58.8381 142.204L27.9645 141.403M58.8381 142.204H60M27.9645 141.403L21.6571 141.239C22.7532 114.419 23.2997 99.102 20.9218 77.8882M27.9645 141.403L20.9218 77.8882M27.9645 141.403C54.3806 150.018 68.9893 148.656 94.8337 141.331M27.9645 141.403L94.8337 141.331M60 142.204H61.1619M60 142.204L60.9917 141.568L59.0082 139.96L60.9917 138.674L59.0082 137.066L60.9917 135.458L59.0082 133.85L60.9917 132.563L59.0082 131.277L60.9917 129.669L59.0082 128.383L60.9917 126.453L59.0082 124.524L60.9917 122.594L59.0082 120.664L60.9917 119.056L59.0082 117.448L60.9917 115.519L59.0082 113.911L60.9917 112.303L59.0082 110.373L60.9917 108.765L59.0082 107.157L60.9917 105.549L59.0082 103.941L60.9917 102.328L59.0082 100.725L60.9917 99.1174L59.0082 97.5094L60.9917 95.9015L59.0082 94.2935L60.9917 92.6855L59.0082 91.0775L60.9917 89.4695L59.0082 88.1831L60.9917 86.5752L59.0082 85.2888L60.9917 83.6808L59.0082 82.0728L60.9917 80.4648L59.0082 78.8569L60.9917 77.2489L59.0082 75.6409L60.9917 74.0329L59.0082 72.4249L60.9917 70.817L59.0082 69.209L60.9917 67.601L59.0082 65.993L60.9917 64.385L59.0082 62.777L60.9917 61.1691L59.0082 59.5611L60.9917 58.2747L59.0082 56.9883L60.9917 55.3803L59.0082 54.094L60.9917 52.8076L59.0082 51.5212L60.9917 50.2348L59.0082 48.6268L60.9917 47.3404L59.0082 46.054L60.9917 44.7677L59.0082 43.4813L60.9917 42.1949L59.0082 40.9085L60.9917 39.6221L59.0082 38.3357L60.9917 37.3709L59.0082 36.0846L60.9917 35.1198L59.0082 33.5106L60.9917 32.547L59.0082 31.2606L60.9917 30.2958L59.0082 29.0094L60.3306 27.8311M60 142.204L60.3306 27.8311M20.9218 77.8882C28.0031 70.7467 28.0244 60.1959 25.9939 41.8716M76.1007 24.5064L95.0234 33.235M76.1007 24.5064C75.7051 25.7823 75.1547 26.8806 74.4408 27.8311C74.2157 28.1307 73.9744 28.4157 73.7165 28.6869M76.1007 24.5064L73.7165 28.6869M95.0234 33.235L97.0149 34.1538C94.1064 58.0428 93.4129 68.3941 99.3388 75.6377C99.2482 76.3954 99.1616 77.1453 99.0783 77.8882M95.0234 33.235C94.6942 35.9317 94.3874 38.4858 94.1137 40.9069C94.0773 41.2308 94.0416 41.5524 94.0059 41.8716M95.0234 33.235L94.0059 41.8716M73.7165 28.6869C71.239 31.2923 67.236 32.626 61.4652 33.5106M73.7165 28.6869L61.4652 33.5106M73.7165 28.6869L94.0059 41.8716M61.4939 23.2201L61.4652 33.5106M61.4939 23.2201L60.6611 26.7583M61.4652 33.5106L61.1619 142.204M60.6611 26.7583H59.3388M60.6611 26.7583V27.8311H60.3306M60.6611 26.7583L60.3306 27.8311M61.1619 142.204L94.8337 141.331M94.8337 141.331L98.3431 141.239C97.2469 114.419 96.7001 99.102 99.0783 77.8882M94.8337 141.331L99.0783 77.8882M99.0783 77.8882C91.9967 70.7467 91.9755 60.1959 94.0059 41.8716M59.3388 26.7583V27.8311H60.3306M59.3388 26.7583L60.3306 27.8311M32.2802 129.019L30.2884 128.055L32.2802 127.733L30.6203 126.768L32.6121 126.447L30.9523 125.16H32.9442L31.2843 123.874H33.2761L31.6162 122.267H33.6081L31.9482 120.659H33.9401L32.2802 119.372H34.272L32.6121 118.086H34.604L32.9442 116.478H34.936L33.2761 115.191H35.2679L33.6081 113.583H35.5999L33.9401 112.297H35.9319L34.272 110.69H36.2639L34.604 109.403H36.5959L34.936 107.795H36.9278L35.2679 106.509H37.2598L35.5999 104.901H37.5918L35.9319 103.615H37.9237L36.5959 102.328L38.2557 102.007L36.9278 101.042L38.5877 100.399L36.9278 99.7555L32.2802 129.019ZM87.7196 129.019L89.7117 128.055L87.7196 127.733L89.3798 126.768L87.3877 126.447L89.0479 125.16H87.0558L88.7153 123.874H86.7239L88.3834 122.267H86.392L88.0515 120.659H86.0599L87.7196 119.372H85.7279L87.3877 118.086H85.3959L87.0558 116.478H85.064L86.7239 115.191H84.732L86.392 113.583H84.4L86.0599 112.297H84.0681L85.7279 110.69H83.736L85.3959 109.403H83.4041L85.064 107.795H83.0721L84.732 106.509H82.7401L84.4 104.901H82.4082L84.0681 103.615H82.0762L83.4041 102.328L81.7442 102.007L83.0721 101.042L81.4123 100.399L83.0721 99.7555L87.7196 129.019ZM36.2639 99.7555L29.5868 129.347L32.6121 129.669L39.1735 100.082L36.2639 99.7555ZM83.736 99.7555L90.4132 129.347L87.3877 129.669L80.8264 100.082L83.736 99.7555Z" stroke="black" stroke-linejoin="round"/>
<path d="M26.1286 76.284L25.8007 76.3246L26.1286 76.284ZM44.7933 17.4319L45.0462 17.2248L44.5498 16.6514L44.4647 17.3964L44.7933 17.4319ZM50.0825 23.5423L50.4105 23.5024L50.3984 23.4079L50.3354 23.3351L50.0825 23.5423ZM44.4627 20.3263L44.1342 20.2908L44.1179 20.433L44.2156 20.54L44.4627 20.3263ZM47.1073 23.2207L47.3544 23.007L47.1073 23.2207ZM27.846 96.8662L27.5157 96.8784L27.846 96.8662ZM27.7429 136.101L27.4124 136.093L27.7429 136.101ZM93.871 76.284L94.1989 76.3246L93.871 76.284ZM75.2065 17.4319L75.535 17.3964L75.4499 16.6514L74.9536 17.2248L75.2065 17.4319ZM69.9172 23.5423L69.6644 23.3351L69.6013 23.4079L69.5892 23.5024L69.9172 23.5423ZM75.5371 20.3263L75.7842 20.54L75.8819 20.433L75.8656 20.2908L75.5371 20.3263ZM92.1539 96.8662L92.4839 96.8784L92.1539 96.8662ZM92.2571 136.101L92.5877 136.093L92.2571 136.101ZM58.6776 11.6432H59.0082V11H58.6776V11.6432ZM59.6693 11.6432H59.9999V11H59.6693V11.6432ZM26.942 55.7019H27.5826V55.0587H26.942V55.7019ZM28.8635 55.7019H30.1445V55.0587H28.8635V55.7019ZM31.4255 55.7019H32.7065V55.0587H31.4255V55.7019ZM33.9875 55.7019H35.2685V55.0587H33.9875V55.7019ZM36.5494 55.7019H37.8304V55.0587H36.5494V55.7019ZM39.1115 55.7019H40.3925V55.0587H39.1115V55.7019ZM41.6734 55.7019H42.3139V55.0587H41.6734V55.7019ZM42.3139 55.7019H42.9406V55.0587H42.3139V55.7019ZM44.1941 55.7019H45.4476V55.0587H44.1941V55.7019ZM46.701 55.7019H47.9544V55.0587H46.701V55.7019ZM49.2079 55.7019H50.4613V55.0587H49.2079V55.7019ZM51.7147 55.7019H52.9682V55.0587H51.7147V55.7019ZM54.2216 55.7019H55.4751V55.0587H54.2216V55.7019ZM56.7286 55.7019H57.3553V55.0587H56.7286V55.7019ZM20.335 75.6936L20.4176 76.176L21.0698 76.0705L20.9871 75.5881L20.335 75.6936ZM20.5829 77.1408L20.6655 77.6232L21.3177 77.5177L21.2351 77.0353L20.5829 77.1408ZM59.6693 147.678H59.8346V147.035H59.6693V147.678ZM60.1652 147.678H60.3305V147.035H60.1652V147.678ZM24.9624 70.5443C25.0005 70.7851 25.0382 71.0256 25.0754 71.2657L25.7292 71.1698C25.6919 70.9291 25.6541 70.6879 25.6159 70.4464L24.9624 70.5443ZM25.2946 72.7096C25.3663 73.1926 25.4362 73.6742 25.5043 74.1547L26.1592 74.0669C26.0909 73.585 26.0208 73.102 25.9489 72.6176L25.2946 72.7096ZM25.7043 75.601C25.7369 75.8428 25.769 76.084 25.8007 76.3246L26.4565 76.2435C26.4247 76.0017 26.3925 75.7598 26.3599 75.5173L25.7043 75.601ZM27.9336 141.576C27.9397 141.347 27.9457 141.12 27.9516 140.893L27.2907 140.877C27.2847 141.104 27.2788 141.331 27.2727 141.56L27.9336 141.576ZM27.9872 139.526C27.999 139.067 28.0107 138.611 28.0222 138.159L27.3612 138.143C27.3497 138.596 27.3381 139.051 27.3262 139.51L27.9872 139.526ZM28.0565 136.792C28.0622 136.563 28.0678 136.336 28.0734 136.109L27.4124 136.093C27.4068 136.32 27.4012 136.548 27.3955 136.776L28.0565 136.792ZM22.9763 75.0255C22.9956 75.241 23.0149 75.455 23.0342 75.6666L23.6928 75.61C23.6735 75.3984 23.6542 75.1848 23.635 74.9698L22.9763 75.0255ZM23.152 76.9369C23.1923 77.3652 23.2327 77.7885 23.2731 78.2065L23.9314 78.1467C23.891 77.7286 23.8507 77.3061 23.8104 76.8783L23.152 76.9369ZM23.3965 79.4756C23.4382 79.9013 23.4797 80.3239 23.521 80.7446L24.1791 80.6835C24.1378 80.2628 24.0963 79.8402 24.0547 79.4151L23.3965 79.4756ZM23.645 82.0136C23.6861 82.4362 23.7269 82.8581 23.7672 83.2813L24.4255 83.2222C24.3852 82.7983 24.3444 82.3757 24.3032 81.9525L23.645 82.0136ZM23.8861 84.5497C23.9248 84.9697 23.9629 85.3923 24.0004 85.8181L24.6592 85.7634C24.6216 85.3363 24.5834 84.9131 24.5446 84.4925L23.8861 84.5497ZM24.109 87.0871C24.1438 87.5052 24.1778 87.9277 24.2112 88.3561L24.8704 88.3079C24.837 87.8776 24.8029 87.4544 24.7681 87.035L24.109 87.0871ZM24.3062 89.6264C24.3362 90.0432 24.3654 90.4671 24.3938 90.898L25.0536 90.8568C25.0251 90.4246 24.9958 89.9995 24.9657 89.5814L24.3062 89.6264ZM24.4739 92.1722C24.4988 92.5877 24.5229 93.0103 24.5462 93.4412L25.2064 93.4077C25.1831 92.9755 25.1589 92.551 25.134 92.1342L24.4739 92.1722ZM24.611 94.7089C24.631 95.1244 24.6503 95.5477 24.6688 95.9792L25.3294 95.9522C25.3109 95.52 25.2915 95.0955 25.2714 94.6787L24.611 94.7089ZM24.7201 97.2547C24.7358 97.6728 24.7508 98.0992 24.7649 98.5333L25.4258 98.5128C25.4115 98.0773 25.3965 97.6502 25.3808 97.2315L24.7201 97.2547ZM24.8033 99.7979C24.815 100.215 24.826 100.639 24.8363 101.071L25.4972 101.057C25.487 100.623 25.4759 100.198 25.4642 99.7799L24.8033 99.7979ZM24.8641 102.355C24.8722 102.768 24.8797 103.189 24.8865 103.617L25.5476 103.607C25.5408 103.178 25.5333 102.757 25.5251 102.343L24.8641 102.355ZM24.9046 104.896C24.9097 105.313 24.9143 105.737 24.9182 106.169L25.5793 106.163C25.5754 105.731 25.5709 105.306 25.5657 104.888L24.9046 104.896ZM24.9278 107.44C24.9303 107.86 24.9322 108.288 24.9336 108.722L25.5947 108.72C25.5934 108.285 25.5914 107.857 25.5889 107.436L24.9278 107.44ZM24.9358 109.987C24.936 110.409 24.9356 110.838 24.9347 111.274L25.5958 111.275C25.5968 110.839 25.5971 110.409 25.5969 109.986L24.9358 109.987ZM24.9305 112.535C24.9286 112.958 24.9262 113.387 24.9233 113.822L25.5844 113.826C25.5873 113.39 25.5897 112.961 25.5916 112.538L24.9305 112.535ZM24.9135 115.084C24.9098 115.506 24.9056 115.934 24.9009 116.366L25.5621 116.374C25.5667 115.94 25.5709 115.512 25.5746 115.09L24.9135 115.084ZM24.8861 117.636C24.8808 118.056 24.8751 118.48 24.8689 118.91L25.53 118.919C25.5362 118.489 25.5419 118.063 25.5472 117.643L24.8861 117.636ZM24.8494 120.192C24.8428 120.608 24.8357 121.029 24.8282 121.455L25.4893 121.466C25.4967 121.04 25.5038 120.618 25.5105 120.201L24.8494 120.192ZM24.8045 122.75C24.7966 123.164 24.7883 123.582 24.7796 124.006L25.4407 124.019C25.4493 123.595 25.4576 123.176 25.4655 122.761L24.8045 122.75ZM24.7526 125.284C24.7434 125.707 24.7338 126.134 24.7238 126.566L25.3848 126.58C25.3948 126.148 25.4044 125.72 25.4136 125.298L24.7526 125.284ZM24.694 127.827C24.6837 128.252 24.673 128.681 24.662 129.115L25.3229 129.131C25.334 128.697 25.3446 128.267 25.355 127.842L24.694 127.827ZM24.629 130.384C24.6179 130.802 24.6065 131.224 24.5948 131.651L25.2557 131.668C25.2674 131.242 25.2789 130.819 25.29 130.4L24.629 130.384ZM24.5585 132.942C24.5466 133.36 24.5344 133.781 24.5218 134.205L25.1827 134.224C25.1953 133.799 25.2075 133.378 25.2194 132.96L24.5585 132.942ZM24.4838 135.474C24.4708 135.901 24.4576 136.331 24.444 136.765L25.1048 136.785C25.1184 136.35 25.1317 135.92 25.1447 135.493L24.4838 135.474ZM24.4038 138.031C24.3904 138.449 24.3766 138.871 24.3626 139.296L25.0234 139.317C25.0375 138.891 25.0512 138.469 25.0647 138.05L24.4038 138.031ZM24.3197 140.584C24.3124 140.8 24.305 141.017 24.2976 141.236L24.9584 141.257C24.9658 141.039 24.9732 140.821 24.9805 140.605L24.3197 140.584ZM26.1286 76.6056H26.7792V75.9624H26.1286V76.6056ZM28.0803 76.6056H29.3814V75.9624H28.0803V76.6056ZM30.6825 76.6056H31.9836V75.9624H30.6825V76.6056ZM33.2847 76.6056H34.5858V75.9624H33.2847V76.6056ZM35.887 76.6056H37.1881V75.9624H35.887V76.6056ZM38.4891 76.6056H39.7903V75.9624H38.4891V76.6056ZM41.0914 76.6056H42.3925V75.9624H41.0914V76.6056ZM43.6936 76.6056H44.9947V75.9624H43.6936V76.6056ZM46.2958 76.6056H47.5969V75.9624H46.2958V76.6056ZM48.8981 76.6056H50.1992V75.9624H48.8981V76.6056ZM51.5003 76.6056H52.8014V75.9624H51.5003V76.6056ZM54.1025 76.6056H55.4036V75.9624H54.1025V76.6056ZM56.7047 76.6056H57.3553V75.9624H56.7047V76.6056ZM25.8007 76.3246C25.8287 76.5381 25.8564 76.751 25.8838 76.9645L26.5398 76.8848C26.5124 76.6712 26.4846 76.4571 26.4565 76.2435L25.8007 76.3246ZM26.0441 78.2438C26.0963 78.6709 26.1471 79.098 26.1966 79.5244L26.8536 79.4524C26.8039 79.0247 26.7529 78.5963 26.7006 78.1679L26.0441 78.2438ZM26.3412 80.8057C26.3881 81.2334 26.4337 81.6605 26.478 82.0882L27.1358 82.0239C27.0914 81.5949 27.0457 81.1665 26.9986 80.7375L26.3412 80.8057ZM26.607 83.3714C26.6486 83.7985 26.6889 84.2262 26.7281 84.6552L27.3867 84.5979C27.3474 84.1683 27.3069 83.7393 27.2651 83.3103L26.607 83.3714ZM26.8415 85.9396C26.878 86.3667 26.9133 86.7951 26.9474 87.2241L27.6066 87.1746C27.5724 86.7443 27.537 86.3146 27.5004 85.8863L26.8415 85.9396ZM27.0458 88.5098C27.0772 88.9376 27.1076 89.3659 27.1368 89.7962L27.7965 89.7538C27.7672 89.3228 27.7368 88.8925 27.7052 88.4642L27.0458 88.5098ZM27.2207 91.0833C27.2474 91.5103 27.2731 91.9393 27.2977 92.3703L27.9578 92.3343C27.9332 91.9027 27.9075 91.4724 27.8807 91.044L27.2207 91.0833ZM27.368 93.6579C27.3902 94.085 27.4115 94.5147 27.4317 94.9456L28.0922 94.9167C28.0718 94.4844 28.0505 94.0542 28.0283 93.6251L27.368 93.6579ZM27.4892 96.2346C27.4983 96.4488 27.5071 96.6636 27.5157 96.8784L28.1763 96.854C28.1677 96.6379 28.1589 96.4224 28.1498 96.2082L27.4892 96.2346ZM57.0247 23.2207V23.8556H57.6858V23.2207H57.0247ZM57.0247 25.1253V26.395H57.6858V25.1253H57.0247ZM57.0247 27.6648V28.9345H57.6858V27.6648H57.0247ZM57.0247 30.2043V31.474H57.6858V30.2043H57.0247ZM57.0247 32.7438V34.0136H57.6858V32.7438H57.0247ZM57.0247 35.2833V36.553H57.6858V35.2833H57.0247ZM57.0247 37.8228V39.0925H57.6858V37.8228H57.0247ZM57.0247 40.3623V41.632H57.6858V40.3623H57.0247ZM57.0247 42.9018V44.1716H57.6858V42.9018H57.0247ZM57.0247 45.4413V46.711H57.6858V45.4413H57.0247ZM57.0247 47.9808V49.2505H57.6858V47.9808H57.0247ZM57.0247 50.5203V51.79H57.6858V50.5203H57.0247ZM57.0247 53.0598V54.3296H57.6858V53.0598H57.0247ZM57.0247 55.5993V56.869H57.6858V55.5993H57.0247ZM57.0247 58.1388V59.4085H57.6858V58.1388H57.0247ZM57.0247 60.6783V61.948H57.6858V60.6783H57.0247ZM57.0247 63.2178V64.4876H57.6858V63.2178H57.0247ZM57.0247 65.7573V67.027H57.6858V65.7573H57.0247ZM57.0247 68.2968V69.5665H57.6858V68.2968H57.0247ZM57.0247 70.8363V72.1061H57.6858V70.8363H57.0247ZM57.0247 73.3758V74.6456H57.6858V73.3758H57.0247ZM57.0247 75.9155V77.1851H57.6858V75.9155H57.0247ZM57.0247 78.4548V79.7245H57.6858V78.4548H57.0247ZM57.0247 80.9941V82.2638H57.6858V80.9941H57.0247ZM57.0247 83.5341V84.8038H57.6858V83.5341H57.0247ZM57.0247 86.0734V87.3431H57.6858V86.0734H57.0247ZM57.0247 88.6127V89.8824H57.6858V88.6127H57.0247ZM57.0247 91.1521V92.4217H57.6858V91.1521H57.0247ZM57.0247 93.692V94.9617H57.6858V93.692H57.0247ZM57.0247 96.2314V96.8662H57.6858V96.2314H57.0247ZM57.0247 136.423V137.146H57.6858V136.423H57.0247ZM57.0247 138.593V140.04H57.6858V138.593H57.0247ZM57.0247 141.488V142.211H57.6858V141.488H57.0247ZM44.8523 15.0426C44.9907 15.2364 45.1274 15.4267 45.2627 15.6136L45.8033 15.2434C45.6689 15.0577 45.533 14.8684 45.3954 14.6757L44.8523 15.0426ZM46.0981 16.7483C46.3904 17.1373 46.6772 17.5101 46.9604 17.867L47.4838 17.4739C47.2047 17.1222 46.9213 16.754 46.632 16.3688L46.0981 16.7483ZM47.8598 18.9594C48.1787 19.3313 48.4958 19.6834 48.8139 20.0165L49.2983 19.5788C48.9892 19.255 48.6799 18.9116 48.3674 18.5473L47.8598 18.9594ZM49.8367 21.0171C50.1992 21.3463 50.567 21.6529 50.9438 21.9379L51.3496 21.4302C50.9896 21.1579 50.637 20.8641 50.2878 20.5469L49.8367 21.0171ZM52.1421 22.7516C52.5547 23.0011 52.9808 23.2285 53.4249 23.4354L53.7104 22.8553C53.2882 22.6586 52.8833 22.4425 52.4911 22.2053L52.1421 22.7516ZM54.7735 23.9812C55.2183 24.1361 55.6812 24.2747 56.1656 24.398L56.3331 23.7758C55.8661 23.6569 55.4218 23.5239 54.9964 23.3757L54.7735 23.9812ZM57.581 24.705C57.8143 24.7476 58.0524 24.7875 58.2956 24.8247L58.3984 24.1894C58.1613 24.153 57.9296 24.1142 57.703 24.0729L57.581 24.705ZM26.1337 41.176L26.6846 40.8187L26.3179 40.2835L25.7669 40.6409L26.1337 41.176ZM27.7865 40.1041L28.8885 39.3894L28.5217 38.8542L27.4198 39.5689L27.7865 40.1041ZM29.9904 38.6747L31.0924 37.9601L30.7256 37.4249L29.6237 38.1396L29.9904 38.6747ZM32.1943 37.2454L33.2962 36.5308L32.9295 35.9956L31.8275 36.7103L32.1943 37.2454ZM34.3982 35.8161L35.5001 35.1015L35.1333 34.5663L34.0314 35.2809L34.3982 35.8161ZM36.602 34.3868L37.704 33.6721L37.3372 33.1369L36.2353 33.8516L36.602 34.3868ZM38.8058 32.9574L39.9078 32.2428L39.541 31.7076L38.4391 32.4223L38.8058 32.9574ZM41.0097 31.5281L42.1116 30.8135L41.7449 30.2783L40.643 30.993L41.0097 31.5281ZM43.2136 30.0988L44.3155 29.3842L43.9488 28.849L42.8468 29.5637L43.2136 30.0988ZM45.4174 28.6695L45.9684 28.3122L45.6016 27.777L45.0507 28.1343L45.4174 28.6695ZM27.846 97.1878H28.5166V96.5446H27.846V97.1878ZM29.858 97.1878H31.1993V96.5446H29.858V97.1878ZM32.5406 97.1878H33.882V96.5446H32.5406V97.1878ZM35.2233 97.1878H36.5646V96.5446H35.2233V97.1878ZM37.906 97.1878H39.2473V96.5446H37.906V97.1878ZM40.5886 97.1878H41.9299V96.5446H40.5886V97.1878ZM43.2713 97.1878H44.6126V96.5446H43.2713V97.1878ZM45.9539 97.1878H47.2953V96.5446H45.9539V97.1878ZM48.6366 97.1878H49.9779V96.5446H48.6366V97.1878ZM51.3193 97.1878H52.6606V96.5446H51.3193V97.1878ZM54.0019 97.1878H55.3433V96.5446H54.0019V97.1878ZM56.6846 97.1878H57.3553V96.5446H56.6846V97.1878ZM27.5157 96.8784C27.5243 97.0952 27.5328 97.3126 27.541 97.5306L28.2017 97.5075C28.1935 97.2888 28.185 97.0707 28.1763 96.854L27.5157 96.8784ZM27.5871 98.835C27.6015 99.2679 27.615 99.7027 27.6277 100.14L28.2885 100.121C28.2759 99.6834 28.2624 99.2479 28.248 98.8144L27.5871 98.835ZM27.6628 101.444C27.6736 101.877 27.6837 102.312 27.6929 102.75L28.3539 102.737C28.3447 102.298 28.3346 101.863 28.3238 101.429L27.6628 101.444ZM27.7181 104.055C27.7257 104.487 27.7326 104.923 27.7387 105.361L28.3998 105.352C28.3937 104.913 28.3868 104.478 28.3792 104.044L27.7181 104.055ZM27.7551 106.667C27.7598 107.099 27.7639 107.534 27.7673 107.972L28.4284 107.967C28.4249 107.528 28.4209 107.092 28.4162 106.659L27.7551 106.667ZM27.7756 109.278C27.7778 109.71 27.7794 110.146 27.7804 110.584L28.4415 110.582C28.4405 110.144 28.439 109.708 28.4368 109.275L27.7756 109.278ZM27.7818 111.889C27.7817 112.321 27.7811 112.757 27.78 113.195L28.4411 113.197C28.4423 112.758 28.4429 112.322 28.4429 111.889H27.7818ZM27.7752 114.501C27.7732 114.933 27.7707 115.369 27.7678 115.808L28.4288 115.811C28.4318 115.373 28.4343 114.937 28.4364 114.504L27.7752 114.501ZM27.7576 117.114C27.7557 117.331 27.7537 117.549 27.7517 117.767L28.4128 117.773C28.4149 117.554 28.4169 117.336 28.4187 117.119L27.7576 117.114ZM57.0247 96.8662V97.5197H57.6858V96.8662H57.0247ZM57.0247 98.826V100.132H57.6858V98.826H57.0247ZM57.0247 101.439V102.746H57.6858V101.439H57.0247ZM57.0247 104.052V105.358H57.6858V104.052H57.0247ZM57.0247 106.665V107.972H57.6858V106.665H57.0247ZM57.0247 109.278V110.584H57.6858V109.278H57.0247ZM57.0247 111.891V113.197H57.6858V111.891H57.0247ZM57.0247 114.504V115.81H57.6858V114.504H57.0247ZM57.0247 117.116V117.77H57.6858V117.116H57.0247ZM28.0822 118.092H28.6009V117.448H28.0822V118.092ZM29.6381 118.092H30.6754V117.448H29.6381V118.092ZM31.7127 118.092H32.2313V117.448H31.7127V118.092ZM28.0734 136.109C28.0788 135.89 28.0841 135.671 28.0894 135.454L27.4284 135.438C27.4231 135.656 27.4178 135.875 27.4124 136.093L28.0734 136.109ZM28.1208 134.144C28.1313 133.705 28.1414 133.268 28.1514 132.835L27.4905 132.82C27.4805 133.254 27.4702 133.69 27.4599 134.13L28.1208 134.144ZM28.1812 131.525C28.191 131.086 28.2005 130.649 28.2099 130.216L27.5488 130.202C27.5395 130.636 27.53 131.072 27.5202 131.511L28.1812 131.525ZM28.2375 128.906C28.2466 128.467 28.2554 128.03 28.264 127.597L27.6029 127.584C27.5944 128.018 27.5856 128.454 27.5765 128.893L28.2375 128.906ZM28.2891 126.287C28.2974 125.847 28.3053 125.41 28.3129 124.977L27.6519 124.966C27.6442 125.4 27.6363 125.836 27.6281 126.275L28.2891 126.287ZM28.3352 123.667C28.3424 123.228 28.3492 122.791 28.3558 122.357L27.6947 122.348C27.6882 122.782 27.6813 123.218 27.6741 123.657L28.3352 123.667ZM28.3746 121.048C28.3806 120.608 28.3862 120.172 28.3914 119.737L27.7303 119.73C27.7251 120.163 27.7195 120.6 27.7135 121.039L28.3746 121.048ZM28.4062 118.428C28.4085 118.209 28.4107 117.991 28.4128 117.773L27.7517 117.767C27.7496 117.984 27.7474 118.202 27.7451 118.421L28.4062 118.428ZM35.2208 118.092H35.9125V117.448H35.2208V118.092ZM37.296 118.092H38.6794V117.448H37.296V118.092ZM40.0628 118.092H41.4462V117.448H40.0628V118.092ZM42.8296 118.092H44.213V117.448H42.8296V118.092ZM45.5964 118.092H46.9798V117.448H45.5964V118.092ZM48.3632 118.092H49.7465V117.448H48.3632V118.092ZM51.1299 118.092H52.5133V117.448H51.1299V118.092ZM53.8968 118.092H55.2802V117.448H53.8968V118.092ZM56.6636 118.092H57.3553V117.448H56.6636V118.092ZM57.0247 117.77V118.436H57.6858V117.77H57.0247ZM57.0247 119.768V121.101H57.6858V119.768H57.0247ZM57.0247 122.433V123.765H57.6858V122.433H57.0247ZM57.0247 125.098V126.43H57.6858V125.098H57.0247ZM57.0247 127.763V129.095H57.6858V127.763H57.0247ZM57.0247 130.427V131.759H57.6858V130.427H57.0247ZM57.0247 133.091V134.424H57.6858V133.091H57.0247ZM57.0247 135.756V136.423H57.6858V135.756H57.0247ZM27.7392 136.423L28.4122 136.43L28.4196 135.786L27.7466 135.779L27.7392 136.423ZM29.7582 136.444L31.1042 136.459L31.1116 135.816L29.7656 135.801L29.7582 136.444ZM32.4503 136.474L33.7963 136.488L33.8037 135.845L32.4577 135.831L32.4503 136.474ZM35.1423 136.503L36.4883 136.518L36.4957 135.875L35.1497 135.86L35.1423 136.503ZM37.8343 136.532L39.1803 136.547L39.1877 135.903L37.8417 135.889L37.8343 136.532ZM40.5264 136.561L41.8724 136.576L41.8798 135.933L40.5338 135.918L40.5264 136.561ZM43.2184 136.59L44.5644 136.605L44.5718 135.962L43.2258 135.947L43.2184 136.59ZM45.9104 136.62L47.2564 136.635L47.2638 135.992L45.9178 135.977L45.9104 136.62ZM48.6025 136.649L49.9485 136.664L49.9559 136.021L48.6099 136.006L48.6025 136.649ZM51.2945 136.679L52.6405 136.693L52.6479 136.049L51.3019 136.035L51.2945 136.679ZM53.9865 136.707L55.3325 136.722L55.3399 136.079L53.9939 136.064L53.9865 136.707ZM56.6786 136.737L57.3516 136.744L57.359 136.101L56.686 136.094L56.6786 136.737ZM62.6445 55.7019H63.2712V55.0587H62.6445V55.7019ZM64.5247 55.7019H65.7781V55.0587H64.5247V55.7019ZM67.0316 55.7019H68.285V55.0587H67.0316V55.7019ZM69.5385 55.7019H70.7919V55.0587H69.5385V55.7019ZM72.0453 55.7019H73.2988V55.0587H72.0453V55.7019ZM74.5522 55.7019H75.8056V55.0587H74.5522V55.7019ZM77.0591 55.7019H77.6858V55.0587H77.0591V55.7019ZM77.6858 55.7019H78.3264V55.0587H77.6858V55.7019ZM79.6073 55.7019H80.8883V55.0587H79.6073V55.7019ZM82.1693 55.7019H83.4503V55.0587H82.1693V55.7019ZM84.7313 55.7019H86.0123V55.0587H84.7313V55.7019ZM87.2931 55.7019H88.5744V55.0587H87.2931V55.7019ZM89.8551 55.7019H91.1364V55.0587H89.8551V55.7019ZM92.4171 55.7019H93.0577V55.0587H92.4171V55.7019ZM99.3341 77.6232L99.4168 77.1408L98.7649 77.0353L98.6822 77.5177L99.3341 77.6232ZM99.582 76.176L99.6647 75.6936L99.0128 75.5881L98.9301 76.0705L99.582 76.176ZM94.1989 76.3246C94.2306 76.084 94.263 75.8428 94.2954 75.601L93.6402 75.5173C93.6072 75.7598 93.5748 76.0017 93.543 76.2435L94.1989 76.3246ZM94.4958 74.1547C94.5639 73.6742 94.6333 73.1926 94.7053 72.7096L94.0508 72.6176C93.9787 73.102 93.9087 73.585 93.8406 74.0669L94.4958 74.1547ZM94.9242 71.2657C94.9619 71.0256 94.9996 70.7851 95.0373 70.5443L94.384 70.4464C94.3457 70.6879 94.308 70.9291 94.2703 71.1698L94.9242 71.2657ZM91.9265 136.109C91.9318 136.336 91.9377 136.563 91.943 136.792L92.6042 136.776C92.5989 136.548 92.593 136.32 92.5877 136.093L91.9265 136.109ZM91.9774 138.159C91.9893 138.611 92.0006 139.067 92.0125 139.526L92.6736 139.51C92.6617 139.051 92.6498 138.596 92.6386 138.143L91.9774 138.159ZM92.0482 140.893C92.0541 141.12 92.0601 141.347 92.066 141.576L92.7272 141.56C92.7212 141.331 92.7153 141.104 92.7093 140.877L92.0482 140.893ZM95.7024 141.236C95.6944 141.017 95.6872 140.8 95.6799 140.584L95.0194 140.605C95.0267 140.821 95.0339 141.039 95.0412 141.257L95.7024 141.236ZM95.6369 139.296C95.623 138.871 95.6091 138.449 95.5959 138.031L94.9354 138.05C94.9487 138.469 94.9625 138.891 94.9764 139.317L95.6369 139.296ZM95.5556 136.765C95.5424 136.331 95.5292 135.901 95.5159 135.474L94.8548 135.493C94.868 135.92 94.8812 136.35 94.8951 136.785L95.5556 136.765ZM95.4782 134.205C95.4657 133.781 95.4531 133.36 95.4412 132.942L94.7801 132.96C94.792 133.378 94.8045 133.799 94.8171 134.224L95.4782 134.205ZM95.4049 131.651C95.393 131.224 95.3817 130.802 95.3705 130.384L94.71 130.4C94.7212 130.819 94.7325 131.242 94.7444 131.668L95.4049 131.651ZM95.3381 129.115C95.3268 128.681 95.3163 128.252 95.3057 127.827L94.6445 127.842C94.6551 128.267 94.6657 128.697 94.6769 129.131L95.3381 129.115ZM95.2759 126.566C95.266 126.134 95.2561 125.707 95.2475 125.284L94.5863 125.298C94.5956 125.72 94.6049 126.148 94.6148 126.58L95.2759 126.566ZM95.2204 124.006C95.2118 123.582 95.2032 123.164 95.1953 122.75L94.5341 122.761C94.542 123.176 94.5506 123.595 94.5592 124.019L95.2204 124.006ZM95.1715 121.455C95.1642 121.029 95.1569 120.608 95.1503 120.192L94.4892 120.201C94.4958 120.618 94.503 121.04 94.5103 121.466L95.1715 121.455ZM95.1311 118.91C95.1245 118.48 95.1192 118.056 95.1139 117.636L94.4528 117.643C94.4581 118.063 94.4634 118.489 94.47 118.919L95.1311 118.91ZM95.0987 116.366C95.0941 115.934 95.0901 115.506 95.0862 115.084L94.425 115.09C94.429 115.512 94.433 115.94 94.4376 116.374L95.0987 116.366ZM95.0763 113.822C95.0736 113.387 95.071 112.958 95.069 112.535L94.4078 112.538C94.4098 112.961 94.4125 113.39 94.4151 113.826L95.0763 113.822ZM95.065 111.274C95.0644 110.838 95.0637 110.409 95.0637 109.987L94.4025 109.986C94.4025 110.409 94.4032 110.839 94.4039 111.275L95.065 111.274ZM95.0663 108.722C95.0677 108.288 95.0696 107.86 95.0723 107.44L94.4111 107.436C94.4085 107.857 94.4065 108.285 94.4052 108.72L95.0663 108.722ZM95.0815 106.169C95.0855 105.737 95.0901 105.313 95.0954 104.896L94.4343 104.888C94.429 105.306 94.4244 105.731 94.4204 106.163L95.0815 106.169ZM95.1133 103.617C95.1199 103.189 95.1278 102.768 95.1358 102.355L94.4746 102.343C94.4667 102.757 94.4587 103.178 94.4521 103.607L95.1133 103.617ZM95.1635 101.071C95.1741 100.639 95.1847 100.215 95.1966 99.7979L94.5354 99.7799C94.5235 100.198 94.513 100.623 94.5024 101.057L95.1635 101.071ZM95.2349 98.5333C95.2488 98.0992 95.264 97.6728 95.2799 97.2547L94.6187 97.2315C94.6035 97.6502 94.5883 98.0773 94.5738 98.5128L95.2349 98.5333ZM95.3308 95.9792C95.3493 95.5477 95.3685 95.1244 95.389 94.7089L94.7285 94.6787C94.708 95.0955 94.6888 95.52 94.6703 95.9522L95.3308 95.9792ZM95.4538 93.4412C95.4769 93.0103 95.5007 92.5877 95.5258 92.1722L94.866 92.1342C94.8409 92.551 94.8164 92.9755 94.7933 93.4077L95.4538 93.4412ZM95.6058 90.898C95.6343 90.4671 95.6634 90.0432 95.6938 89.6264L95.0339 89.5814C95.0042 89.9995 94.9744 90.4246 94.946 90.8568L95.6058 90.898ZM95.7883 88.3561C95.822 87.9277 95.8558 87.5052 95.8908 87.0871L95.2316 87.035C95.1966 87.4544 95.1629 87.8776 95.1292 88.3079L95.7883 88.3561ZM95.9992 85.8181C96.0369 85.3923 96.0753 84.9697 96.1136 84.5497L95.4551 84.4925C95.4168 84.9131 95.3784 85.3363 95.3407 85.7634L95.9992 85.8181ZM96.2326 83.2813C96.273 82.8581 96.3139 82.4362 96.3549 82.0136L95.6964 81.9525C95.6554 82.3757 95.6144 82.7983 95.5741 83.2222L96.2326 83.2813ZM96.4786 80.7446C96.5202 80.3239 96.5619 79.9013 96.6035 79.4756L95.945 79.4151C95.9034 79.8402 95.8617 80.2628 95.8207 80.6835L96.4786 80.7446ZM96.7265 78.2065C96.7668 77.7885 96.8072 77.3652 96.8475 76.9369L96.1896 76.8783C96.1493 77.3061 96.109 77.7286 96.0687 78.1467L96.7265 78.2065ZM96.9658 75.6666C96.985 75.455 97.0042 75.241 97.0234 75.0255L96.3649 74.9698C96.3457 75.1848 96.3265 75.3984 96.3067 75.61L96.9658 75.6666ZM62.6445 76.6056H63.2951V75.9624H62.6445V76.6056ZM64.5962 76.6056H65.8973V75.9624H64.5962V76.6056ZM67.1984 76.6056H68.4995V75.9624H67.1984V76.6056ZM69.8006 76.6056H71.1017V75.9624H69.8006V76.6056ZM72.4029 76.6056H73.704V75.9624H72.4029V76.6056ZM75.005 76.6056H76.3062V75.9624H75.005V76.6056ZM77.6073 76.6056H78.9084V75.9624H77.6073V76.6056ZM80.2095 76.6056H81.5106V75.9624H80.2095V76.6056ZM82.8117 76.6056H84.1128V75.9624H82.8117V76.6056ZM85.414 76.6056H86.7153V75.9624H85.414V76.6056ZM88.0164 76.6056H89.3176V75.9624H88.0164V76.6056ZM90.6181 76.6056H91.9192V75.9624H90.6181V76.6056ZM93.2204 76.6056H93.871V75.9624H93.2204V76.6056ZM92.4839 96.8784C92.4925 96.6636 92.5017 96.4488 92.5103 96.2346L91.8498 96.2082C91.8412 96.4224 91.832 96.6379 91.8234 96.854L92.4839 96.8784ZM92.5678 94.9456C92.5883 94.5147 92.6095 94.085 92.632 93.6579L91.9715 93.6251C91.949 94.0542 91.9278 94.4844 91.9073 94.9167L92.5678 94.9456ZM92.702 92.3703C92.7265 91.9393 92.7523 91.5103 92.7787 91.0833L92.1189 91.044C92.0925 91.4724 92.0667 91.9027 92.0422 92.3343L92.702 92.3703ZM92.8627 89.7962C92.8925 89.3659 92.9229 88.9376 92.9539 88.5098L92.2948 88.4642C92.263 88.8925 92.2326 89.3228 92.2035 89.7538L92.8627 89.7962ZM93.0525 87.2241C93.0862 86.7951 93.1219 86.3667 93.1582 85.9396L92.4991 85.8863C92.4627 86.3146 92.4277 86.7443 92.3933 87.1746L93.0525 87.2241ZM93.272 84.6552C93.311 84.2262 93.3513 83.7985 93.393 83.3714L92.7344 83.3103C92.6928 83.7393 92.6525 84.1683 92.6128 84.5979L93.272 84.6552ZM93.5219 82.0882C93.5662 81.6605 93.6118 81.2334 93.6587 80.8057L93.0009 80.7375C92.9539 81.1665 92.9083 81.5949 92.864 82.0239L93.5219 82.0882ZM93.8029 79.5244C93.8525 79.098 93.9034 78.6709 93.9556 78.2438L93.2991 78.1679C93.2468 78.5963 93.1959 79.0247 93.1463 79.4524L93.8029 79.5244ZM94.1163 76.9645C94.1434 76.751 94.1711 76.5381 94.1989 76.3246L93.543 76.2435C93.5153 76.4571 93.4875 76.6712 93.4597 76.8848L94.1163 76.9645ZM62.3139 23.2207V23.8556H62.9751V23.2207H62.3139ZM62.3139 25.1253V26.395H62.9751V25.1253H62.3139ZM62.3139 27.6648V28.9345H62.9751V27.6648H62.3139ZM62.3139 30.2043V31.474H62.9751V30.2043H62.3139ZM62.3139 32.7438V34.0136H62.9751V32.7438H62.3139ZM62.3139 35.2833V36.553H62.9751V35.2833H62.3139ZM62.3139 37.8228V39.0925H62.9751V37.8228H62.3139ZM62.3139 40.3623V41.632H62.9751V40.3623H62.3139ZM62.3139 42.9018V44.1716H62.9751V42.9018H62.3139ZM62.3139 45.4413V46.711H62.9751V45.4413H62.3139ZM62.3139 47.9808V49.2505H62.9751V47.9808H62.3139ZM62.3139 50.5203V51.79H62.9751V50.5203H62.3139ZM62.3139 53.0598V54.3296H62.9751V53.0598H62.3139ZM62.3139 55.5993V56.869H62.9751V55.5993H62.3139ZM62.3139 58.1388V59.4085H62.9751V58.1388H62.3139ZM62.3139 60.6783V61.948H62.9751V60.6783H62.3139ZM62.3139 63.2178V64.4876H62.9751V63.2178H62.3139ZM62.3139 65.7573V67.027H62.9751V65.7573H62.3139ZM62.3139 68.2968V69.5665H62.9751V68.2968H62.3139ZM62.3139 70.8363V72.1061H62.9751V70.8363H62.3139ZM62.3139 73.3758V74.6456H62.9751V73.3758H62.3139ZM62.3139 75.9155V77.1851H62.9751V75.9155H62.3139ZM62.3139 78.4548V79.7245H62.9751V78.4548H62.3139ZM62.3139 80.9941V82.2638H62.9751V80.9941H62.3139ZM62.3139 83.5341V84.8038H62.9751V83.5341H62.3139ZM62.3139 86.0734V87.3431H62.9751V86.0734H62.3139ZM62.3139 88.6127V89.8824H62.9751V88.6127H62.3139ZM62.3139 91.1521V92.4217H62.9751V91.1521H62.3139ZM62.3139 93.692V94.9617H62.9751V93.692H62.3139ZM62.3139 96.2314V96.8662H62.9751V96.2314H62.3139ZM62.3139 136.423V137.146H62.9751V136.423H62.3139ZM62.3139 138.593V140.04H62.9751V138.593H62.3139ZM62.3139 141.488V142.211H62.9751V141.488H62.3139ZM61.7042 24.8247C61.9474 24.7875 62.1855 24.7476 62.4188 24.705L62.2968 24.0729C62.0702 24.1142 61.8385 24.153 61.6013 24.1894L61.7042 24.8247ZM63.8341 24.398C64.3186 24.2747 64.7815 24.1361 65.2263 23.9812L65.0034 23.3757C64.578 23.5239 64.1336 23.6569 63.6667 23.7758L63.8341 24.398ZM66.5748 23.4354C67.0189 23.2285 67.445 23.0011 67.8577 22.7516L67.5087 22.2053C67.1165 22.4425 66.7116 22.6586 66.2893 22.8553L66.5748 23.4354ZM69.056 21.9379C69.4328 21.6529 69.8006 21.3463 70.1631 21.0171L69.712 20.5469C69.3627 20.8641 69.0101 21.1579 68.6502 21.4302L69.056 21.9379ZM71.1859 20.0165C71.504 19.6834 71.821 19.3313 72.14 18.9594L71.6324 18.5473C71.3199 18.9116 71.0105 19.255 70.7014 19.5788L71.1859 20.0165ZM73.0394 17.867C73.3226 17.5101 73.6094 17.1373 73.9016 16.7483L73.3678 16.3688C73.0784 16.754 72.7951 17.1222 72.516 17.4739L73.0394 17.867ZM74.7371 15.6136C74.8724 15.4267 75.0091 15.2364 75.1475 15.0426L74.6044 14.6757C74.4668 14.8684 74.3309 15.0577 74.1965 15.2434L74.7371 15.6136ZM74.0314 28.3122L74.5824 28.6695L74.9491 28.1343L74.3982 27.777L74.0314 28.3122ZM75.6843 29.3842L76.7862 30.0988L77.153 29.5637L76.051 28.849L75.6843 29.3842ZM77.8882 30.8135L78.99 31.5281L79.3568 30.993L78.2549 30.2783L77.8882 30.8135ZM80.092 32.2428L81.1939 32.9574L81.5607 32.4223L80.4587 31.7076L80.092 32.2428ZM82.2959 33.6721L83.3978 34.3868L83.7645 33.8516L82.6626 33.1369L82.2959 33.6721ZM84.4997 35.1015L85.6017 35.8161L85.9684 35.2809L84.8665 34.5663L84.4997 35.1015ZM86.7034 36.5308L87.8055 37.2454L88.1725 36.7103L87.0703 35.9956L86.7034 36.5308ZM88.9077 37.9601L90.0092 38.6747L90.3761 38.1396L89.2739 37.4249L88.9077 37.9601ZM91.1113 39.3894L92.2134 40.1041L92.5797 39.5689L91.4782 38.8542L91.1113 39.3894ZM93.3149 40.8187L93.8663 41.176L94.2326 40.6409L93.6819 40.2835L93.3149 40.8187ZM62.6445 97.1878H63.3152V96.5446H62.6445V97.1878ZM64.6565 97.1878H65.9978V96.5446H64.6565V97.1878ZM67.3392 97.1878H68.6805V96.5446H67.3392V97.1878ZM70.0218 97.1878H71.3631V96.5446H70.0218V97.1878ZM72.7045 97.1878H74.0458V96.5446H72.7045V97.1878ZM75.3871 97.1878H76.7285V96.5446H75.3871V97.1878ZM78.0698 97.1878H79.4111V96.5446H78.0698V97.1878ZM80.7525 97.1878H82.0938V96.5446H80.7525V97.1878ZM83.4351 97.1878H84.7765V96.5446H83.4351V97.1878ZM86.1176 97.1878H87.4591V96.5446H86.1176V97.1878ZM88.8006 97.1878H90.142V96.5446H88.8006V97.1878ZM91.4829 97.1878H92.1539V96.5446H91.4829V97.1878ZM92.2478 117.767C92.2458 117.549 92.2439 117.331 92.2419 117.114L91.5807 117.119C91.5827 117.336 91.5847 117.554 91.5867 117.773L92.2478 117.767ZM92.232 115.808C92.2293 115.369 92.2267 114.933 92.2247 114.501L91.5635 114.504C91.5655 114.937 91.5682 115.373 91.5708 115.811L92.232 115.808ZM92.2201 113.195C92.2187 112.757 92.2181 112.321 92.2181 111.889H91.5569C91.5569 112.322 91.5576 112.758 91.5589 113.197L92.2201 113.195ZM92.2194 110.584C92.2201 110.146 92.222 109.71 92.224 109.278L91.5629 109.275C91.5609 109.708 91.5589 110.144 91.5582 110.582L92.2194 110.584ZM92.2326 107.972C92.2359 107.534 92.2399 107.099 92.2445 106.667L91.5834 106.659C91.5787 107.092 91.5748 107.528 91.5715 107.967L92.2326 107.972ZM92.2611 105.361C92.267 104.923 92.2743 104.487 92.2815 104.055L91.6204 104.044C91.6131 104.478 91.6058 104.913 91.5999 105.352L92.2611 105.361ZM92.3067 102.75C92.3159 102.312 92.3258 101.877 92.3371 101.444L91.6759 101.429C91.6654 101.863 91.6554 102.298 91.6462 102.737L92.3067 102.75ZM92.3721 100.14C92.3847 99.7027 92.3986 99.2679 92.4125 98.835L91.752 98.8144C91.7374 99.2479 91.7242 99.6834 91.711 100.121L92.3721 100.14ZM92.4587 97.5306C92.4673 97.3126 92.4753 97.0952 92.4839 96.8784L91.8234 96.854C91.8148 97.0707 91.8062 97.2888 91.7982 97.5075L92.4587 97.5306ZM62.3139 96.8662V97.5197H62.9751V96.8662H62.3139ZM62.3139 98.826V100.132H62.9751V98.826H62.3139ZM62.3139 101.439V102.746H62.9751V101.439H62.3139ZM62.3139 104.052V105.358H62.9751V104.052H62.3139ZM62.3139 106.665V107.972H62.9751V106.665H62.3139ZM62.3139 109.278V110.584H62.9751V109.278H62.3139ZM62.3139 111.891V113.197H62.9751V111.891H62.3139ZM62.3139 114.504V115.81H62.9751V114.504H62.3139ZM62.3139 117.116V117.77H62.9751V117.116H62.3139ZM87.7685 118.092H88.2868V117.448H87.7685V118.092ZM89.3242 118.092H90.3615V117.448H89.3242V118.092ZM91.3989 118.092H91.9173V117.448H91.3989V118.092ZM91.5867 117.773C91.5893 117.991 91.5913 118.209 91.5933 118.428L92.2544 118.421C92.2525 118.202 92.2505 117.984 92.2478 117.767L91.5867 117.773ZM91.6085 119.737C91.6138 120.172 91.6191 120.608 91.625 121.048L92.2862 121.039C92.2802 120.6 92.2749 120.163 92.2696 119.73L91.6085 119.737ZM91.6442 122.357C91.6508 122.791 91.6574 123.228 91.6647 123.667L92.3258 123.657C92.3186 123.218 92.312 122.782 92.3053 122.348L91.6442 122.357ZM91.6872 124.977C91.6944 125.41 91.7024 125.847 91.7103 126.287L92.3715 126.275C92.3635 125.836 92.3556 125.4 92.3477 124.966L91.6872 124.977ZM91.7361 127.597C91.744 128.03 91.7533 128.467 91.7625 128.906L92.423 128.893C92.4144 128.454 92.4052 128.018 92.3966 127.584L91.7361 127.597ZM91.7896 130.216C91.7989 130.649 91.8088 131.086 91.8187 131.525L92.4799 131.511C92.47 131.072 92.4601 130.636 92.4508 130.202L91.7896 130.216ZM91.8485 132.835C91.8584 133.268 91.8683 133.705 91.8789 134.144L92.5401 134.13C92.5295 133.69 92.5196 133.254 92.5096 132.82L91.8485 132.835ZM91.9106 135.454C91.9159 135.671 91.9212 135.89 91.9265 136.109L92.5877 136.093C92.5817 135.875 92.5764 135.656 92.5711 135.438L91.9106 135.454ZM62.6445 118.092H63.3362V117.448H62.6445V118.092ZM64.7196 118.092H66.103V117.448H64.7196V118.092ZM67.4864 118.092H68.8698V117.448H67.4864V118.092ZM70.2532 118.092H71.6366V117.448H70.2532V118.092ZM73.02 118.092H74.4034V117.448H73.02V118.092ZM75.7868 118.092H77.1702V117.448H75.7868V118.092ZM78.5536 118.092H79.937V117.448H78.5536V118.092ZM81.3204 118.092H82.7038V117.448H81.3204V118.092ZM84.0872 118.092H84.7789V117.448H84.0872V118.092ZM62.3139 117.77V118.436H62.9751V117.77H62.3139ZM62.3139 119.768V121.101H62.9751V119.768H62.3139ZM62.3139 122.433V123.765H62.9751V122.433H62.3139ZM62.3139 125.098V126.43H62.9751V125.098H62.3139ZM62.3139 127.763V129.095H62.9751V127.763H62.3139ZM62.3139 130.427V131.759H62.9751V130.427H62.3139ZM62.3139 133.091V134.424H62.9751V133.091H62.3139ZM62.3139 135.756V136.423H62.9751V135.756H62.3139ZM62.6482 136.744L63.3212 136.737L63.3138 136.094L62.6408 136.101L62.6482 136.744ZM64.6673 136.722L66.0132 136.707L66.0058 136.064L64.6599 136.079L64.6673 136.722ZM67.3593 136.693L68.7053 136.679L68.6979 136.035L67.3519 136.049L67.3593 136.693ZM70.0513 136.664L71.3973 136.649L71.3899 136.006L70.0439 136.021L70.0513 136.664ZM72.7434 136.635L74.0893 136.62L74.0819 135.977L72.736 135.992L72.7434 136.635ZM75.4354 136.605L76.7814 136.59L76.774 135.947L75.428 135.962L75.4354 136.605ZM78.1274 136.576L79.4734 136.561L79.466 135.918L78.12 135.933L78.1274 136.576ZM80.8195 136.547L82.1654 136.532L82.158 135.889L80.8121 135.903L80.8195 136.547ZM83.5115 136.518L84.8575 136.503L84.8501 135.86L83.5041 135.875L83.5115 136.518ZM86.2035 136.488L87.5496 136.474L87.5424 135.831L86.1963 135.845L86.2035 136.488ZM88.8958 136.459L90.2412 136.444L90.2339 135.801L88.8878 135.816L88.8958 136.459ZM91.5873 136.43L92.2604 136.423L92.2531 135.779L91.5801 135.786L91.5873 136.43ZM44.4647 17.3964L44.3821 18.12L45.0392 18.191L45.1218 17.4674L44.4647 17.3964ZM44.2168 19.5672L44.1342 20.2908L44.7912 20.3618L44.8739 19.6382L44.2168 19.5672ZM44.2156 20.54L44.5462 20.9018L45.0404 20.4744L44.7098 20.1126L44.2156 20.54ZM45.2074 21.6253L45.8685 22.3489L46.3627 21.9216L45.7015 21.198L45.2074 21.6253ZM46.5297 23.0725L46.8603 23.4343L47.3544 23.007L47.0238 22.6452L46.5297 23.0725ZM47.1073 23.2207C46.8603 23.4343 46.8603 23.4343 46.8603 23.4343C46.8603 23.4343 46.8603 23.4343 46.8603 23.4343C46.8603 23.4344 46.8603 23.4344 46.8604 23.4345C46.8605 23.4345 46.8606 23.4346 46.8607 23.4348C46.861 23.4351 46.8614 23.4355 46.8619 23.4362C46.863 23.4373 46.8646 23.4391 46.8667 23.4414C46.871 23.446 46.8772 23.4528 46.8854 23.4618C46.9017 23.4795 46.9257 23.5057 46.9564 23.539C47.0178 23.6057 47.1062 23.7013 47.2142 23.8174L47.7044 23.3858C47.5972 23.2706 47.5096 23.1758 47.4488 23.1098C47.4184 23.0768 47.3947 23.051 47.3787 23.0336C47.3707 23.0248 47.3646 23.0181 47.3605 23.0137C47.3584 23.0114 47.3569 23.0098 47.3559 23.0087C47.3554 23.0081 47.355 23.0076 47.3547 23.0074C47.3546 23.0072 47.3545 23.0071 47.3545 23.0071C47.3545 23.0071 47.3544 23.0071 47.3544 23.007C47.3544 23.007 47.3544 23.007 47.1073 23.2207ZM47.9314 24.578C48.1678 24.8252 48.4207 25.0857 48.6637 25.3287L49.1376 24.8802C48.899 24.6416 48.6497 24.3848 48.4154 24.1399L47.9314 24.578ZM49.4355 26.0622C49.5422 26.1552 49.6429 26.2374 49.73 26.2979C49.7732 26.328 49.8201 26.3578 49.8674 26.3812C49.9046 26.3996 49.9847 26.4366 50.0825 26.4366V25.7934C50.1205 25.7934 50.1469 25.8011 50.1557 25.8038C50.1662 25.8071 50.1706 25.8096 50.1676 25.8082C50.1612 25.8049 50.1442 25.7954 50.1147 25.7748C50.0566 25.7344 49.9766 25.6703 49.8767 25.5832L49.4355 26.0622ZM50.0825 26.4366C50.2741 26.4366 50.385 26.3115 50.4322 26.2353C50.4791 26.1596 50.503 26.0749 50.5174 26.0076C50.5473 25.8676 50.5578 25.6897 50.5598 25.5086L49.8986 25.5021C49.8968 25.6731 49.8864 25.8001 49.87 25.8768C49.8612 25.918 49.8558 25.9196 49.8659 25.9033C49.8764 25.8864 49.9432 25.7934 50.0825 25.7934V26.4366ZM50.4837 24.164C50.4653 23.9749 50.4471 23.8099 50.4335 23.6921C50.4266 23.6332 50.4209 23.5861 50.4169 23.5534C50.415 23.5372 50.4134 23.5245 50.4123 23.5159C50.4117 23.5116 50.4113 23.5083 50.411 23.506C50.4109 23.5049 50.4108 23.504 50.4107 23.5034C50.4107 23.5031 50.4106 23.5028 50.4106 23.5027C50.4106 23.5026 50.4106 23.5025 50.4106 23.5024C50.4106 23.5024 50.4105 23.5024 50.4105 23.5024C50.4105 23.5024 50.4105 23.5024 50.0825 23.5423C49.7545 23.5821 49.7545 23.5821 49.7545 23.5821C49.7545 23.5821 49.7545 23.5822 49.7545 23.5823C49.7545 23.5823 49.7545 23.5825 49.7546 23.5828C49.7547 23.5832 49.7547 23.5839 49.7549 23.585C49.7551 23.587 49.7555 23.59 49.756 23.594C49.757 23.6021 49.7585 23.614 49.7604 23.6297C49.7643 23.661 49.7698 23.7068 49.7764 23.7642C49.7898 23.879 49.8076 24.04 49.8254 24.2244L50.4837 24.164ZM50.3354 23.3351L49.8946 22.8259L49.3889 23.2402L49.8296 23.7494L50.3354 23.3351ZM49.0131 21.8075L48.1315 20.7891L47.6258 21.2034L48.5073 22.2218L49.0131 21.8075ZM47.25 19.7708L46.3685 18.7523L45.8627 19.1667L46.7443 20.185L47.25 19.7708ZM45.4869 17.734L45.0462 17.2248L44.5404 17.6391L44.9812 18.1482L45.4869 17.734ZM74.9536 17.2248L74.5129 17.734L75.0186 18.1482L75.4594 17.6391L74.9536 17.2248ZM73.6313 18.7523L72.7498 19.7708L73.2555 20.185L74.1371 19.1667L73.6313 18.7523ZM71.8683 20.7891L70.9867 21.8075L71.4925 22.2218L72.374 21.2034L71.8683 20.7891ZM70.1051 22.8259L69.6644 23.3351L70.1701 23.7494L70.6109 23.2402L70.1051 22.8259ZM69.9172 23.5423C69.5892 23.5024 69.5892 23.5024 69.5892 23.5024C69.5892 23.5024 69.5892 23.5024 69.5892 23.5024C69.5892 23.5025 69.5892 23.5026 69.5892 23.5027C69.5892 23.5028 69.5891 23.5031 69.5891 23.5034C69.589 23.504 69.5889 23.5049 69.5888 23.506C69.5885 23.5083 69.5881 23.5116 69.5875 23.5159C69.5864 23.5245 69.5848 23.5372 69.5828 23.5534C69.5789 23.5861 69.5732 23.6332 69.5663 23.6921C69.5527 23.8099 69.5345 23.9749 69.5161 24.164L70.1744 24.2244C70.1922 24.04 70.21 23.879 70.2234 23.7642C70.23 23.7068 70.2355 23.661 70.2394 23.6297C70.2413 23.614 70.2427 23.6021 70.2438 23.594C70.2443 23.59 70.2446 23.587 70.2449 23.585C70.245 23.5839 70.2451 23.5832 70.2452 23.5828C70.2452 23.5825 70.2452 23.5823 70.2452 23.5823C70.2452 23.5822 70.2452 23.5821 70.2452 23.5821C70.2452 23.5821 70.2452 23.5821 69.9172 23.5423ZM69.44 25.5086C69.4419 25.6897 69.4525 25.8676 69.4824 26.0076C69.4968 26.0749 69.5207 26.1596 69.5676 26.2353C69.6148 26.3115 69.7256 26.4366 69.9172 26.4366V25.7934C70.0566 25.7934 70.1234 25.8864 70.1338 25.9033C70.144 25.9196 70.1385 25.918 70.1297 25.8768C70.1133 25.8001 70.103 25.6731 70.1012 25.5021L69.44 25.5086ZM69.9172 26.4366C70.015 26.4366 70.0952 26.3996 70.1324 26.3812C70.1797 26.3578 70.2265 26.328 70.2698 26.2979C70.3569 26.2374 70.4576 26.1552 70.5643 26.0622L70.1231 25.5832C70.0232 25.6703 69.9432 25.7344 69.885 25.7748C69.8556 25.7954 69.8386 25.8049 69.8322 25.8082C69.8292 25.8096 69.8336 25.8071 69.8441 25.8038C69.8529 25.8011 69.8793 25.7934 69.9172 25.7934V26.4366ZM71.3361 25.3287C71.5791 25.0857 71.832 24.8252 72.0684 24.578L71.5844 24.1399C71.35 24.3848 71.1008 24.6416 70.8622 24.8802L71.3361 25.3287ZM72.7855 23.8174C72.8936 23.7013 72.982 23.6057 73.0434 23.539C73.0741 23.5057 73.0981 23.4795 73.1144 23.4618C73.1225 23.4528 73.1288 23.446 73.133 23.4414C73.1352 23.4391 73.1368 23.4373 73.1379 23.4362C73.1384 23.4355 73.1388 23.4351 73.1391 23.4348C73.1392 23.4346 73.1393 23.4345 73.1394 23.4345C73.1395 23.4344 73.1395 23.4344 73.1395 23.4343C73.1395 23.4343 73.1395 23.4343 73.1395 23.4343C73.1395 23.4343 73.1395 23.4343 72.8925 23.2207C72.6454 23.007 72.6454 23.007 72.6454 23.007C72.6454 23.0071 72.6453 23.0071 72.6453 23.0071C72.6452 23.0071 72.6452 23.0072 72.645 23.0074C72.6448 23.0076 72.6444 23.0081 72.6439 23.0087C72.6429 23.0098 72.6413 23.0114 72.6393 23.0137C72.6352 23.0181 72.629 23.0248 72.621 23.0336C72.605 23.051 72.5814 23.0768 72.551 23.1098C72.4902 23.1758 72.4026 23.2706 72.2954 23.3858L72.7855 23.8174ZM73.1395 23.4343L73.4701 23.0725L72.976 22.6452L72.6454 23.007L73.1395 23.4343ZM74.1313 22.3489L74.7924 21.6253L74.2983 21.198L73.6371 21.9216L74.1313 22.3489ZM75.4536 20.9018L75.7842 20.54L75.29 20.1126L74.9594 20.4744L75.4536 20.9018ZM75.8656 20.2908L75.783 19.5672L75.1259 19.6382L75.2086 20.3618L75.8656 20.2908ZM75.6177 18.12L75.535 17.3964L74.878 17.4674L74.9606 18.191L75.6177 18.12Z" fill="black"/>
</g>
<defs>
<clipPath id="clip0_618_7623">
<rect width="80" height="137" fill="white" transform="translate(20 11)"/>
</clipPath>
</defs>
</svg>
