<svg width="120" height="160" viewBox="0 0 120 160" fill="none" xmlns="http://www.w3.org/2000/svg">
<path d="M15.42 88.9057L29.0517 17.7357C29.0581 17.7108 29.0685 17.697 29.0827 17.6939L30.9106 15.2275L30.6745 14.6004L39.4378 8.64344H40.7361L42.3589 7.38934L48.8502 3C56.7084 5.53747 61.1145 5.8185 68.9733 3L75.4646 7.18033L77.7365 8.64344C78.907 7.22302 83.1631 11.2535 88.1226 14.9139L87.798 15.541L89.7454 17.4221C95.7493 45.7007 98.3038 61.1229 103.377 88.9057C103.377 88.9057 103.906 88.6901 104.026 88.9057C104.231 89.2728 104.655 92.1801 104.675 92.9816C104.682 93.2553 104.026 93.2951 104.026 93.2951L105 97.0574L89.4209 98.9385L91.0437 150.357C84.0449 153.701 79.4341 154.845 70.3797 156C69.4261 154.829 68.9629 154.02 68.3241 152.238C67.4748 153.984 67.0413 154.823 66.3767 156L60.7374 155.373C47.4685 153.88 27.226 150.984 26.7798 150.043C26.4846 149.421 29.1347 116.853 30.9637 94.8627H30.0254C30.0254 94.8627 30.6745 99.2521 30.0254 99.5656C29.3763 99.8791 15.7445 97.6844 14.4463 97.0574C13.148 96.4303 15.0954 92.8771 15.0954 92.8771L14.4463 92.668L15.0954 88.9057H15.42Z" fill="#BAA27E"/>
<path d="M29.0517 17.7357L15.42 88.9057M29.0517 17.7357C29.2906 16.8062 35.106 31.4267 34.8939 33.7254C34.6818 36.0241 32.9465 67.2725 32.9465 67.2725M29.0517 17.7357L30.9106 15.2275M15.42 88.9057H15.0954C14.8419 90.375 14.6998 91.1988 14.4463 92.668L15.0954 92.8771M15.42 88.9057L17.6919 89.8463M17.3674 93.6086L20.2885 93.9221M17.3674 93.6086C17.3674 93.6086 15.5572 92.4515 15.7445 91.4139C15.9146 90.4719 17.6919 89.8463 17.6919 89.8463M17.3674 93.6086L15.0954 92.8771M20.2885 93.9221L20.613 90.1598M20.2885 93.9221C20.296 95.1694 20.6121 95.549 21.5867 95.8033H24.1832C25.1165 95.6658 25.3941 95.4562 25.4815 94.8627M17.6919 89.8463L20.613 90.1598M20.613 90.1598C20.6759 89.7304 20.8512 89.626 21.2621 89.5328C21.6731 89.4396 24.5078 89.5328 24.5078 89.5328C24.5078 89.5328 25.6334 90.0244 25.8061 90.7869L25.7811 91.1004M25.4815 94.8627L25.7811 91.1004M25.4815 94.8627H30.0254M25.7811 91.1004L31.3813 91.0228L31.202 94.8627H30.0254M15.0954 92.8771C15.0954 92.8771 13.148 96.4303 14.4463 97.0574C15.7445 97.6844 29.3763 99.8791 30.0254 99.5656C30.6745 99.2521 30.0254 94.8627 30.0254 94.8627M32.9465 67.2725H32.6219L32.2974 75.1107H32.6219M32.9465 67.2725C38.2078 69.1485 42.3772 70.5463 46.5782 71.73M32.6219 75.1107C32.6219 75.1107 26.3335 149.102 26.7798 150.043C27.226 150.984 47.4685 153.88 60.7374 155.373L66.3767 156C67.0413 154.823 67.4748 153.984 68.3241 152.238M32.6219 75.1107L56.9643 80.1271M68.3241 152.238C68.9629 154.02 69.4261 154.829 70.3797 156C79.434 154.845 84.0449 153.701 91.0437 150.357L89.4209 98.9385M68.3241 152.238L69.9174 80.7541M89.4209 98.9385H89.0963V94.8627M89.4209 98.9385L105 97.0574L104.026 93.2951M89.0963 94.8627H88.7717L88.4472 91.1004H88.7717M89.0963 94.8627L94.2893 94.5492M88.7717 91.1004L87.4735 78.2459M88.7717 91.1004L93.9648 90.7869M87.4735 78.2459H87.798L87.4735 70.0943H86.8243M87.4735 78.2459L84.877 78.5121M86.8243 70.0943C86.8243 70.0943 85.2015 41.25 85.2015 40.623C85.2015 39.9959 84.5524 39.9959 84.5524 39.9959M86.8243 70.0943L80.333 72.6025M84.5524 39.9959L84.877 33.7254C86.2216 27.2105 87.2765 23.6401 89.7454 17.4221M84.5524 39.9959H70.2715C68.8724 39.9953 68.398 39.6474 68.3823 38.1148V31.8443M89.7454 17.4221C95.7493 45.7007 98.3038 61.1229 103.377 88.9057M89.7454 17.4221L87.798 15.541M103.377 88.9057C103.377 88.9057 103.906 88.6901 104.026 88.9057C104.231 89.2727 104.655 92.1801 104.675 92.9816C104.682 93.2553 104.026 93.2951 104.026 93.2951M103.377 88.9057L101.43 89.5328L99.1578 90.4734M104.026 93.2951H102.403M56.9643 80.1271L62.1574 77.6189M56.9643 80.1271L48.8502 85.457L47.2274 92.041L53.3941 91.1004L54.3678 90.1598M62.1574 77.6189L61.5082 75.1107M62.1574 77.6189L63.1311 78.873M61.5082 75.1107L63.4524 74.0234M61.5082 75.1107C57.1419 74.302 53.5377 73.5354 50.1485 72.6821M54.3678 90.1598C54.7713 88.9849 55.1333 88.5449 56.3152 88.5922M54.3678 90.1598L54.0432 91.4139C53.6867 92.4698 53.8402 92.7393 54.3678 92.9816L58.9117 95.1762C59.9768 95.5614 60.3733 95.4501 60.8591 94.8627C60.8591 94.8627 62.1574 92.9816 62.1574 92.3545C62.1574 91.7275 62.0863 91.7813 61.8328 91.4139M56.3152 88.5922C59.4346 83.0942 61.2353 79.8193 63.1311 78.873M56.3152 88.5922C56.3152 88.5922 59.5609 89.5328 60.8591 90.4734C62.1574 91.4139 61.8328 91.4139 61.8328 91.4139M63.1311 78.873L66.3767 82.6352M66.3767 82.6352C64.0984 84.3418 63.5467 87.1318 61.8328 91.4139M66.3767 82.6352L69.9174 80.7541M63.4524 74.0234C62.1574 71.9754 65.7276 70.4078 66.8434 72.1269M63.4524 74.0234L66.8434 72.1269M66.8434 72.1269L67.675 71.6619L68.5405 72.916M68.5405 72.916L72.6517 78.873M68.5405 72.916L70.3797 71.0348M80.333 72.6025L74.4909 68.8402L72.2189 69.1537L70.3797 71.0348M80.333 72.6025V74.0234L72.6517 78.873M72.6517 78.873L72.868 79.1865L71.5698 79.8762M71.5698 79.8762L69.9174 80.7541M71.5698 79.8762L80.333 78.9779M93.9648 90.7869L94.2893 94.5492M93.9648 90.7869C93.9648 90.7869 94.0928 90.5083 94.6139 90.1598C95.5518 89.5326 97.4656 89.4003 98.5087 89.8463C99.0882 90.0941 99.1578 90.4734 99.1578 90.4734M94.2893 94.5492C94.4354 95.6676 94.7809 95.8405 95.5876 95.8033H98.5087C99.2545 95.6787 99.5292 95.4095 99.4824 94.5492L99.4325 93.9221M99.1578 90.4734L101.754 89.8463C101.754 89.8463 103.595 90.4633 103.702 91.4139C103.8 92.2917 102.403 93.2951 102.403 93.2951M99.1578 90.4734L99.4325 93.9221M102.403 93.2951L99.4325 93.9221M80.333 78.9779V87.3381L84.2278 98.9385L87.798 96.1168L84.877 78.5121M80.333 78.9779L84.877 78.5121M70.3797 71.0348L70.9206 47.207M70.9206 47.207L48.2011 29.9631C46.5813 28.5597 46.625 27.6766 48.8502 25.8873L53.7187 21.1844C54.1047 18.9987 53.6035 18.3226 51.1222 18.3627L42.3589 20.8709V7.38934M70.9206 47.207L64.7539 34.855M42.3589 7.38934L40.7361 8.64344M42.3589 7.38934L48.8502 3M40.7361 8.64344H39.4378L30.6745 14.6004L30.9106 15.2275M40.7361 8.64344L41.3852 11.1516L31.9728 18.0492L30.9106 15.2275M48.8502 3C56.7084 5.53747 61.1145 5.8185 68.9733 3M48.8502 3C48.179 3.51534 54.5929 18.5273 59.8854 26.8279M68.9733 3C68.9733 3 63.2816 17.8898 59.8854 26.8279M68.9733 3L75.4646 7.18033M59.8854 26.8279C61.8105 30.2766 64.7539 34.855 64.7539 34.855M77.7365 8.64344C76.733 9.07273 77.3106 10.3051 77.4119 10.8381C77.5133 11.3711 86.262 18.5059 86.4998 18.0492L87.798 15.541M77.7365 8.64344C78.907 7.22302 83.1631 11.2535 88.1226 14.9139L87.798 15.541M77.7365 8.64344L75.4646 7.18033M75.4646 7.18033L75.7891 20.8709C75.7891 20.8709 67.2233 18.5445 66.3767 18.6762C65.5301 18.8079 63.6211 19.306 64.7539 21.1844L70.2715 26.8279C71.5757 28.1753 71.5172 28.6162 70.2715 29.9631L68.3823 31.8443M64.7539 34.855L68.3823 31.8443M55.3415 91.1004C55.9484 89.2701 56.6398 89.6996 58.5872 90.4734C60.5346 91.2471 61.1837 91.4139 60.5346 92.9816M55.3415 91.1004C54.6924 92.4799 55.3415 92.7307 57.6135 93.6086C59.8854 94.4865 59.8854 94.5492 60.5346 92.9816M55.3415 91.1004C55.3415 91.1004 58.5065 92.2469 60.5346 92.9816M46.5782 71.73C47.7575 72.0623 48.9393 72.3777 50.1485 72.6821M46.5782 71.73C47.5519 69.1537 50.7976 70.4078 50.1485 72.6821M34.8939 76.3648L31.9728 96.1168L34.8939 98.9385L39.4378 87.0246L38.7887 77.9324L34.8939 76.3648ZM35.8676 84.2029C37.815 84.2029 38.1396 87.6516 35.8676 87.6516C33.5956 87.6516 33.9202 84.2029 35.8676 84.2029ZM21.5867 92.3545C21.5867 91.4139 21.5867 90.4734 23.2095 90.4734C24.5078 90.4734 24.5078 90.7869 24.5078 92.668C24.5078 94.2357 24.5239 94.5671 22.885 94.5492C21.2461 94.5313 21.5867 93.2951 21.5867 92.3545ZM83.5787 84.5164C85.5261 84.5164 85.8507 87.6516 83.5787 87.6516C81.3067 87.6516 81.6313 84.5164 83.5787 84.5164ZM65.0785 95.8033C67.0259 95.8033 67.3504 98.9385 65.0785 98.9385C62.8065 98.9385 63.1311 95.8033 65.0785 95.8033ZM48.5256 95.4898C50.473 95.4898 50.7976 98.625 48.5256 98.625C46.2537 98.625 46.5782 95.4898 48.5256 95.4898ZM48.5256 47.207C50.473 47.207 50.7976 50.3422 48.5256 50.3422C46.2537 50.3422 46.5782 47.207 48.5256 47.207ZM67.0259 48.1475C68.9733 48.1475 69.2978 51.2828 67.0259 51.2828C64.7539 51.2828 65.0785 48.1475 67.0259 48.1475ZM96.8859 90.7869C95.263 90.7869 95.1819 91.9312 95.263 92.9816C95.3367 93.9352 95.263 94.8627 96.8859 94.8627C98.5087 94.8627 98.2653 93.7184 98.1841 92.668C98.1105 91.7144 98.5087 90.7869 96.8859 90.7869Z" stroke="black"/>
</svg>
