<svg width="120" height="160" viewBox="0 0 120 160" fill="none" xmlns="http://www.w3.org/2000/svg">
<path d="M16.1716 141.735V134.235C16.1716 134.235 12.5 130.5 12.9999 110.5C13.3908 94.8625 15.6158 62.1081 19.7121 44.4999C22.4614 33.1672 26.0398 28.6637 35.9999 23.7249C35.6546 20.0866 36.5143 18.3616 39.9999 15.4998C56.4557 13.8335 65.3632 13.7434 80.4999 15.4998C84.0855 19.078 84.8075 20.9216 84.4309 23.9998C96.0235 27.9196 99.5648 32.6515 103.33 44.4999C109.452 64.3433 107.5 96.676 107.5 109.5C107.5 125 104.672 134.235 104.672 134.235V142.235H100.086H98.3517H96.4999H94.4999H92.6716H90.9216H89.1716V134.235L88.1522 129.992C87.2579 132.582 86.4999 134.235 86.4999 134.235V142.235L84.8225 142.219L81.5 142.187L79.5 142.168L75.874 142.133L72.3266 142.1L68.4748 142.063L64.8965 142.029L61.3739 141.995L57.8265 141.962L53.9747 141.925L50.3964 141.891L46.8739 141.857L43.3265 141.823L39.4747 141.787L35.8964 141.753L33.9999 141.735V134.235C33.9999 134.235 33.9248 133.442 32.9999 129.992L31.1716 134.235V141.735H27.1641H23.5782H19.7499H16.1716Z" fill="#EDE5D1"/>
<path d="M16.1716 134.235V141.735H31.1716V134.235M16.1716 134.235C16.1716 134.235 12.5 130.5 12.9999 110.5C13.3908 94.8625 15.6158 62.1081 19.7121 44.4999C22.4614 33.1672 26.0398 28.6637 35.9999 23.7249M16.1716 134.235H17.9999H21.4999H25.4999H28.3357H31.1716M31.1716 134.235L32.9999 129.992M89.1716 134.235V142.235H90.9216H92.6716M89.1716 134.235L88.1522 129.992M89.1716 134.235H90.9216H92.6716M104.672 134.235V142.235H98.3517H96.4999M104.672 134.235C104.672 134.235 107.5 125 107.5 109.5C107.5 96.676 109.452 64.3433 103.33 44.4999C99.5648 32.6515 96.0235 27.9196 84.4309 23.9998M104.672 134.235H102.379H100.086M92.6716 134.235V142.235M92.6716 134.235H94.4999H95.4999H95.9999H96.4999M100.086 134.235H98.3517H96.4999M100.086 134.235V142.235M33.9999 134.235V141.735L79.5 142.168M33.9999 134.235C33.9999 134.235 33.9248 133.442 32.9999 129.992M33.9999 134.235H79.5M86.4999 134.235V142.235L84.8225 142.219L81.5 142.187L79.5 142.168M86.4999 134.235C86.4999 134.235 87.2579 132.582 88.1522 129.992M86.4999 134.235H84.8225H83M90.9216 51.5C90.9216 52.5655 90.9325 55.0552 90.9449 58.5C91.0082 76.0695 91.1104 118.484 89.9999 123.5C89.4563 125.955 88.7716 128.198 88.1522 129.992M31.1716 51.5C31.1716 51.5 31.0808 54.1773 30.9532 58.5C30.4535 75.4309 29.3888 117.603 30.9999 123C33.0223 129.775 32.5567 128.34 32.9999 129.992M92.6716 142.235H94.4999H96.4999M96.4999 134.235V142.235M102.743 134.219V142.219M19.7499 134.235V142.235M27.1641 134.235V142.235M23.5782 134.235V142.235M35.8964 134.235V142.235M39.4747 134.235V142.235M43.3265 134.235V142.235M46.8739 134.235V142.235M50.3964 134.235V142.235M53.9747 134.235V142.235M57.8265 134.235V142.235M61.3739 134.235V142.235M64.8965 134.235V142.235M68.4748 134.235V142.235M72.3266 134.235V142.235M75.874 134.235V142.235M79.5 134.235V142.168M79.5 134.235H81.5H83M83 134.235V142.168M38 41.9999L42.5 46.9999M42.5 46.9999L46.8739 41.9999M42.5 46.9999L39 50.9999M38 49.9999L42.5 54.9999M42.5 54.9999L46.8739 49.9999M42.5 54.9999L39 58.9999M38 58.5L42.5 63.5M42.5 63.5L46.8739 58.5M42.5 63.5L39 67.5M38 66.9999L42.5 71.9999M42.5 71.9999L46.8739 66.9999M42.5 71.9999L39 75.9999M38 75.4999L42.5 80.4999M42.5 80.4999L46.8739 75.4999M42.5 80.4999L39 84.4999M38 83.4999L42.5 88.4999M42.5 88.4999L46.8739 83.4999M42.5 88.4999L39 92.4999M38 91.4999L42.5 96.4999M42.5 96.4999L46.8739 91.4999M42.5 96.4999L39 100.5M38 99.4999L42.5 104.5M42.5 104.5L46.8739 99.4999M42.5 104.5L39 108.5M38 107L42.5 112M42.5 112L46.8739 107M42.5 112L39 116M74.1261 41.9999L78.6261 46.9999M78.6261 46.9999L83 41.9999M78.6261 46.9999L75.1261 50.9999M74.1261 49.9999L78.6261 54.9999M78.6261 54.9999L83 49.9999M78.6261 54.9999L75.1261 58.9999M74.1261 58.5L78.6261 63.5M78.6261 63.5L83 58.5M78.6261 63.5L75.1261 67.5M74.1261 66.9999L78.6261 71.9999M78.6261 71.9999L83 66.9999M78.6261 71.9999L75.1261 75.9999M74.1261 75.4999L78.6261 80.4999M78.6261 80.4999L83 75.4999M78.6261 80.4999L75.1261 84.4999M74.1261 83.4999L78.6261 88.4999M78.6261 88.4999L83 83.4999M78.6261 88.4999L75.1261 92.4999M74.1261 91.4999L78.6261 96.4999M78.6261 96.4999L83 91.4999M78.6261 96.4999L75.1261 100.5M74.1261 99.4999L78.6261 104.5M78.6261 104.5L83 99.4999M78.6261 104.5L75.1261 108.5M74.1261 107L78.6261 112M78.6261 112L83 107M78.6261 112L75.1261 116M60.9999 29.9999L60.2764 29.8183L55.9999 28.7449M60.9999 29.9999L62.1324 29.7099L67.4999 28.3354M60.9999 29.9999L39.9999 15.4998M60.9999 29.9999L80.4999 15.4998M39.9999 15.4998C36.5143 18.3616 35.6546 20.0866 35.9999 23.7249M39.9999 15.4998C56.4557 13.8335 65.3632 13.7434 80.4999 15.4998M35.9999 23.7249L55.9999 28.7449M80.4999 15.4998C84.0855 19.078 84.8075 20.9216 84.4309 23.9998M84.4309 23.9998L67.4999 28.3354M55.9999 28.7449L56 53.9999M67.4999 28.3354L67.5 64.4999" stroke="black"/>
</svg>
