<svg width="120" height="160" viewBox="0 0 120 160" fill="none" xmlns="http://www.w3.org/2000/svg">
<rect width="120" height="160" fill="white"/>
<path d="M16.1716 141.735V134.235C16.1716 134.235 12.5 130.5 12.9999 110.5C13.3908 94.8625 15.6158 62.1081 19.7121 44.4999C20.8549 39.5876 22.1433 35.854 23.5782 33.9999C28.9128 27.1069 38.2765 22.7868 43.4999 20.4364C43.4999 20.4364 46.5 16.9999 47.5 18.9999C47.57 19.1708 47.6543 19.3374 47.7523 19.4999C48.1394 20.1418 48.7389 20.7183 49.5 21.2247C50.2073 21.6954 51.0542 22.1056 52 22.4519C52.7744 22.7354 53.6152 22.976 54.5 23.1718C55.5231 23.3982 56.605 23.5645 57.7112 23.6679C60.6889 23.9462 63.8428 23.7679 66.5 23.0739C67.3024 22.8643 68.0595 22.6077 68.7528 22.3025C69.5796 21.9384 70.3156 21.5052 70.9294 20.9999C71.4686 20.5561 71.9135 20.0567 72.2428 19.4999C72.3384 19.3381 72.4244 19.1715 72.5 18.9999C72.5 16.9999 76.9346 20.4364 76.9346 20.4364C76.9346 20.4364 93.4036 27.4025 98.3517 33.9999C100.423 36.7623 102.052 40.3592 103.33 44.4999C109.452 64.3433 107.5 96.676 107.5 109.5C107.5 125 104.672 134.235 104.672 134.235V142.235H100.086H98.3517H96.4999H94.4999H92.6716H90.9216H89.1716V134.235L88.1522 129.992L86.4999 142.235L84.8225 142.219L81.5 142.187L79.5 142.168L75.874 142.133L72.3266 142.1L68.4748 142.063L64.8965 142.029L61.3739 141.995L57.8265 141.962L53.9747 141.925L50.3964 141.891L46.8739 141.857L43.3265 141.823L39.4747 141.787L35.8964 141.753L33.9999 141.735L32.9999 129.992L31.1716 134.235V141.735H27.1641H23.5782H19.7499H16.1716Z" fill="#EDE5D1"/>
<path d="M92.6716 134.235V142.235M100.086 134.235V142.235M90.9216 51.5C90.9216 52.5655 90.9325 55.0552 90.9449 58.5C91.0082 76.0695 91.1104 118.484 89.9999 123.5C89.4563 125.955 88.7716 128.198 88.1522 129.992M31.1716 51.5C31.1716 51.5 31.0808 54.1773 30.9532 58.5C30.4535 75.4309 29.3888 117.603 30.9999 123C33.0223 129.775 32.5567 128.34 32.9999 129.992M32.9999 129.992L31.1716 134.235V141.735H16.1716V134.235C16.1716 134.235 12.5 130.5 12.9999 110.5C13.3908 94.8625 15.6158 62.1081 19.7121 44.4999C20.8549 39.5876 22.1433 35.854 23.5782 33.9999C28.9128 27.1069 38.2765 22.7868 43.4999 20.4364M32.9999 129.992L33.9999 141.735L79.5 142.168M88.1522 129.992L89.1716 134.235V142.235H90.9216H92.6716M88.1522 129.992L86.4999 142.235L84.8225 142.219L81.5 142.187L79.5 142.168M43.4999 20.4364C43.4999 20.4364 46.5 16.9999 47.5 18.9999C47.57 19.1708 47.6543 19.3374 47.7523 19.4999M43.4999 20.4364C43.9645 20.9486 44.4217 21.4336 44.874 21.8923M60.9998 28.4999C59.3702 28.5556 57.8841 28.4937 56.5 28.301M60.9998 28.4999V23.8795M60.9998 28.4999C62.4393 28.4507 63.7668 28.3291 65 28.1256M76.9346 20.4364C76.9346 20.4364 72.5 16.9999 72.5 18.9999C72.4244 19.1715 72.3384 19.3381 72.2428 19.4999M76.9346 20.4364C76.9346 20.4364 93.4036 27.4025 98.3517 33.9999C100.423 36.7623 102.052 40.3592 103.33 44.4999C109.452 64.3433 107.5 96.676 107.5 109.5C107.5 125 104.672 134.235 104.672 134.235V142.235H98.3517H96.4999M76.9346 20.4364C76.5717 20.9496 76.2042 21.4345 75.8302 21.8923M92.6716 142.235H94.4999H96.4999M96.4999 136V142.235M102.743 134.219V142.219M19.7499 136V142.235M27.1641 136V142.235M23.5782 134.235V142.235M35.8964 136C35.8964 139.124 35.8964 142.235 35.8964 142.235M39.4747 136V142.235M43.3265 134.235V142.235M46.8739 134.235V142.235M50.3964 136V142.235M53.9747 134.235V142.235M57.8265 134.235V142.235M61.3739 136V142.235M64.8965 134.235V142.235M68.4748 134.235V142.235M72.3266 136V142.235M75.874 134.235V142.235M79.5 134.235V142.168M83 136V142.168M47.7523 19.4999L44.874 21.8923M47.7523 19.4999C48.1394 20.1418 48.7389 20.7183 49.5 21.2247M44.874 21.8923C45.5917 22.6201 46.2971 23.2815 47 23.8795M49.5 21.2247L47 23.8795M49.5 21.2247C50.2073 21.6954 51.0542 22.1056 52 22.4519M47 23.8795C48.705 25.3303 50.3955 26.4085 52.2124 27.1586M52 22.4519L49.5 25.4999M52 22.4519C52.7744 22.7354 53.6152 22.976 54.5 23.1718M54.5 23.1718L52.2124 27.1586M54.5 23.1718C55.5231 23.3982 56.605 23.5645 57.7112 23.6679M52.2124 27.1586C53.5537 27.7123 54.964 28.0872 56.5 28.301M57.7112 23.6679L56.5 28.301M57.7112 23.6679C60.6889 23.9462 63.8428 23.7679 66.5 23.0739M64 23.6679L65 28.1256M65 28.1256C68.787 27.5009 71.6846 26.1049 74.2051 23.6679M66.5 23.0739L68.5 27.1586M66.5 23.0739C67.3024 22.8643 68.0595 22.6077 68.7528 22.3025M68.7528 22.3025L71.5 25.4999M68.7528 22.3025C69.5796 21.9384 70.3156 21.5052 70.9294 20.9999M70.9294 20.9999L74.2051 23.6679M70.9294 20.9999C71.4686 20.5561 71.9135 20.0567 72.2428 19.4999M74.2051 23.6679C74.7635 23.1281 75.3033 22.5372 75.8302 21.8923M72.2428 19.4999L75.8302 21.8923" stroke="black"/>
</svg>
