<svg width="120" height="160" viewBox="0 0 120 160" fill="none" xmlns="http://www.w3.org/2000/svg">
<path d="M16.1716 141.735V134.235C16.1716 134.235 12.5 130.5 12.9999 110.5C13.3908 94.8625 15.6158 62.1081 19.7121 44.4999C20.8549 39.5876 22.1433 35.854 23.5782 33.9999L35.9999 23.7249C35.6546 20.0866 36.5143 18.3616 39.9999 15.4998C56.4557 13.8335 65.3632 13.7434 80.4999 15.4998C84.0855 19.078 84.8075 20.9216 84.4309 23.9998L98.3517 33.9999C100.423 36.7623 102.052 40.3592 103.33 44.4999C109.452 64.3433 107.5 96.676 107.5 109.5C107.5 125 104.672 134.235 104.672 134.235V142.235H100.086H98.3517H96.4999H94.4999H92.6716H90.9216H89.1716V134.235L88.1522 129.992L86.4999 142.235L84.8225 142.219L81.5 142.187L79.5 142.168L75.874 142.133L72.3266 142.1L68.4748 142.063L64.8965 142.029L61.3739 141.995L57.8265 141.962L53.9747 141.925L50.3964 141.891L46.8739 141.857L43.3265 141.823L39.4747 141.787L35.8964 141.753L33.9999 141.735L32.9999 129.992L31.1716 134.235V141.735H27.1641H23.5782H19.7499H16.1716Z" fill="#EDE5D1"/>
<path d="M92.6716 134.235V142.235M100.086 134.235V142.235M90.9216 51.5C90.9216 52.5655 90.9325 55.0552 90.9449 58.5C91.0082 76.0695 91.1104 118.484 89.9999 123.5C89.4563 125.955 88.7716 128.198 88.1522 129.992M31.1716 51.5C31.1716 51.5 31.0808 54.1773 30.9532 58.5C30.4535 75.4309 29.3888 117.603 30.9999 123C33.0223 129.775 32.5567 128.34 32.9999 129.992M32.9999 129.992L31.1716 134.235V141.735H16.1716V134.235C16.1716 134.235 12.5 130.5 12.9999 110.5C13.3908 94.8625 15.6158 62.1081 19.7121 44.4999C20.8549 39.5876 22.1433 35.854 23.5782 33.9999L35.9999 23.7249M32.9999 129.992L33.9999 141.735L79.5 142.168M88.1522 129.992L89.1716 134.235V142.235H90.9216H92.6716M88.1522 129.992L86.4999 142.235L84.8225 142.219L81.5 142.187L79.5 142.168M92.6716 142.235H94.4999H96.4999M96.4999 136V142.235M96.4999 142.235H98.3517H104.672V134.235C104.672 134.235 107.5 125 107.5 109.5C107.5 96.676 109.452 64.3433 103.33 44.4999C102.052 40.3592 100.423 36.7623 98.3517 33.9999L84.4309 23.9998M102.743 134.219V142.219M19.7499 136V142.235M27.1641 136V142.235M23.5782 134.235V142.235M35.8964 136C35.8964 139.124 35.8964 142.235 35.8964 142.235M39.4747 136V142.235M43.3265 134.235V142.235M46.8739 134.235V142.235M50.3964 136V142.235M53.9747 134.235V142.235M57.8265 134.235V142.235M61.3739 136V142.235M64.8965 134.235V142.235M68.4748 134.235V142.235M72.3266 136V142.235M75.874 134.235V142.235M79.5 134.235V142.168M83 136V142.168M60.9999 29.9999L60.2764 29.8183L55.9999 28.7449M60.9999 29.9999L62.1324 29.7099L67.4999 28.3354M60.9999 29.9999L39.9999 15.4998M60.9999 29.9999L80.4999 15.4998M39.9999 15.4998C36.5143 18.3616 35.6546 20.0866 35.9999 23.7249M39.9999 15.4998C56.4557 13.8335 65.3632 13.7434 80.4999 15.4998M35.9999 23.7249L55.9999 28.7449M80.4999 15.4998C84.0855 19.078 84.8075 20.9216 84.4309 23.9998M84.4309 23.9998L67.4999 28.3354M55.9999 28.7449L56 53.9999M67.4999 28.3354L67.5 64.4999" stroke="black"/>
</svg>
