<svg width="120" height="160" viewBox="0 0 120 160" fill="none" xmlns="http://www.w3.org/2000/svg">
<path d="M16.1714 141.735V134.235C16.1714 134.235 7.49989 134.5 7.99982 114.5C8.49975 94.4999 22.6714 30.2345 22.6714 30.2345L35.9999 23.7249C35.6546 20.0866 36.5143 18.3616 39.9999 15.4998C56.4557 13.8335 65.3632 13.7434 80.4999 15.4998C84.0855 19.078 84.8075 20.9216 84.4309 23.9998L97.6714 30.2345C97.6714 30.2345 113.5 98.9999 113.5 114.5C113.5 130 104.671 134.235 104.671 134.235V142.235H89.1714V134.235L86.6714 128.735C77.7548 132.351 72.724 134.289 63.1715 136.107C63.1715 136.107 63.1715 136.735 61.1715 136.735C59.1715 136.735 57.1715 136.107 57.1715 136.107C57.0468 136.826 43.6406 133.969 34.1715 129.235L31.1715 134.235V141.735H16.1714Z" fill="#CDC5B6"/>
<path d="M22.6714 30.2345C25.9303 45.8231 27.4992 54.5027 29.1715 69.7345C30.5812 92.4852 31.2635 105.176 29.1715 125.735L34.1715 129.235M22.6714 30.2345C22.6714 30.2345 8.49975 94.4999 7.99982 114.5C7.49989 134.5 16.1714 134.235 16.1714 134.235M22.6714 30.2345L35.9999 23.7249M16.1714 134.235V141.735H31.1715V134.235M16.1714 134.235H17.9998M31.1715 134.235L34.1715 129.235M31.1715 134.235H28.3356M34.1715 129.235C43.6406 133.969 57.0468 136.826 57.1715 136.107M97.6714 30.2345C94.4838 45.9854 93.2209 54.6782 92.6714 69.7345C91.9264 93.2948 91.4858 106.739 91.1714 125.735C89.3874 127.112 88.3938 127.848 86.6714 128.735M97.6714 30.2345C97.6714 30.2345 113.5 98.9999 113.5 114.5C113.5 130 104.671 134.235 104.671 134.235M97.6714 30.2345L84.4309 23.9998M86.6714 128.735L89.1714 134.235M86.6714 128.735C77.7548 132.351 72.724 134.289 63.1715 136.107M89.1714 134.235V142.235H104.671V134.235M89.1714 134.235H92.6714M104.671 134.235H102.379M63 29.4999L63.1715 136.107M63.1715 136.107C63.1715 136.107 63.1715 136.735 61.1715 136.735C59.1715 136.735 57.1715 136.107 57.1715 136.107M57.5 29.1214L57.1715 136.107M17.9998 134.235L14.4998 127.5M17.9998 134.235H21.4998M21.4998 134.235L20.9998 124M21.4998 134.235H25.4998M25.4998 134.235L26.4998 127.5M25.4998 134.235H28.3356M28.3356 134.235L29.9998 131M92.6714 134.235L91.1714 131M92.6714 134.235H95.4998M95.4998 134.235V127.5M95.4998 134.235H100.086M100.086 134.235L102 124M100.086 134.235H102.379M102.379 134.235L106.5 127.5M60.9999 29.9999L60.2764 29.8183L54.3685 28.3354M60.9999 29.9999L62.1324 29.7099L67.4999 28.3354M60.9999 29.9999L39.9999 15.4998M60.9999 29.9999L80.4999 15.4998M39.9999 15.4998C36.5143 18.3616 35.6546 20.0866 35.9999 23.7249M39.9999 15.4998C56.4557 13.8335 65.3632 13.7434 80.4999 15.4998M35.9999 23.7249L54.3685 28.3354M80.4999 15.4998C84.0855 19.078 84.8075 20.9216 84.4309 23.9998M84.4309 23.9998L67.4999 28.3354M54.3685 28.3354L54.3686 53.5904M67.4999 28.3354L67.5 64.4999M60.1715 35.7345C59.6192 35.7345 59.1715 36.1822 59.1715 36.7345C59.1715 37.2868 59.6192 37.7345 60.1715 37.7345C60.7238 37.7345 61.1715 37.2868 61.1715 36.7345C61.1715 36.1822 60.7238 35.7345 60.1715 35.7345ZM60.1715 49.2345C59.6192 49.2345 59.1715 49.6822 59.1715 50.2345C59.1715 50.7868 59.6192 51.2345 60.1715 51.2345C60.7238 51.2345 61.1715 50.7868 61.1715 50.2345C61.1715 49.6822 60.7238 49.2345 60.1715 49.2345ZM60.1715 62.2345C59.6192 62.2345 59.1715 62.6822 59.1715 63.2345C59.1715 63.7868 59.6192 64.2345 60.1715 64.2345C60.7238 64.2345 61.1715 63.7868 61.1715 63.2345C61.1715 62.6822 60.7238 62.2345 60.1715 62.2345ZM60.1715 75.7345C59.6192 75.7345 59.1715 76.1822 59.1715 76.7345C59.1715 77.2868 59.6192 77.7345 60.1715 77.7345C60.7238 77.7345 61.1715 77.2868 61.1715 76.7345C61.1715 76.1822 60.7238 75.7345 60.1715 75.7345ZM60.1715 89.2345C59.6192 89.2345 59.1715 89.6822 59.1715 90.2345C59.1715 90.7868 59.6192 91.2345 60.1715 91.2345C60.7238 91.2345 61.1715 90.7868 61.1715 90.2345C61.1715 89.6822 60.7238 89.2345 60.1715 89.2345ZM60.1715 102.735C59.6192 102.735 59.1715 103.182 59.1715 103.735C59.1715 104.287 59.6192 104.735 60.1715 104.735C60.7238 104.735 61.1715 104.287 61.1715 103.735C61.1715 103.182 60.7238 102.735 60.1715 102.735ZM60.1715 116.235C59.6192 116.235 59.1715 116.682 59.1715 117.235C59.1715 117.787 59.6192 118.235 60.1715 118.235C60.7238 118.235 61.1715 117.787 61.1715 117.235C61.1715 116.682 60.7238 116.235 60.1715 116.235Z" stroke="black"/>
</svg>
