<svg width="120" height="160" viewBox="0 0 120 160" fill="none" xmlns="http://www.w3.org/2000/svg">
<path d="M16.1716 141.735V134.235C16.1716 134.235 12.5 130.5 12.9999 110.5C13.4998 90.5001 23.5782 30.5001 23.5782 30.5001C23.823 30.2636 24.0708 30.1432 24.3194 30.1257L36 24.2252C35.6547 20.5868 36.5143 18.8618 40 16.0001C56.4557 14.3337 65.3632 14.2436 80.5 16.0001C84.0856 19.5782 84.8075 21.4218 84.431 24.5001L95.4999 30.5001C95.4999 30.5001 107.5 94.0001 107.5 109.5C107.5 125 104.672 134.235 104.672 134.235V142.235H98.3517H96.4999H94.4999H92.6716H90.9216H89.1716V134.235L88.1522 129.992C87.2579 132.582 86.4999 134.235 86.4999 134.235V142.235L84.8225 142.219L81.5 142.187L79.5 142.168L33.9999 141.735V134.235C33.9999 134.235 33.9248 133.442 32.9999 129.992L31.1716 134.235V141.735H16.1716Z" fill="#C5C8CC"/>
<path d="M23.5782 30.5001C23.5782 30.5001 13.4998 90.5001 12.9999 110.5C12.5 130.5 16.1716 134.235 16.1716 134.235M23.5782 30.5001C27.2053 26.9946 31.5 49.0001 28.9775 53.5001C28.9775 53.5001 28.9775 116.225 30.9999 123C33.0223 129.775 32.5567 128.34 32.9999 129.992M23.5782 30.5001L36 24.2252M16.1716 134.235V141.735H31.1716V134.235M16.1716 134.235H17.9999H21.4999H25.4999H28.3357H31.1716M31.1716 134.235L32.9999 129.992M95.4999 30.5001C95.4999 30.5001 107.5 94.0001 107.5 109.5C107.5 125 104.672 134.235 104.672 134.235M95.4999 30.5001C93.0146 29.2822 87.926 44.9085 91 53.5001C91 60.0001 91.3282 117.5 89.9999 123.5C89.4563 125.955 88.7715 128.199 88.1522 129.992M95.4999 30.5001L84.431 24.5001M89.1716 134.235V142.235H90.9216H92.6716H94.4999H96.4999H98.3517H104.672V134.235M89.1716 134.235L88.1522 129.992M89.1716 134.235H90.9216H92.6716H94.4999H95.4999H95.9999H96.4999H98.3517H100.086H102.379H104.672M33.9999 134.235V141.735L79.5 142.168L81.5 142.187L84.8225 142.219L86.4999 142.235V134.235M33.9999 134.235C33.9999 134.235 33.9248 133.442 32.9999 129.992M33.9999 134.235H79.5H81.5H83H84.8225H86.4999M86.4999 134.235C86.4999 134.235 87.2579 132.582 88.1522 129.992M40 16.0001C44.6308 19.42 58.2906 30.3625 61 30.5001M40 16.0001C36.5143 18.8618 35.6547 20.5868 36 24.2252M40 16.0001C56.4557 14.3337 65.3632 14.2436 80.5 16.0001M61 30.5001C63.7094 30.6377 75.8373 19.9091 80.5 16.0001M61 30.5001L56 29.2451M61 30.5001L67.5 28.8356M80.5 16.0001C84.0856 19.5782 84.8075 21.4218 84.431 24.5001M84.431 24.5001L67.5 28.8356M36 24.2252L56 29.2451M56 29.2451V51.0001M67.5 28.8356V44.6679V60.5001M44 95.5001H77.5C78.6319 105.772 77.0785 106.048 81.5 116.5V125H39V116.5C43.9781 106.61 43.0149 106.206 44 95.5001Z" stroke="black"/>
</svg>
