<svg width="120" height="160" viewBox="0 0 120 160" fill="none" xmlns="http://www.w3.org/2000/svg">
<path d="M16.1716 141.735V134.235C16.1716 134.235 12.5 130.5 12.9999 110.5C13.4998 90.5001 24.5 30.131 24.5 30.131L35.9999 23.7252C35.6546 20.0868 36.5143 18.3618 39.9999 15.5001C56.4557 13.8337 65.3632 13.7436 80.4999 15.5001C84.0855 19.0782 84.8075 20.9218 84.4309 24.0001L95.4999 30.5001C95.4999 30.5001 107.5 94.0001 107.5 109.5C107.5 125 104.672 134.235 104.672 134.235V142.235H103.525H101.899H100.086H98.3517H96.4999H94.4999H92.6716H90.9216H89.1716V134.235L88.1522 129.992C87.2579 132.582 86.4999 134.235 86.4999 134.235V142.235L84.8225 142.219L81.5 142.187L79.5 142.168L77.5 142.149L75.874 142.134L74.0606 142.116L72.3266 142.1L70.4748 142.082L68.4748 142.063L66.6465 142.046L64.8965 142.029L62.9999 142.011L61.3739 141.995L59.5605 141.978L57.8265 141.962L55.9747 141.944L53.9747 141.925L52.1464 141.908L50.3964 141.891L48.4999 141.873L46.8739 141.857L45.0605 141.84L43.3265 141.824L41.4747 141.806L39.4747 141.787L37.6464 141.77L35.8964 141.753L33.9999 141.735V134.235C33.9999 134.235 33.9248 133.442 32.9999 129.992L31.1716 134.235V141.735H30.6034H28.9775H27.1641H25.43H23.5782H21.5782H19.7499H17.9999H16.1716Z" fill="#C5C8CC"/>
<path d="M16.1716 141.735H15.6716V142.235H16.1716V141.735ZM31.1716 141.735V142.235H31.6716V141.735H31.1716ZM89.1716 142.235H88.6716V142.735H89.1716V142.235ZM104.672 142.235V142.735H105.172V142.235H104.672ZM95.4999 30.5001L95.9912 30.4073C95.9644 30.2654 95.8776 30.1421 95.7531 30.069L95.4999 30.5001ZM12.9999 110.5L12.5001 110.488L12.9999 110.5ZM24.5 30.131L24.2567 29.6942C24.1261 29.7669 24.0349 29.8943 24.0081 30.0414L24.5 30.131ZM33.9999 141.735H33.4999V142.23L33.9951 142.235L33.9999 141.735ZM86.4999 142.235L86.4951 142.735L86.9999 142.74V142.235H86.4999ZM91 53.5001H91.5V53.4134L91.4708 53.3317L91 53.5001ZM89.9999 123.5L90.488 123.608L89.9999 123.5ZM28.9775 53.5001L28.5413 53.2556L28.4775 53.3695V53.5001H28.9775ZM88.1522 129.992L87.6795 129.829L88.1522 129.992ZM81.5 142.187L81.4952 142.687L81.5 142.187ZM84.8225 142.219L84.8177 142.719L84.8225 142.219ZM60.2764 29.8185L60.3981 29.3336L60.2764 29.8185ZM60.9999 30.0001L60.8782 30.4851L61.0012 30.5159L61.124 30.4845L60.9999 30.0001ZM62.1324 29.7101L62.0084 29.2257L62.1324 29.7101ZM39.9999 15.5001L39.9496 15.0026L39.7993 15.0178L39.6827 15.1136L39.9999 15.5001ZM80.4999 15.5001L80.8531 15.1462L80.7301 15.0234L80.5576 15.0034L80.4999 15.5001ZM15.6716 134.235V141.735H16.6716V134.235H15.6716ZM16.1716 142.235H17.9999V141.235H16.1716V142.235ZM17.9999 142.235H19.7499V141.235H17.9999V142.235ZM19.7499 142.235H21.5782V141.235H19.7499V142.235ZM21.5782 142.235H23.5782V141.235H21.5782V142.235ZM23.5782 142.235H25.43V141.235H23.5782V142.235ZM25.43 142.235H27.1641V141.235H25.43V142.235ZM27.1641 142.235H28.9775V141.235H27.1641V142.235ZM28.9775 142.235H30.6034V141.235H28.9775V142.235ZM30.6034 142.235H31.1716V141.235H30.6034V142.235ZM31.6716 141.735V134.235H30.6716V141.735H31.6716ZM88.6716 134.235V142.235H89.6716V134.235H88.6716ZM105.172 142.235V134.235H104.172V142.235H105.172ZM104.672 134.235C105.15 134.381 105.15 134.381 105.15 134.381C105.15 134.381 105.15 134.381 105.15 134.38C105.15 134.38 105.15 134.379 105.15 134.379C105.151 134.377 105.151 134.375 105.152 134.373C105.154 134.368 105.156 134.36 105.159 134.351C105.165 134.332 105.173 134.303 105.184 134.267C105.205 134.193 105.236 134.083 105.275 133.94C105.354 133.652 105.466 133.225 105.6 132.666C105.867 131.547 106.223 129.897 106.579 127.762C107.29 123.492 108 117.28 108 109.5H107C107 117.22 106.296 123.376 105.593 127.598C105.241 129.709 104.89 131.336 104.627 132.433C104.496 132.982 104.387 133.398 104.311 133.676C104.273 133.815 104.243 133.919 104.223 133.988C104.213 134.022 104.206 134.048 104.201 134.065C104.198 134.073 104.196 134.079 104.195 134.083C104.194 134.085 104.194 134.087 104.194 134.088C104.194 134.088 104.194 134.088 104.193 134.088C104.193 134.088 104.193 134.088 104.193 134.088C104.193 134.088 104.193 134.088 104.672 134.235ZM108 109.5C108 101.698 104.99 81.8974 101.993 64.1046C100.492 55.1956 98.9921 46.7715 97.8668 40.5749C97.3042 37.4765 96.8353 34.9348 96.5071 33.1676C96.343 32.284 96.214 31.594 96.1261 31.1249C96.0821 30.8904 96.0484 30.711 96.0257 30.5903C96.0143 30.5299 96.0057 30.4842 95.9999 30.4535C95.997 30.4382 95.9948 30.4267 95.9934 30.4189C95.9927 30.4151 95.9921 30.4122 95.9917 30.4102C95.9916 30.4092 95.9914 30.4085 95.9913 30.408C95.9912 30.4075 95.9912 30.4073 95.4999 30.5001C95.0086 30.593 95.0086 30.5932 95.0087 30.5937C95.0088 30.5942 95.0089 30.5949 95.0091 30.5958C95.0095 30.5977 95.01 30.6006 95.0107 30.6045C95.0122 30.6121 95.0144 30.6236 95.0172 30.6389C95.023 30.6694 95.0316 30.715 95.0429 30.7752C95.0656 30.8957 95.0993 31.0749 95.1432 31.3092C95.231 31.7778 95.3599 32.4672 95.5239 33.3502C95.8519 35.1163 96.3205 37.6566 96.8829 40.7535C98.0077 46.9475 99.5073 55.3671 101.007 64.2707C104.01 82.1029 107 101.802 107 109.5H108ZM16.1716 134.235C16.5281 133.884 16.5286 133.885 16.529 133.885C16.5292 133.885 16.5296 133.886 16.5298 133.886C16.5303 133.886 16.5308 133.887 16.5312 133.887C16.532 133.888 16.5325 133.889 16.5329 133.889C16.5335 133.89 16.5333 133.89 16.5322 133.888C16.5299 133.886 16.5242 133.879 16.5151 133.868C16.4971 133.847 16.4659 133.807 16.4236 133.747C16.339 133.627 16.2097 133.424 16.0515 133.112C15.735 132.489 15.3037 131.434 14.8834 129.747C14.0423 126.37 13.2505 120.485 13.4998 110.513L12.5001 110.488C12.2494 120.516 13.0434 126.497 13.9131 129.988C14.3482 131.735 14.8036 132.863 15.1599 133.565C15.3381 133.916 15.4918 134.161 15.606 134.323C15.6631 134.404 15.7103 134.465 15.7458 134.507C15.7635 134.529 15.7783 134.546 15.79 134.559C15.7958 134.565 15.8008 134.57 15.805 134.575C15.8071 134.577 15.809 134.579 15.8106 134.581C15.8115 134.582 15.8123 134.582 15.813 134.583C15.8134 134.584 15.8139 134.584 15.8141 134.584C15.8145 134.585 15.815 134.585 16.1716 134.235ZM13.4998 110.513C13.7487 100.553 16.6171 80.4965 19.4312 62.8945C20.837 54.1013 22.2272 45.9325 23.266 39.9619C23.7854 36.9766 24.2169 34.5411 24.5186 32.8519C24.6694 32.0074 24.7878 31.3494 24.8684 30.9027C24.9087 30.6793 24.9396 30.5087 24.9604 30.394C24.9708 30.3367 24.9787 30.2933 24.984 30.2643C24.9866 30.2498 24.9886 30.2388 24.9899 30.2315C24.9906 30.2279 24.9911 30.2252 24.9914 30.2233C24.9916 30.2224 24.9917 30.2218 24.9918 30.2213C24.9919 30.2208 24.9919 30.2206 24.5 30.131C24.0081 30.0414 24.0081 30.0416 24.008 30.0421C24.0079 30.0425 24.0078 30.0432 24.0076 30.0442C24.0073 30.046 24.0067 30.0488 24.0061 30.0525C24.0047 30.0598 24.0027 30.0708 24.0001 30.0854C23.9948 30.1146 23.9869 30.1581 23.9765 30.2156C23.9556 30.3305 23.9247 30.5014 23.8843 30.725C23.8036 31.1724 23.6851 31.8309 23.5341 32.6761C23.2323 34.3666 22.8005 36.8036 22.2808 39.7905C21.2415 45.7641 19.8504 53.9376 18.4437 62.7366C15.6327 80.3192 12.751 100.447 12.5001 110.488L13.4998 110.513ZM16.1716 134.735H17.9999V133.735H16.1716V134.735ZM17.9999 134.735H19.7499V133.735H17.9999V134.735ZM19.7499 134.735H21.4999V133.735H19.7499V134.735ZM21.4999 134.735H21.5782V133.735H21.4999V134.735ZM21.5782 134.735H23.5782V133.735H21.5782V134.735ZM23.5782 134.735H25.43V133.735H23.5782V134.735ZM25.43 134.735H25.4999V133.735H25.43V134.735ZM25.4999 134.735H27.1641V133.735H25.4999V134.735ZM27.1641 134.735H28.3357V133.735H27.1641V134.735ZM28.3357 134.735H28.9775V133.735H28.3357V134.735ZM28.9775 134.735H30.6034V133.735H28.9775V134.735ZM30.6034 134.735H31.1716V133.735H30.6034V134.735ZM100.086 134.735H101.899V133.735H100.086V134.735ZM101.899 134.735H102.379V133.735H101.899V134.735ZM102.379 134.735H103.525V133.735H102.379V134.735ZM103.525 134.735H104.672V133.735H103.525V134.735ZM33.4999 134.235V141.735H34.4999V134.235H33.4999ZM86.9999 142.235V134.235H85.9999V142.235H86.9999ZM95.7199 30.0511C95.1344 29.7642 94.5619 30.0355 94.136 30.4115C93.7008 30.7957 93.277 31.3989 92.877 32.1325C92.0713 33.6104 91.2854 35.7619 90.6799 38.2011C89.4732 43.0624 88.9425 49.2337 90.5292 53.6686L91.4708 53.3317C89.9835 49.1749 90.4601 43.2372 91.6505 38.442C92.2435 36.0528 93.0037 33.9892 93.755 32.6112C94.1336 31.9168 94.491 31.432 94.7978 31.1612C95.1138 30.8822 95.244 30.9315 95.2799 30.9491L95.7199 30.0511ZM90.5 53.5001C90.5 56.7543 90.582 72.7489 90.498 88.685C90.4561 96.6527 90.3726 104.602 90.2167 110.933C90.1387 114.099 90.0427 116.857 89.9249 119.009C89.8063 121.177 89.6673 122.689 89.5117 123.392L90.488 123.608C90.6645 122.811 90.8058 121.214 90.9235 119.064C91.042 116.897 91.1383 114.128 91.2164 110.958C91.3725 104.617 91.456 96.66 91.498 88.6903C91.582 72.7513 91.5 56.746 91.5 53.5001H90.5ZM31.479 122.857C31.2437 122.069 31.025 120.401 30.8306 118.028C30.6379 115.674 30.4723 112.676 30.3302 109.262C30.0461 102.435 29.8566 93.9645 29.7302 85.7019C29.6038 77.4401 29.5407 69.3895 29.5091 63.4041C29.4933 60.4115 29.4854 57.9354 29.4814 56.2074C29.4794 55.3435 29.4785 54.6665 29.478 54.2057C29.4777 53.9752 29.4776 53.7988 29.4775 53.68C29.4775 53.6206 29.4775 53.5756 29.4775 53.5455C29.4775 53.5304 29.4775 53.5191 29.4775 53.5115C29.4775 53.5077 29.4775 53.5049 29.4775 53.503C29.4775 53.502 29.4775 53.5013 29.4775 53.5008C29.4775 53.5004 29.4775 53.5001 28.9775 53.5001C28.4775 53.5001 28.4775 53.5004 28.4775 53.5009C28.4775 53.5013 28.4775 53.5021 28.4775 53.503C28.4775 53.5049 28.4775 53.5078 28.4775 53.5116C28.4775 53.5192 28.4775 53.5306 28.4775 53.5457C28.4775 53.576 28.4775 53.621 28.4775 53.6805C28.4776 53.7995 28.4777 53.9761 28.478 54.2067C28.4785 54.668 28.4794 55.3453 28.4814 56.2097C28.4854 57.9385 28.4933 60.4157 28.5091 63.4094C28.5407 69.3968 28.6039 77.4509 28.7303 85.7172C28.8567 93.9827 29.0464 102.464 29.3311 109.303C29.4734 112.723 29.6396 115.736 29.834 118.109C30.0267 120.463 30.2504 122.238 30.5208 123.143L31.479 122.857ZM33.9999 134.235C34.4976 134.188 34.4976 134.187 34.4976 134.187C34.4976 134.187 34.4976 134.187 34.4976 134.187C34.4975 134.187 34.4975 134.186 34.4975 134.186C34.4974 134.185 34.4974 134.185 34.4973 134.184C34.4972 134.183 34.497 134.181 34.4968 134.18C34.4965 134.176 34.496 134.172 34.4954 134.167C34.4943 134.157 34.4926 134.144 34.4903 134.127C34.4857 134.092 34.4783 134.043 34.4668 133.974C34.4439 133.837 34.4041 133.623 34.3357 133.303C34.199 132.662 33.9467 131.593 33.4828 129.863L32.5169 130.122C32.978 131.841 33.2257 132.893 33.3578 133.512C33.4237 133.821 33.4605 134.02 33.4806 134.14C33.4906 134.199 33.4963 134.239 33.4994 134.261C33.5009 134.273 33.5018 134.28 33.5022 134.283C33.5024 134.285 33.5024 134.285 33.5024 134.285C33.5024 134.285 33.5024 134.285 33.5023 134.284C33.5023 134.284 33.5022 134.284 33.5022 134.283C33.5022 134.283 33.5022 134.283 33.5022 134.283C33.5021 134.282 33.5021 134.282 33.5021 134.282C33.5021 134.282 33.5021 134.282 33.9999 134.235ZM33.4828 129.863C33.0398 128.211 33.5037 129.64 31.479 122.857L30.5208 123.143C32.5408 129.91 32.0736 128.468 32.5169 130.122L33.4828 129.863ZM31.6308 134.433L33.459 130.19L32.5407 129.795L30.7124 134.037L31.6308 134.433ZM89.5117 123.392C88.9732 125.824 88.2943 128.049 87.6795 129.829L88.6248 130.156C89.2488 128.348 89.9394 126.086 90.488 123.608L89.5117 123.392ZM87.6795 129.829C87.2359 131.114 86.8262 132.166 86.5278 132.895C86.3787 133.26 86.2575 133.544 86.1738 133.737C86.132 133.833 86.0996 133.906 86.0778 133.955C86.0668 133.979 86.0586 133.997 86.0531 134.009C86.0504 134.015 86.0484 134.02 86.0471 134.023C86.0465 134.024 86.046 134.025 86.0457 134.026C86.0456 134.026 86.0455 134.026 86.0454 134.026C86.0454 134.026 86.0454 134.026 86.0454 134.026L86.0454 134.026C86.0454 134.026 86.0454 134.026 86.4999 134.235C86.9543 134.443 86.9543 134.443 86.9544 134.443C86.9544 134.443 86.9544 134.443 86.9544 134.443C86.9545 134.443 86.9545 134.443 86.9546 134.443C86.9547 134.442 86.9549 134.442 86.9551 134.441C86.9556 134.44 86.9562 134.439 86.957 134.437C86.9586 134.434 86.961 134.429 86.964 134.422C86.9701 134.408 86.979 134.389 86.9906 134.363C87.0137 134.311 87.0475 134.235 87.0907 134.136C87.1772 133.937 87.3013 133.646 87.4535 133.274C87.7577 132.53 88.1742 131.461 88.6248 130.156L87.6795 129.829ZM89.6577 134.118L88.6383 129.876L87.666 130.109L88.6854 134.352L89.6577 134.118ZM89.1716 134.735H90.9216V133.735H89.1716V134.735ZM90.9216 134.735H92.6716V133.735H90.9216V134.735ZM89.1716 142.735H90.9216V141.735H89.1716V142.735ZM90.4216 134.235V142.235H91.4216V134.235H90.4216ZM90.9216 142.735H92.6716V141.735H90.9216V142.735ZM92.1716 134.235V142.235H93.1716V134.235H92.1716ZM92.6716 134.735H94.4999V133.735H92.6716V134.735ZM94.4999 134.735H95.4999V133.735H94.4999V134.735ZM92.6716 142.735H94.4999V141.735H92.6716V142.735ZM93.9999 134.235V142.235H94.9999V134.235H93.9999ZM95.4999 134.735H95.9999V133.735H95.4999V134.735ZM95.9999 134.735H96.4999V133.735H95.9999V134.735ZM94.4999 142.735H96.4999V141.735H94.4999V142.735ZM95.9999 134.235V142.235H96.9999V134.235H95.9999ZM96.4999 134.735H98.3517V133.735H96.4999V134.735ZM98.3517 134.735H100.086V133.735H98.3517V134.735ZM96.4999 142.735H98.3517V141.735H96.4999V142.735ZM98.3517 142.735H100.086V141.735H98.3517V142.735ZM100.086 142.735H101.899V141.735H100.086V142.735ZM101.899 142.735H103.525V141.735H101.899V142.735ZM103.525 142.735H104.672V141.735H103.525V142.735ZM97.8517 134.235V142.235H98.8517V134.235H97.8517ZM99.5857 134.235V142.235H100.586V134.235H99.5857ZM101.399 134.235V142.235H102.399V134.235H101.399ZM103.025 134.235V142.235H104.025V134.235H103.025ZM17.4999 134.235V141.735H18.4999V134.235H17.4999ZM17.4999 141.735V142.235H18.4999V141.735H17.4999ZM19.2499 134.235V141.735H20.2499V134.235H19.2499ZM19.2499 141.735V142.235H20.2499V141.735H19.2499ZM21.0782 134.235V141.735H22.0782V134.235H21.0782ZM21.0782 141.735V142.235H22.0782V141.735H21.0782ZM23.0782 134.235V141.735H24.0782V134.235H23.0782ZM23.0782 141.735V142.235H24.0782V141.735H23.0782ZM24.93 134.235V141.735H25.93V134.235H24.93ZM24.93 141.735V142.235H25.93V141.735H24.93ZM26.6641 134.235V141.735H27.6641V134.235H26.6641ZM26.6641 141.735V142.235H27.6641V141.735H26.6641ZM28.4775 134.235V141.735H29.4775V134.235H28.4775ZM28.4775 141.735V142.235H29.4775V141.735H28.4775ZM30.1034 134.235V141.735H31.1034V134.235H30.1034ZM30.1034 141.735V142.235H31.1034V141.735H30.1034ZM35.3964 134.235V141.753H36.3964V134.235H35.3964ZM35.3964 141.753V142.235H36.3964V141.753H35.3964ZM37.1464 134.235V141.77H38.1464V134.235H37.1464ZM37.1464 141.77V142.235H38.1464V141.77H37.1464ZM38.9747 134.235V141.787H39.9747V134.235H38.9747ZM38.9747 141.787V142.235H39.9747V141.787H38.9747ZM40.9747 134.235V141.806H41.9747V134.235H40.9747ZM40.9747 141.806V142.235H41.9747V141.806H40.9747ZM42.8265 134.235V141.824H43.8265V134.235H42.8265ZM42.8265 141.824V142.235H43.8265V141.824H42.8265ZM44.5605 134.235V141.84H45.5605V134.235H44.5605ZM44.5605 141.84V142.235H45.5605V141.84H44.5605ZM46.3739 134.235V141.857H47.3739V134.235H46.3739ZM46.3739 141.857V142.235H47.3739V141.857H46.3739ZM47.9999 134.235V141.873H48.9999V134.235H47.9999ZM47.9999 141.873V142.235H48.9999V141.873H47.9999ZM49.8964 134.235V141.891H50.8964V134.235H49.8964ZM49.8964 141.891V142.235H50.8964V141.891H49.8964ZM51.6464 134.235V141.908H52.6464V134.235H51.6464ZM51.6464 141.908V142.235H52.6464V141.908H51.6464ZM53.4747 134.235V141.925H54.4747V134.235H53.4747ZM53.4747 141.925V142.235H54.4747V141.925H53.4747ZM55.4747 134.235V141.944H56.4747V134.235H55.4747ZM55.4747 141.944V142.235H56.4747V141.944H55.4747ZM57.3265 134.235V141.962H58.3265V134.235H57.3265ZM57.3265 141.962V142.235H58.3265V141.962H57.3265ZM59.0605 134.235V141.978H60.0605V134.235H59.0605ZM59.0605 141.978V142.235H60.0605V141.978H59.0605ZM60.8739 134.235V141.995H61.8739V134.235H60.8739ZM60.8739 141.995V142.235H61.8739V141.995H60.8739ZM62.4999 134.235V142.011H63.4999V134.235H62.4999ZM62.4999 142.011V142.235H63.4999V142.011H62.4999ZM64.3965 134.235V142.029H65.3965V134.235H64.3965ZM64.3965 142.029V142.235H65.3965V142.029H64.3965ZM66.1465 134.235V142.046H67.1465V134.235H66.1465ZM66.1465 142.046V142.235H67.1465V142.046H66.1465ZM67.9748 134.235V142.063H68.9748V134.235H67.9748ZM67.9748 142.063V142.235H68.9748V142.063H67.9748ZM69.9748 134.235V142.082H70.9748V134.235H69.9748ZM69.9748 142.082V142.235H70.9748V142.082H69.9748ZM71.8266 134.235V142.1H72.8266V134.235H71.8266ZM71.8266 142.1V142.235H72.8266V142.1H71.8266ZM73.5606 134.235V142.116H74.5606V134.235H73.5606ZM73.5606 142.116V142.235H74.5606V142.116H73.5606ZM75.374 134.235V142.134H76.374V134.235H75.374ZM75.374 142.134V142.235H76.374V142.134H75.374ZM77 134.235V142.149H78V134.235H77ZM77 142.149V142.235H78V142.149H77ZM79.5 133.735H77.5V134.735H79.5V133.735ZM77.5 133.735H75.874V134.735H77.5V133.735ZM75.874 133.735H74.0606V134.735H75.874V133.735ZM74.0606 133.735H72.3266V134.735H74.0606V133.735ZM72.3266 133.735H70.4748V134.735H72.3266V133.735ZM70.4748 133.735H68.4748V134.735H70.4748V133.735ZM68.4748 133.735H66.6465V134.735H68.4748V133.735ZM66.6465 133.735H64.8965V134.735H66.6465V133.735ZM64.8965 133.735H62.9999V134.735H64.8965V133.735ZM62.9999 133.735H61.3739V134.735H62.9999V133.735ZM61.3739 133.735H59.5605V134.735H61.3739V133.735ZM59.5605 133.735H57.8265V134.735H59.5605V133.735ZM57.8265 133.735H55.9747V134.735H57.8265V133.735ZM55.9747 133.735H53.9747V134.735H55.9747V133.735ZM53.9747 133.735H52.1464V134.735H53.9747V133.735ZM52.1464 133.735H50.3964V134.735H52.1464V133.735ZM50.3964 133.735H48.4999V134.735H50.3964V133.735ZM48.4999 133.735H46.8739V134.735H48.4999V133.735ZM46.8739 133.735H45.0605V134.735H46.8739V133.735ZM45.0605 133.735H43.3265V134.735H45.0605V133.735ZM43.3265 133.735H41.4747V134.735H43.3265V133.735ZM41.4747 133.735H39.4747V134.735H41.4747V133.735ZM39.4747 133.735H37.6464V134.735H39.4747V133.735ZM37.6464 133.735H35.8964V134.735H37.6464V133.735ZM35.8964 133.735H33.9999V134.735H35.8964V133.735ZM33.9951 142.235L35.8916 142.253L35.9011 141.253L34.0046 141.235L33.9951 142.235ZM35.8916 142.253L37.6416 142.269L37.6511 141.27L35.9011 141.253L35.8916 142.253ZM37.6416 142.269L39.47 142.287L39.4795 141.287L37.6511 141.27L37.6416 142.269ZM39.47 142.287L41.47 142.306L41.4795 141.306L39.4795 141.287L39.47 142.287ZM41.47 142.306L43.3217 142.324L43.3312 141.324L41.4795 141.306L41.47 142.306ZM43.3217 142.324L45.0558 142.34L45.0653 141.34L43.3312 141.324L43.3217 142.324ZM45.0558 142.34L46.8692 142.357L46.8787 141.357L45.0653 141.34L45.0558 142.34ZM46.8692 142.357L48.4951 142.373L48.5047 141.373L46.8787 141.357L46.8692 142.357ZM48.4951 142.373L50.3916 142.391L50.4011 141.391L48.5047 141.373L48.4951 142.373ZM50.3916 142.391L52.1416 142.408L52.1511 141.408L50.4011 141.391L50.3916 142.391ZM52.1416 142.408L53.97 142.425L53.9795 141.425L52.1511 141.408L52.1416 142.408ZM53.97 142.425L55.97 142.444L55.9795 141.444L53.9795 141.425L53.97 142.425ZM55.97 142.444L57.8217 142.462L57.8312 141.462L55.9795 141.444L55.97 142.444ZM57.8217 142.462L59.5558 142.478L59.5653 141.478L57.8312 141.462L57.8217 142.462ZM59.5558 142.478L61.3692 142.495L61.3787 141.496L59.5653 141.478L59.5558 142.478ZM61.3692 142.495L62.9951 142.511L63.0047 141.511L61.3787 141.496L61.3692 142.495ZM62.9951 142.511L64.8917 142.529L64.9012 141.529L63.0047 141.511L62.9951 142.511ZM64.8917 142.529L66.6417 142.546L66.6512 141.546L64.9012 141.529L64.8917 142.529ZM66.6417 142.546L68.4701 142.563L68.4796 141.563L66.6512 141.546L66.6417 142.546ZM68.4701 142.563L70.4701 142.582L70.4796 141.582L68.4796 141.563L68.4701 142.563ZM70.4701 142.582L72.3218 142.6L72.3313 141.6L70.4796 141.582L70.4701 142.582ZM72.3218 142.6L74.0559 142.616L74.0654 141.616L72.3313 141.6L72.3218 142.6ZM74.0559 142.616L75.8693 142.634L75.8788 141.634L74.0654 141.616L74.0559 142.616ZM75.8693 142.634L77.4952 142.649L77.5048 141.649L75.8788 141.634L75.8693 142.634ZM77.4952 142.649L79.4952 142.668L79.5048 141.668L77.5048 141.649L77.4952 142.649ZM79 134.235V142.168H80V134.235H79ZM81.5 133.735H79.5V134.735H81.5V133.735ZM79.4952 142.668L81.4952 142.687L81.5048 141.687L79.5048 141.668L79.4952 142.668ZM81 134.235V142.187H82V134.235H81ZM83 133.735H81.5V134.735H83V133.735ZM82.5 134.235V142.168H83.5V134.235H82.5ZM81.4952 142.687L84.8177 142.719L84.8272 141.719L81.5048 141.687L81.4952 142.687ZM84.8177 142.719L86.4951 142.735L86.5046 141.735L84.8272 141.719L84.8177 142.719ZM86.4999 133.735H84.8225V134.735H86.4999V133.735ZM84.8225 133.735H83V134.735H84.8225V133.735ZM85.3225 142.219V134.235H84.3225V142.219H85.3225ZM60.1547 30.3035L60.8782 30.4851L61.1217 29.5152L60.3981 29.3336L60.1547 30.3035ZM62.0084 29.2257L60.8759 29.5157L61.124 30.4845L62.2565 30.1945L62.0084 29.2257ZM39.6827 15.1136C37.9269 16.5551 36.7705 17.7578 36.114 19.102C35.4499 20.4618 35.3252 21.9073 35.5022 23.7724L36.4977 23.6779C36.3294 21.9047 36.4618 20.6685 37.0126 19.5408C37.571 18.3974 38.5873 17.3068 40.3172 15.8865L39.6827 15.1136ZM80.1467 15.854C81.9293 17.6328 82.9523 18.9357 83.4952 20.1426C84.0279 21.3268 84.1158 22.4583 83.9346 23.9394L84.9272 24.0608C85.1226 22.4636 85.0378 21.1342 84.4072 19.7324C83.7869 18.3535 82.6562 16.9455 80.8531 15.1462L80.1467 15.854ZM40.0503 15.9975C56.4765 14.3342 65.3472 14.2451 80.4423 15.9967L80.5576 15.0034C65.3791 13.2421 56.4349 13.3333 39.9496 15.0026L40.0503 15.9975ZM56.1217 28.2602L36.1217 23.2402L35.8782 24.2101L55.8782 29.2301L56.1217 28.2602ZM67.624 28.82L84.555 24.4844L84.3069 23.5157L67.3759 27.8513L67.624 28.82ZM62.2565 30.1945L67.624 28.82L67.3759 27.8513L62.0084 29.2257L62.2565 30.1945ZM60.3981 29.3336L56.1217 28.2602L55.8782 29.2301L60.1547 30.3035L60.3981 29.3336ZM39.7158 15.9115L60.7158 30.4116L61.284 29.5887L40.284 15.0886L39.7158 15.9115ZM80.2016 15.0988L60.7016 29.5989L61.2983 30.4014L80.7983 15.9013L80.2016 15.0988ZM55.4999 28.7451L55.5 54.0002H56.5L56.4999 28.7451L55.4999 28.7451ZM66.9999 28.3356L67 64.5002H68L67.9999 28.3356L66.9999 28.3356ZM29.4136 53.7446C29.7481 53.1479 29.9583 52.3298 30.0827 51.396C30.2085 50.4531 30.2518 49.3512 30.2277 48.1597C30.1794 45.7763 29.8604 42.9964 29.3634 40.3388C28.8668 37.6833 28.1885 35.1275 27.4134 33.1976C27.0267 32.2348 26.6073 31.4056 26.1605 30.7944C25.7288 30.2037 25.1985 29.7158 24.5631 29.635L24.4369 30.627C24.6458 30.6536 24.9609 30.8477 25.3532 31.3845C25.7304 31.9006 26.1135 32.6442 26.4854 33.5703C27.2276 35.4182 27.8909 37.9048 28.3804 40.5226C28.8695 43.1382 29.181 45.8623 29.2279 48.1799C29.2514 49.339 29.2084 50.3869 29.0915 51.2638C28.9734 52.1499 28.7846 52.8216 28.5413 53.2556L29.4136 53.7446ZM24.7433 30.5678L36.2432 24.162L35.7566 23.2884L24.2567 29.6942L24.7433 30.5678ZM95.7531 30.069L84.6841 23.5689L84.1778 24.4312L95.2467 30.9313L95.7531 30.069Z" fill="black"/>
</svg>
