<svg width="120" height="160" viewBox="0 0 120 160" fill="none" xmlns="http://www.w3.org/2000/svg">
<path d="M22.6714 30.2346C22.6714 30.2346 44.6715 19.7346 45.1715 19.7346L44.1715 19.2346L49.1715 12.7347C57.7881 10.4082 62.5656 10.4354 71.1715 12.7347C73.5773 15.513 76.2554 18.3466 76.1714 18.7346C76.0874 19.1227 75.4492 19.7346 75.4492 19.7346L97.6714 30.2346C97.6714 30.2346 113.5 99 113.5 114.5C113.5 130 104.671 134.235 104.671 134.235V142.235H89.1714V134.235L86.6714 128.735C77.7548 132.351 72.724 134.289 63.1715 136.107C63.1715 136.107 63.1715 136.735 61.1715 136.735C59.1715 136.735 57.1715 136.107 57.1715 136.107C57.0468 136.827 43.6406 133.969 34.1715 129.235L31.1715 134.235V141.735H16.1714V134.235C16.1714 134.235 7.49989 134.5 7.99982 114.5C8.49975 94.5 22.6714 30.2346 22.6714 30.2346Z" fill="white"/>
<path d="M45.1715 19.7346C44.6715 19.7346 22.6714 30.2346 22.6714 30.2346M45.1715 19.7346L44.1715 19.2346L49.1715 12.7347M45.1715 19.7346C50.6643 24.0731 51.4107 25.1724 54.6715 28.2346L56.6715 25.2347M22.6714 30.2346C25.9303 45.8232 27.4992 54.5028 29.1715 69.7347C30.5812 92.4854 31.2635 105.176 29.1715 125.735L34.1715 129.235M22.6714 30.2346C22.6714 30.2346 8.49975 94.5 7.99982 114.5C7.49989 134.5 16.1714 134.235 16.1714 134.235M16.1714 134.235V141.735H31.1715V134.235M16.1714 134.235H17.9998M31.1715 134.235L34.1715 129.235M31.1715 134.235H28.3356M34.1715 129.235C43.6406 133.969 57.0468 136.827 57.1715 136.107M58.6715 20.2347L49.1715 12.7347M58.6715 20.2347C61.3843 22.008 62.441 23.4725 63.1715 27.2347M58.6715 20.2347L56.6715 25.2347M49.1715 12.7347C57.7881 10.4082 62.5656 10.4354 71.1715 12.7347M71.1715 12.7347L61.6715 20.2347M71.1715 12.7347C73.5773 15.513 76.2554 18.3466 76.1714 18.7346C76.0874 19.1227 75.4492 19.7346 75.4492 19.7346M61.6715 20.2347L65.6715 27.7346C69.592 24.0488 71.7705 22.0826 75.4492 19.7346M61.6715 20.2347L60.1715 21.2347M75.4492 19.7346L97.6714 30.2346M97.6714 30.2346C94.4838 45.9855 93.2209 54.6784 92.6714 69.7347C91.9264 93.2949 91.4858 106.739 91.1714 125.735C89.3874 127.112 88.3938 127.848 86.6714 128.735M97.6714 30.2346C97.6714 30.2346 113.5 99 113.5 114.5C113.5 130 104.671 134.235 104.671 134.235M86.6714 128.735L89.1714 134.235M86.6714 128.735C77.7548 132.351 72.724 134.289 63.1715 136.107M89.1714 134.235V142.235H104.671V134.235M89.1714 134.235H92.6714M104.671 134.235H102.379M63.1715 27.2347L64.1715 25.7347M63.1715 27.2347V136.107M63.1715 27.2347C61.2565 26.1156 59.8659 26.6958 57.6492 25.7347M63.1715 136.107C63.1715 136.107 63.1715 136.735 61.1715 136.735C59.1715 136.735 57.1715 136.107 57.1715 136.107M56.6715 25.2347C57.0158 25.437 57.3405 25.6008 57.6492 25.7347M57.6492 25.7347L57.1715 136.107M17.9998 134.235L14.4998 127.5M17.9998 134.235H21.4998M21.4998 134.235L20.9998 124M21.4998 134.235H25.4998M25.4998 134.235L26.4998 127.5M25.4998 134.235H28.3356M28.3356 134.235L29.9998 131M92.6714 134.235L91.1714 131M92.6714 134.235H95.4998M95.4998 134.235V127.5M95.4998 134.235H100.086M100.086 134.235L102 124M100.086 134.235H102.379M102.379 134.235L106.5 127.5M60.1715 22.7347C59.6192 22.7347 59.1715 23.1824 59.1715 23.7347C59.1715 24.2869 59.6192 24.7347 60.1715 24.7347C60.7238 24.7347 61.1715 24.2869 61.1715 23.7347C61.1715 23.1824 60.7238 22.7347 60.1715 22.7347ZM60.1715 35.7346C59.6192 35.7346 59.1715 36.1824 59.1715 36.7346C59.1715 37.2869 59.6192 37.7346 60.1715 37.7346C60.7238 37.7346 61.1715 37.2869 61.1715 36.7346C61.1715 36.1824 60.7238 35.7346 60.1715 35.7346ZM60.1715 49.2347C59.6192 49.2347 59.1715 49.6824 59.1715 50.2347C59.1715 50.7869 59.6192 51.2347 60.1715 51.2347C60.7238 51.2347 61.1715 50.7869 61.1715 50.2347C61.1715 49.6824 60.7238 49.2347 60.1715 49.2347ZM60.1715 62.2347C59.6192 62.2347 59.1715 62.6824 59.1715 63.2347C59.1715 63.7869 59.6192 64.2347 60.1715 64.2347C60.7238 64.2347 61.1715 63.7869 61.1715 63.2347C61.1715 62.6824 60.7238 62.2347 60.1715 62.2347ZM60.1715 75.7346C59.6192 75.7346 59.1715 76.1823 59.1715 76.7346C59.1715 77.2869 59.6192 77.7346 60.1715 77.7346C60.7238 77.7346 61.1715 77.2869 61.1715 76.7346C61.1715 76.1823 60.7238 75.7346 60.1715 75.7346ZM60.1715 89.2346C59.6192 89.2346 59.1715 89.6823 59.1715 90.2346C59.1715 90.7869 59.6192 91.2346 60.1715 91.2346C60.7238 91.2346 61.1715 90.7869 61.1715 90.2346C61.1715 89.6823 60.7238 89.2346 60.1715 89.2346ZM60.1715 102.735C59.6192 102.735 59.1715 103.182 59.1715 103.735C59.1715 104.287 59.6192 104.735 60.1715 104.735C60.7238 104.735 61.1715 104.287 61.1715 103.735C61.1715 103.182 60.7238 102.735 60.1715 102.735ZM60.1715 116.235C59.6192 116.235 59.1715 116.682 59.1715 117.235C59.1715 117.787 59.6192 118.235 60.1715 118.235C60.7238 118.235 61.1715 117.787 61.1715 117.235C61.1715 116.682 60.7238 116.235 60.1715 116.235Z" stroke="black"/>
</svg>
