<svg width="120" height="160" viewBox="0 0 120 160" fill="none" xmlns="http://www.w3.org/2000/svg">
<path d="M22.6716 30.2346C22.6716 30.2346 44.6716 19.7346 45.1716 19.7346C57.9624 30.8748 64.6011 31.1207 75.4494 19.7346L97.6716 30.2346C97.6716 30.2346 108.828 105.265 110.5 139.5L92 141C92.0032 142.703 92.0239 141.553 92 143H30L30.1849 141L10.5 139.5C13.3284 107.765 21.6325 30.0868 22.6716 30.2346Z" fill="white"/>
<path d="M30 143C32.0921 122.442 31.4097 64.2507 30 41.5M30 143H92C92.0239 141.553 92.0032 142.703 92 141M30 143L30.1849 141L10.5 139.5C13.3284 107.765 21.6325 30.0868 22.6716 30.2346C22.6716 30.2346 44.6716 19.7346 45.1716 19.7346C57.9624 30.8748 64.6011 31.1207 75.4494 19.7346L97.6716 30.2346C97.6716 30.2346 108.828 105.265 110.5 139.5L92 141M92 41.5C91.3117 63.2655 91.9618 120.347 92 141" stroke="black"/>
</svg>
