<svg width="120" height="160" viewBox="0 0 120 160" fill="none" xmlns="http://www.w3.org/2000/svg">
<path d="M16.1716 141.735V134.235C16.1716 134.235 12.5 130.5 12.9999 110.5C13.4998 90.5 23.5782 30.5 23.5782 30.5C23.8128 30.2733 24.0501 30.1533 24.2882 30.1283C27.2863 28.5609 38.9646 22.4772 43.4999 20.4364C44.4785 19.9961 45.0927 19.7346 45.1716 19.7346C57.46 21.3837 64.0751 21.3326 75.4493 19.7346L76.9346 20.4364L95.4999 30.5C95.4999 30.5 107.5 94 107.5 109.5C107.5 125 104.672 134.235 104.672 134.235V142.235H103.525H101.899H100.086H98.3517H96.4999H94.4999H92.6716H90.9216H89.1716V134.235L88.1522 129.992C87.2579 132.582 86.4999 134.235 86.4999 134.235V142.235L84.8225 142.219L81.5 142.187L79.5 142.168L77.5 142.149L75.874 142.133L74.0606 142.116L72.3266 142.1L70.4748 142.082L68.4748 142.063L66.6465 142.046L64.8965 142.029L62.9999 142.011L61.3739 141.995L59.5605 141.978L57.8265 141.962L55.9747 141.944L53.9747 141.925L52.1464 141.907L50.3964 141.891L48.4999 141.873L46.8739 141.857L45.0605 141.84L43.3265 141.823L41.4747 141.806L39.4747 141.787L37.6464 141.769L35.8964 141.753L33.9999 141.735V134.235C33.9999 134.235 33.9248 133.442 32.9999 129.992L31.1716 134.235V141.735H30.6034H28.9775H27.1641H25.43H23.5782H21.5782H19.7499H17.9999H16.1716Z" fill="#C5C8CC"/>
<path d="M45.1716 19.7346C45.1716 19.7346 47.4998 26.5 60.9998 26.5C74.4998 26.5 75.4493 19.7346 75.4493 19.7346M45.1716 19.7346C57.46 21.3837 64.0751 21.3326 75.4493 19.7346M45.1716 19.7346C45.0927 19.7346 44.4785 19.9961 43.4999 20.4364M45.1716 19.7346C45.1716 19.7346 46.2123 21.1718 46.9998 21.5C52.9998 24 67.4998 23.5 73.9998 22C74.7523 21.8264 75.4493 19.7346 75.4493 19.7346M23.5782 30.5C23.5782 30.5 13.4998 90.5 12.9999 110.5C12.5 130.5 16.1716 134.235 16.1716 134.235M23.5782 30.5C27.2053 26.9945 31.5 49 28.9775 53.5C28.9775 53.5 28.9775 116.225 30.9999 123C33.0223 129.775 32.5567 128.34 32.9999 129.992M23.5782 30.5C23.5782 30.5 38.2765 22.7868 43.4999 20.4364M16.1716 134.235V141.735H31.1716V134.235M16.1716 134.235H17.9999M31.1716 134.235H28.3357H25.4999H21.4999H17.9999M31.1716 134.235L32.9999 129.992M75.4493 19.7346L76.9346 20.4364M95.4999 30.5C95.4999 30.5 107.5 94 107.5 109.5C107.5 125 104.672 134.235 104.672 134.235M95.4999 30.5C93.0146 29.2821 87.926 44.9083 91 53.5C91 60 91.3282 117.5 89.9999 123.5C89.4563 125.955 88.7715 128.199 88.1522 129.992M95.4999 30.5L76.9346 20.4364M89.1716 134.235V142.235H90.9216M89.1716 134.235L88.1522 129.992M89.1716 134.235H90.9216M104.672 134.235V142.235H98.3517M104.672 134.235H102.379H100.086M17.9999 134.235V142.235M92.6716 134.235H90.9216M92.6716 134.235V142.235M92.6716 134.235H94.4999M100.086 134.235H98.3517M100.086 134.235V142.235M33.9999 134.235V141.735L79.5 142.168M33.9999 134.235C33.9999 134.235 33.9248 133.442 32.9999 129.992M33.9999 134.235H79.5M86.4999 134.235V142.235L84.8225 142.219M86.4999 134.235C86.4999 134.235 87.2579 132.582 88.1522 129.992M86.4999 134.235H84.8225M43.4999 20.4364C45.1716 26.1618 53.4654 28.7576 60.9998 28.5C68.5343 28.2424 75.9999 26.5 76.9346 20.4364M90.9216 134.235V142.235M90.9216 142.235H92.6716M92.6716 142.235H94.4999M94.4999 134.235H95.4999H95.9999H96.4999M94.4999 134.235V142.235M94.4999 142.235H96.4999M96.4999 134.235V142.235M96.4999 134.235H98.3517M96.4999 142.235H98.3517M98.3517 134.235V142.235M101.899 134.235V142.235M103.525 134.235V142.235M19.7499 134.235V142.235M27.1641 134.235V142.235M21.5782 134.235V142.235M23.5782 134.235V142.235M25.43 134.235V142.235M28.9775 134.235V142.235M30.6034 134.235V142.235M35.8964 134.235V142.235M37.6464 134.235V142.235M45.0605 134.235V142.235M39.4747 134.235V142.235M41.4747 134.235V142.235M43.3265 134.235V142.235M46.8739 134.235V142.235M48.4999 134.235V142.235M50.3964 134.235V142.235M52.1464 134.235V142.235M59.5605 134.235V142.235M53.9747 134.235V142.235M55.9747 134.235V142.235M57.8265 134.235V142.235M61.3739 134.235V142.235M62.9999 134.235V142.235M64.8965 134.235V142.235M66.6465 134.235V142.235M74.0606 134.235V142.235M68.4748 134.235V142.235M70.4748 134.235V142.235M72.3266 134.235V142.235M75.874 134.235V142.235M77.5 134.235V142.235M79.5 134.235V142.168M79.5 134.235H81.5M79.5 142.168L81.5 142.187M81.5 134.235V142.187M81.5 134.235H83M81.5 142.187L84.8225 142.219M83 134.235V142.168M83 134.235H84.8225M84.8225 142.219V134.235" stroke="black"/>
</svg>
