<svg width="120" height="160" viewBox="0 0 120 160" fill="none" xmlns="http://www.w3.org/2000/svg">
<path d="M12 78.4999V70.9998C6.93118 65.5363 11.5074 45.4999 18 35.9999C23.266 30.2808 26.6363 27.2948 35.9999 23.7249C35.6546 20.0866 36.5143 18.3616 39.9999 15.4998C56.4556 13.8335 65.3631 13.7434 80.4999 15.4998C84.0855 19.078 84.8074 20.9216 84.4309 23.9998C91.7049 27.7308 95.5578 30.2035 101.328 36.4999C105.719 39.4999 111.443 48.9222 109.5 70.9998V78.9999H104.914H103.18H101.328H99.3284H97.5001H95.7501H94.0001V70.9998C91.1633 70.2988 91.1312 65.9419 90.945 58.5C91.0083 76.0695 91.1105 118.484 89.9999 123.5C89.4564 125.955 88.7716 128.198 88.1522 129.992L86.4999 142.235L84.8225 142.219L81.5001 142.187L79.5001 142.168L75.8741 142.133L72.3266 142.1L68.4749 142.063L64.8965 142.029L61.374 141.995L57.8265 141.962L53.9748 141.925L50.3964 141.891L46.874 141.857L43.3266 141.823L39.4748 141.787L35.8964 141.753L33.9999 141.735L32.9999 129.992C32.5568 128.34 33.0223 129.775 30.9999 123C29.3889 117.603 30.4536 75.4309 30.9533 58.5C30.5598 64.8644 30.2108 68.2673 27 70.9998V78.4999H22.9925H19.4067H15.5783H12Z" fill="#EDE5D1"/>
<path d="M97.5001 70.9998V78.9999M104.914 70.9998V78.9999M90.9216 51.5C90.9216 52.5655 90.9326 55.0552 90.945 58.5M31.1717 51.5C31.1717 51.5 31.0809 54.1773 30.9533 58.5M97.5001 78.9999H95.7501H94.0001V70.9998C91.1633 70.2988 91.1312 65.9419 90.945 58.5M97.5001 78.9999H99.3284H101.328M101.328 72.7652V78.9999M101.328 78.9999H103.18H109.5V70.9998C111.443 48.9222 105.719 39.4999 101.328 36.4999C95.5578 30.2035 91.7049 27.7308 84.4309 23.9998M107.571 70.9839V78.9839M15.5783 72.7652V78.9999M22.9925 72.7652V78.9999M19.4067 70.9998V78.9999M35.8964 136C35.8964 139.124 35.8964 142.235 35.8964 142.235M39.4748 136V142.235M43.3266 134.235V142.235M46.874 134.235V142.235M50.3964 136V142.235M53.9748 134.235V142.235M57.8265 134.235V142.235M61.374 136V142.235M64.8965 134.235V142.235M68.4749 134.235V142.235M72.3266 136V142.235M75.8741 134.235V142.235M79.5001 134.235V142.168M79.5001 142.168L33.9999 141.735L32.9999 129.992C32.5568 128.34 33.0223 129.775 30.9999 123C29.3889 117.603 30.4536 75.4309 30.9533 58.5M79.5001 142.168L81.5001 142.187L84.8225 142.219L86.4999 142.235L88.1522 129.992C88.7716 128.198 89.4564 125.955 89.9999 123.5C91.1105 118.484 91.0083 76.0695 90.945 58.5M83.0001 136V142.168M30.9533 58.5C30.5598 64.8644 30.2108 68.2673 27 70.9998V78.4999H12V70.9998C6.93118 65.5363 11.5074 45.4999 18 35.9999C23.266 30.2808 26.6363 27.2948 35.9999 23.7249M60.9999 29.9999L60.2764 29.8183L55.9999 28.7449M60.9999 29.9999L62.1324 29.7099L67.4999 28.3354M60.9999 29.9999L39.9999 15.4998M60.9999 29.9999L80.4999 15.4998M39.9999 15.4998C36.5143 18.3616 35.6546 20.0866 35.9999 23.7249M39.9999 15.4998C56.4556 13.8335 65.3631 13.7434 80.4999 15.4998M35.9999 23.7249L55.9999 28.7449M80.4999 15.4998C84.0855 19.078 84.8074 20.9216 84.4309 23.9998M84.4309 23.9998L67.4999 28.3354M55.9999 28.7449L56 53.9999M67.4999 28.3354L67.5 64.4999" stroke="black"/>
</svg>
