<svg width="120" height="160" viewBox="0 0 120 160" fill="none" xmlns="http://www.w3.org/2000/svg">
<path d="M34 141.735V134.235C34 134.235 33.925 133.442 33 129.992C32.5568 128.34 33.0224 129.775 31 123C29.6276 118.403 29.1865 88.0423 29.0448 69.0001L27 72.5001L9 66.5001L23.5784 30.5001C23.8231 30.2636 24.0709 30.1432 24.3195 30.1257L36.0001 24.2252C35.6548 20.5868 36.5145 18.8618 40.0001 16.0001C56.4559 14.3337 65.3633 14.2436 80.5001 16.0001C84.0857 19.5782 84.8077 21.4218 84.4311 24.5001L95.5 30.5001L112 66.5001L92.5 72.5001L91.034 69.0001C91.053 88.4743 90.9515 119.202 90 123.5C89.4564 125.955 88.7717 128.199 88.1523 129.992C87.258 132.582 86.5 134.235 86.5 134.235V142.235L84.8226 142.219L81.5001 142.187L79.5001 142.168L34 141.735Z" fill="#C5C8CC"/>
<path d="M23.5784 30.5001C27.2054 26.9946 31.5001 49.0001 28.9776 53.5001C28.9776 53.5001 28.9776 59.9804 29.0448 69.0001M23.5784 30.5001L36.0001 24.2252M23.5784 30.5001L9 66.5001L27 72.5001L29.0448 69.0001M95.5 30.5001C93.0147 29.2822 87.9261 44.9085 91.0001 53.5001C91.0001 55.3437 91.0265 61.2899 91.034 69.0001M95.5 30.5001L84.4311 24.5001M95.5 30.5001L112 66.5001L92.5 72.5001L91.034 69.0001M34 134.235V141.735L79.5001 142.168L81.5001 142.187L84.8226 142.219L86.5 142.235V134.235M34 134.235C34 134.235 33.925 133.442 33 129.992C32.5568 128.34 33.0224 129.775 31 123C29.6276 118.403 29.1865 88.0423 29.0448 69.0001M34 134.235H79.5001H81.5001H83.0001H84.8226H86.5M86.5 134.235C86.5 134.235 87.258 132.582 88.1523 129.992C88.7717 128.199 89.4564 125.955 90 123.5C90.9515 119.202 91.053 88.4743 91.034 69.0001M40.0001 16.0001C44.6309 19.42 58.2907 30.3625 61.0001 30.5001M40.0001 16.0001C36.5145 18.8618 35.6548 20.5868 36.0001 24.2252M40.0001 16.0001C56.4559 14.3337 65.3634 14.2436 80.5001 16.0001M61.0001 30.5001C63.7096 30.6377 75.8375 19.9091 80.5001 16.0001M61.0001 30.5001L56.0001 29.2451M61.0001 30.5001L67.5001 28.8356M80.5001 16.0001C84.0857 19.5782 84.8077 21.4218 84.4311 24.5001M84.4311 24.5001L67.5001 28.8356M36.0001 24.2252L56.0001 29.2451M56.0001 29.2451V51.0001M67.5001 28.8356V44.6679V60.5001M44.0001 95.5001H77.5001C78.632 105.772 77.0786 106.048 81.5001 116.5V125H39.0001V116.5C43.9783 106.61 43.015 106.206 44.0001 95.5001Z" stroke="black"/>
</svg>
