<svg width="120" height="160" viewBox="0 0 120 160" fill="none" xmlns="http://www.w3.org/2000/svg">
<rect width="120" height="160" fill="white"/>
<path d="M33 141.735V134.235C33 134.235 32.925 133.442 32 129.992C31.5569 128.34 32.0224 129.775 30 123C27.9776 116.225 27.9776 53.5001 27.9776 53.5001C27.9776 53.5001 25 69.5001 22 71.5001C19 73.5001 16.5 72.5001 16.5 72.5001L12.5 76.5001L11.5 75.8685L9.86786 74.8377L8.19972 73.7842L6.32433 72.5997L4.5 71.4475L3 70.5001L6 65.0001C6 65.0001 4.5 61.0001 5.5 56.5001C6.5 52.0001 22.5784 30.5001 22.5784 30.5001L35.9999 23.7252C35.6546 20.0868 36.5143 18.3618 39.9999 15.5001C56.4557 13.8337 65.3632 13.7436 80.4999 15.5001C84.0855 19.0782 84.8075 20.9218 84.4309 24.0001L97.5 31.0001C111.795 47.4335 114.696 54.1745 115.5 58.0001C116.304 61.8257 114 66.2169 114 66.2169L117 71.7169L115.5 72.6642L113.676 73.8164L111.8 75.0009L110.132 76.0545L108.5 77.0853L107.5 77.7169L103.5 73.7169C103.5 73.7169 100 74.1081 97 71.7169C94 69.3257 94.4967 64.0378 90.0001 53.5001C90.0001 60.0001 90.3283 117.5 89 123.5C88.4564 125.955 87.7717 128.199 87.1523 129.992C86.258 132.582 85.5 134.235 85.5 134.235V142.235L83.8226 142.219L80.5001 142.187L78.5001 142.168L76.5001 142.149L74.8742 142.134L73.0607 142.116L71.3267 142.1L69.4749 142.082L67.4749 142.063L65.6465 142.046L63.8965 142.029L62 142.011L60.374 141.995L58.5606 141.978L56.8266 141.962L54.9748 141.944L52.9748 141.925L51.1465 141.908L49.3965 141.891L47.5 141.873L45.874 141.857L44.0606 141.84L42.3266 141.824L40.4748 141.806L38.4749 141.787L36.6465 141.77L34.8965 141.753L33 141.735Z" fill="#C5C8CC"/>
<path d="M22.5784 30.5001C27.5 32.5001 28.6842 47.0001 27.9776 53.5001M22.5784 30.5001C22.5784 30.5001 6.5 52.0001 5.5 56.5001C4.5 61.0001 6 65.0001 6 65.0001M22.5784 30.5001L35.9999 23.7252M97.5 31.0001C95.0147 29.7822 86.9261 44.9085 90.0001 53.5001M97.5 31.0001C111.795 47.4335 114.696 54.1745 115.5 58.0001C116.304 61.8257 114 66.2169 114 66.2169M97.5 31.0001L84.4309 24.0001M33 134.235V141.735L78.5001 142.168M33 134.235C33 134.235 32.925 133.442 32 129.992C31.5569 128.34 32.0224 129.775 30 123C27.9776 116.225 27.9776 53.5001 27.9776 53.5001M33 134.235H78.5001M85.5 134.235V142.235L83.8226 142.219M85.5 134.235C85.5 134.235 86.258 132.582 87.1523 129.992C87.7717 128.199 88.4564 125.955 89 123.5C90.3283 117.5 90.0001 60.0001 90.0001 53.5001M85.5 134.235H83.8226M90.0001 53.5001C94.4967 64.0378 94 69.3257 97 71.7169C100 74.1081 103.5 73.7169 103.5 73.7169M27.9776 53.5001C27.9776 53.5001 25 69.5001 22 71.5001C19 73.5001 16.5 72.5001 16.5 72.5001M34.8965 134.235V142.235M36.6465 134.235V142.235M44.0606 134.235V142.235M38.4749 134.235V142.235M40.4748 134.235V142.235M42.3266 134.235V142.235M45.874 134.235V142.235M47.5 134.235V142.235M49.3965 134.235V142.235M51.1465 134.235V142.235M58.5606 134.235V142.235M52.9748 134.235V142.235M54.9748 134.235V142.235M56.8266 134.235V142.235M60.374 134.235V142.235M62 134.235V142.235M63.8965 134.235V142.235M65.6465 134.235V142.235M73.0607 134.235V142.235M67.4749 134.235V142.235M69.4749 134.235V142.235M71.3267 134.235V142.235M74.8742 134.235V142.235M76.5001 134.235V142.235M78.5001 134.235V142.168M78.5001 134.235H80.5001M78.5001 142.168L80.5001 142.187M80.5001 134.235V142.187M80.5001 134.235H82.0001M80.5001 142.187L83.8226 142.219M82.0001 134.235V142.168M82.0001 134.235H83.8226M83.8226 142.219V134.235M6 65.0001L3 70.5001L4.5 71.4475M6 65.0001L7.70344 66.2169M16.5 72.5001L12.5 76.5001L11.5 75.8685M16.5 72.5001L15.3442 71.6746M7.70344 66.2169L4.5 71.4475M7.70344 66.2169L9.86786 67.7629M4.5 71.4475L6.32433 72.5997M6.32433 72.5997L9.86786 67.7629M6.32433 72.5997L8.19972 73.7842M9.86786 67.7629L11.7766 69.1263M11.7766 69.1263L8.19972 73.7842M11.7766 69.1263L13.7 70.5001M8.19972 73.7842L9.86786 74.8377M9.86786 74.8377L13.7 70.5001M9.86786 74.8377L11.5 75.8685M13.7 70.5001L15.3442 71.6746M15.3442 71.6746L11.5 75.8685M114 66.2169L117 71.7169L115.5 72.6642M114 66.2169L112.297 67.4336M103.5 73.7169L107.5 77.7169L108.5 77.0853M103.5 73.7169L104.656 72.8913M112.297 67.4336L115.5 72.6642M112.297 67.4336L110.132 68.9796M115.5 72.6642L113.676 73.8164M113.676 73.8164L110.132 68.9796M113.676 73.8164L111.8 75.0009M110.132 68.9796L108.223 70.343M108.223 70.343L111.8 75.0009M108.223 70.343L106.3 71.7169M111.8 75.0009L110.132 76.0545M110.132 76.0545L106.3 71.7169M110.132 76.0545L108.5 77.0853M106.3 71.7169L104.656 72.8913M104.656 72.8913L108.5 77.0853M60.9999 30.0001L60.2764 29.8185L55.9999 28.7451M60.9999 30.0001L62.1324 29.7101L67.4999 28.3356M60.9999 30.0001L39.9999 15.5001M60.9999 30.0001L80.4999 15.5001M39.9999 15.5001C36.5143 18.3618 35.6546 20.0868 35.9999 23.7252M39.9999 15.5001C56.4557 13.8337 65.3632 13.7436 80.4999 15.5001M35.9999 23.7252L55.9999 28.7451M80.4999 15.5001C84.0855 19.0782 84.8075 20.9218 84.4309 24.0001M84.4309 24.0001L67.4999 28.3356M55.9999 28.7451L56 54.0002M67.4999 28.3356L67.5 64.5002" stroke="black"/>
</svg>
