<svg width="120" height="160" viewBox="0 0 120 160" fill="none" xmlns="http://www.w3.org/2000/svg">
<path d="M22.6719 30.2346C22.6719 30.2346 44.6719 19.7346 45.1719 19.7346L44.1719 19.2346L49.1719 12.7347C57.7886 10.4082 62.566 10.4354 71.1719 12.7347C73.5778 15.513 76.2559 18.3466 76.1719 18.7346C76.0879 19.1227 75.4497 19.7346 75.4497 19.7346L97.6719 30.2346L115 69.7347L96 77.7346L92.6244 71.2347L92.5631 73.1715C91.8834 94.6437 91.4706 107.682 91.1719 125.735C89.3878 127.112 88.3942 127.848 86.6719 128.735C77.7553 132.351 72.7244 134.289 63.1719 136.107C63.1719 136.107 63.1719 136.735 61.1719 136.735C59.1719 136.735 57.1719 136.107 57.1719 136.107C57.0472 136.827 43.6411 133.969 34.1719 129.235L29.1719 125.735C31.2175 105.633 30.6105 93.0525 29.2646 71.2347L27 77.7346L8 69.7347L22.6719 30.2346Z" fill="white"/>
<path d="M45.1719 19.7346C44.6719 19.7346 22.6719 30.2346 22.6719 30.2346M45.1719 19.7346L44.1719 19.2346L49.1719 12.7347M45.1719 19.7346C50.6647 24.0731 51.4111 25.1724 54.6719 28.2346L56.6719 25.2347M22.6719 30.2346C25.9307 45.8232 27.4997 54.5028 29.1719 69.7347C29.2032 70.2395 29.2341 70.7395 29.2646 71.2347M22.6719 30.2346L8 69.7347L27 77.7346L29.2646 71.2347M58.6719 20.2347L49.1719 12.7347M58.6719 20.2347C61.3847 22.008 62.4415 23.4725 63.1719 27.2347M58.6719 20.2347L56.6719 25.2347M49.1719 12.7347C57.7886 10.4082 62.566 10.4354 71.1719 12.7347M71.1719 12.7347L61.6719 20.2347M71.1719 12.7347C73.5778 15.513 76.2559 18.3466 76.1719 18.7346C76.0879 19.1227 75.4497 19.7346 75.4497 19.7346M61.6719 20.2347L65.6719 27.7346C69.5925 24.0488 71.771 22.0826 75.4497 19.7346M61.6719 20.2347L60.1719 21.2347M75.4497 19.7346L97.6719 30.2346M97.6719 30.2346C94.4842 45.9855 93.2213 54.6784 92.6719 69.7347C92.6559 70.2392 92.6401 70.7392 92.6244 71.2347M97.6719 30.2346L115 69.7347L96 77.7346L92.6244 71.2347M63.1719 27.2347L64.1719 25.7347M63.1719 27.2347V136.107M63.1719 27.2347C61.257 26.1156 59.8663 26.6958 57.6497 25.7347M63.1719 136.107C72.7244 134.289 77.7553 132.351 86.6719 128.735C88.3942 127.848 89.3878 127.112 91.1719 125.735C91.4795 107.146 91.908 93.8733 92.6244 71.2347M63.1719 136.107C63.1719 136.107 63.1719 136.735 61.1719 136.735C59.1719 136.735 57.1719 136.107 57.1719 136.107M56.6719 25.2347C57.0163 25.437 57.341 25.6008 57.6497 25.7347M57.6497 25.7347L57.1719 136.107M57.1719 136.107C57.0472 136.827 43.6411 133.969 34.1719 129.235L29.1719 125.735C31.2175 105.633 30.6105 93.0525 29.2646 71.2347M70.1719 55.7347V50.2347H87.6719V55.7347M70.1719 55.7347C70.1719 61.202 70.1719 69.7347 70.1719 69.7347C70.1719 69.7347 71.2674 71.3539 72.1719 71.2347H85.6719C86.8402 70.9886 87.2954 70.6754 87.6719 69.7347V55.7347M70.1719 55.7347H87.6719M60.1719 22.7347C59.6196 22.7347 59.1719 23.1824 59.1719 23.7347C59.1719 24.2869 59.6196 24.7347 60.1719 24.7347C60.7242 24.7347 61.1719 24.2869 61.1719 23.7347C61.1719 23.1824 60.7242 22.7347 60.1719 22.7347ZM60.1719 35.7346C59.6196 35.7346 59.1719 36.1824 59.1719 36.7346C59.1719 37.2869 59.6196 37.7346 60.1719 37.7346C60.7242 37.7346 61.1719 37.2869 61.1719 36.7346C61.1719 36.1824 60.7242 35.7346 60.1719 35.7346ZM60.1719 49.2347C59.6196 49.2347 59.1719 49.6824 59.1719 50.2347C59.1719 50.7869 59.6196 51.2347 60.1719 51.2347C60.7242 51.2347 61.1719 50.7869 61.1719 50.2347C61.1719 49.6824 60.7242 49.2347 60.1719 49.2347ZM60.1719 62.2347C59.6196 62.2347 59.1719 62.6824 59.1719 63.2347C59.1719 63.7869 59.6196 64.2347 60.1719 64.2347C60.7242 64.2347 61.1719 63.7869 61.1719 63.2347C61.1719 62.6824 60.7242 62.2347 60.1719 62.2347ZM60.1719 75.7346C59.6196 75.7346 59.1719 76.1823 59.1719 76.7346C59.1719 77.2869 59.6196 77.7346 60.1719 77.7346C60.7242 77.7346 61.1719 77.2869 61.1719 76.7346C61.1719 76.1823 60.7242 75.7346 60.1719 75.7346ZM60.1719 89.2346C59.6196 89.2346 59.1719 89.6823 59.1719 90.2346C59.1719 90.7869 59.6196 91.2346 60.1719 91.2346C60.7242 91.2346 61.1719 90.7869 61.1719 90.2346C61.1719 89.6823 60.7242 89.2346 60.1719 89.2346ZM60.1719 102.735C59.6196 102.735 59.1719 103.182 59.1719 103.735C59.1719 104.287 59.6196 104.735 60.1719 104.735C60.7242 104.735 61.1719 104.287 61.1719 103.735C61.1719 103.182 60.7242 102.735 60.1719 102.735ZM60.1719 116.235C59.6196 116.235 59.1719 116.682 59.1719 117.235C59.1719 117.787 59.6196 118.235 60.1719 118.235C60.7242 118.235 61.1719 117.787 61.1719 117.235C61.1719 116.682 60.7242 116.235 60.1719 116.235Z" stroke="black"/>
</svg>
