<svg width="120" height="160" viewBox="0 0 120 160" fill="none" xmlns="http://www.w3.org/2000/svg">
<rect width="120" height="160" fill="white"/>
<path d="M31.1169 141.735V134.235C31.1169 134.235 31.0419 133.442 30.1169 129.992C29.6738 128.34 30.1393 129.775 28.1169 123C26.8129 118.631 27.2619 90.1683 27.7455 70.4999C26.5689 73.64 25.6757 74.6829 23.6169 74.9999L22.117 80.4999L19.5387 79.8776L16.9604 79.2552L14.4327 78.6451L12.117 78.0861L9.68838 77.4999L7.61699 76.9999L9.11699 71.4999C3.31289 66.8805 10.3668 41.9143 19.1169 33.4999C24.0387 25.4998 35.3935 22.7868 40.6169 20.4364C40.6169 20.4364 43.6171 16.9999 44.6171 18.9999C44.687 19.1708 44.7714 19.3374 44.8694 19.4999C45.2565 20.1418 45.8559 20.7183 46.6171 21.2247C47.3243 21.6954 48.1712 22.1056 49.1171 22.4519C49.8915 22.7354 50.7323 22.976 51.6171 23.1718C52.6401 23.3982 53.722 23.5645 54.8283 23.6679C57.8059 23.9462 60.9599 23.7679 63.6171 23.0739C64.4195 22.8643 65.1766 22.6077 65.8699 22.3025C66.6966 21.9384 67.4326 21.5052 68.0464 20.9999C68.5856 20.5561 69.0305 20.0567 69.3598 19.4999C69.4555 19.3381 69.5414 19.1715 69.6171 18.9999C69.6171 16.9999 74.0517 20.4364 74.0517 20.4364C74.0517 20.4364 90.1688 25.4024 95.1169 31.9999C105.933 43.6708 112.5 60.4999 106.5 71.9999L108 77.4999L105.929 77.9999L103.5 78.5862L101.184 79.1451L98.6565 79.7553L96.0782 80.3776L93.4999 81L92 75.4999C88.9068 74.9822 88.6726 73.3187 88.0933 70.4999C88.1213 90.571 88.0206 119.418 87.1169 123.5C86.5734 125.955 85.8886 128.198 85.2692 129.992C84.3749 132.582 83.6169 134.235 83.6169 134.235V142.235L81.9395 142.219L78.6171 142.187L76.6171 142.168L72.9911 142.133L69.4436 142.1L65.5919 142.063L62.0135 142.029L58.491 141.995L54.9435 141.962L51.0918 141.925L47.5134 141.891L43.991 141.857L40.4435 141.823L36.5918 141.787L33.0134 141.753L31.1169 141.735Z" fill="#EDE5D1"/>
<path d="M9.11699 71.4999C3.31289 66.8805 10.3668 41.9143 19.1169 33.4999C24.0387 25.4998 35.3935 22.7868 40.6169 20.4364M9.11699 71.4999L7.61699 76.9999L9.68838 77.4999M9.11699 71.4999L11.3202 72.0317M23.6169 74.9999L22.117 80.4999L19.5387 79.8776M23.6169 74.9999L21.2924 74.4388M23.6169 74.9999C25.6757 74.6829 26.5689 73.64 27.7455 70.4999M31.1169 134.235V141.735L76.6171 142.168M31.1169 134.235C31.1169 134.235 31.0419 133.442 30.1169 129.992C29.6738 128.34 30.1393 129.775 28.1169 123C26.8129 118.631 27.2619 90.1683 27.7455 70.4999M31.1169 134.235H76.6171M83.6169 134.235V142.235L81.9395 142.219L78.6171 142.187L76.6171 142.168M83.6169 134.235C83.6169 134.235 84.3749 132.582 85.2692 129.992C85.8886 128.198 86.5734 125.955 87.1169 123.5C88.0206 119.418 88.1213 90.571 88.0933 70.4999M83.6169 134.235H81.9395H80.1171M88.0386 51.5L88.0637 58.9999C88.0751 62.189 88.0872 66.1371 88.0933 70.4999M28.2886 51.5C28.2886 51.5 28.1979 54.1773 28.0703 58.5C27.9751 61.7264 27.8593 65.8694 27.7455 70.4999M40.6169 20.4364C40.6169 20.4364 43.6171 16.9999 44.6171 18.9999C44.687 19.1708 44.7714 19.3374 44.8694 19.4999M40.6169 20.4364C41.0815 20.9486 41.5387 21.4336 41.9911 21.8923M58.1169 28.4999C56.4872 28.5556 55.0011 28.4937 53.6171 28.301M58.1169 28.4999V23.8795M58.1169 28.4999C59.5564 28.4507 60.8839 28.3291 62.1171 28.1256M74.0517 20.4364C74.0517 20.4364 69.6171 16.9999 69.6171 18.9999C69.5414 19.1715 69.4555 19.3381 69.3598 19.4999M74.0517 20.4364C74.0517 20.4364 90.1688 25.4024 95.1169 31.9999C105.933 43.6708 112.5 60.4999 106.5 71.9999M74.0517 20.4364C73.6887 20.9496 73.3213 21.4345 72.9473 21.8923M33.0134 134.235V142.235M36.5918 134.235V142.235M40.4435 134.235V142.235M43.991 134.235V142.235M47.5134 134.235V142.235M51.0918 134.235V142.235M54.9435 134.235V142.235M58.491 134.235V142.235M62.0135 134.235V142.235M65.5919 134.235V142.235M69.4436 134.235V142.235M72.9911 134.235V142.235M76.6171 134.235V142.168M76.6171 134.235H78.6171H80.1171M80.1171 134.235V142.168M44.8694 19.4999L41.9911 21.8923M44.8694 19.4999C45.2565 20.1418 45.8559 20.7183 46.6171 21.2247M41.9911 21.8923C42.7088 22.6201 43.4142 23.2815 44.1171 23.8795M46.6171 21.2247L44.1171 23.8795M46.6171 21.2247C47.3243 21.6954 48.1712 22.1056 49.1171 22.4519M44.1171 23.8795C45.8221 25.3303 47.5125 26.4085 49.3295 27.1586M49.1171 22.4519L46.6171 25.4999M49.1171 22.4519C49.8915 22.7354 50.7323 22.976 51.6171 23.1718M51.6171 23.1718L49.3295 27.1586M51.6171 23.1718C52.6401 23.3982 53.722 23.5645 54.8283 23.6679M49.3295 27.1586C50.6708 27.7123 52.0811 28.0872 53.6171 28.301M54.8283 23.6679L53.6171 28.301M54.8283 23.6679C57.8059 23.9462 60.9599 23.7679 63.6171 23.0739M61.1171 23.6679L62.1171 28.1256M62.1171 28.1256C65.9041 27.5009 68.8016 26.1049 71.3222 23.6679M63.6171 23.0739L65.6171 27.1586M63.6171 23.0739C64.4195 22.8643 65.1766 22.6077 65.8699 22.3025M65.8699 22.3025L68.6171 25.4999M65.8699 22.3025C66.6966 21.9384 67.4326 21.5052 68.0464 20.9999M68.0464 20.9999L71.3222 23.6679M68.0464 20.9999C68.5856 20.5561 69.0305 20.0567 69.3598 19.4999M71.3222 23.6679C71.8805 23.1281 72.4204 22.5372 72.9473 21.8923M69.3598 19.4999L72.9473 21.8923M35.1171 41.9999L39.617 46.9999M39.617 46.9999L43.991 41.9999M39.617 46.9999L36.1171 50.9999M35.1171 49.9999L39.617 54.9999M39.617 54.9999L43.991 49.9999M39.617 54.9999L36.1171 58.9999M35.1171 58.5L39.617 63.5M39.617 63.5L43.991 58.5M39.617 63.5L36.1171 67.5M35.1171 66.9999L39.617 71.9999M39.617 71.9999L43.991 66.9999M39.617 71.9999L36.1171 75.9999M35.1171 75.4999L39.617 80.4999M39.617 80.4999L43.991 75.4999M39.617 80.4999L36.1171 84.4999M35.1171 83.4999L39.617 88.4999M39.617 88.4999L43.991 83.4999M39.617 88.4999L36.1171 92.4999M35.1171 91.4999L39.617 96.4999M39.617 96.4999L43.991 91.4999M39.617 96.4999L36.1171 100.5M35.1171 99.4999L39.617 104.5M39.617 104.5L43.991 99.4999M39.617 104.5L36.1171 108.5M35.1171 107L39.617 112M39.617 112L43.991 107M39.617 112L36.1171 116M71.2431 41.9999L75.7431 46.9999M75.7431 46.9999L80.1171 41.9999M75.7431 46.9999L72.2431 50.9999M71.2431 49.9999L75.7431 54.9999M75.7431 54.9999L80.1171 49.9999M75.7431 54.9999L72.2431 58.9999M71.2431 58.5L75.7431 63.5M75.7431 63.5L80.1171 58.5M75.7431 63.5L72.2431 67.5M71.2431 66.9999L75.7431 71.9999M75.7431 71.9999L80.1171 66.9999M75.7431 71.9999L72.2431 75.9999M71.2431 75.4999L75.7431 80.4999M75.7431 80.4999L80.1171 75.4999M75.7431 80.4999L72.2431 84.4999M71.2431 83.4999L75.7431 88.4999M75.7431 88.4999L80.1171 83.4999M75.7431 88.4999L72.2431 92.4999M71.2431 91.4999L75.7431 96.4999M75.7431 96.4999L80.1171 91.4999M75.7431 96.4999L72.2431 100.5M71.2431 99.4999L75.7431 104.5M75.7431 104.5L80.1171 99.4999M75.7431 104.5L72.2431 108.5M71.2431 107L75.7431 112M75.7431 112L80.1171 107M75.7431 112L72.2431 116M9.68838 77.4999L11.3202 72.0317M9.68838 77.4999L12.117 78.0861M11.3202 72.0317L13.7826 72.6261M12.117 78.0861L13.7826 72.6261M12.117 78.0861L14.4327 78.6451M13.7826 72.6261L16.117 73.1895M14.4327 78.6451L16.117 73.1895M14.4327 78.6451L16.9604 79.2552M16.117 73.1895L18.617 73.793M16.9604 79.2552L18.617 73.793M16.9604 79.2552L19.5387 79.8776M18.617 73.793L21.2924 74.4388M19.5387 79.8776L21.2924 74.4388M106.5 71.9999L108 77.4999L105.929 77.9999M106.5 71.9999L104.297 72.5318M92 75.4999L93.4999 81L96.0782 80.3776M92 75.4999L94.3246 74.9388M92 75.4999C88.9068 74.9822 88.6726 73.3187 88.0933 70.4999M105.929 77.9999L104.297 72.5318M105.929 77.9999L103.5 78.5862M104.297 72.5318L101.834 73.1261M103.5 78.5862L101.834 73.1261M103.5 78.5862L101.184 79.1451M101.834 73.1261L99.4999 73.6896M101.184 79.1451L99.4999 73.6896M101.184 79.1451L98.6565 79.7553M99.4999 73.6896L96.9999 74.2931M98.6565 79.7553L96.9999 74.2931M98.6565 79.7553L96.0782 80.3776M96.9999 74.2931L94.3246 74.9388M96.0782 80.3776L94.3246 74.9388" stroke="black"/>
</svg>
