<svg width="120" height="160" viewBox="0 0 120 160" fill="none" xmlns="http://www.w3.org/2000/svg">
<path d="M22.6716 30.2346C22.6716 30.2346 44.6716 19.7346 45.1716 19.7346L44.1716 19.2346L49.1716 12.7347C57.7883 10.4082 62.5657 10.4354 71.1716 12.7347C73.5775 15.513 76.2556 18.3466 76.1716 18.7346C76.0876 19.1227 75.4494 19.7346 75.4494 19.7346L97.6716 30.2346C97.6716 30.2346 113 69.4693 113 77.7346C113 86 110.172 87.9693 110.172 87.9693V95.9693H94.6716V87.9693C93.7343 87.1939 92.6895 83.6667 92.2842 82C91.7661 98.5203 91.4272 110.293 91.1716 125.735C89.3875 127.112 88.394 127.848 86.6716 128.735C77.755 132.351 72.7242 134.289 63.1716 136.107C63.1716 136.107 63.1716 136.735 61.1716 136.735C59.1716 136.735 57.1716 136.107 57.1716 136.107C57.047 136.827 43.6408 133.969 34.1716 129.235L29.1716 125.735C30.8568 109.175 30.7419 97.7198 29.8966 82C30.0381 84.7346 29.1716 86.5 27.4999 88.4693V95.9693H12.4999V88.4693C12.4999 88.4693 9.5 87.9693 9.5 76.7346C9.5 65.5 22.6716 30.2346 22.6716 30.2346Z" fill="white"/>
<path d="M45.1716 19.7346C44.6716 19.7346 22.6716 30.2346 22.6716 30.2346M45.1716 19.7346L44.1716 19.2346L49.1716 12.7347M45.1716 19.7346C50.6645 24.0731 51.4109 25.1724 54.6716 28.2346L56.6716 25.2347M22.6716 30.2346C25.9304 45.8232 27.4994 54.5028 29.1716 69.7347C29.4458 74.1597 29.6925 78.2042 29.8966 82M22.6716 30.2346C22.6716 30.2346 9.5 65.5 9.5 76.7346C9.5 87.9693 12.4999 88.4693 12.4999 88.4693M12.4999 88.4693V95.9693H27.4999V88.4693M12.4999 88.4693H14.3282M27.4999 88.4693H24.6641M27.4999 88.4693C29.1716 86.5 30.0381 84.7346 29.8966 82M58.6716 20.2347L49.1716 12.7347M58.6716 20.2347C61.3845 22.008 62.4412 23.4725 63.1716 27.2347M58.6716 20.2347L56.6716 25.2347M49.1716 12.7347C57.7883 10.4082 62.5657 10.4354 71.1716 12.7347M71.1716 12.7347L61.6716 20.2347M71.1716 12.7347C73.5775 15.513 76.2556 18.3466 76.1716 18.7346C76.0876 19.1227 75.4494 19.7346 75.4494 19.7346M61.6716 20.2347L65.6716 27.7346C69.5922 24.0488 71.7707 22.0826 75.4494 19.7346M61.6716 20.2347L60.1716 21.2347M75.4494 19.7346L97.6716 30.2346M97.6716 30.2346C94.4839 45.9855 93.2211 54.6784 92.6716 69.7347C92.5322 74.1431 92.4035 78.1973 92.2842 82M97.6716 30.2346C97.6716 30.2346 113 69.4693 113 77.7346C113 86 110.172 87.9693 110.172 87.9693M94.6716 87.9693V95.9693H110.172V87.9693M94.6716 87.9693H98.1716M94.6716 87.9693C93.7343 87.1939 92.6895 83.6667 92.2842 82M110.172 87.9693H107.879H105.586M63.1716 27.2347L64.1716 25.7347M63.1716 27.2347V136.107M63.1716 27.2347C61.2567 26.1156 59.8661 26.6958 57.6494 25.7347M63.1716 136.107C72.7242 134.289 77.755 132.351 86.6716 128.735C88.3939 127.848 89.3875 127.112 91.1716 125.735C91.4272 110.293 91.7661 98.5203 92.2842 82M63.1716 136.107C63.1716 136.107 63.1716 136.735 61.1716 136.735C59.1716 136.735 57.1716 136.107 57.1716 136.107M56.6716 25.2347C57.016 25.437 57.3407 25.6008 57.6494 25.7347M57.6494 25.7347L57.1716 136.107M57.1716 136.107C57.047 136.827 43.6408 133.969 34.1716 129.235L29.1716 125.735C30.8568 109.175 30.7419 97.7198 29.8966 82M14.3282 88.4693H17.8282M14.3282 88.4693L13.5 84M17.8282 88.4693L17.3282 78.2346M17.8282 88.4693H21.8282M21.8282 88.4693L22.8282 81.7346M21.8282 88.4693H24.6641M24.6641 88.4693L26.3282 85.2346M98.1716 87.9693L96.6716 84.7346M98.1716 87.9693H101M101 87.9693V81.2346M101 87.9693H105.586M105.586 87.9693L107.5 77.7346M60.1717 22.7347C59.6194 22.7347 59.1717 23.1824 59.1717 23.7347C59.1717 24.2869 59.6194 24.7347 60.1717 24.7347C60.724 24.7347 61.1717 24.2869 61.1717 23.7347C61.1717 23.1824 60.724 22.7347 60.1717 22.7347ZM60.1717 35.7346C59.6194 35.7346 59.1717 36.1824 59.1717 36.7346C59.1717 37.2869 59.6194 37.7346 60.1717 37.7346C60.724 37.7346 61.1717 37.2869 61.1717 36.7346C61.1717 36.1824 60.724 35.7346 60.1717 35.7346ZM60.1717 49.2347C59.6194 49.2347 59.1717 49.6824 59.1717 50.2347C59.1717 50.7869 59.6194 51.2347 60.1717 51.2347C60.724 51.2347 61.1717 50.7869 61.1717 50.2347C61.1717 49.6824 60.724 49.2347 60.1717 49.2347ZM60.1717 62.2347C59.6194 62.2347 59.1717 62.6824 59.1717 63.2347C59.1717 63.7869 59.6194 64.2347 60.1717 64.2347C60.724 64.2347 61.1717 63.7869 61.1717 63.2347C61.1717 62.6824 60.724 62.2347 60.1717 62.2347ZM60.1717 75.7346C59.6194 75.7346 59.1717 76.1823 59.1717 76.7346C59.1717 77.2869 59.6194 77.7346 60.1717 77.7346C60.724 77.7346 61.1717 77.2869 61.1717 76.7346C61.1717 76.1823 60.724 75.7346 60.1717 75.7346ZM60.1717 89.2346C59.6194 89.2346 59.1717 89.6823 59.1717 90.2346C59.1717 90.7869 59.6194 91.2346 60.1717 91.2346C60.724 91.2346 61.1717 90.7869 61.1717 90.2346C61.1717 89.6823 60.724 89.2346 60.1717 89.2346ZM60.1717 102.735C59.6194 102.735 59.1717 103.182 59.1717 103.735C59.1717 104.287 59.6194 104.735 60.1717 104.735C60.724 104.735 61.1717 104.287 61.1717 103.735C61.1717 103.182 60.724 102.735 60.1717 102.735ZM60.1717 116.235C59.6194 116.235 59.1717 116.682 59.1717 117.235C59.1717 117.787 59.6194 118.235 60.1717 118.235C60.724 118.235 61.1717 117.787 61.1717 117.235C61.1717 116.682 60.724 116.235 60.1717 116.235Z" stroke="black"/>
</svg>
