<svg width="120" height="160" viewBox="0 0 120 160" fill="none" xmlns="http://www.w3.org/2000/svg">
<path d="M12.4999 95.9692V88.4691C12.4999 88.4691 9.5 87.9691 9.5 76.7345C9.5 65.4999 22.6716 30.2345 22.6716 30.2345L35.9999 23.7249C35.6546 20.0866 36.5143 18.3616 39.9999 15.4998C56.4557 13.8335 65.3632 13.7434 80.4999 15.4998C84.0855 19.078 84.8075 20.9216 84.4309 23.9998L97.6716 30.2345C97.6716 30.2345 113 69.4691 113 77.7345C113 85.9999 110.172 87.9691 110.172 87.9691V95.9692H94.6716V87.9691C93.7343 87.1937 92.6895 83.6665 92.2842 81.9999C91.7661 98.5202 91.4272 110.293 91.1716 125.735C89.3875 127.112 88.394 127.848 86.6716 128.735C77.755 132.351 72.7242 134.289 63.1716 136.107C63.1716 136.107 63.1716 136.735 61.1716 136.735C59.1716 136.735 57.1716 136.107 57.1716 136.107C57.047 136.826 43.6408 133.969 34.1716 129.235L29.1716 125.735C30.8568 109.175 30.7419 97.7197 29.8966 81.9999C30.0381 84.7345 29.1716 86.4999 27.4999 88.4691V95.9692H12.4999Z" fill="#CDC5B6"/>
<path d="M22.6716 30.2345C25.9304 45.8231 27.4994 54.5027 29.1716 69.7345C29.4458 74.1596 29.6925 78.2041 29.8966 81.9999M22.6716 30.2345C22.6716 30.2345 9.5 65.4999 9.5 76.7345C9.5 87.9691 12.4999 88.4691 12.4999 88.4691M22.6716 30.2345L35.9999 23.7249M12.4999 88.4691V95.9692H27.4999V88.4691M12.4999 88.4691H14.3282M27.4999 88.4691H24.6641M27.4999 88.4691C29.1716 86.4999 30.0381 84.7345 29.8966 81.9999M97.6716 30.2345C94.4839 45.9854 93.2211 54.6782 92.6716 69.7345C92.5322 74.143 92.4035 78.1972 92.2842 81.9999M97.6716 30.2345C97.6716 30.2345 113 69.4691 113 77.7345C113 85.9999 110.172 87.9691 110.172 87.9691M97.6716 30.2345L84.4309 23.9998M94.6716 87.9691V95.9692H110.172V87.9691M94.6716 87.9691H98.1716M94.6716 87.9691C93.7343 87.1937 92.6895 83.6665 92.2842 81.9999M110.172 87.9691H107.879H105.586M63.1716 29.4438V136.107M63.1716 136.107C72.7242 134.289 77.755 132.351 86.6716 128.735C88.3939 127.848 89.3875 127.112 91.1716 125.735C91.4272 110.293 91.7661 98.5202 92.2842 81.9999M63.1716 136.107C63.1716 136.107 63.1716 136.735 61.1716 136.735C59.1716 136.735 57.1716 136.107 57.1716 136.107M57.1716 29.039V136.107M57.1716 136.107C57.047 136.826 43.6408 133.969 34.1716 129.235L29.1716 125.735C30.8568 109.175 30.7419 97.7197 29.8966 81.9999M14.3282 88.4691H17.8282M14.3282 88.4691L13.5 83.9999M17.8282 88.4691L17.3282 78.2345M17.8282 88.4691H21.8282M21.8282 88.4691L22.8282 81.7345M21.8282 88.4691H24.6641M24.6641 88.4691L26.3282 85.2345M98.1716 87.9691L96.6716 84.7345M98.1716 87.9691H101M101 87.9691V81.2345M101 87.9691H105.586M105.586 87.9691L107.5 77.7345M60.9999 29.9999L60.2764 29.8183L54.3685 28.3354M60.9999 29.9999L62.1324 29.7099L67.4999 28.3354M60.9999 29.9999L39.9999 15.4998M60.9999 29.9999L80.4999 15.4998M39.9999 15.4998C36.5143 18.3616 35.6546 20.0866 35.9999 23.7249M39.9999 15.4998C56.4557 13.8335 65.3632 13.7434 80.4999 15.4998M35.9999 23.7249L54.3685 28.3354M80.4999 15.4998C84.0855 19.078 84.8075 20.9216 84.4309 23.9998M84.4309 23.9998L67.4999 28.3354M54.3685 28.3354L54.3686 53.5904M67.4999 28.3354L67.5 64.4999M60.1717 35.7345C59.6194 35.7345 59.1717 36.1822 59.1717 36.7345C59.1717 37.2868 59.6194 37.7345 60.1717 37.7345C60.724 37.7345 61.1717 37.2868 61.1717 36.7345C61.1717 36.1822 60.724 35.7345 60.1717 35.7345ZM60.1717 49.2345C59.6194 49.2345 59.1717 49.6822 59.1717 50.2345C59.1717 50.7868 59.6194 51.2345 60.1717 51.2345C60.724 51.2345 61.1717 50.7868 61.1717 50.2345C61.1717 49.6822 60.724 49.2345 60.1717 49.2345ZM60.1717 62.2345C59.6194 62.2345 59.1717 62.6822 59.1717 63.2345C59.1717 63.7868 59.6194 64.2345 60.1717 64.2345C60.724 64.2345 61.1717 63.7868 61.1717 63.2345C61.1717 62.6822 60.724 62.2345 60.1717 62.2345ZM60.1717 75.7345C59.6194 75.7345 59.1717 76.1822 59.1717 76.7345C59.1717 77.2868 59.6194 77.7345 60.1717 77.7345C60.724 77.7345 61.1717 77.2868 61.1717 76.7345C61.1717 76.1822 60.724 75.7345 60.1717 75.7345ZM60.1717 89.2345C59.6194 89.2345 59.1717 89.6822 59.1717 90.2345C59.1717 90.7868 59.6194 91.2345 60.1717 91.2345C60.724 91.2345 61.1717 90.7868 61.1717 90.2345C61.1717 89.6822 60.724 89.2345 60.1717 89.2345ZM60.1717 102.735C59.6194 102.735 59.1717 103.182 59.1717 103.735C59.1717 104.287 59.6194 104.735 60.1717 104.735C60.724 104.735 61.1717 104.287 61.1717 103.735C61.1717 103.182 60.724 102.735 60.1717 102.735ZM60.1717 116.235C59.6194 116.235 59.1717 116.682 59.1717 117.235C59.1717 117.787 59.6194 118.235 60.1717 118.235C60.724 118.235 61.1717 117.787 61.1717 117.235C61.1717 116.682 60.724 116.235 60.1717 116.235Z" stroke="black"/>
</svg>
