<svg width="120" height="160" viewBox="0 0 120 160" fill="none" xmlns="http://www.w3.org/2000/svg">
<rect width="120" height="160" fill="white"/>
<path d="M31.1171 141.735V134.235C31.1171 134.235 31.0421 133.442 30.1171 129.992C29.6739 128.34 30.1395 129.775 28.1171 123C26.813 118.632 27.2621 90.1685 27.7457 70.5C26.5691 73.6402 25.6758 74.6831 23.6171 75L22.1172 80.5001L19.5389 79.8777L16.9606 79.2554L14.4328 78.6452L12.1172 78.0862L9.68857 77.5L7.61718 77L9.11718 71.5C3.31308 66.8806 8.87451 44.9264 19.1171 33.5C26.7365 25 34.0692 22.7252 34.0692 22.7252C33.7239 19.0868 34.5835 17.3618 38.0692 14.5001C54.5249 12.8337 63.4324 12.7436 78.5692 14.5001C82.1548 18.0782 82.8767 19.9218 82.5002 23.0001C82.5002 23.0001 88.0388 24 95.1171 32C102.195 40 112.5 60.5001 106.5 72.0001L108 77.5001L105.929 78.0001L103.5 78.5863L101.184 79.1453L98.6567 79.7554L96.0784 80.3778L93.5001 81.0001L92.0002 75.5001C88.907 74.9824 88.6728 73.3189 88.0935 70.5C88.1215 90.5712 88.0208 119.418 87.1171 123.5C86.5736 125.955 85.8888 128.199 85.2694 129.992C84.3751 132.582 83.6171 134.235 83.6171 134.235V142.235L81.9397 142.219L78.6172 142.187L76.6172 142.168L72.9913 142.134L69.4438 142.1L65.5921 142.063L62.0137 142.029L58.4912 141.995L54.9437 141.962L51.092 141.925L47.5136 141.891L43.9912 141.857L40.4437 141.824L36.592 141.787L33.0136 141.753L31.1171 141.735Z" fill="#EDE5D1"/>
<path d="M9.11718 71.5C3.31308 66.8806 8.87451 44.9264 19.1171 33.5C26.7365 25 34.0692 22.7252 34.0692 22.7252M9.11718 71.5L7.61718 77L9.68857 77.5M9.11718 71.5L11.3204 72.0318M23.6171 75L22.1172 80.5001L19.5389 79.8777M23.6171 75L21.2925 74.4389M23.6171 75C25.6758 74.6831 26.5691 73.6402 27.7457 70.5M31.1171 134.235V141.735L76.6172 142.168M31.1171 134.235C31.1171 134.235 31.0421 133.442 30.1171 129.992C29.6739 128.34 30.1395 129.775 28.1171 123C26.813 118.632 27.2621 90.1685 27.7457 70.5M31.1171 134.235H76.6172M83.6171 134.235V142.235L81.9397 142.219L78.6172 142.187L76.6172 142.168M83.6171 134.235C83.6171 134.235 84.3751 132.582 85.2694 129.992C85.8888 128.199 86.5736 125.955 87.1171 123.5C88.0208 119.418 88.1215 90.5712 88.0935 70.5M83.6171 134.235H81.9397H80.1172M88.0388 51.5001L88.0639 59.0001C88.0752 62.1891 88.0874 66.1373 88.0935 70.5M28.2888 51.5001C28.2888 51.5001 28.1981 54.1774 28.0705 58.5001C27.9753 61.7265 27.8595 65.8695 27.7457 70.5M33.0136 134.235V142.235M36.592 134.235V142.235M40.4437 134.235V142.235M43.9912 134.235V142.235M47.5136 134.235V142.235M51.092 134.235V142.235M54.9437 134.235V142.235M58.4912 134.235V142.235M62.0137 134.235V142.235M65.5921 134.235V142.235M69.4438 134.235V142.235M72.9913 134.235V142.235M76.6172 134.235V142.168M76.6172 134.235H78.6172H80.1172M80.1172 134.235V142.168M35.1172 42.0001L39.6172 47.0001M39.6172 47.0001L43.9912 42.0001M39.6172 47.0001L36.1172 51.0001M35.1172 50.0001L39.6172 55.0001M39.6172 55.0001L43.9912 50.0001M39.6172 55.0001L36.1172 59.0001M35.1172 58.5001L39.6172 63.5001M39.6172 63.5001L43.9912 58.5001M39.6172 63.5001L36.1172 67.5001M35.1172 67.0001L39.6172 72.0001M39.6172 72.0001L43.9912 67.0001M39.6172 72.0001L36.1172 76.0001M35.1172 75.5001L39.6172 80.5001M39.6172 80.5001L43.9912 75.5001M39.6172 80.5001L36.1172 84.5001M35.1172 83.5001L39.6172 88.5001M39.6172 88.5001L43.9912 83.5001M39.6172 88.5001L36.1172 92.5001M35.1172 91.5001L39.6172 96.5001M39.6172 96.5001L43.9912 91.5001M39.6172 96.5001L36.1172 100.5M35.1172 99.5001L39.6172 104.5M39.6172 104.5L43.9912 99.5001M39.6172 104.5L36.1172 108.5M35.1172 107L39.6172 112M39.6172 112L43.9912 107M39.6172 112L36.1172 116M71.2433 42.0001L75.7433 47.0001M75.7433 47.0001L80.1172 42.0001M75.7433 47.0001L72.2433 51.0001M71.2433 50.0001L75.7433 55.0001M75.7433 55.0001L80.1172 50.0001M75.7433 55.0001L72.2433 59.0001M71.2433 58.5001L75.7433 63.5001M75.7433 63.5001L80.1172 58.5001M75.7433 63.5001L72.2433 67.5001M71.2433 67.0001L75.7433 72.0001M75.7433 72.0001L80.1172 67.0001M75.7433 72.0001L72.2433 76.0001M71.2433 75.5001L75.7433 80.5001M75.7433 80.5001L80.1172 75.5001M75.7433 80.5001L72.2433 84.5001M71.2433 83.5001L75.7433 88.5001M75.7433 88.5001L80.1172 83.5001M75.7433 88.5001L72.2433 92.5001M71.2433 91.5001L75.7433 96.5001M75.7433 96.5001L80.1172 91.5001M75.7433 96.5001L72.2433 100.5M71.2433 99.5001L75.7433 104.5M75.7433 104.5L80.1172 99.5001M75.7433 104.5L72.2433 108.5M71.2433 107L75.7433 112M75.7433 112L80.1172 107M75.7433 112L72.2433 116M9.68857 77.5L11.3204 72.0318M9.68857 77.5L12.1172 78.0862M11.3204 72.0318L13.7828 72.6262M12.1172 78.0862L13.7828 72.6262M12.1172 78.0862L14.4328 78.6452M13.7828 72.6262L16.1172 73.1897M14.4328 78.6452L16.1172 73.1897M14.4328 78.6452L16.9606 79.2554M16.1172 73.1897L18.6172 73.7931M16.9606 79.2554L18.6172 73.7931M16.9606 79.2554L19.5389 79.8777M18.6172 73.7931L21.2925 74.4389M19.5389 79.8777L21.2925 74.4389M106.5 72.0001L108 77.5001L105.929 78.0001M106.5 72.0001L104.297 72.5319M106.5 72.0001C112.5 60.5001 102.195 40 95.1171 32C88.0388 24 82.5002 23.0001 82.5002 23.0001M92.0002 75.5001L93.5001 81.0001L96.0784 80.3778M92.0002 75.5001L94.3247 74.939M92.0002 75.5001C88.907 74.9824 88.6728 73.3189 88.0935 70.5M105.929 78.0001L104.297 72.5319M105.929 78.0001L103.5 78.5863M104.297 72.5319L101.835 73.1263M103.5 78.5863L101.835 73.1263M103.5 78.5863L101.184 79.1453M101.835 73.1263L99.5001 73.6897M101.184 79.1453L99.5001 73.6897M101.184 79.1453L98.6567 79.7554M99.5001 73.6897L97.0001 74.2932M98.6567 79.7554L97.0001 74.2932M98.6567 79.7554L96.0784 80.3778M97.0001 74.2932L94.3247 74.939M96.0784 80.3778L94.3247 74.939M59.0692 29.0001L58.3456 28.8185L54.0692 27.7451M59.0692 29.0001L60.2017 28.7101L65.5692 27.3356M59.0692 29.0001L38.0692 14.5001M59.0692 29.0001L78.5692 14.5001M38.0692 14.5001C34.5835 17.3618 33.7239 19.0868 34.0692 22.7252M38.0692 14.5001C54.5249 12.8337 63.4324 12.7436 78.5692 14.5001M34.0692 22.7252L54.0692 27.7451M78.5692 14.5001C82.1548 18.0782 82.8767 19.9218 82.5002 23.0001M82.5002 23.0001L65.5692 27.3356M54.0692 27.7451L54.0692 53.0002M65.5692 27.3356L65.5692 63.5002" stroke="black"/>
</svg>
