<svg width="120" height="160" viewBox="0 0 120 160" fill="none" xmlns="http://www.w3.org/2000/svg">
<path d="M22.6717 30.2346C22.6717 30.2346 44.6717 19.7346 45.1717 19.7346C57.9625 30.8748 64.6012 31.1207 75.4495 19.7346L97.6717 30.2346C97.6717 30.2346 108.519 32.2654 110.191 66.5L91.6906 68C91.6937 69.703 92.024 141.553 92.0001 143H30.0001C31.494 128.32 31.5732 94.4504 30.9831 67.9987L12 66.5C14.8284 34.7654 21.6326 30.0868 22.6717 30.2346Z" fill="white"/>
<path d="M30.0001 41.5C31.4098 64.2507 32.0922 122.442 30.0001 143H92.0001C92.024 141.553 91.6937 69.703 91.6906 68M92.0001 41.5C91.3118 63.2655 91.6523 47.3473 91.6906 68M31 68L12 66.5C14.8284 34.7654 21.6326 30.0868 22.6717 30.2346C22.6717 30.2346 44.6717 19.7346 45.1717 19.7346C57.9625 30.8748 64.6012 31.1207 75.4495 19.7346L97.6717 30.2346C97.6717 30.2346 108.519 32.2654 110.191 66.5L91.6906 68" stroke="black"/>
</svg>
