<svg width="120" height="160" viewBox="0 0 120 160" fill="none" xmlns="http://www.w3.org/2000/svg">
<rect width="120" height="160" fill="white"/>
<path d="M12 78.4999V70.9998C6.93119 65.5363 11.5074 45.4999 18 35.9999C23.4218 29.4998 37.1145 20.8219 43.4999 20.4364C43.4999 20.4364 46.5001 16.9999 47.5001 18.9999C47.57 19.1708 47.6544 19.3374 47.7524 19.4999C48.1395 20.1418 48.739 20.7183 49.5001 21.2247C50.2074 21.6954 51.0543 22.1056 52.0001 22.4519C52.7745 22.7354 53.6153 22.976 54.5001 23.1718C55.5232 23.3982 56.6051 23.5645 57.7113 23.6679C60.689 23.9462 63.8429 23.7679 66.5001 23.0739C67.3025 22.8643 68.0596 22.6077 68.7529 22.3025C69.5797 21.9384 70.3157 21.5052 70.9295 20.9999C71.4687 20.5561 71.9136 20.0567 72.2428 19.4999C72.3385 19.3381 72.4244 19.1715 72.5001 18.9999C72.5001 16.9999 76.9347 20.4364 76.9347 20.4364C76.9347 20.4364 96.3803 29.9024 101.328 36.4999C105.719 39.4999 111.443 48.9222 109.5 70.9998V78.9999H104.914H103.18H101.328H99.3284H97.5001H95.7501H94.0001V70.9998C91.1633 70.2988 91.1313 65.9419 90.945 58.5C91.0083 76.0695 91.1105 118.484 89.9999 123.5C89.4564 125.955 88.7716 128.198 88.1522 129.992L86.4999 142.235L84.8226 142.219L81.5001 142.187L79.5001 142.168L75.8741 142.133L72.3267 142.1L68.4749 142.063L64.8965 142.029L61.374 141.995L57.8266 141.962L53.9748 141.925L50.3965 141.891L46.874 141.857L43.3266 141.823L39.4748 141.787L35.8964 141.753L33.9999 141.735L32.9999 129.992C32.5568 128.34 33.0223 129.775 30.9999 123C29.3889 117.603 30.4536 75.4309 30.9533 58.5C30.5598 64.8644 30.2108 68.2673 27.0001 70.9998V78.4999H22.9925H19.4067H15.5784H12Z" fill="#EDE5D1"/>
<path d="M97.5001 70.9998V78.9999M104.914 70.9998V78.9999M90.9216 51.5C90.9216 52.5655 90.9326 55.0552 90.945 58.5M31.1717 51.5C31.1717 51.5 31.0809 54.1773 30.9533 58.5M43.4999 20.4364C37.1145 20.8219 23.4218 29.4998 18 35.9999C11.5074 45.4999 6.93119 65.5363 12 70.9998V78.4999H27.0001V70.9998C30.2108 68.2673 30.5598 64.8644 30.9533 58.5M43.4999 20.4364C43.4999 20.4364 46.5001 16.9999 47.5001 18.9999C47.57 19.1708 47.6544 19.3374 47.7524 19.4999M43.4999 20.4364C43.9646 20.9486 44.4218 21.4336 44.8741 21.8923M60.9999 28.4999C59.3702 28.5556 57.8841 28.4937 56.5001 28.301M60.9999 28.4999V23.8795M60.9999 28.4999C62.4394 28.4507 63.7669 28.3291 65.0001 28.1256M76.9347 20.4364C76.9347 20.4364 72.5001 16.9999 72.5001 18.9999C72.4245 19.1715 72.3385 19.3381 72.2428 19.4999M76.9347 20.4364C76.9347 20.4364 96.3803 29.9024 101.328 36.4999C105.719 39.4999 111.443 48.9222 109.5 70.9998V78.9999H103.18H101.328M76.9347 20.4364C76.5718 20.9496 76.2043 21.4345 75.8303 21.8923M97.5001 78.9999H95.7501H94.0001V70.9998C91.1633 70.2988 91.1313 65.9419 90.945 58.5M97.5001 78.9999H99.3284H101.328M101.328 72.7652V78.9999M107.571 70.9839V78.9839M15.5784 72.7652V78.9999M22.9925 72.7652V78.9999M19.4067 70.9998V78.9999M35.8964 136C35.8964 139.124 35.8964 142.235 35.8964 142.235M39.4748 136V142.235M43.3266 134.235V142.235M46.874 134.235V142.235M50.3965 136V142.235M53.9748 134.235V142.235M57.8266 134.235V142.235M61.374 136V142.235M64.8965 134.235V142.235M68.4749 134.235V142.235M72.3267 136V142.235M75.8741 134.235V142.235M79.5001 134.235V142.168M79.5001 142.168L33.9999 141.735L32.9999 129.992C32.5568 128.34 33.0223 129.775 30.9999 123C29.3889 117.603 30.4536 75.4309 30.9533 58.5M79.5001 142.168L81.5001 142.187L84.8226 142.219L86.4999 142.235L88.1522 129.992C88.7716 128.198 89.4564 125.955 89.9999 123.5C91.1105 118.484 91.0083 76.0695 90.945 58.5M83.0001 136V142.168M47.7524 19.4999L44.8741 21.8923M47.7524 19.4999C48.1395 20.1418 48.739 20.7183 49.5001 21.2247M44.8741 21.8923C45.5918 22.6201 46.2972 23.2815 47.0001 23.8795M49.5001 21.2247L47.0001 23.8795M49.5001 21.2247C50.2074 21.6954 51.0543 22.1056 52.0001 22.4519M47.0001 23.8795C48.7051 25.3303 50.3956 26.4085 52.2125 27.1586M52.0001 22.4519L49.5001 25.4999M52.0001 22.4519C52.7745 22.7354 53.6153 22.976 54.5001 23.1718M54.5001 23.1718L52.2125 27.1586M54.5001 23.1718C55.5232 23.3982 56.6051 23.5645 57.7113 23.6679M52.2125 27.1586C53.5538 27.7123 54.9641 28.0872 56.5001 28.301M57.7113 23.6679L56.5001 28.301M57.7113 23.6679C60.689 23.9462 63.8429 23.7679 66.5001 23.0739M64.0001 23.6679L65.0001 28.1256M65.0001 28.1256C68.7871 27.5009 71.6847 26.1049 74.2052 23.6679M66.5001 23.0739L68.5001 27.1586M66.5001 23.0739C67.3025 22.8643 68.0596 22.6077 68.7529 22.3025M68.7529 22.3025L71.5001 25.4999M68.7529 22.3025C69.5797 21.9384 70.3157 21.5052 70.9295 20.9999M70.9295 20.9999L74.2052 23.6679M70.9295 20.9999C71.4687 20.5561 71.9136 20.0567 72.2428 19.4999M74.2052 23.6679C74.7636 23.1281 75.3034 22.5372 75.8303 21.8923M72.2428 19.4999L75.8303 21.8923" stroke="black"/>
</svg>
