<svg width="120" height="160" viewBox="0 0 120 160" fill="none" xmlns="http://www.w3.org/2000/svg">
<path d="M33 141.735V134.235C33 134.235 32.925 133.442 32 129.992C31.5569 128.34 32.0224 129.775 30 123C27.9776 116.225 27.9776 53.5 27.9776 53.5C27.9776 53.5 25 69.5 22 71.5C19 73.5 16.5 72.5 16.5 72.5L12.5 76.5L11.5 75.8684L9.86786 74.8376L8.19972 73.784L6.32433 72.5996L4.5 71.4474L3 70.5L6 65C6 65 4.5 61 5.5 56.5C6.5 52 22.5784 30.5 22.5784 30.5C22.8435 30.2437 23.1025 30.1131 23.3546 30.0937C26.4547 28.4732 37.9974 22.4625 42.4999 20.4364C43.4786 19.9961 44.0928 19.7346 44.1717 19.7346C56.4601 21.3837 63.0752 21.3326 74.4495 19.7346L75.9348 20.4364L94.5 30.5C108.795 46.9333 114.696 54.1744 115.5 58C116.304 61.8256 114 66.2167 114 66.2167L117 71.7167L115.5 72.6641L113.676 73.8163L111.8 75.0008L110.132 76.0543L108.5 77.0852L107.5 77.7167L103.5 73.7167C103.5 73.7167 100 74.1079 97 71.7167C94 69.3255 94.4967 64.0377 90.0001 53.5C90.0001 60 90.3283 117.5 89 123.5C88.4564 125.955 87.7717 128.199 87.1523 129.992C86.258 132.582 85.5 134.235 85.5 134.235V142.235L83.8226 142.219L80.5001 142.187L78.5001 142.168L76.5001 142.149L74.8742 142.133L73.0607 142.116L71.3267 142.1L69.4749 142.082L67.4749 142.063L65.6465 142.046L63.8965 142.029L62 142.011L60.374 141.995L58.5606 141.978L56.8266 141.962L54.9748 141.944L52.9748 141.925L51.1465 141.907L49.3965 141.891L47.5 141.873L45.874 141.857L44.0606 141.84L42.3266 141.823L40.4748 141.806L38.4749 141.787L36.6465 141.769L34.8965 141.753L33 141.735Z" fill="#C5C8CC"/>
<path d="M44.1717 19.7346C44.1717 19.7346 46.4999 26.5 59.9999 26.5C73.4999 26.5 74.4495 19.7346 74.4495 19.7346M44.1717 19.7346C56.4601 21.3837 63.0752 21.3326 74.4495 19.7346M44.1717 19.7346C44.0928 19.7346 43.4786 19.9961 42.4999 20.4364M44.1717 19.7346C44.1717 19.7346 45.2124 21.1718 45.9999 21.5C51.9999 24 66.5 23.5 73 22C73.7524 21.8264 74.4495 19.7346 74.4495 19.7346M22.5784 30.5C26.2054 26.9945 28.6842 47 27.9776 53.5M22.5784 30.5C22.5784 30.5 37.2766 22.7868 42.4999 20.4364M22.5784 30.5C22.5784 30.5 6.5 52 5.5 56.5C4.5 61 6 65 6 65M74.4495 19.7346L75.9348 20.4364M94.5 30.5C92.0147 29.2821 86.9261 44.9083 90.0001 53.5M94.5 30.5L75.9348 20.4364M94.5 30.5C108.795 46.9333 114.696 54.1744 115.5 58C116.304 61.8256 114 66.2167 114 66.2167M33 134.235V141.735L78.5001 142.168M33 134.235C33 134.235 32.925 133.442 32 129.992C31.5569 128.34 32.0224 129.775 30 123C27.9776 116.225 27.9776 53.5 27.9776 53.5M33 134.235H78.5001M85.5 134.235V142.235L83.8226 142.219M85.5 134.235C85.5 134.235 86.258 132.582 87.1523 129.992C87.7717 128.199 88.4564 125.955 89 123.5C90.3283 117.5 90.0001 60 90.0001 53.5M85.5 134.235H83.8226M90.0001 53.5C94.4967 64.0377 94 69.3255 97 71.7167C100 74.1079 103.5 73.7167 103.5 73.7167M27.9776 53.5C27.9776 53.5 25 69.5 22 71.5C19 73.5 16.5 72.5 16.5 72.5M42.4999 20.4364C44.1717 26.1618 52.4655 28.7576 59.9999 28.5C67.5343 28.2424 75 26.5 75.9348 20.4364M34.8965 134.235V142.235M36.6465 134.235V142.235M44.0606 134.235V142.235M38.4749 134.235V142.235M40.4748 134.235V142.235M42.3266 134.235V142.235M45.874 134.235V142.235M47.5 134.235V142.235M49.3965 134.235V142.235M51.1465 134.235V142.235M58.5606 134.235V142.235M52.9748 134.235V142.235M54.9748 134.235V142.235M56.8266 134.235V142.235M60.374 134.235V142.235M62 134.235V142.235M63.8965 134.235V142.235M65.6465 134.235V142.235M73.0607 134.235V142.235M67.4749 134.235V142.235M69.4749 134.235V142.235M71.3267 134.235V142.235M74.8742 134.235V142.235M76.5001 134.235V142.235M78.5001 134.235V142.168M78.5001 134.235H80.5001M78.5001 142.168L80.5001 142.187M80.5001 134.235V142.187M80.5001 134.235H82.0001M80.5001 142.187L83.8226 142.219M82.0001 134.235V142.168M82.0001 134.235H83.8226M83.8226 142.219V134.235M6 65L3 70.5L4.5 71.4474M6 65L7.70344 66.2167M16.5 72.5L12.5 76.5L11.5 75.8684M16.5 72.5L15.3442 71.6745M7.70344 66.2167L4.5 71.4474M7.70344 66.2167L9.86786 67.7628M4.5 71.4474L6.32433 72.5996M6.32433 72.5996L9.86786 67.7628M6.32433 72.5996L8.19972 73.784M9.86786 67.7628L11.7766 69.1262M11.7766 69.1262L8.19972 73.784M11.7766 69.1262L13.7 70.5M8.19972 73.784L9.86786 74.8376M9.86786 74.8376L13.7 70.5M9.86786 74.8376L11.5 75.8684M13.7 70.5L15.3442 71.6745M15.3442 71.6745L11.5 75.8684M114 66.2167L117 71.7167L115.5 72.6641M114 66.2167L112.297 67.4335M103.5 73.7167L107.5 77.7167L108.5 77.0852M103.5 73.7167L104.656 72.8912M112.297 67.4335L115.5 72.6641M112.297 67.4335L110.132 68.9795M115.5 72.6641L113.676 73.8163M113.676 73.8163L110.132 68.9795M113.676 73.8163L111.8 75.0008M110.132 68.9795L108.223 70.3429M108.223 70.3429L111.8 75.0008M108.223 70.3429L106.3 71.7167M111.8 75.0008L110.132 76.0543M110.132 76.0543L106.3 71.7167M110.132 76.0543L108.5 77.0852M106.3 71.7167L104.656 72.8912M104.656 72.8912L108.5 77.0852" stroke="black"/>
</svg>
