<svg width="120" height="160" viewBox="0 0 120 160" fill="none" xmlns="http://www.w3.org/2000/svg">
<path d="M33.9997 141.735V134.235C33.9997 134.235 33.9247 133.442 32.9997 129.992C32.5566 128.34 33.0221 129.775 30.9997 123C28.9773 116.225 28.9773 53.5001 28.9773 53.5001C31.3296 49.3038 27.7537 29.8849 24.3192 30.1257L23.5781 30.5001C23.8229 30.2636 24.0707 30.1432 24.3192 30.1257L35.9999 24.2252C35.6546 20.5868 36.5142 18.8618 39.9999 16.0001C56.4556 14.3337 65.3631 14.2436 80.4999 16.0001C84.0855 19.5782 84.8074 21.4218 84.4309 24.5001L95.4998 30.5001C93.0144 29.2822 87.9259 44.9085 90.9999 53.5001C90.9999 60.0001 91.328 117.5 89.9997 123.5C89.4562 125.955 88.7714 128.199 88.152 129.992C87.2578 132.582 86.4997 134.235 86.4997 134.235V142.235L84.8224 142.219L81.4999 142.187L79.4999 142.168L33.9997 141.735Z" fill="#C5C8CC"/>
<path d="M33.9997 134.235V141.735L79.4999 142.168L81.4999 142.187L84.8224 142.219L86.4997 142.235V134.235M33.9997 134.235C33.9997 134.235 33.9247 133.442 32.9997 129.992C32.5566 128.34 33.0221 129.775 30.9997 123C28.9773 116.225 28.9773 53.5001 28.9773 53.5001C31.4999 49.0001 27.2051 26.9946 23.5781 30.5001L35.9999 24.2252M33.9997 134.235H79.4999H81.4999H82.9999H84.8224H86.4997M86.4997 134.235C86.4997 134.235 87.2578 132.582 88.152 129.992C88.7714 128.199 89.4562 125.955 89.9997 123.5C91.328 117.5 90.9999 60.0001 90.9999 53.5001C87.9259 44.9085 93.0144 29.2822 95.4998 30.5001L84.4309 24.5001M39.9999 16.0001C44.6307 19.42 58.2904 30.3625 60.9999 30.5001M39.9999 16.0001C36.5142 18.8618 35.6546 20.5868 35.9999 24.2252M39.9999 16.0001C56.4556 14.3337 65.3631 14.2436 80.4999 16.0001M60.9999 30.5001C63.7093 30.6377 75.8372 19.9091 80.4999 16.0001M60.9999 30.5001L55.9999 29.2451M60.9999 30.5001L67.4999 28.8356M80.4999 16.0001C84.0855 19.5782 84.8074 21.4218 84.4309 24.5001M84.4309 24.5001L67.4999 28.8356M35.9999 24.2252L55.9999 29.2451M55.9999 29.2451V51.0001M67.4999 28.8356V44.6679V60.5001M43.9999 95.5001H77.4999C78.6318 105.772 77.0784 106.048 81.4999 116.5V125H38.9999V116.5C43.978 106.61 43.0148 106.206 43.9999 95.5001Z" stroke="black"/>
</svg>
