<svg width="120" height="160" viewBox="0 0 120 160" fill="none" xmlns="http://www.w3.org/2000/svg">
<path d="M34.1719 129.235L29.1719 125.735C31.264 105.176 30.5816 92.4852 29.1719 69.7345C27.4997 54.5027 25.9307 45.8231 22.6719 30.2345L36.0002 23.7249C35.6549 20.0866 36.5145 18.3616 40.0002 15.4998C56.4559 13.8335 65.3634 13.7434 80.5002 15.4998C84.0858 19.078 84.8077 20.9216 84.4312 23.9998L97.6719 30.2345C94.4842 45.9854 93.2213 54.6782 92.6719 69.7345C91.9268 93.2948 91.4863 106.739 91.1719 125.735C89.3878 127.112 88.3942 127.848 86.6719 128.735C77.7553 132.351 72.7244 134.289 63.1719 136.107C63.1719 136.107 63.1719 136.735 61.1719 136.735C59.1719 136.735 57.1719 136.107 57.1719 136.107C57.0472 136.826 43.6411 133.969 34.1719 129.235Z" fill="#CDC5B6"/>
<path d="M63.1719 29.4438V136.107M63.1719 136.107C72.7244 134.289 77.7553 132.351 86.6719 128.735C88.3942 127.848 89.3878 127.112 91.1719 125.735C91.4863 106.739 91.9268 93.2948 92.6719 69.7345C93.2213 54.6782 94.4842 45.9854 97.6719 30.2345L84.4312 23.9998M63.1719 136.107C63.1719 136.107 63.1719 136.735 61.1719 136.735C59.1719 136.735 57.1719 136.107 57.1719 136.107M57.1719 29.039V136.107M57.1719 136.107C57.0472 136.826 43.6411 133.969 34.1719 129.235L29.1719 125.735C31.264 105.176 30.5816 92.4852 29.1719 69.7345C27.4997 54.5027 25.9307 45.8231 22.6719 30.2345L36.0002 23.7249M61.0002 29.9999L60.2766 29.8183L52.5002 27.8664M61.0002 29.9999L62.1327 29.7099L67.5002 28.3354M61.0002 29.9999L40.0002 15.4998M61.0002 29.9999L80.5002 15.4998M40.0002 15.4998C36.5145 18.3616 35.6549 20.0866 36.0002 23.7249M40.0002 15.4998C56.4559 13.8335 65.3634 13.7434 80.5002 15.4998M36.0002 23.7249L52.5002 27.8664M80.5002 15.4998C84.0858 19.078 84.8077 20.9216 84.4312 23.9998M84.4312 23.9998L67.5002 28.3354M52.5002 27.8664L52.5003 53.1214M67.5002 28.3354L67.5002 64.4999M60.1719 35.7345C59.6196 35.7345 59.1719 36.1822 59.1719 36.7345C59.1719 37.2868 59.6196 37.7345 60.1719 37.7345C60.7242 37.7345 61.1719 37.2868 61.1719 36.7345C61.1719 36.1822 60.7242 35.7345 60.1719 35.7345ZM60.1719 49.2345C59.6196 49.2345 59.1719 49.6822 59.1719 50.2345C59.1719 50.7868 59.6196 51.2345 60.1719 51.2345C60.7242 51.2345 61.1719 50.7868 61.1719 50.2345C61.1719 49.6822 60.7242 49.2345 60.1719 49.2345ZM60.1719 62.2345C59.6196 62.2345 59.1719 62.6822 59.1719 63.2345C59.1719 63.7868 59.6196 64.2345 60.1719 64.2345C60.7242 64.2345 61.1719 63.7868 61.1719 63.2345C61.1719 62.6822 60.7242 62.2345 60.1719 62.2345ZM60.1719 75.7345C59.6196 75.7345 59.1719 76.1822 59.1719 76.7345C59.1719 77.2868 59.6196 77.7345 60.1719 77.7345C60.7242 77.7345 61.1719 77.2868 61.1719 76.7345C61.1719 76.1822 60.7242 75.7345 60.1719 75.7345ZM60.1719 89.2345C59.6196 89.2345 59.1719 89.6822 59.1719 90.2345C59.1719 90.7868 59.6196 91.2345 60.1719 91.2345C60.7242 91.2345 61.1719 90.7868 61.1719 90.2345C61.1719 89.6822 60.7242 89.2345 60.1719 89.2345ZM60.1719 102.735C59.6196 102.735 59.1719 103.182 59.1719 103.735C59.1719 104.287 59.6196 104.735 60.1719 104.735C60.7242 104.735 61.1719 104.287 61.1719 103.735C61.1719 103.182 60.7242 102.735 60.1719 102.735ZM60.1719 116.235C59.6196 116.235 59.1719 116.682 59.1719 117.235C59.1719 117.787 59.6196 118.235 60.1719 118.235C60.7242 118.235 61.1719 117.787 61.1719 117.235C61.1719 116.682 60.7242 116.235 60.1719 116.235Z" stroke="black"/>
</svg>
