<svg width="120" height="160" viewBox="0 0 120 160" fill="none" xmlns="http://www.w3.org/2000/svg">
<path d="M32.9998 141.735V134.235C32.9998 134.235 32.9248 133.442 31.9998 129.992C31.5566 128.34 32.0222 129.775 29.9998 123C27.9774 116.225 27.9774 53.5 27.9774 53.5C28.6323 47.4752 26.5505 29.8473 23.3544 30.0937C22.8581 30.3531 22.5781 30.5 22.5781 30.5C22.8433 30.2437 23.1023 30.1131 23.3544 30.0937C26.4545 28.4732 37.9972 22.4625 42.4997 20.4364C43.4783 19.9961 44.0925 19.7346 44.1714 19.7346C56.4598 21.3837 63.0749 21.3326 74.4492 19.7346L75.9345 20.4364L94.4998 30.5C92.0144 29.2821 86.9259 44.9083 89.9999 53.5C89.9999 60 90.328 117.5 88.9997 123.5C88.4562 125.955 87.7714 128.199 87.152 129.992C86.2578 132.582 85.4997 134.235 85.4997 134.235V142.235L83.8224 142.219L80.4999 142.187L78.4999 142.168L76.4999 142.149L74.8739 142.133L73.0605 142.116L71.3264 142.1L69.4747 142.082L67.4747 142.063L65.6463 142.046L63.8963 142.029L61.9997 142.011L60.3738 141.995L58.5604 141.978L56.8263 141.962L54.9746 141.944L52.9746 141.925L51.1462 141.907L49.3962 141.891L47.4997 141.873L45.8738 141.857L44.0604 141.84L42.3263 141.823L40.4746 141.806L38.4746 141.787L36.6463 141.769L34.8963 141.753L32.9998 141.735Z" fill="#C5C8CC"/>
<path d="M44.1714 19.7346C44.1714 19.7346 46.4997 26.5 59.9997 26.5C73.4997 26.5 74.4492 19.7346 74.4492 19.7346M44.1714 19.7346C56.4598 21.3837 63.0749 21.3326 74.4492 19.7346M44.1714 19.7346C44.0925 19.7346 43.4783 19.9961 42.4997 20.4364M44.1714 19.7346C44.1714 19.7346 45.2121 21.1718 45.9997 21.5C51.9997 24 66.4997 23.5 72.9997 22C73.7522 21.8264 74.4492 19.7346 74.4492 19.7346M74.4492 19.7346L75.9345 20.4364M32.9998 134.235V141.735L78.4999 142.168M32.9998 134.235C32.9998 134.235 32.9248 133.442 31.9998 129.992C31.5566 128.34 32.0222 129.775 29.9998 123C27.9774 116.225 27.9774 53.5 27.9774 53.5C28.684 47 26.2051 26.9945 22.5781 30.5C22.5781 30.5 37.2763 22.7868 42.4997 20.4364M32.9998 134.235H78.4999M85.4997 134.235V142.235L83.8224 142.219M85.4997 134.235C85.4997 134.235 86.2578 132.582 87.152 129.992C87.7714 128.199 88.4562 125.955 88.9997 123.5C90.328 117.5 89.9999 60 89.9999 53.5C86.9259 44.9083 92.0144 29.2821 94.4998 30.5L75.9345 20.4364M85.4997 134.235H83.8224M42.4997 20.4364C44.1714 26.1618 52.4653 28.7576 59.9997 28.5C67.5341 28.2424 74.9997 26.5 75.9345 20.4364M34.8963 134.235V142.235M36.6463 134.235V142.235M44.0604 134.235V142.235M38.4746 134.235V142.235M40.4746 134.235V142.235M42.3263 134.235V142.235M45.8738 134.235V142.235M47.4997 134.235V142.235M49.3962 134.235V142.235M51.1462 134.235V142.235M58.5604 134.235V142.235M52.9746 134.235V142.235M54.9746 134.235V142.235M56.8263 134.235V142.235M60.3738 134.235V142.235M61.9997 134.235V142.235M63.8963 134.235V142.235M65.6463 134.235V142.235M73.0605 134.235V142.235M67.4747 134.235V142.235M69.4747 134.235V142.235M71.3264 134.235V142.235M74.8739 134.235V142.235M76.4999 134.235V142.235M78.4999 134.235V142.168M78.4999 134.235H80.4999M78.4999 142.168L80.4999 142.187M80.4999 134.235V142.187M80.4999 134.235H81.9999M80.4999 142.187L83.8224 142.219M81.9999 134.235V142.168M81.9999 134.235H83.8224M83.8224 142.219V134.235" stroke="black"/>
</svg>
