<svg width="120" height="160" viewBox="0 0 120 160" fill="none" xmlns="http://www.w3.org/2000/svg">
<rect width="120" height="160" fill="white"/>
<path d="M33 129.992C32.5568 128.34 33.0224 129.775 31 123C29.3889 117.603 30.4536 75.4309 30.9534 58.5C31.081 54.1773 31.0297 55.8221 31.1717 51.5C31.3138 47.1778 24 33.9999 24 33.9999C27 28.7449 29.862 26.6123 35.9999 23.7249C35.6546 20.0866 36.5143 18.3616 39.9999 15.4998C56.4557 13.8335 65.3632 13.7434 80.4999 15.4998C84.0855 19.078 84.8075 20.9216 84.4309 23.9998C90.3782 26.7284 93.6522 28.3274 97 33.9999C97 33.9999 90.9217 50.4344 90.9217 51.5C90.9217 52.5655 90.9326 55.0552 90.945 58.5C91.0084 76.0695 91.1105 118.484 90 123.5C89.4565 125.955 88.7717 128.198 88.1523 129.992L86.5 142.235L84.8226 142.219L81.5001 142.187L79.5001 142.168L75.8742 142.133L72.3267 142.1L68.4749 142.063L64.8966 142.029L61.3741 141.995L57.8266 141.962L53.9748 141.925L50.3965 141.891L46.8741 141.857L43.3266 141.823L39.4748 141.787L35.8965 141.753L34 141.735L33 129.992Z" fill="#EDE5D1"/>
<path d="M35.8965 136C35.8965 139.124 35.8965 142.235 35.8965 142.235M39.4748 136V142.235M43.3266 134.235V142.235M46.8741 134.235V142.235M50.3965 136V142.235M53.9748 134.235V142.235M57.8266 134.235V142.235M61.3741 136V142.235M64.8966 134.235V142.235M68.4749 134.235V142.235M72.3267 136V142.235M75.8742 134.235V142.235M79.5001 134.235V142.168M79.5001 142.168L34 141.735L33 129.992C32.5568 128.34 33.0224 129.775 31 123C29.3889 117.603 30.4536 75.4309 30.9534 58.5C31.081 54.1773 31.0297 55.8221 31.1717 51.5C31.3138 47.1778 24 33.9999 24 33.9999C27 28.7449 29.862 26.6123 35.9999 23.7249M79.5001 142.168L81.5001 142.187L84.8226 142.219L86.5 142.235L88.1523 129.992C88.7717 128.198 89.4565 125.955 90 123.5C91.1106 118.484 91.0084 76.0695 90.945 58.5C90.9326 55.0552 90.9217 52.5655 90.9217 51.5C90.9217 50.4344 97 33.9999 97 33.9999C93.6522 28.3274 90.3782 26.7284 84.4309 23.9998M83.0001 136V142.168M60.9999 29.9999L60.2764 29.8183L55.9999 28.7449M60.9999 29.9999L62.1324 29.7099L67.4999 28.3354M60.9999 29.9999L39.9999 15.4998M60.9999 29.9999L80.4999 15.4998M39.9999 15.4998C36.5143 18.3616 35.6546 20.0866 35.9999 23.7249M39.9999 15.4998C56.4557 13.8335 65.3632 13.7434 80.4999 15.4998M35.9999 23.7249L55.9999 28.7449M80.4999 15.4998C84.0855 19.078 84.8075 20.9216 84.4309 23.9998M84.4309 23.9998L67.4999 28.3354M55.9999 28.7449L56 53.9999M67.4999 28.3354L67.5 64.4999" stroke="black"/>
</svg>
