<svg width="120" height="160" viewBox="0 0 120 160" fill="none" xmlns="http://www.w3.org/2000/svg">
<rect width="120" height="160" fill="white"/>
<path d="M33 129.992C32.5568 128.34 33.0224 129.775 31 123C29.3889 117.603 30.4536 75.4309 30.9534 58.5C31.081 54.1773 31.0297 55.8221 31.1717 51.5C31.3138 47.1778 26 33.9999 26 33.9999C31.3346 27.1069 38.2766 22.7868 43.5 20.4364C43.5 20.4364 46.5001 16.9999 47.5001 18.9999C47.5701 19.1708 47.6545 19.3374 47.7524 19.4999C48.1395 20.1418 48.739 20.7183 49.5001 21.2247C50.2074 21.6954 51.0543 22.1056 52.0001 22.4519C52.7746 22.7354 53.6153 22.976 54.5001 23.1718C55.5232 23.3982 56.6051 23.5645 57.7113 23.6679C60.689 23.9462 63.8429 23.7679 66.5001 23.0739C67.3025 22.8643 68.0597 22.6077 68.7529 22.3025C69.5797 21.9384 70.3157 21.5052 70.9295 20.9999C71.4687 20.5561 71.9136 20.0567 72.2429 19.4999C72.3386 19.3381 72.4245 19.1715 72.5001 18.9999C72.5001 16.9999 76.9347 20.4364 76.9347 20.4364C76.9347 20.4364 92.0519 27.4025 97 33.9999C97 33.9999 90.9217 50.4344 90.9217 51.5C90.9217 52.5655 90.9326 55.0552 90.945 58.5C91.0084 76.0695 91.1105 118.484 90 123.5C89.4565 125.955 88.7717 128.198 88.1523 129.992L86.5 142.235L84.8226 142.219L81.5001 142.187L79.5001 142.168L75.8742 142.133L72.3267 142.1L68.4749 142.063L64.8966 142.029L61.3741 141.995L57.8266 141.962L53.9748 141.925L50.3965 141.891L46.8741 141.857L43.3266 141.823L39.4749 141.787L35.8965 141.753L34 141.735L33 129.992Z" fill="#EDE5D1"/>
<path d="M43.5 20.4364C38.2766 22.7868 31.3346 27.1069 26 33.9999C26 33.9999 31.3138 47.1778 31.1717 51.5C31.0297 55.8221 31.081 54.1773 30.9534 58.5C30.4536 75.4309 29.3889 117.603 31 123C33.0224 129.775 32.5568 128.34 33 129.992L34 141.735L79.5001 142.168M43.5 20.4364C43.5 20.4364 46.5001 16.9999 47.5001 18.9999C47.5701 19.1708 47.6545 19.3374 47.7524 19.4999M43.5 20.4364C43.9646 20.9486 44.4218 21.4336 44.8741 21.8923M61 28.4999C59.3703 28.5556 57.8842 28.4937 56.5001 28.301M61 28.4999V23.8795M61 28.4999C62.4395 28.4507 63.767 28.3291 65.0001 28.1256M76.9347 20.4364C76.9347 20.4364 72.5001 16.9999 72.5001 18.9999C72.4245 19.1715 72.3386 19.3381 72.2429 19.4999M76.9347 20.4364C76.9347 20.4364 92.0519 27.4025 97 33.9999C97 33.9999 90.9217 50.4344 90.9217 51.5C90.9217 52.5655 90.9326 55.0552 90.945 58.5C91.0084 76.0695 91.1106 118.484 90 123.5C89.4565 125.955 88.7717 128.198 88.1523 129.992L86.5 142.235L84.8226 142.219L81.5001 142.187L79.5001 142.168M76.9347 20.4364C76.5718 20.9496 76.2043 21.4345 75.8303 21.8923M35.8965 136C35.8965 139.124 35.8965 142.235 35.8965 142.235M39.4749 136V142.235M43.3266 134.235V142.235M46.8741 134.235V142.235M50.3965 136V142.235M53.9748 134.235V142.235M57.8266 134.235V142.235M61.3741 136V142.235M64.8966 134.235V142.235M68.4749 134.235V142.235M72.3267 136V142.235M75.8742 134.235V142.235M79.5001 134.235V142.168M83.0001 136V142.168M47.7524 19.4999L44.8741 21.8923M47.7524 19.4999C48.1395 20.1418 48.739 20.7183 49.5001 21.2247M44.8741 21.8923C45.5919 22.6201 46.2972 23.2815 47.0001 23.8795M49.5001 21.2247L47.0001 23.8795M49.5001 21.2247C50.2074 21.6954 51.0543 22.1056 52.0001 22.4519M47.0001 23.8795C48.7052 25.3303 50.3956 26.4085 52.2125 27.1586M52.0001 22.4519L49.5001 25.4999M52.0001 22.4519C52.7746 22.7354 53.6153 22.976 54.5001 23.1718M54.5001 23.1718L52.2125 27.1586M54.5001 23.1718C55.5232 23.3982 56.6051 23.5645 57.7113 23.6679M52.2125 27.1586C53.5539 27.7123 54.9642 28.0872 56.5001 28.301M57.7113 23.6679L56.5001 28.301M57.7113 23.6679C60.689 23.9462 63.8429 23.7679 66.5001 23.0739M64.0001 23.6679L65.0001 28.1256M65.0001 28.1256C68.7872 27.5009 71.6847 26.1049 74.2053 23.6679M66.5001 23.0739L68.5001 27.1586M66.5001 23.0739C67.3025 22.8643 68.0597 22.6077 68.7529 22.3025M68.7529 22.3025L71.5001 25.4999M68.7529 22.3025C69.5797 21.9384 70.3157 21.5052 70.9295 20.9999M70.9295 20.9999L74.2053 23.6679M70.9295 20.9999C71.4687 20.5561 71.9136 20.0567 72.2429 19.4999M74.2053 23.6679C74.7636 23.1281 75.3034 22.5372 75.8303 21.8923M72.2429 19.4999L75.8303 21.8923" stroke="black"/>
</svg>
