<svg width="120" height="160" viewBox="0 0 120 160" fill="none" xmlns="http://www.w3.org/2000/svg">
<rect width="120" height="160" fill="white"/>
<path d="M33.9997 141.735V134.235C33.9997 134.235 33.9247 133.442 32.9997 129.992C32.5566 128.34 33.0221 129.775 30.9997 123C29.3887 117.603 30.4534 75.4309 30.9531 58.5C31.0807 54.1773 31.4059 54.2249 31.1715 51.5C30.533 44.0776 23.5781 33.9999 23.5781 33.9999L35.9997 23.7249C35.6544 20.0866 36.514 18.3616 39.9997 15.4998C56.4554 13.8335 65.3629 13.7434 80.4997 15.4998C84.0853 19.078 84.8072 20.9216 84.4307 23.9998L98.3516 33.9999C97.4998 34.9999 90.2861 47.5051 90.9214 51.5C90.9214 52.5655 90.9324 55.0552 90.9448 58.5C91.0081 76.0695 91.1103 118.484 89.9997 123.5C89.4562 125.955 88.7714 128.198 88.152 129.992C87.2578 132.582 86.4997 134.235 86.4997 134.235V142.235L84.8224 142.219L81.4999 142.187L79.4999 142.168L75.8739 142.133L72.3265 142.1L68.4747 142.063L64.8963 142.029L61.3738 141.995L57.8264 141.962L53.9746 141.925L50.3963 141.891L46.8738 141.857L43.3264 141.823L39.4746 141.787L35.8963 141.753L33.9997 141.735Z" fill="#EDE5D1"/>
<path d="M33.9997 141.735H33.4997V142.23L33.995 142.235L33.9997 141.735ZM86.4997 142.235L86.495 142.735L86.9997 142.739V142.235H86.4997ZM32.9997 129.992L33.4827 129.863L32.9997 129.992ZM30.9997 123L31.4789 122.857L30.9997 123ZM89.9997 123.5L90.4879 123.608L89.9997 123.5ZM88.152 129.992L87.6794 129.829L88.152 129.992ZM81.4999 142.187L81.4951 142.687L81.4999 142.187ZM84.8224 142.219L84.8271 141.719L84.8224 142.219ZM90.9214 51.5H91.4214V51.4604L91.4152 51.4214L90.9214 51.5ZM90.9448 58.5L91.4448 58.4981L90.9448 58.5ZM30.9531 58.5L31.4529 58.5147L30.9531 58.5ZM31.1715 51.5L30.6733 51.5428L31.1715 51.5ZM42.4999 46.9999L42.8762 47.3292L42.8762 47.3291L42.4999 46.9999ZM42.4999 54.9999L42.8762 55.3292L42.8762 55.3291L42.4999 54.9999ZM42.4999 63.5L42.8762 63.8292L42.8762 63.8292L42.4999 63.5ZM42.4999 71.9999L42.8762 72.3292L42.8762 72.3291L42.4999 71.9999ZM42.4999 80.4999L42.8762 80.8292L42.8762 80.8291L42.4999 80.4999ZM42.4999 88.4999L42.8762 88.8292L42.8762 88.8291L42.4999 88.4999ZM42.4999 96.4999L42.8762 96.8292L42.8762 96.8291L42.4999 96.4999ZM42.4999 104.5L42.8762 104.829L42.8762 104.829L42.4999 104.5ZM42.4999 112L42.8762 112.329L42.8762 112.329L42.4999 112ZM78.6259 46.9999L79.0022 47.3292L79.0023 47.3291L78.6259 46.9999ZM78.6259 54.9999L79.0022 55.3292L79.0023 55.3291L78.6259 54.9999ZM78.6259 63.5L79.0022 63.8292L79.0023 63.8292L78.6259 63.5ZM78.6259 71.9999L79.0022 72.3292L79.0023 72.3291L78.6259 71.9999ZM78.6259 80.4999L79.0022 80.8292L79.0023 80.8291L78.6259 80.4999ZM78.6259 88.4999L79.0022 88.8292L79.0023 88.8291L78.6259 88.4999ZM78.6259 96.4999L79.0022 96.8292L79.0023 96.8291L78.6259 96.4999ZM78.6259 104.5L79.0022 104.829L79.0023 104.829L78.6259 104.5ZM78.6259 112L79.0022 112.329L79.0023 112.329L78.6259 112ZM23.5781 33.9999L23.2594 33.6147C23.0596 33.7799 23.0193 34.0705 23.1666 34.2839L23.5781 33.9999ZM98.3516 33.9999L98.7322 34.3242C98.8228 34.2178 98.8648 34.0783 98.8479 33.9395C98.831 33.8008 98.7568 33.6754 98.6433 33.5939L98.3516 33.9999ZM60.2761 29.8183L60.3979 29.3333L60.2761 29.8183ZM60.9997 29.9999L60.878 30.4848L61.0009 30.5157L61.1237 30.4842L60.9997 29.9999ZM62.1322 29.7099L62.0082 29.2255L62.1322 29.7099ZM39.9997 15.4998L39.9493 15.0024L39.7991 15.0176L39.6824 15.1134L39.9997 15.4998ZM80.4997 15.4998L80.8529 15.1459L80.7299 15.0232L80.5573 15.0032L80.4997 15.4998ZM33.4997 134.235V141.735H34.4997V134.235H33.4997ZM86.9997 142.235V134.235H85.9997V142.235H86.9997ZM33.9997 134.235C34.4975 134.187 34.4975 134.187 34.4975 134.187C34.4975 134.187 34.4975 134.187 34.4975 134.187C34.4974 134.186 34.4974 134.186 34.4974 134.186C34.4973 134.185 34.4973 134.185 34.4972 134.184C34.4971 134.183 34.4969 134.181 34.4967 134.179C34.4964 134.176 34.4959 134.172 34.4953 134.167C34.4942 134.157 34.4925 134.144 34.4902 134.126C34.4855 134.092 34.4782 134.043 34.4667 133.974C34.4437 133.837 34.404 133.623 34.3356 133.303C34.1989 132.662 33.9466 131.593 33.4827 129.863L32.5168 130.122C32.9779 131.841 33.2256 132.893 33.3576 133.511C33.4236 133.82 33.4604 134.02 33.4804 134.139C33.4904 134.199 33.4962 134.238 33.4993 134.261C33.5008 134.272 33.5017 134.279 33.502 134.283C33.5022 134.284 33.5023 134.285 33.5023 134.285C33.5023 134.285 33.5022 134.284 33.5022 134.284C33.5022 134.284 33.5021 134.283 33.5021 134.283C33.5021 134.283 33.5021 134.283 33.502 134.282C33.502 134.282 33.502 134.282 33.502 134.282C33.502 134.282 33.502 134.282 33.9997 134.235ZM33.4827 129.863C33.0397 128.211 33.5036 129.64 31.4789 122.857L30.5206 123.143C32.5407 129.91 32.0734 128.468 32.5168 130.122L33.4827 129.863ZM89.5116 123.392C88.9731 125.824 88.2942 128.049 87.6794 129.829L88.6247 130.155C89.2487 128.348 89.9393 126.086 90.4879 123.608L89.5116 123.392ZM87.6794 129.829C87.2358 131.114 86.8261 132.166 86.5277 132.895C86.3786 133.26 86.2574 133.544 86.1737 133.736C86.1319 133.832 86.0994 133.906 86.0776 133.954C86.0667 133.979 86.0585 133.997 86.053 134.009C86.0503 134.015 86.0483 134.019 86.047 134.022C86.0463 134.024 86.0459 134.025 86.0456 134.025C86.0454 134.026 86.0453 134.026 86.0453 134.026C86.0453 134.026 86.0453 134.026 86.0452 134.026C86.0452 134.026 86.0453 134.026 86.0453 134.026C86.0453 134.026 86.0453 134.026 86.4997 134.235C86.9542 134.443 86.9542 134.443 86.9543 134.443C86.9543 134.443 86.9543 134.443 86.9543 134.443C86.9544 134.443 86.9544 134.443 86.9545 134.442C86.9546 134.442 86.9548 134.442 86.955 134.441C86.9555 134.44 86.9561 134.439 86.9569 134.437C86.9585 134.434 86.9609 134.428 86.9639 134.422C86.97 134.408 86.9789 134.389 86.9905 134.363C87.0136 134.311 87.0474 134.235 87.0906 134.135C87.177 133.937 87.3012 133.646 87.4534 133.274C87.7576 132.53 88.1741 131.46 88.6247 130.155L87.6794 129.829ZM35.3963 134.235V141.753H36.3963V134.235H35.3963ZM35.3963 141.753V142.235H36.3963V141.753H35.3963ZM38.9746 134.235V141.787H39.9746V134.235H38.9746ZM38.9746 141.787V142.235H39.9746V141.787H38.9746ZM42.8264 134.235V141.823H43.8264V134.235H42.8264ZM42.8264 141.823V142.235H43.8264V141.823H42.8264ZM46.3738 134.235V141.857H47.3738V134.235H46.3738ZM46.3738 141.857V142.235H47.3738V141.857H46.3738ZM49.8963 134.235V141.891H50.8963V134.235H49.8963ZM49.8963 141.891V142.235H50.8963V141.891H49.8963ZM53.4746 134.235V141.925H54.4746V134.235H53.4746ZM53.4746 141.925V142.235H54.4746V141.925H53.4746ZM57.3264 134.235V141.962H58.3264V134.235H57.3264ZM57.3264 141.962V142.235H58.3264V141.962H57.3264ZM60.8738 134.235V141.995H61.8738V134.235H60.8738ZM60.8738 141.995V142.235H61.8738V141.995H60.8738ZM64.3963 134.235V142.029H65.3963V134.235H64.3963ZM64.3963 142.029V142.235H65.3963V142.029H64.3963ZM67.9747 134.235V142.063H68.9747V134.235H67.9747ZM67.9747 142.063V142.235H68.9747V142.063H67.9747ZM71.8265 134.235V142.1H72.8265V134.235H71.8265ZM71.8265 142.1V142.235H72.8265V142.1H71.8265ZM75.3739 134.235V142.133H76.3739V134.235H75.3739ZM75.3739 142.133V142.235H76.3739V142.133H75.3739ZM79.4999 133.735H75.8739V134.735H79.4999V133.735ZM75.8739 133.735H72.3265V134.735H75.8739V133.735ZM72.3265 133.735H68.4747V134.735H72.3265V133.735ZM68.4747 133.735H64.8963V134.735H68.4747V133.735ZM64.8963 133.735H61.3738V134.735H64.8963V133.735ZM61.3738 133.735H57.8264V134.735H61.3738V133.735ZM57.8264 133.735H53.9746V134.735H57.8264V133.735ZM53.9746 133.735H50.3963V134.735H53.9746V133.735ZM50.3963 133.735H46.8738V134.735H50.3963V133.735ZM46.8738 133.735H43.3264V134.735H46.8738V133.735ZM43.3264 133.735H39.4746V134.735H43.3264V133.735ZM39.4746 133.735H35.8963V134.735H39.4746V133.735ZM35.8963 133.735H33.9997V134.735H35.8963V133.735ZM33.995 142.235L35.8915 142.253L35.901 141.253L34.0045 141.235L33.995 142.235ZM35.8915 142.253L39.4698 142.287L39.4794 141.287L35.901 141.253L35.8915 142.253ZM39.4698 142.287L43.3216 142.323L43.3311 141.323L39.4794 141.287L39.4698 142.287ZM43.3216 142.323L46.8691 142.357L46.8786 141.357L43.3311 141.323L43.3216 142.323ZM46.8691 142.357L50.3915 142.391L50.401 141.391L46.8786 141.357L46.8691 142.357ZM50.3915 142.391L53.9698 142.425L53.9794 141.425L50.401 141.391L50.3915 142.391ZM53.9698 142.425L57.8216 142.462L57.8311 141.462L53.9794 141.425L53.9698 142.425ZM57.8216 142.462L61.3691 142.495L61.3786 141.495L57.8311 141.462L57.8216 142.462ZM61.3691 142.495L64.8916 142.529L64.9011 141.529L61.3786 141.495L61.3691 142.495ZM64.8916 142.529L68.4699 142.563L68.4795 141.563L64.9011 141.529L64.8916 142.529ZM68.4699 142.563L72.3217 142.6L72.3312 141.6L68.4795 141.563L68.4699 142.563ZM72.3217 142.6L75.8692 142.633L75.8787 141.633L72.3312 141.6L72.3217 142.6ZM75.8692 142.633L79.4951 142.668L79.5047 141.668L75.8787 141.633L75.8692 142.633ZM78.9999 134.235V142.168H79.9999V134.235H78.9999ZM81.4999 133.735H79.4999V134.735H81.4999V133.735ZM79.4951 142.668L81.4951 142.687L81.5047 141.687L79.5047 141.668L79.4951 142.668ZM82.9999 133.735H81.4999V134.735H82.9999V133.735ZM82.4999 134.235V142.168H83.4999V134.235H82.4999ZM81.4951 142.687L84.8176 142.719L84.8271 141.719L81.5047 141.687L81.4951 142.687ZM84.8176 142.719L86.495 142.735L86.5045 141.735L84.8271 141.719L84.8176 142.719ZM86.4997 133.735H84.8224V134.735H86.4997V133.735ZM84.8224 133.735H82.9999V134.735H84.8224V133.735ZM90.4214 51.5C90.4214 52.5667 90.4324 55.0582 90.4448 58.5018L91.4448 58.4981C91.4324 55.0522 91.4214 52.5643 91.4214 51.5H90.4214ZM90.4448 58.5018C90.4765 67.2864 90.5178 82.2798 90.4125 95.7034C90.3598 102.416 90.2705 108.732 90.1251 113.683C90.0523 116.159 89.9656 118.29 89.8628 119.957C89.759 121.636 89.6406 122.809 89.5116 123.392L90.4879 123.608C90.6365 122.937 90.7578 121.687 90.8609 120.018C90.9647 118.336 91.0518 116.193 91.1246 113.713C91.2704 108.751 91.3598 102.426 91.4125 95.7113C91.5179 82.2814 91.4765 67.283 91.4448 58.4981L90.4448 58.5018ZM31.4789 122.857C31.2952 122.242 31.1378 121.045 31.0134 119.337C30.8901 117.646 30.8018 115.499 30.7424 113.014C30.6236 108.045 30.6213 101.745 30.6849 95.08C30.8121 81.751 31.2031 66.9792 31.4529 58.5147L30.4533 58.4852C30.2035 66.9517 29.8122 81.7314 29.6849 95.0704C29.6213 101.739 29.6235 108.052 29.7427 113.038C29.8022 115.53 29.8911 117.695 30.016 119.41C30.1398 121.108 30.3015 122.409 30.5206 123.143L31.4789 122.857ZM31.4529 58.5147C31.5163 56.3685 31.6282 55.3143 31.6965 54.4398C31.7665 53.5454 31.7893 52.8486 31.6696 51.4571L30.6733 51.5428C30.788 52.8762 30.7655 53.5181 30.6996 54.3618C30.6321 55.2254 30.5176 56.3088 30.4533 58.4852L31.4529 58.5147ZM37.6282 42.3344L42.1282 47.3344L42.8715 46.6655L38.3715 41.6655L37.6282 42.3344ZM42.8762 47.3291L47.2502 42.3291L46.4975 41.6707L42.1236 46.6707L42.8762 47.3291ZM42.1236 46.6707L38.6236 50.6707L39.3762 51.3292L42.8762 47.3292L42.1236 46.6707ZM37.6282 50.3344L42.1282 55.3344L42.8715 54.6655L38.3715 49.6655L37.6282 50.3344ZM42.8762 55.3291L47.2502 50.3291L46.4975 49.6707L42.1236 54.6707L42.8762 55.3291ZM42.1236 54.6707L38.6236 58.6707L39.3762 59.3292L42.8762 55.3292L42.1236 54.6707ZM37.6282 58.8344L42.1282 63.8344L42.8715 63.1655L38.3715 58.1655L37.6282 58.8344ZM42.8762 63.8292L47.2502 58.8292L46.4975 58.1707L42.1236 63.1707L42.8762 63.8292ZM42.1236 63.1707L38.6236 67.1707L39.3762 67.8292L42.8762 63.8292L42.1236 63.1707ZM37.6282 67.3344L42.1282 72.3344L42.8715 71.6655L38.3715 66.6655L37.6282 67.3344ZM42.8762 72.3291L47.2502 67.3291L46.4975 66.6707L42.1236 71.6707L42.8762 72.3291ZM42.1236 71.6707L38.6236 75.6707L39.3762 76.3292L42.8762 72.3292L42.1236 71.6707ZM37.6282 75.8344L42.1282 80.8344L42.8715 80.1655L38.3715 75.1655L37.6282 75.8344ZM42.8762 80.8291L47.2502 75.8291L46.4975 75.1707L42.1236 80.1707L42.8762 80.8291ZM42.1236 80.1707L38.6236 84.1707L39.3762 84.8292L42.8762 80.8292L42.1236 80.1707ZM37.6282 83.8344L42.1282 88.8344L42.8715 88.1655L38.3715 83.1655L37.6282 83.8344ZM42.8762 88.8291L47.2502 83.8291L46.4975 83.1707L42.1236 88.1707L42.8762 88.8291ZM42.1236 88.1707L38.6236 92.1707L39.3762 92.8292L42.8762 88.8292L42.1236 88.1707ZM37.6282 91.8344L42.1282 96.8344L42.8715 96.1655L38.3715 91.1655L37.6282 91.8344ZM42.8762 96.8291L47.2502 91.8291L46.4975 91.1707L42.1236 96.1707L42.8762 96.8291ZM42.1236 96.1707L38.6236 100.171L39.3762 100.829L42.8762 96.8292L42.1236 96.1707ZM37.6282 99.8344L42.1282 104.834L42.8715 104.165L38.3715 99.1655L37.6282 99.8344ZM42.8762 104.829L47.2502 99.8291L46.4975 99.1707L42.1236 104.171L42.8762 104.829ZM42.1236 104.171L38.7961 107.974L39.5487 108.632L42.8762 104.829L42.1236 104.171ZM38.7961 107.974L38.6236 108.171L39.3762 108.829L39.5487 108.632L38.7961 107.974ZM37.6282 107.334L38.8008 108.637L39.5441 107.968L38.3715 106.665L37.6282 107.334ZM38.8008 108.637L42.1282 112.334L42.8715 111.665L39.5441 107.968L38.8008 108.637ZM42.8762 112.329L47.2502 107.329L46.4975 106.671L42.1236 111.671L42.8762 112.329ZM42.1236 111.671L38.6236 115.671L39.3762 116.329L42.8762 112.329L42.1236 111.671ZM73.7543 42.3344L78.2543 47.3344L78.9976 46.6655L74.4976 41.6655L73.7543 42.3344ZM79.0023 47.3291L83.3762 42.3291L82.6236 41.6707L78.2496 46.6707L79.0023 47.3291ZM78.2497 46.6707L74.7497 50.6707L75.5022 51.3292L79.0022 47.3292L78.2497 46.6707ZM73.7543 50.3344L78.2543 55.3344L78.9976 54.6655L74.4976 49.6655L73.7543 50.3344ZM79.0023 55.3291L83.3762 50.3291L82.6236 49.6707L78.2496 54.6707L79.0023 55.3291ZM78.2497 54.6707L74.7497 58.6707L75.5022 59.3292L79.0022 55.3292L78.2497 54.6707ZM73.7543 58.8344L78.2543 63.8344L78.9976 63.1655L74.4976 58.1655L73.7543 58.8344ZM79.0023 63.8292L83.3762 58.8292L82.6236 58.1707L78.2496 63.1707L79.0023 63.8292ZM78.2497 63.1707L74.7497 67.1707L75.5022 67.8292L79.0022 63.8292L78.2497 63.1707ZM73.7543 67.3344L78.2543 72.3344L78.9976 71.6655L74.4976 66.6655L73.7543 67.3344ZM79.0023 72.3291L83.3762 67.3291L82.6236 66.6707L78.2496 71.6707L79.0023 72.3291ZM78.2497 71.6707L74.7497 75.6707L75.5022 76.3292L79.0022 72.3292L78.2497 71.6707ZM73.7543 75.8344L78.2543 80.8344L78.9976 80.1655L74.4976 75.1655L73.7543 75.8344ZM79.0023 80.8291L83.3762 75.8291L82.6236 75.1707L78.2496 80.1707L79.0023 80.8291ZM78.2497 80.1707L74.7497 84.1707L75.5022 84.8292L79.0022 80.8292L78.2497 80.1707ZM73.7543 83.8344L78.2543 88.8344L78.9976 88.1655L74.4976 83.1655L73.7543 83.8344ZM79.0023 88.8291L83.3762 83.8291L82.6236 83.1707L78.2496 88.1707L79.0023 88.8291ZM78.2497 88.1707L74.7497 92.1707L75.5022 92.8292L79.0022 88.8292L78.2497 88.1707ZM73.7543 91.8344L78.2543 96.8344L78.9976 96.1655L74.4976 91.1655L73.7543 91.8344ZM79.0023 96.8291L83.3762 91.8291L82.6236 91.1707L78.2496 96.1707L79.0023 96.8291ZM78.2497 96.1707L74.7497 100.171L75.5022 100.829L79.0022 96.8292L78.2497 96.1707ZM73.7543 99.8344L78.2543 104.834L78.9976 104.165L74.4976 99.1655L73.7543 99.8344ZM79.0023 104.829L83.3762 99.8291L82.6236 99.1707L78.2496 104.171L79.0023 104.829ZM78.2497 104.171L74.9222 107.974L75.6748 108.632L79.0022 104.829L78.2497 104.171ZM74.9222 107.974L74.7497 108.171L75.5022 108.829L75.6748 108.632L74.9222 107.974ZM73.7543 107.334L74.9268 108.637L75.6701 107.968L74.4976 106.665L73.7543 107.334ZM74.9268 108.637L78.2543 112.334L78.9976 111.665L75.6701 107.968L74.9268 108.637ZM79.0023 112.329L83.3762 107.329L82.6236 106.671L78.2496 111.671L79.0023 112.329ZM78.2497 111.671L74.7497 115.671L75.5022 116.329L79.0022 112.329L78.2497 111.671ZM23.5781 33.9999C23.1666 34.2839 23.1666 34.2839 23.1666 34.2839C23.1666 34.284 23.1667 34.284 23.1668 34.2842C23.1669 34.2844 23.1672 34.2848 23.1675 34.2853C23.1683 34.2864 23.1694 34.288 23.171 34.2903C23.1741 34.2948 23.1789 34.3018 23.1852 34.3111C23.1979 34.3297 23.217 34.3578 23.2421 34.3949C23.2922 34.4691 23.3662 34.5794 23.4609 34.7229C23.6502 35.0098 23.9221 35.4289 24.2506 35.9553C24.9079 37.0085 25.7908 38.4894 26.6931 40.1999C28.5071 43.6385 30.3632 47.938 30.6733 51.5428L31.6696 51.4571C31.3412 47.6395 29.4007 43.1891 27.5776 39.7333C26.6614 37.9965 25.7657 36.4941 25.099 35.4258C24.7655 34.8915 24.489 34.4653 24.2955 34.1721C24.1988 34.0254 24.1227 33.9121 24.0707 33.835C24.0447 33.7965 24.0246 33.767 24.011 33.7471C24.0042 33.7371 23.9989 33.7295 23.9954 33.7243C23.9936 33.7217 23.9922 33.7197 23.9912 33.7183C23.9908 33.7176 23.9904 33.717 23.9901 33.7167C23.99 33.7165 23.9899 33.7163 23.9898 33.7162C23.9897 33.716 23.9896 33.7159 23.5781 33.9999ZM97.9709 33.6757C97.8361 33.8339 97.611 34.1714 97.3373 34.6107C97.0556 35.0628 96.7032 35.6545 96.3078 36.3463C95.5171 37.7298 94.5501 39.5212 93.6295 41.4076C92.7098 43.2921 91.8313 45.2816 91.2217 47.0586C90.9169 47.9471 90.6762 48.7914 90.5322 49.5486C90.3894 50.2994 90.3352 50.9968 90.4277 51.5785L91.4152 51.4214C91.3489 51.0044 91.3811 50.4371 91.5146 49.7355C91.6468 49.0403 91.8721 48.2444 92.1675 47.3831C92.7584 45.6607 93.6174 43.7123 94.5282 41.8462C95.438 39.9819 96.3945 38.2098 97.176 36.8425C97.5668 36.1588 97.9127 35.5784 98.1861 35.1395C98.4674 34.688 98.654 34.4159 98.7322 34.3242L97.9709 33.6757ZM60.1544 30.3032L60.878 30.4848L61.1214 29.5149L60.3979 29.3333L60.1544 30.3032ZM62.0082 29.2255L60.8757 29.5155L61.1237 30.4842L62.2562 30.1942L62.0082 29.2255ZM39.6824 15.1134C37.9267 16.5548 36.7703 17.7576 36.1138 19.1017C35.4497 20.4615 35.3249 21.9071 35.5019 23.7722L36.4974 23.6777C36.3292 21.9044 36.4616 20.6683 37.0124 19.5406C37.5708 18.3972 38.587 17.3066 40.317 15.8863L39.6824 15.1134ZM80.1465 15.8538C81.929 17.6326 82.9521 18.9355 83.495 20.1424C84.0277 21.3265 84.1156 22.458 83.9344 23.9391L84.927 24.0605C85.1224 22.4633 85.0375 21.1339 84.407 19.7322C83.7867 18.3532 82.6559 16.9452 80.8529 15.1459L80.1465 15.8538ZM40.0501 15.9973C56.4762 14.334 65.347 14.2449 80.4421 15.9965L80.5573 15.0032C65.3789 13.2419 56.4346 13.3331 39.9493 15.0024L40.0501 15.9973ZM56.1214 28.2599L36.1214 23.24L35.878 24.2099L55.878 29.2298L56.1214 28.2599ZM67.6237 28.8198L84.5547 24.4842L84.3067 23.5155L67.3757 27.851L67.6237 28.8198ZM62.2562 30.1942L67.6237 28.8198L67.3757 27.851L62.0082 29.2255L62.2562 30.1942ZM60.3979 29.3333L56.1214 28.2599L55.878 29.2298L60.1544 30.3032L60.3979 29.3333ZM39.7156 15.9113L60.7156 30.4113L61.2838 29.5884L40.2838 15.0884L39.7156 15.9113ZM80.2013 15.0986L60.7013 29.5986L61.298 30.4011L80.798 15.9011L80.2013 15.0986ZM55.4997 28.7449L55.4998 53.9999H56.4998L56.4997 28.7449L55.4997 28.7449ZM66.9997 28.3354L66.9998 64.4999H67.9998L67.9997 28.3354L66.9997 28.3354ZM23.8968 34.3852L36.3184 24.1102L35.681 23.3396L23.2594 33.6147L23.8968 34.3852ZM84.139 24.4059L98.0598 34.406L98.6433 33.5939L84.7224 23.5937L84.139 24.4059Z" fill="black"/>
</svg>
