<svg width="120" height="160" viewBox="0 0 120 160" fill="none" xmlns="http://www.w3.org/2000/svg">
<rect width="120" height="160" fill="white"/>
<path d="M33.9997 141.735V134.235C33.9997 134.235 33.9247 133.442 32.9997 129.992C32.5566 128.34 33.0221 129.775 30.9997 123C29.3887 117.603 30.4534 75.4309 30.9531 58.5C31.0807 54.1773 31.4059 54.2249 31.1715 51.5C30.533 44.0776 23.5781 33.9999 23.5781 33.9999C28.9127 27.1069 38.2764 22.7868 43.4997 20.4364C43.4997 20.4364 46.4999 16.9999 47.4999 18.9999C47.5698 19.1708 47.6542 19.3374 47.7522 19.4999C48.1393 20.1418 48.7388 20.7183 49.4999 21.2247C50.2072 21.6954 51.0541 22.1056 51.9999 22.4519C52.7743 22.7354 53.6151 22.976 54.4999 23.1718C55.523 23.3982 56.6049 23.5645 57.7111 23.6679C60.6887 23.9462 63.8427 23.7679 66.4999 23.0739C67.3023 22.8643 68.0594 22.6077 68.7527 22.3025C69.5795 21.9384 70.3155 21.5052 70.9293 20.9999C71.4685 20.5561 71.9134 20.0567 72.2426 19.4999C72.3383 19.3381 72.4242 19.1715 72.4999 18.9999C72.4999 16.9999 76.9345 20.4364 76.9345 20.4364C76.9345 20.4364 93.0638 27.2588 98.194 33.7947C98.2702 33.8026 98.3238 33.8689 98.3516 33.9999C98.3003 33.9316 98.2477 33.8631 98.194 33.7947C97.005 33.6703 90.3244 47.7457 90.9214 51.5C90.9214 52.5655 90.9324 55.0552 90.9448 58.5C91.0081 76.0695 91.1103 118.484 89.9997 123.5C89.4562 125.955 88.7714 128.198 88.152 129.992C87.2578 132.582 86.4997 134.235 86.4997 134.235V142.235L84.8224 142.219L81.4999 142.187L79.4999 142.168L75.8739 142.133L72.3265 142.1L68.4747 142.063L64.8963 142.029L61.3738 141.995L57.8264 141.962L53.9746 141.925L50.3963 141.891L46.8738 141.857L43.3264 141.823L39.4746 141.787L35.8963 141.753L33.9997 141.735Z" fill="#EDE5D1"/>
<path d="M33.9997 134.235V141.735L79.4999 142.168M33.9997 134.235C33.9997 134.235 33.9247 133.442 32.9997 129.992C32.5566 128.34 33.0221 129.775 30.9997 123C29.3887 117.603 30.4534 75.4309 30.9531 58.5C31.0807 54.1773 31.4059 54.2249 31.1715 51.5C30.533 44.0776 23.5781 33.9999 23.5781 33.9999C28.9127 27.1069 38.2764 22.7868 43.4997 20.4364M33.9997 134.235H79.4999M86.4997 134.235V142.235L84.8224 142.219L81.4999 142.187L79.4999 142.168M86.4997 134.235C86.4997 134.235 87.2578 132.582 88.152 129.992C88.7714 128.198 89.4562 125.955 89.9997 123.5C91.1103 118.484 91.0081 76.0695 90.9448 58.5C90.9324 55.0552 90.9214 52.5655 90.9214 51.5C90.2862 47.5051 97.891 31.824 98.3516 33.9999C93.4034 27.4025 76.9345 20.4364 76.9345 20.4364M86.4997 134.235H84.8224H82.9999M43.4997 20.4364C43.4997 20.4364 46.4999 16.9999 47.4999 18.9999C47.5698 19.1708 47.6542 19.3374 47.7522 19.4999M43.4997 20.4364C43.9644 20.9486 44.4216 21.4336 44.8739 21.8923M60.9997 28.4999C59.37 28.5556 57.8839 28.4937 56.4999 28.301M60.9997 28.4999V23.8795M60.9997 28.4999C62.4392 28.4507 63.7667 28.3291 64.9999 28.1256M76.9345 20.4364C76.9345 20.4364 72.4999 16.9999 72.4999 18.9999C72.4242 19.1715 72.3383 19.3381 72.2426 19.4999M76.9345 20.4364C76.5716 20.9496 76.2041 21.4345 75.8301 21.8923M35.8963 134.235V142.235M39.4746 134.235V142.235M43.3264 134.235V142.235M46.8738 134.235V142.235M50.3963 134.235V142.235M53.9746 134.235V142.235M57.8264 134.235V142.235M61.3738 134.235V142.235M64.8963 134.235V142.235M68.4747 134.235V142.235M72.3265 134.235V142.235M75.8739 134.235V142.235M79.4999 134.235V142.168M79.4999 134.235H81.4999H82.9999M82.9999 134.235V142.168M47.7522 19.4999L44.8739 21.8923M47.7522 19.4999C48.1393 20.1418 48.7388 20.7183 49.4999 21.2247M44.8739 21.8923C45.5916 22.6201 46.297 23.2815 46.9999 23.8795M49.4999 21.2247L46.9999 23.8795M49.4999 21.2247C50.2072 21.6954 51.0541 22.1056 51.9999 22.4519M46.9999 23.8795C48.7049 25.3303 50.3954 26.4085 52.2123 27.1586M51.9999 22.4519L49.4999 25.4999M51.9999 22.4519C52.7743 22.7354 53.6151 22.976 54.4999 23.1718M54.4999 23.1718L52.2123 27.1586M54.4999 23.1718C55.523 23.3982 56.6049 23.5645 57.7111 23.6679M52.2123 27.1586C53.5536 27.7123 54.9639 28.0872 56.4999 28.301M57.7111 23.6679L56.4999 28.301M57.7111 23.6679C60.6887 23.9462 63.8427 23.7679 66.4999 23.0739M63.9999 23.6679L64.9999 28.1256M64.9999 28.1256C68.7869 27.5009 71.6844 26.1049 74.205 23.6679M66.4999 23.0739L68.4999 27.1586M66.4999 23.0739C67.3023 22.8643 68.0594 22.6077 68.7527 22.3025M68.7527 22.3025L71.4999 25.4999M68.7527 22.3025C69.5795 21.9384 70.3155 21.5052 70.9293 20.9999M70.9293 20.9999L74.205 23.6679M70.9293 20.9999C71.4685 20.5561 71.9134 20.0567 72.2426 19.4999M74.205 23.6679C74.7634 23.1281 75.3032 22.5372 75.8301 21.8923M72.2426 19.4999L75.8301 21.8923M37.9999 41.9999L42.4999 46.9999M42.4999 46.9999L46.8738 41.9999M42.4999 46.9999L38.9999 50.9999M37.9999 49.9999L42.4999 54.9999M42.4999 54.9999L46.8738 49.9999M42.4999 54.9999L38.9999 58.9999M37.9999 58.5L42.4999 63.5M42.4999 63.5L46.8738 58.5M42.4999 63.5L38.9999 67.5M37.9999 66.9999L42.4999 71.9999M42.4999 71.9999L46.8738 66.9999M42.4999 71.9999L38.9999 75.9999M37.9999 75.4999L42.4999 80.4999M42.4999 80.4999L46.8738 75.4999M42.4999 80.4999L38.9999 84.4999M37.9999 83.4999L42.4999 88.4999M42.4999 88.4999L46.8738 83.4999M42.4999 88.4999L38.9999 92.4999M37.9999 91.4999L42.4999 96.4999M42.4999 96.4999L46.8738 91.4999M42.4999 96.4999L38.9999 100.5M37.9999 99.4999L42.4999 104.5M42.4999 104.5L46.8738 99.4999M42.4999 104.5L38.9999 108.5M37.9999 107L42.4999 112M42.4999 112L46.8738 107M42.4999 112L38.9999 116M74.1259 41.9999L78.6259 46.9999M78.6259 46.9999L82.9999 41.9999M78.6259 46.9999L75.1259 50.9999M74.1259 49.9999L78.6259 54.9999M78.6259 54.9999L82.9999 49.9999M78.6259 54.9999L75.1259 58.9999M74.1259 58.5L78.6259 63.5M78.6259 63.5L82.9999 58.5M78.6259 63.5L75.1259 67.5M74.1259 66.9999L78.6259 71.9999M78.6259 71.9999L82.9999 66.9999M78.6259 71.9999L75.1259 75.9999M74.1259 75.4999L78.6259 80.4999M78.6259 80.4999L82.9999 75.4999M78.6259 80.4999L75.1259 84.4999M74.1259 83.4999L78.6259 88.4999M78.6259 88.4999L82.9999 83.4999M78.6259 88.4999L75.1259 92.4999M74.1259 91.4999L78.6259 96.4999M78.6259 96.4999L82.9999 91.4999M78.6259 96.4999L75.1259 100.5M74.1259 99.4999L78.6259 104.5M78.6259 104.5L82.9999 99.4999M78.6259 104.5L75.1259 108.5M74.1259 107L78.6259 112M78.6259 112L82.9999 107M78.6259 112L75.1259 116" stroke="black"/>
</svg>
