<svg width="120" height="160" viewBox="0 0 120 160" fill="none" xmlns="http://www.w3.org/2000/svg">
<path d="M32.9998 141.735V134.235C32.9998 134.235 32.9248 133.442 31.9998 129.992C31.5566 128.34 32.0222 129.775 29.9998 123C27.9774 116.225 27.1835 58.347 27.9774 53.5001C28.7713 48.6532 26.3724 30.1872 22.5781 30.5001L35.9997 23.7252C35.6544 20.0868 36.514 18.3618 39.9997 15.5001C56.4554 13.8337 65.3629 13.7436 80.4997 15.5001C84.0853 19.0782 84.8072 20.9218 84.4307 24.0001L96.9998 30.5001C94.4823 31.0424 89.4016 46.4237 92.4999 53.5001C92.4999 60.0001 90.328 117.5 88.9997 123.5C88.4562 125.955 87.7714 128.199 87.152 129.992C86.2578 132.582 85.4997 134.235 85.4997 134.235V142.235L83.8224 142.219L80.4999 142.187L78.4999 142.168L76.4999 142.149L74.8739 142.134L73.0605 142.116L71.3264 142.1L69.4747 142.082L67.4747 142.063L65.6463 142.046L63.8963 142.029L61.9997 142.011L60.3738 141.995L58.5604 141.978L56.8263 141.962L54.9746 141.944L52.9746 141.925L51.1462 141.908L49.3962 141.891L47.4997 141.873L45.8738 141.857L44.0604 141.84L42.3263 141.824L40.4746 141.806L38.4746 141.787L36.6463 141.77L34.8963 141.753L32.9998 141.735Z" fill="#C5C8CC"/>
<path d="M32.9998 134.235V141.735L78.4999 142.168M32.9998 134.235C32.9998 134.235 32.9248 133.442 31.9998 129.992C31.5566 128.34 32.0222 129.775 29.9998 123C27.9774 116.225 27.1835 58.347 27.9774 53.5001C28.7713 48.6532 26.3724 30.1872 22.5781 30.5001L35.9997 23.7252M32.9998 134.235H78.4999M85.4997 134.235V142.235L83.8224 142.219M85.4997 134.235C85.4997 134.235 86.2578 132.582 87.152 129.992C87.7714 128.199 88.4562 125.955 88.9997 123.5C90.328 117.5 92.4999 60.0001 92.4999 53.5001C89.4016 46.4237 94.4823 31.0424 96.9998 30.5001L84.4307 24.0001M85.4997 134.235H83.8224M34.8963 134.235V142.235M36.6463 134.235V142.235M44.0604 134.235V142.235M38.4746 134.235V142.235M40.4746 134.235V142.235M42.3263 134.235V142.235M45.8738 134.235V142.235M47.4997 134.235V142.235M49.3962 134.235V142.235M51.1462 134.235V142.235M58.5604 134.235V142.235M52.9746 134.235V142.235M54.9746 134.235V142.235M56.8263 134.235V142.235M60.3738 134.235V142.235M61.9997 134.235V142.235M63.8963 134.235V142.235M65.6463 134.235V142.235M73.0605 134.235V142.235M67.4747 134.235V142.235M69.4747 134.235V142.235M71.3264 134.235V142.235M74.8739 134.235V142.235M76.4999 134.235V142.235M78.4999 134.235V142.168M78.4999 134.235H80.4999M78.4999 142.168L80.4999 142.187M80.4999 134.235V142.187M80.4999 134.235H81.9999M80.4999 142.187L83.8224 142.219M81.9999 134.235V142.168M81.9999 134.235H83.8224M83.8224 142.219V134.235M60.9997 30.0001L60.2761 29.8185L55.9997 28.7451M60.9997 30.0001L62.1322 29.7101L67.4997 28.3356M60.9997 30.0001L39.9997 15.5001M60.9997 30.0001L80.4997 15.5001M39.9997 15.5001C36.514 18.3618 35.6544 20.0868 35.9997 23.7252M39.9997 15.5001C56.4554 13.8337 65.3629 13.7436 80.4997 15.5001M35.9997 23.7252L55.9997 28.7451M80.4997 15.5001C84.0853 19.0782 84.8072 20.9218 84.4307 24.0001M84.4307 24.0001L67.4997 28.3356M55.9997 28.7451L55.9998 54.0002M67.4997 28.3356L67.4998 64.5002" stroke="black" stroke-linejoin="round"/>
</svg>
