<svg width="120" height="160" viewBox="0 0 120 160" fill="none" xmlns="http://www.w3.org/2000/svg">
<path d="M20 88.0686C23.1593 27.5293 30.0761 15.005 29.7808 13.7127L29.7396 13.6305C29.1624 13.0551 41.0425 7.6371 47.0547 5C59.4636 7.30143 68.8188 5.95894 71.9452 5L74.1096 6.07881L89.2603 13.6305L99 88.0686C96.1142 90.0824 90.583 89.8666 88.1781 89.507L81.3242 49.9505L79.8813 58.9406L84.9315 87.3494C94.4548 104.035 89.621 135.776 86.0137 149.561C62.9269 159.054 41.5236 153.996 33.7078 150.28C23.8959 119.498 30.1005 95.5004 34.4292 87.3494L39.4795 58.9406L37.6758 49.9505L31.5434 89.507C22.8858 90.6577 20.2405 89.0275 20 88.0686Z" fill="#56514F"/>
<path d="M47.0547 5C59.4636 7.30143 68.8188 5.95894 71.9452 5M47.0547 5C41.0425 7.6371 29.1624 13.0551 29.7396 13.6305M47.0547 5C47.0547 5.38716 47.087 5.87886 47.1648 6.43842M29.7396 13.6305C30.461 14.3497 23.2466 25.857 20 88.0686C20.2405 89.0275 22.8858 90.6577 31.5434 89.507L37.6758 49.9505M29.7396 13.6305L33.7078 21.5418L37.6758 49.9505M37.6758 49.9505L39.4795 58.9406L34.4292 87.3494C30.1005 95.5004 23.8959 119.498 33.7078 150.28C41.5236 153.996 62.9269 159.054 86.0137 149.561C89.621 135.776 94.4548 104.035 84.9315 87.3494L79.8813 58.9406L81.3242 49.9505M81.3242 49.9505L88.1781 89.507C90.583 89.8666 96.1142 90.0824 99 88.0686L89.2603 13.6305M81.3242 49.9505L85.653 21.5418L89.2603 13.6305M89.2603 13.6305L74.1096 6.07881M71.9452 5C72.5224 8.73988 69.5403 12.5517 67.9772 13.9901C65.9571 16.2916 61.6043 16.8669 59.6804 16.8669C54.7744 16.2916 51.8645 14.7093 51.0228 13.9901C48.4892 11.9236 47.4722 8.65071 47.1648 6.43842M71.9452 5L74.1096 6.07881M44.8904 6.07881C45.0107 8.47617 46.2612 13.7743 50.3014 15.7881C52.4658 16.8669 57.3717 18.9526 59.6804 18.665C61.8447 18.9047 66.8228 18.593 69.4201 15.4285C71.1035 13.5106 74.3982 8.95565 74.1096 6.07881M47.1648 6.43842C51.3366 7.6371 62.1333 9.31525 71.9452 6.43842" stroke="black"/>
</svg>
