<svg width="120" height="160" viewBox="0 0 120 160" fill="none" xmlns="http://www.w3.org/2000/svg">
<path d="M14.1986 51.3355C12.4471 48.9311 22.7125 23.0344 28.064 10.3865L46.308 4C57.6923 10.0109 68.809 6.50452 72.9443 4L91.9182 10.3865C97.7562 23.6605 108.63 50.4339 105.419 51.3355L87.5396 56.9707V61.4788L87.7743 63.3572L98.8509 152.017C72.2875 159.23 35.7265 155.023 20.7663 152.017L31.843 63.3572L32.0777 61.4788V56.9707C26.8477 56.0941 15.95 53.7398 14.1986 51.3355Z" fill="#747A96"/>
<path d="M28.064 10.3865C22.7125 23.0344 12.4471 48.9311 14.1986 51.3355C15.95 53.7398 26.8477 56.0941 32.0777 56.9707M28.064 10.3865C31.8589 20.605 32.321 45.7003 32.0777 56.9707M28.064 10.3865L46.308 4M32.0777 56.9707V61.4788M46.308 4C46.5513 8.25769 49.5919 17.3742 59.8086 19.7785C64.0656 20.0289 72.6524 17.2239 72.9443 4M46.308 4C57.6923 10.0109 68.809 6.50452 72.9443 4M72.9443 4L91.9182 10.3865M91.9182 10.3865C97.7562 23.6605 108.63 50.4339 105.419 51.3355L87.5396 56.9707M91.9182 10.3865C87.5396 18.5012 87.1747 44.8237 87.5396 56.9707M87.5396 56.9707V61.4788M32.0777 61.4788L31.843 63.3572M32.0777 61.4788C36.1802 61.9709 42.0096 62.5275 48.4973 62.9269C49.6934 63.0005 50.9119 63.0688 52.1461 63.1303C64.6592 63.7544 78.7838 63.6865 87.5396 61.4788M87.5396 61.4788L87.7743 63.3572M31.843 63.3572L20.7663 152.017C35.7265 155.023 72.2875 159.23 98.8509 152.017L87.7743 63.3572M31.843 63.3572C43.389 64.9851 70.7396 67.2643 87.7743 63.3572" stroke="black"/>
</svg>
