<svg width="120" height="160" viewBox="0 0 120 160" fill="none" xmlns="http://www.w3.org/2000/svg">
<path d="M40.4962 5.99613L47.262 3C56.8136 37.0361 67.1612 17.1817 71.1411 3L77.5088 5.99613C76.5537 32.0425 80.958 42.1495 83.2796 43.9472L83.6776 60.326C82.2448 62.4034 81.6213 69.3144 81.4887 72.5103V77.7036L99 152.607C89.6257 152.607 87.0455 153.533 86.8283 154.164L86.8615 154.405C83.3592 158.24 81.953 155.603 81.6877 153.805C75.4791 157.481 70.7431 156.136 69.1511 155.004C70.1063 157.401 69.1511 158 68.5542 158C62.0272 157.84 54.691 155.936 51.8388 155.004C55.3411 154.524 55.686 153.206 55.4207 152.607C51.9184 150.849 48.6549 151.209 47.461 151.608C45.7098 151.928 48.8539 155.204 50.6448 156.802C49.0529 159.598 39.3023 152.607 38.7053 153.006C38.2277 153.326 39.1696 155.27 39.7003 156.202C36.4838 155.058 33.7108 154.22 31.3426 153.618C24.451 151.867 20.9873 152.111 20 152.607L36.9144 77.7036V72.5103C37.2327 67.7165 35.5877 62.39 34.7254 60.326V43.9472C39.9788 43.7874 40.7615 18.5799 40.4962 5.99613Z" fill="#F8F4E9"/>
<path d="M36.9144 72.5103C37.2327 67.7165 35.5877 62.39 34.7254 60.326V43.9472C39.9788 43.7874 40.7615 18.5799 40.4962 5.99613L47.262 3C56.8136 37.0361 67.1612 17.1817 71.1411 3L77.5088 5.99613C76.5537 32.0425 80.958 42.1495 83.2796 43.9472L83.6776 60.326C82.2448 62.4034 81.6213 69.3144 81.4887 72.5103M36.9144 72.5103V77.7036M36.9144 72.5103H81.4887M36.9144 77.7036L20 152.607C20.9873 152.111 24.451 151.867 31.3426 153.618M36.9144 77.7036H81.4887M38.7053 153.006C38.2277 153.326 39.1696 155.27 39.7003 156.202C36.4838 155.058 33.7108 154.22 31.3426 153.618M38.7053 153.006C39.3023 152.607 49.0529 159.598 50.6448 156.802C48.8539 155.204 45.7098 151.928 47.461 151.608M38.7053 153.006L44.0781 91.6856M47.461 151.608C48.6549 151.209 51.9184 150.849 55.4207 152.607M47.461 151.608L49.0529 105.867M55.4207 152.607C55.686 153.206 55.3411 154.524 51.8388 155.004C54.691 155.936 62.0272 157.84 68.5542 158C69.1511 158 70.1063 157.401 69.1511 155.004M55.4207 152.607V151.608L56.6146 88.6894M69.1511 155.004C70.7431 156.136 75.4791 157.481 81.6877 153.805M69.1511 155.004L65.7683 89.4884M81.6877 153.805C81.953 155.603 83.3592 158.24 86.8615 154.405M81.6877 153.805C79.1671 135.762 74.0463 99.2758 73.728 97.6778M86.8615 154.405C86.4635 153.805 88.334 152.607 99 152.607L81.4887 77.7036M86.8615 154.405L81.6877 116.853M81.4887 77.7036V72.5103M38.7053 96.8789C36.848 119.924 32.7753 152.989 31.3426 153.618" stroke="black"/>
</svg>
