<svg width="32" height="32" viewBox="0 0 32 32" fill="none" xmlns="http://www.w3.org/2000/svg">
<circle cx="17" cy="16" r="5" fill="#FFE302"/>
<path d="M17 8.25V9.125" stroke="#FFE302" stroke-width="1.5" stroke-linecap="round"/>
<path d="M11.375 10.375L12 11" stroke="#FFE302" stroke-width="1.5" stroke-linecap="round"/>
<path d="M9.25 16H10.125" stroke="#FFE302" stroke-width="1.5" stroke-linecap="round"/>
<path d="M11.375 21.625L12 21" stroke="#FFE302" stroke-width="1.5" stroke-linecap="round"/>
<path d="M17 23.75V22.875" stroke="#FFE302" stroke-width="1.5" stroke-linecap="round"/>
<path d="M22.625 21.625L22 21" stroke="#FFE302" stroke-width="1.5" stroke-linecap="round"/>
<path d="M24.75 16H23.875" stroke="#FFE302" stroke-width="1.5" stroke-linecap="round"/>
<path d="M22.625 10.375L22 11" stroke="#FFE302" stroke-width="1.5" stroke-linecap="round"/>
<path d="M4.45762 23.5532C5.28516 25.4384 7.88167 29.2058 15.3648 29.2058C22.848 29.2058 24.2217 25.0485 23.9732 22.9699L23.9576 22.9664C23.7604 20.5272 21.7184 18.6092 19.2284 18.6092C18.7112 18.6092 18.2133 18.692 17.7472 18.845C16.8217 16.0313 14.1728 14 11.0494 14C7.15611 14 4 17.1561 4 21.0494C4 21.9312 4.16191 22.7752 4.45762 23.5532Z" fill="#E8F1FF" stroke="#E8F1FF"/>
</svg>
