<svg width="64" height="64" viewBox="0 0 64 64" fill="none" xmlns="http://www.w3.org/2000/svg">
<path d="M25 25C25 30.5228 29.4772 35 35 35C40.5228 35 45 30.5228 45 25C37.5 30 29.375 22.5 35 15C29.4772 15 25 19.4772 25 25Z" fill="#FFE302"/>
<path d="M10.9152 41.1065C12.5703 44.8769 17.7633 52.4117 32.7297 52.4117C47.696 52.4117 50.4435 44.097 49.9464 39.9397L49.9152 39.9328C49.5208 35.0544 45.4368 31.2184 40.4569 31.2184C39.4224 31.2184 38.4265 31.3839 37.4944 31.69C35.6435 26.0627 30.3455 22 24.0987 22C16.3122 22 10 28.3122 10 36.0987C10 37.8623 10.3238 39.5503 10.9152 41.1065Z" fill="#E8F1FF" stroke="#E8F1FF"/>
</svg>
