<svg width="32" height="32" viewBox="0 0 32 32" fill="none" xmlns="http://www.w3.org/2000/svg">
<path d="M4.54915 15.4639C5.5422 17.7261 8.658 22.247 17.6378 22.247C26.6176 22.247 28.2661 17.2582 27.9678 14.7638L27.9491 14.7597C27.7125 11.8326 25.2621 9.53104 22.2741 9.53104C21.6534 9.53104 21.0559 9.63036 20.4967 9.81398C19.3861 6.4376 16.2073 4 12.4592 4C7.78733 4 4 7.78733 4 12.4592C4 13.5174 4.19429 14.5302 4.54915 15.4639Z" fill="#E8F1FF" stroke="#E8F1FF"/>
<path d="M12.4526 25V25.3947M12.4526 28V27.6053M12.4526 25.3947V26.5V27.6053M12.4526 25.3947L12.7684 25.2368M12.4526 25.3947L12.1368 25.2368M12.4526 27.6053L12.7684 27.7632M12.4526 27.6053L12.1368 27.7632" stroke="#19B0EE" stroke-width="0.2" stroke-linecap="round"/>
<path d="M11.1579 27.237L11.4998 27.0397M13.756 25.737L13.4141 25.9344M11.4998 27.0397L12.4569 26.487L13.4141 25.9344M11.4998 27.0397L11.2051 26.8451M11.4998 27.0397L11.5209 27.3921M13.4141 25.9344L13.393 25.582M13.4141 25.9344L13.7088 26.1289" stroke="#19B0EE" stroke-width="0.2" stroke-linecap="round"/>
<path d="M13.7874 27.3103L13.4456 27.1129M11.1893 25.8103L11.5312 26.0077M13.4456 27.1129L12.4884 26.5603L11.5312 26.0077M13.4456 27.1129L13.4244 27.4654M13.4456 27.1129L13.7402 26.9184M11.5312 26.0077L11.2366 26.2022M11.5312 26.0077L11.5523 25.6553" stroke="#19B0EE" stroke-width="0.2" stroke-linecap="round"/>
<path d="M7.45263 23V23.3947M7.45263 26V25.6053M7.45263 23.3947V24.5V25.6053M7.45263 23.3947L7.76842 23.2368M7.45263 23.3947L7.13684 23.2368M7.45263 25.6053L7.76842 25.7632M7.45263 25.6053L7.13684 25.7632" stroke="#19B0EE" stroke-width="0.2" stroke-linecap="round"/>
<path d="M6.1579 25.237L6.49975 25.0397M8.75598 23.737L8.41413 23.9344M6.49975 25.0397L7.45694 24.487L8.41413 23.9344M6.49975 25.0397L6.20512 24.8451M6.49975 25.0397L6.52091 25.3921M8.41413 23.9344L8.39297 23.582M8.41413 23.9344L8.70876 24.1289" stroke="#19B0EE" stroke-width="0.2" stroke-linecap="round"/>
<path d="M8.78742 25.3103L8.44557 25.1129M6.18934 23.8103L6.53119 24.0077M8.44557 25.1129L7.48838 24.5603L6.53119 24.0077M8.44557 25.1129L8.42441 25.4654M8.44557 25.1129L8.7402 24.9184M6.53119 24.0077L6.23656 24.2022M6.53119 24.0077L6.55235 23.6553" stroke="#19B0EE" stroke-width="0.2" stroke-linecap="round"/>
<line x1="19.5" y1="25.5" x2="19.5" y2="28.5" stroke="#19B0EE" stroke-linecap="round"/>
<line x1="16.5" y1="23.5" x2="16.5" y2="26.5" stroke="#19B0EE" stroke-linecap="round"/>
<line x1="22.5" y1="23.5" x2="22.5" y2="26.5" stroke="#19B0EE" stroke-linecap="round"/>
<line x1="25.5" y1="25.5" x2="25.5" y2="28.5" stroke="#19B0EE" stroke-linecap="round"/>
</svg>
