<svg width="32" height="32" viewBox="0 0 32 32" fill="none" xmlns="http://www.w3.org/2000/svg">
<path d="M4.54915 15.4639C5.5422 17.7261 8.658 22.247 17.6378 22.247C26.6176 22.247 28.2661 17.2582 27.9678 14.7638L27.9491 14.7597C27.7125 11.8326 25.2621 9.53104 22.2741 9.53104C21.6534 9.53104 21.0559 9.63036 20.4967 9.81398C19.3861 6.4376 16.2073 4 12.4592 4C7.78733 4 4 7.78733 4 12.4592C4 13.5174 4.19429 14.5302 4.54915 15.4639Z" fill="#E8F1FF" stroke="#E8F1FF"/>
<path d="M9.91722 24V24.7895M9.91722 30V29.2105M9.91722 24.7895V27V29.2105M9.91722 24.7895L10.5488 24.4737M9.91722 24.7895L9.28564 24.4737M9.91722 29.2105L10.5488 29.5263M9.91722 29.2105L9.28564 29.5263" stroke="#308DE2" stroke-width="0.4" stroke-linecap="round"/>
<path d="M7.32777 28.4741L8.01147 28.0794M12.5239 25.4741L11.8402 25.8688M8.01147 28.0794L9.92584 26.9741L11.8402 25.8688M8.01147 28.0794L7.4222 27.6903M8.01147 28.0794L8.05378 28.7842M11.8402 25.8688L11.7979 25.164M11.8402 25.8688L12.4295 26.2579" stroke="#308DE2" stroke-width="0.4" stroke-linecap="round"/>
<path d="M12.5119 28.4399L11.8282 28.0451M7.31578 25.4399L7.99948 25.8346M11.8282 28.0451L9.91386 26.9399L7.99948 25.8346M11.8282 28.0451L11.7859 28.75M11.8282 28.0451L12.4175 27.6561M7.99948 25.8346L7.41021 26.2237M7.99948 25.8346L8.04179 25.1298" stroke="#308DE2" stroke-width="0.4" stroke-linecap="round"/>
<path d="M19 29C19 28 21 24 21 24C21 24 23 28 23 29C23 30 22.1046 31 21 31C19.8954 31 19 30 19 29Z" fill="#308DE2" stroke="#308DE2"/>
</svg>
