<svg width="32" height="32" viewBox="0 0 32 32" fill="none" xmlns="http://www.w3.org/2000/svg">
<path d="M4.54915 15.4639C5.5422 17.7261 8.658 22.247 17.6378 22.247C26.6176 22.247 28.2661 17.2582 27.9678 14.7638L27.9491 14.7597C27.7125 11.8326 25.2621 9.53104 22.2741 9.53104C21.6534 9.53104 21.0559 9.63036 20.4967 9.81398C19.3861 6.4376 16.2073 4 12.4592 4C7.78733 4 4 7.78733 4 12.4592C4 13.5174 4.19429 14.5302 4.54915 15.4639Z" fill="#E8F1FF" stroke="#E8F1FF"/>
<path d="M6 29C6 28 8 24 8 24C8 24 10 28 10 29C10 30 9.10457 31 8 31C6.89543 31 6 30 6 29Z" fill="#308DE2" stroke="#308DE2"/>
<path d="M14 29C14 28 16 24 16 24C16 24 18 28 18 29C18 30 17.1046 31 16 31C14.8954 31 14 30 14 29Z" fill="#308DE2" stroke="#308DE2"/>
<path d="M22 29C22 28 24 24 24 24C24 24 26 28 26 29C26 30 25.1046 31 24 31C22.8954 31 22 30 22 29Z" fill="#308DE2" stroke="#308DE2"/>
</svg>
