<svg width="32" height="32" viewBox="0 0 32 32" fill="none" xmlns="http://www.w3.org/2000/svg">
<path d="M4.54915 15.4639C5.5422 17.7261 8.658 22.247 17.6378 22.247C26.6176 22.247 28.2661 17.2582 27.9678 14.7638L27.9491 14.7597C27.7125 11.8326 25.2621 9.53104 22.2741 9.53104C21.6534 9.53104 21.0559 9.63036 20.4967 9.81398C19.3861 6.4376 16.2073 4 12.4592 4C7.78733 4 4 7.78733 4 12.4592C4 13.5174 4.19429 14.5302 4.54915 15.4639Z" fill="#E8F1FF" stroke="#E8F1FF"/>
<path d="M9 24L8 27M10 29L11 26M14 24L13 27M16 26L15 29M19 24L18 27M21 26L20 29M24 24L23 27" stroke="#19B0EE" stroke-linecap="round"/>
</svg>
