<svg width="32" height="32" viewBox="0 0 32 32" fill="none" xmlns="http://www.w3.org/2000/svg">
<path d="M4.54915 15.4639C5.5422 17.7261 8.658 22.247 17.6378 22.247C26.6176 22.247 28.2661 17.2582 27.9678 14.7638L27.9491 14.7597C27.7125 11.8326 25.2621 9.53104 22.2741 9.53104C21.6534 9.53104 21.0559 9.63036 20.4967 9.81398C19.3861 6.4376 16.2073 4 12.4592 4C7.78733 4 4 7.78733 4 12.4592C4 13.5174 4.19429 14.5302 4.54915 15.4639Z" fill="#E8F1FF" stroke="#E8F1FF"/>
<path d="M8.45263 23V23.3947M8.45263 26V25.6053M8.45263 23.3947V24.5V25.6053M8.45263 23.3947L8.76842 23.2368M8.45263 23.3947L8.13684 23.2368M8.45263 25.6053L8.76842 25.7632M8.45263 25.6053L8.13684 25.7632" stroke="#19B0EE" stroke-width="0.2" stroke-linecap="round"/>
<path d="M7.1579 25.237L7.49975 25.0397M9.75598 23.737L9.41413 23.9344M7.49975 25.0397L8.45694 24.487L9.41413 23.9344M7.49975 25.0397L7.20512 24.8451M7.49975 25.0397L7.52091 25.3921M9.41413 23.9344L9.39297 23.582M9.41413 23.9344L9.70876 24.1289" stroke="#19B0EE" stroke-width="0.2" stroke-linecap="round"/>
<path d="M9.78742 25.3103L9.44557 25.1129M7.18934 23.8103L7.53119 24.0077M9.44557 25.1129L8.48838 24.5603L7.53119 24.0077M9.44557 25.1129L9.42441 25.4654M9.44557 25.1129L9.7402 24.9184M7.53119 24.0077L7.23656 24.2022M7.53119 24.0077L7.55235 23.6553" stroke="#19B0EE" stroke-width="0.2" stroke-linecap="round"/>
<path d="M12.4526 25V25.3947M12.4526 28V27.6053M12.4526 25.3947V26.5V27.6053M12.4526 25.3947L12.7684 25.2368M12.4526 25.3947L12.1368 25.2368M12.4526 27.6053L12.7684 27.7632M12.4526 27.6053L12.1368 27.7632" stroke="#19B0EE" stroke-width="0.2" stroke-linecap="round"/>
<path d="M11.1579 27.237L11.4998 27.0397M13.756 25.737L13.4141 25.9344M11.4998 27.0397L12.4569 26.487L13.4141 25.9344M11.4998 27.0397L11.2051 26.8451M11.4998 27.0397L11.5209 27.3921M13.4141 25.9344L13.393 25.582M13.4141 25.9344L13.7088 26.1289" stroke="#19B0EE" stroke-width="0.2" stroke-linecap="round"/>
<path d="M13.7874 27.3103L13.4456 27.1129M11.1893 25.8103L11.5312 26.0077M13.4456 27.1129L12.4884 26.5603L11.5312 26.0077M13.4456 27.1129L13.4244 27.4654M13.4456 27.1129L13.7402 26.9184M11.5312 26.0077L11.2366 26.2022M11.5312 26.0077L11.5523 25.6553" stroke="#19B0EE" stroke-width="0.2" stroke-linecap="round"/>
<path d="M16.3431 23V23.3947M16.3431 26V25.6053M16.3431 23.3947V24.5V25.6053M16.3431 23.3947L16.6589 23.2368M16.3431 23.3947L16.0273 23.2368M16.3431 25.6053L16.6589 25.7632M16.3431 25.6053L16.0273 25.7632" stroke="#19B0EE" stroke-width="0.2" stroke-linecap="round"/>
<path d="M15.0484 25.237L15.3903 25.0397M17.6465 23.737L17.3046 23.9344M15.3903 25.0397L16.3474 24.487L17.3046 23.9344M15.3903 25.0397L15.0956 24.8451M15.3903 25.0397L15.4114 25.3921M17.3046 23.9344L17.2835 23.582M17.3046 23.9344L17.5993 24.1289" stroke="#19B0EE" stroke-width="0.2" stroke-linecap="round"/>
<path d="M17.6779 25.3103L17.3361 25.1129M15.0798 23.8103L15.4217 24.0077M17.3361 25.1129L16.3789 24.5603L15.4217 24.0077M17.3361 25.1129L17.3149 25.4654M17.3361 25.1129L17.6307 24.9184M15.4217 24.0077L15.1271 24.2022M15.4217 24.0077L15.4429 23.6553" stroke="#19B0EE" stroke-width="0.2" stroke-linecap="round"/>
<path d="M20.4526 25V25.3947M20.4526 28V27.6053M20.4526 25.3947V26.5V27.6053M20.4526 25.3947L20.7684 25.2368M20.4526 25.3947L20.1368 25.2368M20.4526 27.6053L20.7684 27.7632M20.4526 27.6053L20.1368 27.7632" stroke="#19B0EE" stroke-width="0.2" stroke-linecap="round"/>
<path d="M19.1579 27.237L19.4998 27.0397M21.756 25.737L21.4141 25.9344M19.4998 27.0397L20.4569 26.487L21.4141 25.9344M19.4998 27.0397L19.2051 26.8451M19.4998 27.0397L19.5209 27.3921M21.4141 25.9344L21.393 25.582M21.4141 25.9344L21.7088 26.1289" stroke="#19B0EE" stroke-width="0.2" stroke-linecap="round"/>
<path d="M21.7874 27.3103L21.4456 27.1129M19.1893 25.8103L19.5312 26.0077M21.4456 27.1129L20.4884 26.5603L19.5312 26.0077M21.4456 27.1129L21.4244 27.4654M21.4456 27.1129L21.7402 26.9184M19.5312 26.0077L19.2366 26.2022M19.5312 26.0077L19.5523 25.6553" stroke="#19B0EE" stroke-width="0.2" stroke-linecap="round"/>
<path d="M24.2336 23V23.3947M24.2336 26V25.6053M24.2336 23.3947V24.5V25.6053M24.2336 23.3947L24.5494 23.2368M24.2336 23.3947L23.9178 23.2368M24.2336 25.6053L24.5494 25.7632M24.2336 25.6053L23.9178 25.7632" stroke="#19B0EE" stroke-width="0.2" stroke-linecap="round"/>
<path d="M22.9389 25.237L23.2808 25.0397M25.537 23.737L25.1951 23.9344M23.2808 25.0397L24.2379 24.487L25.1951 23.9344M23.2808 25.0397L22.9861 24.8451M23.2808 25.0397L23.3019 25.3921M25.1951 23.9344L25.174 23.582M25.1951 23.9344L25.4898 24.1289" stroke="#19B0EE" stroke-width="0.2" stroke-linecap="round"/>
<path d="M25.5684 25.3103L25.2266 25.1129M22.9703 23.8103L23.3122 24.0077M25.2266 25.1129L24.2694 24.5603L23.3122 24.0077M25.2266 25.1129L25.2054 25.4654M25.2266 25.1129L25.5212 24.9184M23.3122 24.0077L23.0176 24.2022M23.3122 24.0077L23.3334 23.6553" stroke="#19B0EE" stroke-width="0.2" stroke-linecap="round"/>
</svg>
