<svg width="32" height="32" viewBox="0 0 32 32" fill="none" xmlns="http://www.w3.org/2000/svg">
<path d="M4.54915 15.4639C5.5422 17.7261 8.658 22.247 17.6378 22.247C26.6176 22.247 28.2661 17.2582 27.9678 14.7638L27.9491 14.7597C27.7125 11.8326 25.2621 9.53104 22.2741 9.53104C21.6534 9.53104 21.0559 9.63036 20.4967 9.81398C19.3861 6.4376 16.2073 4 12.4592 4C7.78733 4 4 7.78733 4 12.4592C4 13.5174 4.19429 14.5302 4.54915 15.4639Z" fill="#E8F1FF" stroke="#E8F1FF"/>
<path d="M6.91722 24V24.7895M6.91722 30V29.2105M6.91722 24.7895V27V29.2105M6.91722 24.7895L7.5488 24.4737M6.91722 24.7895L6.28564 24.4737M6.91722 29.2105L7.5488 29.5263M6.91722 29.2105L6.28564 29.5263" stroke="#308DE2" stroke-width="0.4" stroke-linecap="round"/>
<path d="M4.32777 28.4741L5.01147 28.0794M9.52392 25.4741L8.84021 25.8688M5.01147 28.0794L6.92584 26.9741L8.84021 25.8688M5.01147 28.0794L4.4222 27.6903M5.01147 28.0794L5.05378 28.7842M8.84021 25.8688L8.79791 25.164M8.84021 25.8688L9.42948 26.2579" stroke="#308DE2" stroke-width="0.4" stroke-linecap="round"/>
<path d="M9.51193 28.4399L8.82823 28.0451M4.31578 25.4399L4.99948 25.8346M8.82823 28.0451L6.91386 26.9399L4.99948 25.8346M8.82823 28.0451L8.78592 28.75M8.82823 28.0451L9.4175 27.6561M4.99948 25.8346L4.41021 26.2237M4.99948 25.8346L5.04179 25.1298" stroke="#308DE2" stroke-width="0.4" stroke-linecap="round"/>
<path d="M16.9172 24V24.7895M16.9172 30V29.2105M16.9172 24.7895V27V29.2105M16.9172 24.7895L17.5488 24.4737M16.9172 24.7895L16.2856 24.4737M16.9172 29.2105L17.5488 29.5263M16.9172 29.2105L16.2856 29.5263" stroke="#308DE2" stroke-width="0.4" stroke-linecap="round"/>
<path d="M14.3278 28.4741L15.0115 28.0794M19.5239 25.4741L18.8402 25.8688M15.0115 28.0794L16.9258 26.9741L18.8402 25.8688M15.0115 28.0794L14.4222 27.6903M15.0115 28.0794L15.0538 28.7842M18.8402 25.8688L18.7979 25.164M18.8402 25.8688L19.4295 26.2579" stroke="#308DE2" stroke-width="0.4" stroke-linecap="round"/>
<path d="M19.5119 28.4399L18.8282 28.0451M14.3158 25.4399L14.9995 25.8346M18.8282 28.0451L16.9139 26.9399L14.9995 25.8346M18.8282 28.0451L18.7859 28.75M18.8282 28.0451L19.4175 27.6561M14.9995 25.8346L14.4102 26.2237M14.9995 25.8346L15.0418 25.1298" stroke="#308DE2" stroke-width="0.4" stroke-linecap="round"/>
<path d="M26.9172 24V24.7895M26.9172 30V29.2105M26.9172 24.7895V27V29.2105M26.9172 24.7895L27.5488 24.4737M26.9172 24.7895L26.2856 24.4737M26.9172 29.2105L27.5488 29.5263M26.9172 29.2105L26.2856 29.5263" stroke="#308DE2" stroke-width="0.4" stroke-linecap="round"/>
<path d="M24.3278 28.4741L25.0115 28.0794M29.5239 25.4741L28.8402 25.8688M25.0115 28.0794L26.9258 26.9741L28.8402 25.8688M25.0115 28.0794L24.4222 27.6903M25.0115 28.0794L25.0538 28.7842M28.8402 25.8688L28.7979 25.164M28.8402 25.8688L29.4295 26.2579" stroke="#308DE2" stroke-width="0.4" stroke-linecap="round"/>
<path d="M29.5119 28.4399L28.8282 28.0451M24.3158 25.4399L24.9995 25.8346M28.8282 28.0451L26.9139 26.9399L24.9995 25.8346M28.8282 28.0451L28.7859 28.75M28.8282 28.0451L29.4175 27.6561M24.9995 25.8346L24.4102 26.2237M24.9995 25.8346L25.0418 25.1298" stroke="#308DE2" stroke-width="0.4" stroke-linecap="round"/>
</svg>
